<svg xmlns="http://www.w3.org/2000/svg" xmlns:xlink="http://www.w3.org/1999/xlink" width="157.039" height="156.458" viewBox="0 0 157.039 156.458">
  <defs>
    <clipPath id="clip-path">
      <rect id="Rectangle_104" data-name="Rectangle 104" width="157.039" height="156.458" fill="#1c1c1c"/>
    </clipPath>
  </defs>
  <g id="Group_743" data-name="Group 743" clip-path="url(#clip-path)">
    <path id="Path_569" data-name="Path 569" d="M153.3,112.785A59.671,59.671,0,1,1,93.632,53.114,59.671,59.671,0,0,1,153.3,112.785" transform="translate(-18.667 -29.194)" fill="#e0ba22"/>
    <path id="Path_570" data-name="Path 570" d="M157.661,136.9a39.913,39.913,0,1,1-39.913-39.913A39.913,39.913,0,0,1,157.661,136.9" transform="translate(-42.782 -53.309)" fill="#e0ba22"/>
    <path id="Path_571" data-name="Path 571" d="M13.2,105.878a6.6,6.6,0,1,1-6.6-6.6,6.6,6.6,0,0,1,6.6,6.6" transform="translate(0 -54.569)" fill="#e0ba22"/>
    <path id="Path_572" data-name="Path 572" d="M106.846,324.713a6.6,6.6,0,1,1-6.6-6.6,6.6,6.6,0,0,1,6.6,6.6" transform="translate(-51.475 -174.852)" fill="#e0ba22"/>
    <path id="Path_573" data-name="Path 573" d="M322.65,125.826a6,6,0,1,1-6-6,6,6,0,0,1,6,6" transform="translate(-170.749 -65.862)" fill="#e0ba22"/>
    <path id="Path_574" data-name="Path 574" d="M241.65,34.115a3,3,0,1,1-3-3,3,3,0,0,1,3,3" transform="translate(-123.525 -10.102)" fill="#e0ba22"/>
    <path id="Path_575" data-name="Path 575" d="M323.846,238.016a6.6,6.6,0,1,1-6.6-6.6,6.6,6.6,0,0,1,6.6,6.6" transform="translate(-170.749 -127.199)" fill="#e0ba22"/>
    <path id="Path_576" data-name="Path 576" d="M116.69,10.3A10.3,10.3,0,1,1,106.385,0a10.3,10.3,0,0,1,10.3,10.3" transform="translate(-52.81)" fill="#e0ba22"/>
    <path id="Path_582" data-name="Path 582" d="M116.69,10.3A10.3,10.3,0,1,1,106.385,0a10.3,10.3,0,0,1,10.3,10.3" transform="translate(27.839 129.251)" fill="#e0ba22"/>
    <path id="Path_581" data-name="Path 581" d="M104.08,4a4,4,0,1,1-4-4,4,4,0,0,1,4,4" transform="translate(-70.81 27.615)" fill="#e0ba22"/>
    <path id="Path_577" data-name="Path 577" d="M20.122,267.851a7.133,7.133,0,1,1-7.133-7.133,7.133,7.133,0,0,1,7.133,7.133" transform="translate(-3.219 -143.304)" fill="#e0ba22"/>
    <path id="Path_578" data-name="Path 578" d="M189.964,15.709a4.477,4.477,0,1,1-4.477-4.477,4.477,4.477,0,0,1,4.477,4.477" transform="translate(-99.493 -6.174)" fill="#e0ba22"/>
    <path id="Path_579" data-name="Path 579" d="M198.069,329.94a4.477,4.477,0,1,1-4.477-4.477,4.477,4.477,0,0,1,4.477,4.477" transform="translate(-103.948 -178.891)" fill="#e0ba22"/>
    <path id="Path_580" data-name="Path 580" d="M150.014,181.066h-19.32a11.592,11.592,0,0,1-8.633-3.235c-2.029-2.116-3.1-5.227-3.1-9V152.047c0-3.772,1.07-6.888,3.1-9a11.609,11.609,0,0,1,8.633-3.235h19.32a11.557,11.557,0,0,1,8.633,3.247c2.025,2.125,3.1,5.271,3.1,9.088h-9.051v.08a7.953,7.953,0,0,0,0,15.891h9.051v.716c0,3.772-1.07,6.884-3.1,9a11.6,11.6,0,0,1-8.632,3.234M129.1,148.73a1.677,1.677,0,0,0-1.635,1.688,1.7,1.7,0,0,0,1.635,1.729h12.075a1.71,1.71,0,0,0,0-3.416ZM160.148,164.7h-7.342a4.555,4.555,0,0,1-4.409-3.655,4.78,4.78,0,0,1,.926-3.787,4.363,4.363,0,0,1,3.371-1.7h7.455a1.636,1.636,0,0,1,1.6,1.669v5.8a1.662,1.662,0,0,1-1.6,1.67ZM153,158.241a1.578,1.578,0,0,0-1.14.489,1.734,1.734,0,0,0-.479,1.2,1.7,1.7,0,0,0,1.635,1.729h.7a1.711,1.711,0,0,0,0-3.418H153Z" transform="translate(-65.388 -76.847)" fill="#282828"/>
  </g>
</svg>
