<svg id="exclamation-mark-in-a-circle" xmlns="http://www.w3.org/2000/svg" width="36.167" height="36.167" viewBox="0 0 36.167 36.167">
  <path id="Path_568" data-name="Path 568" d="M18.083,0A18.083,18.083,0,1,0,36.167,18.083,18.084,18.084,0,0,0,18.083,0Zm0,29.626a2.365,2.365,0,0,1-2.381-2.5,2.365,2.365,0,0,1,2.381-2.5,2.321,2.321,0,0,1,2.381,2.5A2.342,2.342,0,0,1,18.083,29.626Zm.937-9.552c-.36,1.228-1.495,1.249-1.873,0-.436-1.441-1.983-6.909-1.983-10.461,0-4.687,5.863-4.709,5.863,0C21.026,13.186,19.4,18.8,19.021,20.074Z" fill="#fd2424"/>
</svg>
