<svg id="Category_Bike_Component_Additional_Icons" data-name="Category=Bike, Component=Additional Icons" xmlns="http://www.w3.org/2000/svg" width="28" height="28" viewBox="0 0 28 28">
  <rect id="Category_Bike_Component_Additional_Icons-2" data-name="Category=Bike, Component=Additional Icons" width="28" height="28" fill="none"/>
  <path id="Vector" d="M12.25,6.924A8.163,8.163,0,0,1,16.333,14v9.333H11.468a3.5,3.5,0,0,1-6.6,0H0V14A8.163,8.163,0,0,1,4.083,6.924a4.636,4.636,0,0,1-.437-1.093H0V3.5H3.647a4.669,4.669,0,0,1,9.039,0h3.647V5.831H12.686a4.69,4.69,0,0,1-.435,1.093Zm-4.083,8.24A1.167,1.167,0,0,0,7,16.331v5.833a1.167,1.167,0,1,0,2.333,0V16.331a1.167,1.167,0,0,0-1.167-1.167ZM8.167,7a2.333,2.333,0,1,0-1.65-.683A2.333,2.333,0,0,0,8.167,7Z" transform="translate(5.833 1.167)" fill="#35383f"/>
</svg>
