<svg id="Iconly_Light_Calendar" data-name="Iconly/Light/Calendar" xmlns="http://www.w3.org/2000/svg" width="30" height="30" viewBox="0 0 30 30">
  <rect id="Iconly_Light_Calendar-2" data-name="Iconly/Light/Calendar" width="30" height="30" fill="none"/>
  <g id="Calendar" transform="translate(2.47 1.646)">
    <path id="Line_200" d="M0,.473H24.672" transform="translate(0.076 9.324)" fill="none" stroke="#fff" stroke-linecap="round" stroke-linejoin="round" stroke-width="1.5" fill-rule="evenodd"/>
    <path id="Line_201" d="M.459.473H.466" transform="translate(18.078 14.492)" fill="none" stroke="#fff" stroke-linecap="round" stroke-linejoin="round" stroke-width="1.5" fill-rule="evenodd"/>
    <path id="Line_202" d="M.459.473H.466" transform="translate(11.959 14.492)" fill="none" stroke="#fff" stroke-linecap="round" stroke-linejoin="round" stroke-width="1.5" fill-rule="evenodd"/>
    <path id="Line_203" d="M.459.473H.466" transform="translate(5.827 14.492)" fill="none" stroke="#fff" stroke-linecap="round" stroke-linejoin="round" stroke-width="1.5" fill-rule="evenodd"/>
    <path id="Line_204" d="M.459.473H.466" transform="translate(18.078 19.634)" fill="none" stroke="#fff" stroke-linecap="round" stroke-linejoin="round" stroke-width="1.5" fill-rule="evenodd"/>
    <path id="Line_205" d="M.459.473H.466" transform="translate(11.959 19.634)" fill="none" stroke="#fff" stroke-linecap="round" stroke-linejoin="round" stroke-width="1.5" fill-rule="evenodd"/>
    <path id="Line_206" d="M.459.473H.466" transform="translate(5.827 19.634)" fill="none" stroke="#fff" stroke-linecap="round" stroke-linejoin="round" stroke-width="1.5" fill-rule="evenodd"/>
    <path id="Line_207" d="M.463,0V2.709" transform="translate(17.521)" fill="none" stroke="#fff" stroke-linecap="round" stroke-linejoin="round" stroke-width="1.5" fill-rule="evenodd"/>
    <path id="Line_208" d="M.463,0V2.709" transform="translate(6.383)" fill="none" stroke="#fff" stroke-linecap="round" stroke-linejoin="round" stroke-width="1.5" fill-rule="evenodd"/>
    <path id="Path" d="M24.817,6.343V18.808c0,4.108-2.516,6.355-6.578,6.355H6.578C2.529,25.164,0,22.877,0,18.7V6.343C0,2.235,2.529,0,6.578,0H18.252C22.314,0,24.83,2.235,24.817,6.343Z" transform="translate(0 1.3)" fill="none" stroke="#fff" stroke-linecap="round" stroke-linejoin="round" stroke-width="1.5" fill-rule="evenodd"/>
  </g>
</svg>
