<svg xmlns="http://www.w3.org/2000/svg" width="45" height="45" viewBox="0 0 45 45">
  <g id="Calendar_" data-name="Calendar " transform="translate(-132 -510)">
    <g id="Path_205" data-name="Path 205" transform="translate(132 510)" fill="none">
      <path d="M22.5,0A22.5,22.5,0,1,1,0,22.5,22.5,22.5,0,0,1,22.5,0Z" stroke="none"/>
      <path d="M 22.5 2 C 19.73163986206055 2 17.04714012145996 2.541740417480469 14.52108955383301 3.61016845703125 C 12.0802001953125 4.642578125 9.887641906738281 6.120979309082031 8.004310607910156 8.004310607910156 C 6.120979309082031 9.887641906738281 4.642578125 12.0802001953125 3.61016845703125 14.52108955383301 C 2.541740417480469 17.04714012145996 2 19.73163986206055 2 22.5 C 2 25.26836013793945 2.541740417480469 27.95285987854004 3.61016845703125 30.47891044616699 C 4.642578125 32.9197998046875 6.120979309082031 35.11235809326172 8.004310607910156 36.99568939208984 C 9.887641906738281 38.87902069091797 12.0802001953125 40.357421875 14.52108955383301 41.38983154296875 C 17.04714012145996 42.45825958251953 19.73163986206055 43 22.5 43 C 25.26836013793945 43 27.95285987854004 42.45825958251953 30.47891044616699 41.38983154296875 C 32.9197998046875 40.357421875 35.11235809326172 38.87902069091797 36.99568939208984 36.99568939208984 C 38.87902069091797 35.11235809326172 40.357421875 32.9197998046875 41.38983154296875 30.47891044616699 C 42.45825958251953 27.95285987854004 43 25.26836013793945 43 22.5 C 43 19.73163986206055 42.45825958251953 17.04714012145996 41.38983154296875 14.52108955383301 C 40.357421875 12.0802001953125 38.87902069091797 9.887641906738281 36.99568939208984 8.004310607910156 C 35.11235809326172 6.120979309082031 32.9197998046875 4.642578125 30.47891044616699 3.61016845703125 C 27.95285987854004 2.541740417480469 25.26836013793945 2 22.5 2 M 22.5 0 C 34.92641067504883 0 45 10.07358932495117 45 22.5 C 45 34.92641067504883 34.92641067504883 45 22.5 45 C 10.07358932495117 45 0 34.92641067504883 0 22.5 C 0 10.07358932495117 10.07358932495117 0 22.5 0 Z" stroke="none" fill="#fff"/>
    </g>
    <g id="Iconly_Light_Calendar" data-name="Iconly/Light/Calendar" transform="translate(144 522)">
      <rect id="Iconly_Light_Calendar-2" data-name="Iconly/Light/Calendar" width="20" height="20" fill="none"/>
      <g id="Calendar" transform="translate(2.47 1.646)">
        <path id="Line_200" d="M0,.473H14.672" transform="translate(0.076 5.622)" fill="none" stroke="#fff" stroke-linecap="round" stroke-linejoin="round" stroke-width="1.5" fill-rule="evenodd"/>
        <path id="Line_201" d="M.459.473H.466" transform="translate(10.607 8.837)" fill="none" stroke="#fff" stroke-linecap="round" stroke-linejoin="round" stroke-width="1.5" fill-rule="evenodd"/>
        <path id="Line_202" d="M.459.473H.466" transform="translate(6.954 8.837)" fill="none" stroke="#fff" stroke-linecap="round" stroke-linejoin="round" stroke-width="1.5" fill-rule="evenodd"/>
        <path id="Line_203" d="M.459.473H.466" transform="translate(3.293 8.837)" fill="none" stroke="#fff" stroke-linecap="round" stroke-linejoin="round" stroke-width="1.5" fill-rule="evenodd"/>
        <path id="Line_204" d="M.459.473H.466" transform="translate(10.607 12.036)" fill="none" stroke="#fff" stroke-linecap="round" stroke-linejoin="round" stroke-width="1.5" fill-rule="evenodd"/>
        <path id="Line_205" d="M.459.473H.466" transform="translate(6.954 12.036)" fill="none" stroke="#fff" stroke-linecap="round" stroke-linejoin="round" stroke-width="1.5" fill-rule="evenodd"/>
        <path id="Line_206" d="M.459.473H.466" transform="translate(3.293 12.036)" fill="none" stroke="#fff" stroke-linecap="round" stroke-linejoin="round" stroke-width="1.5" fill-rule="evenodd"/>
        <path id="Line_207" d="M.463,0V2.709" transform="translate(10.274)" fill="none" stroke="#fff" stroke-linecap="round" stroke-linejoin="round" stroke-width="1.5" fill-rule="evenodd"/>
        <path id="Line_208" d="M.463,0V2.709" transform="translate(3.624)" fill="none" stroke="#fff" stroke-linecap="round" stroke-linejoin="round" stroke-width="1.5" fill-rule="evenodd"/>
        <path id="Path" d="M14.817,3.822v7.512c0,2.475-1.5,3.83-3.927,3.83H3.927A3.576,3.576,0,0,1,0,11.271V3.822C0,1.347,1.51,0,3.927,0H10.9C13.322,0,14.825,1.347,14.817,3.822Z" transform="translate(0 1.3)" fill="none" stroke="#fff" stroke-linecap="round" stroke-linejoin="round" stroke-width="1.5" fill-rule="evenodd"/>
      </g>
    </g>
  </g>
</svg>
