<svg xmlns="http://www.w3.org/2000/svg" width="40" height="41.383" viewBox="0 0 40 41.383">
  <g id="Call_Icon" data-name="Call Icon" transform="translate(-8.552)">
    <path id="Path_83" data-name="Path 83" d="M58.7,257.729H78.789a.722.722,0,1,0,0-1.445H58.7a.722.722,0,1,0,0,1.445Z" transform="translate(-44.664 -235.689)" fill="#e0ba22"/>
    <path id="Path_84" data-name="Path 84" d="M58.7,294.334H78.789a.722.722,0,1,0,0-1.445H58.7a.722.722,0,1,0,0,1.445Z" transform="translate(-44.664 -269.353)" fill="#e0ba22"/>
    <path id="Path_85" data-name="Path 85" d="M58.7,330.94H75.5a.722.722,0,0,0,0-1.445H58.7a.722.722,0,0,0,0,1.445Z" transform="translate(-44.664 -303.017)" fill="#e0ba22"/>
    <path id="Path_86" data-name="Path 86" d="M48.552,18.869a18.874,18.874,0,0,0-37.152-4.7,4.452,4.452,0,0,0-2.848,4.147V28.73A4.449,4.449,0,0,0,13,33.174h1.339a.606.606,0,1,0,0-1.212H13A3.236,3.236,0,0,1,9.764,28.73V18.318A3.236,3.236,0,0,1,13,15.086H30.168A3.236,3.236,0,0,1,33.4,18.318V28.73a3.236,3.236,0,0,1-3.232,3.232h-3.59a.606.606,0,0,0-.606.606v3.793a.514.514,0,0,1-.848.39L19.7,32.108a.606.606,0,0,0-.394-.146H17.226a.606.606,0,1,0,0,1.212h1.852l5.257,4.5a1.714,1.714,0,0,0,1.117.418,1.736,1.736,0,0,0,.727-.161,1.709,1.709,0,0,0,1-1.568V33.174h2.984a4.449,4.449,0,0,0,4.444-4.444V18.318a4.45,4.45,0,0,0-4.444-4.445H15.35A15.344,15.344,0,0,1,20.491,6.8,15.026,15.026,0,0,1,29.683,3.69,15.174,15.174,0,0,1,44.691,21.136l-.381-.28A2.6,2.6,0,0,0,39.264,19.8L35.6,29.864A2.6,2.6,0,0,0,40.147,32.3l.074,0L39.2,34.849a2.154,2.154,0,0,1-2.007,1.357H34.561a3.322,3.322,0,1,0,0,3.707h2.631a5.844,5.844,0,0,0,5.448-3.683l1.653-4.119a2.8,2.8,0,0,0,1.267-1.481l.6-1.657a.606.606,0,1,0-1.139-.415l-.6,1.657a1.594,1.594,0,0,1-1.592,1.039l-2.141-.139,3.279-9.01L45.7,23.379a1.6,1.6,0,0,1,.552,1.819l-.235.644a.606.606,0,1,0,1.139.415l.235-.645a2.76,2.76,0,0,0,.147-.623,18.841,18.841,0,0,0,1.019-6.121ZM31.805,40.17a2.11,2.11,0,1,1,2.11-2.11A2.112,2.112,0,0,1,31.805,40.17Zm11.038-7.7-1.329,3.31A4.637,4.637,0,0,1,37.192,38.7H35.065a3.31,3.31,0,0,0,0-1.283h2.127A3.361,3.361,0,0,0,40.324,35.3l1.17-2.916,1.256.081c.031,0,.062,0,.092,0Zm.176-11.3L39.356,31.23a1.392,1.392,0,0,1-2.616-.952L40.4,20.215a1.392,1.392,0,0,1,2.616.952Zm2.765.773a16.393,16.393,0,0,0-16.1-19.462,16.229,16.229,0,0,0-9.928,3.356,16.554,16.554,0,0,0-5.684,8.039H13c-.087,0-.174,0-.26.008a17.662,17.662,0,0,1,34.151,8.964,2.757,2.757,0,0,0-.474-.443Z" fill="#e0ba22"/>
  </g>
</svg>
