<svg id="Iconly_Light_Calling" data-name="Iconly/Light/Calling" xmlns="http://www.w3.org/2000/svg" xmlns:xlink="http://www.w3.org/1999/xlink" width="33.523" height="33.523" viewBox="0 0 33.523 33.523">
  <defs>
    <clipPath id="clip-path">
      <rect id="Rectangle_57" data-name="Rectangle 57" width="24" height="24" fill="none" stroke="#e0ba22" stroke-width="1"/>
    </clipPath>
  </defs>
  <rect id="Iconly_Light_Calling-2" data-name="Iconly/Light/Calling" width="24" height="24" transform="translate(6.762 8.762)" fill="none"/>
  <g id="Group_507" data-name="Group 507" transform="matrix(0.809, -0.588, 0.588, 0.809, 0, 14.107)" clip-path="url(#clip-path)">
    <path id="Path_432" data-name="Path 432" d="M2.607,9.532A7.969,7.969,0,0,1,9.647,2.5" fill="none" stroke="#e0ba22" stroke-linecap="round" stroke-linejoin="round" stroke-width="1.5"/>
    <path id="Path_433" data-name="Path 433" d="M6.147,9.543a4.425,4.425,0,0,1,3.5-3.5" fill="none" stroke="#e0ba22" stroke-linecap="round" stroke-linejoin="round" stroke-width="1.5"/>
    <path id="Path_434" data-name="Path 434" d="M14.885,5.037c2.448-2.448,2.931-3.863,6.041-.753.312.388,4.064,2.86-4.612,11.535S5.169,20.736,4.78,20.424c-3.1-3.1-1.7-3.592.754-6.04,2.54-2.538,3.445,2.076,7.434-1.912S12.346,7.576,14.885,5.037Z" fill="none" stroke="#e0ba22" stroke-linecap="round" stroke-linejoin="round" stroke-width="1.5"/>
  </g>
</svg>
