<svg id="Category_Car_Wifi_Component_Additional_Icons" data-name="Category=Car Wifi, Component=Additional Icons" xmlns="http://www.w3.org/2000/svg" width="28" height="28" viewBox="0 0 28 28">
  <rect id="Category_Car_Wifi_Component_Additional_Icons-2" data-name="Category=Car Wifi, Component=Additional Icons" width="28" height="28" fill="none"/>
  <path id="Vector" d="M11.667,2.333V7H5.039l-2.5,5.833h20.8v10.5A1.167,1.167,0,0,1,22.167,24.5H21a1.167,1.167,0,0,1-1.167-1.167V22.167H3.5v1.167A1.167,1.167,0,0,1,2.333,24.5H1.167A1.167,1.167,0,0,1,0,23.333v-10.5L2.893,6.081A2.333,2.333,0,0,1,5.04,4.667H8.167V2.333ZM5.25,15.167a1.75,1.75,0,1,0,1.237.513A1.75,1.75,0,0,0,5.25,15.167Zm12.833,0a1.75,1.75,0,1,0,1.237.513A1.75,1.75,0,0,0,18.083,15.167ZM19.25,0a5.25,5.25,0,1,1-3.712,1.538A5.25,5.25,0,0,1,19.25,0Zm0,6.028a2.33,2.33,0,0,0-1.5.548l-.146.134,1.65,1.651L20.9,6.709a2.326,2.326,0,0,0-1.649-.681Zm0-3.112A5.425,5.425,0,0,0,15.6,4.32l-.2.193,1.1,1.1a3.888,3.888,0,0,1,5.318-.172L22,5.612l1.1-1.1a5.427,5.427,0,0,0-3.85-1.595Z" transform="translate(2.333 2.333)" fill="#35383f"/>
</svg>
