<svg xmlns="http://www.w3.org/2000/svg" xmlns:xlink="http://www.w3.org/1999/xlink" width="57.43" height="37.564" viewBox="0 0 57.43 37.564">
  <defs>
    <clipPath id="clip-path">
      <rect id="Rectangle_101" data-name="Rectangle 101" width="57.43" height="37.564" fill="#fff"/>
    </clipPath>
  </defs>
  <g id="Group_790" data-name="Group 790" transform="translate(0 0)">
    <g id="Group_721" data-name="Group 721" transform="translate(0 0)" clip-path="url(#clip-path)">
      <path id="Path_553" data-name="Path 553" d="M57.43,8.369a3.982,3.982,0,0,0-3.977-3.977h-.171a3.966,3.966,0,0,0-3.672,2.45L48.879,8.6,46.405,2.922A4.859,4.859,0,0,0,41.95,0H34.215a1.221,1.221,0,0,0,0,2.442H41.95A2.417,2.417,0,0,1,44.166,3.9l2.857,6.556H10.607L13.463,3.9A2.417,2.417,0,0,1,15.68,2.445h7.791a1.221,1.221,0,0,0,0-2.442H15.68a4.859,4.859,0,0,0-4.456,2.919L8.648,8.834,7.82,6.842a3.966,3.966,0,0,0-3.672-2.45H3.977a3.977,3.977,0,1,0,0,7.954H6.41L4.4,14.445A5.375,5.375,0,0,0,2.93,18.632l.721,8.214c.005.058.012.116.019.174a4.309,4.309,0,0,0-.027.474v5.787a4.29,4.29,0,0,0,4.285,4.285h2.894a4.291,4.291,0,0,0,4.286-4.285V30.938q6.863.408,13.752.409,6.785,0,13.559-.4v2.333a4.291,4.291,0,0,0,4.286,4.285H49.6a4.29,4.29,0,0,0,4.285-4.285V27.969a2.96,2.96,0,0,0,.066-.4l.785-8.937a5.378,5.378,0,0,0-1.472-4.187h0l-2.009-2.1h2.2A3.982,3.982,0,0,0,57.43,8.369M51.865,7.78a1.531,1.531,0,0,1,1.417-.946h.171a1.535,1.535,0,1,1,0,3.07H50.982ZM40.491,12.9,38.9,17.441a1.806,1.806,0,0,1-1.736.987H20.689a1.814,1.814,0,0,1-1.722-.951l-1.8-4.58ZM2.442,8.369A1.537,1.537,0,0,1,3.977,6.834h.171a1.531,1.531,0,0,1,1.417.946L6.448,9.9H3.977A1.537,1.537,0,0,1,2.442,8.369M12.666,33.282a1.845,1.845,0,0,1-1.844,1.843H7.928a1.845,1.845,0,0,1-1.843-1.843v-3.2a3.824,3.824,0,0,0,1.021.24l.169.016q2.691.253,5.391.442ZM34.8,28.207a.588.588,0,0,1-.588.588h-10.3a.589.589,0,0,1-.588-.588V26.541a.589.589,0,0,1,.588-.588h10.3a.589.589,0,0,1,.588.588Zm16.64,5.075A1.845,1.845,0,0,1,49.6,35.125H46.706a1.846,1.846,0,0,1-1.844-1.843V30.793q3.124-.216,6.238-.516l.111-.011.073-.007q.08-.008.159-.02Zm.86-14.863-.785,8.936a.518.518,0,0,1-.046.173l-.006.011a.511.511,0,0,1-.034.059l-.012.018a.5.5,0,0,1-.047.057l0,0-.007.006a.521.521,0,0,1-.054.046l-.031.02c-.014.009-.029.018-.044.026s-.028.012-.042.018-.029.012-.044.016a.517.517,0,0,1-.094.019h0l-.02,0c-2.483.239-5,.441-7.467.6-.028,0-.055.006-.083.009q-3.138.2-6.284.316a3.056,3.056,0,0,0,.049-.546V26.541a3.034,3.034,0,0,0-3.031-3.031h-10.3a3.034,3.034,0,0,0-3.031,3.031v1.666a3.028,3.028,0,0,0,.053.561q-3.462-.12-6.916-.344l-.056-.006c-2.207-.144-4.424-.32-6.592-.523A1.441,1.441,0,0,1,6.1,26.751c0-.01-.005-.02-.007-.029,0-.03-.009-.059-.012-.089l-.721-8.214a2.933,2.933,0,0,1,.8-2.285l3.1-3.238H14.54l2.154,5.475a4.228,4.228,0,0,0,4,2.5H37.166a4.18,4.18,0,0,0,4.041-2.623L43.078,12.9H48.4l3.1,3.238a2.935,2.935,0,0,1,.8,2.285" transform="translate(0 -0.003)" fill="#fff"/>
      <path id="Path_554" data-name="Path 554" d="M341.637,182.752l-4.84.366a1.221,1.221,0,0,0,.091,2.439c.031,0,.062,0,.094,0l4.84-.366a1.221,1.221,0,1,0-.184-2.435" transform="translate(-294.678 -160.432)" fill="#fff"/>
      <path id="Path_555" data-name="Path 555" d="M83.93,183.118l-4.84-.366a1.221,1.221,0,1,0-.184,2.435l4.84.366c.032,0,.063,0,.094,0a1.221,1.221,0,0,0,.091-2.439" transform="translate(-68.279 -160.432)" fill="#fff"/>
      <path id="Path_556" data-name="Path 556" d="M227.2,1.689a1.241,1.241,0,0,0,.112.21,1.166,1.166,0,0,0,.151.186,1.225,1.225,0,0,0,1.1.335,1.263,1.263,0,0,0,.228-.07,1.238,1.238,0,0,0,.21-.112,1.238,1.238,0,0,0,.338-.338,1.235,1.235,0,0,0,.112-.21,1.3,1.3,0,0,0,.07-.228,1.221,1.221,0,0,0,.023-.239,1.209,1.209,0,0,0-.023-.238,1.221,1.221,0,0,0-2.061-.625,1.166,1.166,0,0,0-.151.186,1.253,1.253,0,0,0-.112.211,1.229,1.229,0,0,0-.07.228,1.2,1.2,0,0,0-.024.238,1.216,1.216,0,0,0,.024.239,1.288,1.288,0,0,0,.07.228" transform="translate(-199.373)" fill="#fff"/>
    </g>
  </g>
</svg>
