<svg xmlns="http://www.w3.org/2000/svg" width="32.695" height="23.5" viewBox="0 0 32.695 23.5">
  <g id="Group_443" data-name="Group 443" transform="translate(-16 -336.5)">
    <g id="owner" transform="translate(16 327.501)">
      <path id="Path_280" data-name="Path 280" d="M31.265,16l-2.809-1.758-2.719-3.885A3.183,3.183,0,0,0,23.132,9H12.771a3.184,3.184,0,0,0-2.745,1.576L7.335,15.188,2.4,16.244A3.014,3.014,0,0,0,.674,17.308,3.063,3.063,0,0,0,0,19.217v4.6a1.5,1.5,0,0,0,.446,1.077,1.5,1.5,0,0,0,1.086.456H2.6A3.568,3.568,0,0,0,8.99,26.975a7.664,7.664,0,0,0,14.716,0A3.568,3.568,0,0,0,30.1,25.347h1.063a1.534,1.534,0,0,0,1.533-1.533V18.706A3.264,3.264,0,0,0,31.265,16ZM20.434,12.576V15.13H16.858V12.576Zm-4.6,2.554H8.552l1.49-2.554h5.794ZM6.13,27.39a2.554,2.554,0,1,1,2.554-2.554A2.557,2.557,0,0,1,6.13,27.39Zm5.691,2.292A4.592,4.592,0,0,1,19.6,27.2a4.529,4.529,0,0,1,1.276,2.477,6.6,6.6,0,0,1-9.052,0Zm2.482-6.89a2.043,2.043,0,1,1,2.043,2.043A2.045,2.045,0,0,1,14.3,22.793Zm12.261,4.6a2.554,2.554,0,1,1,2.554-2.554A2.557,2.557,0,0,1,26.565,27.39Zm4.6-3.065H30.1A3.568,3.568,0,0,0,23.7,22.7a7.649,7.649,0,0,0-1.485-2.793.511.511,0,0,0-.782.657,6.644,6.644,0,0,1,1.555,4.269A6.574,6.574,0,0,1,21.7,28.753a5.594,5.594,0,0,0-3.432-3.574,3.065,3.065,0,1,0-3.842,0,5.6,5.6,0,0,0-3.432,3.574,6.638,6.638,0,0,1,2.5-9.92,6.683,6.683,0,0,1,6.279.313.511.511,0,1,0,.528-.875A7.658,7.658,0,0,0,8.994,22.7a3.568,3.568,0,0,0-6.4,1.623H1.533a.5.5,0,0,1-.364-.156.49.49,0,0,1-.147-.355V19.728H2.554a.511.511,0,1,0,0-1.022H1.1a2.046,2.046,0,0,1,.375-.758,2,2,0,0,1,1.144-.7l5.1-1.092H20.945a.511.511,0,0,0,.511-.511V12.066a.511.511,0,0,0-.511-.511H10.639l.27-.463a2.157,2.157,0,0,1,1.863-1.07H23.13a2.161,2.161,0,0,1,1.77.922L27.738,15l2.986,1.87a2.155,2.155,0,0,1,.886,1.329h-1.47a.511.511,0,0,0,0,1.022h1.533v4.6a.511.511,0,0,1-.511.511Z" fill="#e0ba22"/>
      <circle id="Ellipse_33" data-name="Ellipse 33" cx="1" cy="1" r="1" transform="translate(5 23.999)" fill="#e0ba22"/>
      <circle id="Ellipse_34" data-name="Ellipse 34" cx="1" cy="1" r="1" transform="translate(26 23.999)" fill="#e0ba22"/>
    </g>
  </g>
</svg>
