<svg xmlns="http://www.w3.org/2000/svg" width="19" height="39.41" viewBox="0 0 19 39.41">
  <g id="low-charge" transform="translate(-132.578)">
    <path id="Path_212" data-name="Path 212" d="M148.569,4.54h-1.237V2.108A2.111,2.111,0,0,0,145.223,0h-6.289a2.111,2.111,0,0,0-2.108,2.108V4.54h-1.238a3.013,3.013,0,0,0-3.01,3.01V8.876a.577.577,0,0,0,1.155,0V7.549a1.857,1.857,0,0,1,1.855-1.855h12.981a1.857,1.857,0,0,1,1.855,1.855V36.4a1.857,1.857,0,0,1-1.855,1.855H135.588a1.857,1.857,0,0,1-1.855-1.855V11.57a.577.577,0,1,0-1.155,0V36.4a3.013,3.013,0,0,0,3.01,3.01h12.981a3.013,3.013,0,0,0,3.01-3.01V7.549A3.013,3.013,0,0,0,148.569,4.54ZM137.98,2.108a.955.955,0,0,1,.954-.954h6.289a.955.955,0,0,1,.954.954V4.54h-8.2Z" transform="translate(0)" fill="#fff"/>
    <path id="Path_213" data-name="Path 213" d="M168.6,415.6v1.525a1.626,1.626,0,0,0,1.623,1.624h7.085a.577.577,0,1,0,0-1.155h-7.085a.47.47,0,0,1-.469-.47V415.6a.47.47,0,0,1,.469-.47h10.208a.47.47,0,0,1,.469.47v1.525a.47.47,0,0,1-.469.47H180a.577.577,0,0,0,0,1.155h.429a1.626,1.626,0,0,0,1.623-1.624V415.6a1.626,1.626,0,0,0-1.623-1.624H170.222A1.626,1.626,0,0,0,168.6,415.6Z" transform="translate(-33.248 -382.112)" fill="#fff"/>
    <path id="Path_214" data-name="Path 214" d="M226.106,129.042a.577.577,0,0,0,.577-.577v-1.323a1.826,1.826,0,0,0-1.824-1.824h-1.686a1.826,1.826,0,0,0-1.824,1.824v9.251a1.827,1.827,0,0,0,1.824,1.825h1.686a1.827,1.827,0,0,0,1.824-1.825v-5.234a.577.577,0,0,0-1.155,0v5.234a.671.671,0,0,1-.67.67h-1.686a.671.671,0,0,1-.67-.67v-9.251a.67.67,0,0,1,.67-.67h1.686a.67.67,0,0,1,.67.67v1.323A.577.577,0,0,0,226.106,129.042Z" transform="translate(-81.938 -115.671)" fill="#fff"/>
    <path id="Path_215" data-name="Path 215" d="M224.014,315.322a2.667,2.667,0,1,0-2.667-2.667A2.67,2.67,0,0,0,224.014,315.322Zm0-4.18a1.513,1.513,0,1,1-1.513,1.513A1.514,1.514,0,0,1,224.014,311.142Z" transform="translate(-81.936 -286.126)" fill="#fff"/>
  </g>
</svg>
