<svg id="Iconly_Bold_Chat" data-name="Iconly/Bold/Chat" xmlns="http://www.w3.org/2000/svg" width="32" height="32" viewBox="0 0 32 32">
  <rect id="Iconly_Bold_Chat-2" data-name="Iconly/Bold/Chat" width="32" height="32" fill="none"/>
  <g id="Group">
    <path id="Exclude" d="M16,29.334A13.268,13.268,0,0,1,9.44,27.6a2.894,2.894,0,0,0-1.476-.565,1.619,1.619,0,0,0-.511.085l-2.693.8a1.009,1.009,0,0,1-.3.047.827.827,0,0,1-.667-.319.862.862,0,0,1-.125-.77l.894-2.992a1.394,1.394,0,0,0-.094-1.2,14.094,14.094,0,0,1-1.8-6.664,13.267,13.267,0,0,1,1-5.05A13.461,13.461,0,0,1,6.442,6.71,13.328,13.328,0,0,1,29.334,15.98a13.516,13.516,0,0,1-1.153,5.562,12.8,12.8,0,0,1-3.033,4.2A13.66,13.66,0,0,1,16,29.334Zm6.12-15.009a1.709,1.709,0,1,0,1.706,1.709A1.71,1.71,0,0,0,22.12,14.324Zm-6.171,0a1.691,1.691,0,0,0-1.682,1.7,1.706,1.706,0,1,0,1.706-1.7h-.024Zm-6.122,0a1.709,1.709,0,1,0,1.706,1.709A1.71,1.71,0,0,0,9.827,14.324Z" fill="#35383f"/>
  </g>
</svg>
