<svg id="Iconly_Bold_Tick_Square" data-name="Iconly/Bold/Tick Square" xmlns="http://www.w3.org/2000/svg" width="24" height="24" viewBox="0 0 24 24">
  <rect id="Iconly_Bold_Tick_Square-2" data-name="Iconly/Bold/Tick Square" width="24" height="24" fill="none"/>
  <g id="Tick_Square" data-name="Tick Square">
    <path id="Tick_Square-2" data-name="Tick Square" d="M16.34,22H7.67C4.278,22,2,19.625,2,16.091V7.92C2,4.379,4.278,2,7.67,2H16.34C19.726,2,22,4.379,22,7.92v8.171C22,19.625,19.726,22,16.34,22ZM8.44,11.125a.875.875,0,0,0-.62,1.495l2.38,2.37a.881.881,0,0,0,1.23,0l4.75-4.749A.877.877,0,0,0,14.94,9l-4.13,4.13L9.06,11.38A.872.872,0,0,0,8.44,11.125Z" fill="#e0ba22"/>
  </g>
</svg>
