<svg xmlns="http://www.w3.org/2000/svg" width="79.904" height="80" viewBox="0 0 79.904 80">
  <g id="Group_132" data-name="Group 132" transform="translate(-30.127 -37.467)">
    <g id="Group_132-2" data-name="Group 132" transform="translate(66.668 37.467)">
      <path id="Path_13" data-name="Path 13" d="M149.97,37.649a4.034,4.034,0,1,1-2.815,4.539A4.054,4.054,0,0,1,149.97,37.649Zm.306,2.406a1.692,1.692,0,1,0,2.549,1.481A1.7,1.7,0,0,0,150.277,40.055Z" transform="translate(-147.09 -37.467)" fill="#9e9e9e"/>
    </g>
    <g id="Group_133" data-name="Group 133" transform="translate(53.088 42.826)">
      <path id="Path_14" data-name="Path 14" d="M106.676,54.754a4.034,4.034,0,1,1-3,4.505A4.061,4.061,0,0,1,106.676,54.754Zm.25,2.39a1.69,1.69,0,1,0,2.4,1.831A1.7,1.7,0,0,0,106.925,57.144Z" transform="translate(-103.62 -54.619)" fill="#9e9e9e"/>
    </g>
    <path id="Path_15" data-name="Path 15" d="M186.005,56.5a8.816,8.816,0,0,1,8.591,2.337,1.187,1.187,0,0,1-.9,1.946c-.519,0-.85-.475-1.247-.737a6.456,6.456,0,0,0-7.054-.819,16.939,16.939,0,0,0-2.043,1.453c-1.009.54-2.074-.915-1.393-1.753A8.549,8.549,0,0,1,186.005,56.5Z" transform="translate(-104.247 -12.876)" fill="#9e9e9e"/>
    <path id="Path_16" data-name="Path 16" d="M194.6,71.785a4.023,4.023,0,0,1,4.077,1.222,1.2,1.2,0,0,1-1.081,1.825c-.669-.153-1.131-.812-1.84-.837-.737-.069-1.256.544-1.884.806a1.2,1.2,0,0,1-1.347-1.606A3.545,3.545,0,0,1,194.6,71.785Z" transform="translate(-111.598 -23.501)" fill="#9e9e9e"/>
    <path id="Path_17" data-name="Path 17" d="M156.937,73.567a1.172,1.172,0,1,1-.056,2.059A1.182,1.182,0,0,1,156.937,73.567Z" transform="translate(-86.756 -24.731)" fill="#9e9e9e"/>
    <path id="Path_18" data-name="Path 18" d="M57.4,85.548a8.781,8.781,0,0,1,8.838,2.365c.715.765-.234,2.09-1.184,1.84a4.492,4.492,0,0,1-1.143-.8,6.425,6.425,0,0,0-7.651-.3,14.718,14.718,0,0,1-1.475,1.09c-1,.306-1.984-1.093-1.215-1.871A8.718,8.718,0,0,1,57.4,85.548Z" transform="translate(-15.927 -32.815)" fill="#9e9e9e"/>
    <g id="Group_134" data-name="Group 134" transform="translate(93.376 52.671)">
      <path id="Path_19" data-name="Path 19" d="M235.046,86.46a4.034,4.034,0,1,1-2.312,4.8A4.055,4.055,0,0,1,235.046,86.46Zm.9,2.162a1.691,1.691,0,1,0,2.356,1.687A1.7,1.7,0,0,0,235.948,88.622Z" transform="translate(-232.576 -86.133)" fill="#9e9e9e"/>
    </g>
    <path id="Path_20" data-name="Path 20" d="M156.832,88.568a1.169,1.169,0,1,1-.034,2.078A1.176,1.176,0,0,1,156.832,88.568Z" transform="translate(-86.677 -35.048)" fill="#9e9e9e"/>
    <g id="Group_135" data-name="Group 135" transform="translate(30.127 54.105)">
      <path id="Path_21" data-name="Path 21" d="M78.275,91.887a1.13,1.13,0,0,1,1.178-1.147c3.021-.031,6.042-.013,9.063-.009a1.182,1.182,0,0,1,1.34,1.159c.047,1.5,0,2.993.012,4.489.8-.053,2.031.078,2.024,1.14.028,3.44.041,6.883-.006,10.319.022,1.375-2.265,1.228-2.324-.022q.009-4.532.006-9.063H78.559v52.977h11.01c-.009-12.644.019-25.29-.016-37.934.019-1.275,2.312-1.334,2.331-.019.069,3.705.006,7.417.028,11.128,4.077.012,8.154-.028,12.231.016a1.164,1.164,0,0,1,1.118,1.322q.019,12.742,0,25.487c1.29.028,2.584-.062,3.874.041a1.187,1.187,0,0,1,.553,1.993c-.291.328-.762.284-1.153.309H33.524a18.97,18.97,0,0,1-2.7-.075,1.183,1.183,0,0,1,.2-2.228c1.709-.1,3.424-.009,5.136-.041.037-1.568-.081-3.14.05-4.7a1.19,1.19,0,0,1,2.224-.091c.162,1.59.022,3.2.069,4.792H49.51V117.084H38.5c-.006,7.967.009,15.933-.009,23.9a1.175,1.175,0,0,1-1.737,1.143c-.7-.309-.59-1.165-.6-1.787.034-8.195-.037-16.393.034-24.587.078-1.062,1.322-1.062,2.115-1.034a7.055,7.055,0,0,1,1.006-4.546,6.17,6.17,0,0,1,3.53-2.4c.025-2.577-.062-5.158.037-7.735a1.157,1.157,0,0,1,2.262-.016c.1,2.581.012,5.171.037,7.754a5.978,5.978,0,0,1,3.98,3.193,7.945,7.945,0,0,1,.556,3.752c.734.022,1.806-.1,2.074.809.169,1.528.019,3.074.069,4.611h11.01c.006-4.633-.009-9.266.006-13.9a1.206,1.206,0,0,1,1.3-1.375c4.015-.019,8.029,0,12.044-.006.041-2.54-.075-5.083.053-7.617.231-.9,1.268-.84,1.99-.859C78.278,94.883,78.225,93.384,78.275,91.887ZM80.6,93.068v3.346q3.463,0,6.926,0,0-1.673,0-3.346Q84.065,93.073,80.6,93.068ZM65.206,107.2v44.529h11.01q0-22.264,0-44.532Q70.71,107.2,65.206,107.2Zm-23.691,3.936c-.937.947-.9,2.34-.875,3.571h6.726c.012-1.175.075-2.493-.759-3.433A3.374,3.374,0,0,0,41.516,111.139Zm10.338,11.341v29.252h11.01v-2.262c-1.759-.019-3.518.044-5.274-.019a1.16,1.16,0,0,1-1.125-1.287c-.016-7.1,0-14.193-.006-21.291a1.206,1.206,0,0,1,1.125-1.44c1.759-.05,3.521,0,5.28-.016v-2.937Zm40.058,4.767v24.484h11.013q0-12.241,0-24.484Zm-33.11.512v19.37h4.061V127.756Q60.829,127.756,58.8,127.759Z" transform="translate(-30.127 -90.723)" fill="#9e9e9e"/>
    </g>
    <path id="Path_22" data-name="Path 22" d="M113.313,91.207a1.173,1.173,0,1,1,.072,1.953A1.18,1.18,0,0,1,113.313,91.207Z" transform="translate(-56.866 -36.797)" fill="#9e9e9e"/>
    <path id="Path_23" data-name="Path 23" d="M66.065,100.835a3.982,3.982,0,0,1,4.311,1.278,1.191,1.191,0,0,1-1.337,1.675c-.619-.281-1.153-.881-1.89-.787-.606.056-1.05.528-1.581.778a1.179,1.179,0,0,1-1.312-1.743A3.771,3.771,0,0,1,66.065,100.835Z" transform="translate(-23.331 -43.444)" fill="#9e9e9e"/>
    <path id="Path_24" data-name="Path 24" d="M157.023,103.461a1.173,1.173,0,1,1-.728,1.884A1.183,1.183,0,0,1,157.023,103.461Z" transform="translate(-86.577 -45.361)" fill="#9e9e9e"/>
    <path id="Path_25" data-name="Path 25" d="M113.307,106.21a1.172,1.172,0,1,1,.078,1.946A1.182,1.182,0,0,1,113.307,106.21Z" transform="translate(-56.867 -47.111)" fill="#9e9e9e"/>
    <path id="Path_26" data-name="Path 26" d="M156.646,118.533a1.171,1.171,0,1,1-.269,2A1.176,1.176,0,0,1,156.646,118.533Z" transform="translate(-86.506 -55.671)" fill="#9e9e9e"/>
    <path id="Path_27" data-name="Path 27" d="M242.27,120.206a1.173,1.173,0,1,1,.05,1.943A1.185,1.185,0,0,1,242.27,120.206Z" transform="translate(-145.531 -56.738)" fill="#9e9e9e"/>
    <path id="Path_28" data-name="Path 28" d="M113.317,121.206a1.172,1.172,0,1,1,.266,2.049A1.182,1.182,0,0,1,113.317,121.206Z" transform="translate(-56.868 -57.426)" fill="#9e9e9e"/>
    <path id="Path_29" data-name="Path 29" d="M192.953,127.587a1.166,1.166,0,1,1-.047,2.093A1.221,1.221,0,0,1,192.953,127.587Z" transform="translate(-111.532 -61.88)" fill="#9e9e9e"/>
    <path id="Path_30" data-name="Path 30" d="M206.652,127.54a1.159,1.159,0,0,1,1.515,1.44,1.141,1.141,0,0,1-1.793.6A1.226,1.226,0,0,1,206.652,127.54Z" transform="translate(-120.892 -61.87)" fill="#9e9e9e"/>
    <path id="Path_31" data-name="Path 31" d="M242.258,135.211a1.173,1.173,0,1,1,.072,1.943A1.183,1.183,0,0,1,242.258,135.211Z" transform="translate(-145.529 -67.052)" fill="#9e9e9e"/>
    <path id="Path_32" data-name="Path 32" d="M113.308,136.212a1.173,1.173,0,1,1,.266,2.04A1.182,1.182,0,0,1,113.308,136.212Z" transform="translate(-56.868 -67.74)" fill="#9e9e9e"/>
    <path id="Path_33" data-name="Path 33" d="M192.681,143.3a1.142,1.142,0,0,1,1.865.494,1.16,1.16,0,0,1-1.34,1.525A1.213,1.213,0,0,1,192.681,143.3Z" transform="translate(-111.532 -72.559)" fill="#9e9e9e"/>
    <path id="Path_34" data-name="Path 34" d="M206.382,143.215a1.141,1.141,0,0,1,1.784.587,1.16,1.16,0,0,1-1.243,1.525A1.206,1.206,0,0,1,206.382,143.215Z" transform="translate(-120.893 -72.552)" fill="#9e9e9e"/>
    <path id="Path_35" data-name="Path 35" d="M242.27,150.206a1.173,1.173,0,1,1,.072,1.956A1.183,1.183,0,0,1,242.27,150.206Z" transform="translate(-145.531 -77.366)" fill="#9e9e9e"/>
    <path id="Path_36" data-name="Path 36" d="M113.294,151.217a1.174,1.174,0,1,1,.072,1.934A1.183,1.183,0,0,1,113.294,151.217Z" transform="translate(-56.863 -78.053)" fill="#9e9e9e"/>
    <path id="Path_37" data-name="Path 37" d="M150.236,153.217a1.2,1.2,0,0,1,1.84,1.181q.009,17.817,0,35.634a1.188,1.188,0,1,1-2.337.009c-.012-11.772.006-23.544-.009-35.316C149.733,154.192,149.714,153.536,150.236,153.217Z" transform="translate(-82.237 -79.437)" fill="#9e9e9e"/>
    <path id="Path_38" data-name="Path 38" d="M164.219,153.239a1.176,1.176,0,0,1,1.787.575,19.272,19.272,0,0,1,.066,2.477q-.014,16.885-.006,33.766a1.187,1.187,0,1,1-2.337-.013c-.012-11.775.006-23.55-.009-35.325C163.723,154.2,163.71,153.555,164.219,153.239Z" transform="translate(-91.852 -79.453)" fill="#9e9e9e"/>
    <path id="Path_39" data-name="Path 39" d="M192.972,158.581a1.164,1.164,0,1,1-.069,2.1A1.214,1.214,0,0,1,192.972,158.581Z" transform="translate(-111.53 -83.198)" fill="#9e9e9e"/>
    <path id="Path_40" data-name="Path 40" d="M206.655,158.548a1.169,1.169,0,1,1-.037,2.181A1.216,1.216,0,0,1,206.655,158.548Z" transform="translate(-120.898 -83.193)" fill="#9e9e9e"/>
    <path id="Path_41" data-name="Path 41" d="M242.275,165.2a1.173,1.173,0,1,1,.053,1.953A1.183,1.183,0,0,1,242.275,165.2Z" transform="translate(-145.53 -87.681)" fill="#9e9e9e"/>
    <path id="Path_42" data-name="Path 42" d="M113.3,166.21a1.174,1.174,0,1,1,.056,1.934A1.183,1.183,0,0,1,113.3,166.21Z" transform="translate(-56.863 -88.366)" fill="#9e9e9e"/>
    <path id="Path_43" data-name="Path 43" d="M192.674,174.3a1.146,1.146,0,0,1,1.868.475,1.163,1.163,0,0,1-1.331,1.54A1.213,1.213,0,0,1,192.674,174.3Z" transform="translate(-111.531 -93.872)" fill="#9e9e9e"/>
    <path id="Path_44" data-name="Path 44" d="M206.374,174.223a1.143,1.143,0,0,1,1.8.59,1.158,1.158,0,0,1-1.256,1.512A1.207,1.207,0,0,1,206.374,174.223Z" transform="translate(-120.895 -93.869)" fill="#9e9e9e"/>
    <path id="Path_45" data-name="Path 45" d="M242.265,180.206a1.174,1.174,0,1,1,.059,1.946A1.185,1.185,0,0,1,242.265,180.206Z" transform="translate(-145.529 -97.994)" fill="#9e9e9e"/>
    <path id="Path_46" data-name="Path 46" d="M63.589,185.642c1.831-.159,3.69-.075,5.53-.05a1.159,1.159,0,0,1,.2,2.256c-1.406.147-2.824.016-4.236.066-.653-.05-1.475.159-1.962-.406A1.176,1.176,0,0,1,63.589,185.642Z" transform="translate(-22.489 -101.817)" fill="#9e9e9e"/>
    <path id="Path_47" data-name="Path 47" d="M192.961,189.6a1.131,1.131,0,0,1,1.621.812,1.153,1.153,0,0,1-1.409,1.387A1.206,1.206,0,0,1,192.961,189.6Z" transform="translate(-111.537 -104.523)" fill="#9e9e9e"/>
    <path id="Path_48" data-name="Path 48" d="M206.652,189.551a1.168,1.168,0,1,1-.05,2.174A1.214,1.214,0,0,1,206.652,189.551Z" transform="translate(-120.895 -104.511)" fill="#9e9e9e"/>
    <path id="Path_49" data-name="Path 49" d="M63.588,201.669c1.837-.147,3.7-.069,5.539-.044a1.16,1.16,0,0,1,.187,2.256c-1.406.147-2.827.016-4.243.069-.647-.053-1.459.147-1.946-.406A1.175,1.175,0,0,1,63.588,201.669Z" transform="translate(-22.485 -112.843)" fill="#9e9e9e"/>
    <path id="Path_50" data-name="Path 50" d="M192.673,205.3a1.148,1.148,0,0,1,1.868.469,1.165,1.165,0,0,1-1.334,1.546A1.214,1.214,0,0,1,192.673,205.3Z" transform="translate(-111.531 -115.187)" fill="#9e9e9e"/>
    <path id="Path_51" data-name="Path 51" d="M206.375,205.224a1.14,1.14,0,0,1,1.79.581,1.156,1.156,0,0,1-1.265,1.518A1.2,1.2,0,0,1,206.375,205.224Z" transform="translate(-120.893 -115.185)" fill="#9e9e9e"/>
    <path id="Path_52" data-name="Path 52" d="M63.648,217.666c1.828-.147,3.677-.072,5.511-.044a1.161,1.161,0,0,1,.2,2.259c-1.812.116-3.637.059-5.452.031A1.165,1.165,0,0,1,63.648,217.666Z" transform="translate(-22.529 -123.842)" fill="#9e9e9e"/>
    <path id="Path_53" data-name="Path 53" d="M234.274,217.648c1.821-.084,3.658-.075,5.483,0a1.155,1.155,0,0,1-.022,2.265c-1.809.062-3.63.069-5.439-.006A1.16,1.16,0,0,1,234.274,217.648Z" transform="translate(-139.763 -123.848)" fill="#9e9e9e"/>
    <path id="Path_54" data-name="Path 54" d="M192.984,220.593a1.136,1.136,0,0,1,1.609.85,1.158,1.158,0,0,1-1.418,1.362A1.207,1.207,0,0,1,192.984,220.593Z" transform="translate(-111.538 -125.84)" fill="#9e9e9e"/>
    <path id="Path_55" data-name="Path 55" d="M206.663,220.546a1.169,1.169,0,1,1-.053,2.181A1.214,1.214,0,0,1,206.663,220.546Z" transform="translate(-120.896 -125.824)" fill="#9e9e9e"/>
    <path id="Path_56" data-name="Path 56" d="M63.639,233.7c1.831-.147,3.683-.066,5.517-.044a1.161,1.161,0,0,1,.216,2.256c-1.809.128-3.637.062-5.449.034A1.166,1.166,0,0,1,63.639,233.7Z" transform="translate(-22.529 -134.868)" fill="#9e9e9e"/>
    <path id="Path_57" data-name="Path 57" d="M234.276,233.683c1.831-.078,3.674-.075,5.5,0a1.158,1.158,0,0,1-.053,2.265c-1.806.066-3.621.072-5.424-.006A1.157,1.157,0,0,1,234.276,233.683Z" transform="translate(-139.761 -134.875)" fill="#9e9e9e"/>
    <path id="Path_58" data-name="Path 58" d="M192.669,236.3a1.147,1.147,0,0,1,1.874.466,1.166,1.166,0,0,1-1.343,1.543A1.217,1.217,0,0,1,192.669,236.3Z" transform="translate(-111.532 -136.504)" fill="#9e9e9e"/>
    <path id="Path_59" data-name="Path 59" d="M206.375,236.223a1.142,1.142,0,0,1,1.79.572,1.158,1.158,0,0,1-1.256,1.531A1.208,1.208,0,0,1,206.375,236.223Z" transform="translate(-120.896 -136.499)" fill="#9e9e9e"/>
    <path id="Path_60" data-name="Path 60" d="M63.6,249.707c1.825-.156,3.671-.072,5.5-.047a1.16,1.16,0,0,1,.222,2.259c-1.412.137-2.84.013-4.258.063-.653-.05-1.475.156-1.956-.412A1.179,1.179,0,0,1,63.6,249.707Z" transform="translate(-22.486 -145.87)" fill="#9e9e9e"/>
    <path id="Path_61" data-name="Path 61" d="M234.264,249.682c1.828-.087,3.671-.078,5.5,0a1.156,1.156,0,0,1-.022,2.262c-1.815.063-3.637.069-5.449,0A1.16,1.16,0,0,1,234.264,249.682Z" transform="translate(-139.759 -145.873)" fill="#9e9e9e"/>
    <path id="Path_62" data-name="Path 62" d="M192.976,251.575a1.166,1.166,0,1,1-.081,2.1A1.218,1.218,0,0,1,192.976,251.575Z" transform="translate(-111.53 -147.14)" fill="#9e9e9e"/>
    <path id="Path_63" data-name="Path 63" d="M206.65,251.549a1.167,1.167,0,1,1-.047,2.171A1.214,1.214,0,0,1,206.65,251.549Z" transform="translate(-120.896 -147.139)" fill="#9e9e9e"/>
    <path id="Path_64" data-name="Path 64" d="M63.653,265.735c1.825-.141,3.668-.069,5.5-.041a1.161,1.161,0,0,1,.222,2.256c-1.812.122-3.643.062-5.461.031A1.163,1.163,0,0,1,63.653,265.735Z" transform="translate(-22.527 -156.895)" fill="#9e9e9e"/>
    <path id="Path_65" data-name="Path 65" d="M234.268,265.714c1.828-.084,3.668-.078,5.492-.006a1.156,1.156,0,0,1-.016,2.262c-1.809.069-3.633.075-5.442,0A1.158,1.158,0,0,1,234.268,265.714Z" transform="translate(-139.76 -156.896)" fill="#9e9e9e"/>
    <path id="Path_66" data-name="Path 66" d="M192.683,267.29a1.143,1.143,0,0,1,1.862.494,1.161,1.161,0,0,1-1.337,1.528A1.212,1.212,0,0,1,192.683,267.29Z" transform="translate(-111.531 -157.816)" fill="#9e9e9e"/>
    <path id="Path_67" data-name="Path 67" d="M206.387,267.212a1.142,1.142,0,0,1,1.781.587,1.159,1.159,0,0,1-1.25,1.525A1.206,1.206,0,0,1,206.387,267.212Z" transform="translate(-120.895 -157.813)" fill="#9e9e9e"/>
  </g>
</svg>
