<svg id="Label_Header" data-name="Label Header" xmlns="http://www.w3.org/2000/svg" width="28" height="28" viewBox="0 0 28 28">
  <g id="Iconly_Light-Outline_Arrow_-_Left" data-name="Iconly/Light-Outline/Arrow - Left">
    <rect id="Iconly_Light-Outline_Arrow_-_Left-2" data-name="Iconly/Light-Outline/Arrow - Left" width="28" height="28" fill="none"/>
    <g id="Layer_1" transform="translate(-2 -2)">
      <g id="Group_626" data-name="Group 626">
        <path id="Path_483" data-name="Path 483" d="M7.382,27.026A13.988,13.988,0,0,0,25.692,26.1,14,14,0,1,0,2,16,13.894,13.894,0,0,0,7.382,27.026ZM16,4a12,12,0,0,1,0,24A12.013,12.013,0,0,1,4,16,12.014,12.014,0,0,1,16,4Z" fill="#fff"/>
        <path id="Path_484" data-name="Path 484" d="M10.343,21.657a1,1,0,0,0,1.414,0L16,17.414l4.243,4.243a1,1,0,1,0,1.414-1.414L17.414,16l4.243-4.243a1,1,0,0,0-1.414-1.414L16,14.586l-4.243-4.243a1,1,0,0,0-1.414,1.414L14.586,16l-4.243,4.243a1,1,0,0,0,0,1.414Z" fill="#fff"/>
      </g>
    </g>
  </g>
</svg>
