<svg id="Iconly_Bold_Close_Square" data-name="Iconly/Bold/Close Square" xmlns="http://www.w3.org/2000/svg" width="24" height="24" viewBox="0 0 24 24">
  <rect id="Iconly_Bold_Close_Square-2" data-name="Iconly/Bold/Close Square" width="24" height="24" fill="none"/>
  <g id="Close_Square" data-name="Close Square" transform="translate(2 1.999)">
    <path id="Close_Square-2" data-name="Close Square" d="M14.34,20H5.67C2.279,20,0,17.625,0,14.091V5.92C0,2.379,2.279,0,5.67,0h8.67C17.725,0,20,2.379,20,5.92v8.171C20,17.625,17.725,20,14.34,20ZM10,11.231h0L11.78,13a.828.828,0,0,0,.61.261.876.876,0,0,0,.62-1.49l-1.78-1.78,1.78-1.78a.878.878,0,0,0,0-1.239.865.865,0,0,0-.616-.256.89.89,0,0,0-.624.256L10,8.75,8.22,6.971A.89.89,0,0,0,7.6,6.715a.877.877,0,0,0-.616,1.5L8.76,9.991,6.98,11.761A.876.876,0,1,0,8.22,13L10,11.231Z" transform="translate(0 0.001)" fill="#fd2424"/>
  </g>
</svg>
