<svg id="exclamation-mark-in-a-circle" xmlns="http://www.w3.org/2000/svg" width="65" height="65" viewBox="0 0 65 65">
  <path id="Path_568" data-name="Path 568" d="M32.5,0A32.5,32.5,0,1,0,65,32.5,32.5,32.5,0,0,0,32.5,0Zm0,53.246a4.25,4.25,0,0,1-4.279-4.5,4.251,4.251,0,0,1,4.279-4.5,4.172,4.172,0,0,1,4.279,4.5A4.21,4.21,0,0,1,32.5,53.246Zm1.685-17.168c-.647,2.207-2.687,2.245-3.366,0-.783-2.589-3.564-12.418-3.564-18.8,0-8.423,10.538-8.464,10.538,0C37.789,23.7,34.859,33.781,34.185,36.078Z" fill="#e0ba22"/>
</svg>
