<svg xmlns="http://www.w3.org/2000/svg" width="25" height="25.864" viewBox="0 0 25 25.864">
  <g id="call" transform="translate(-8.552)">
    <path id="Path_83" data-name="Path 83" d="M58.29,256.91H67a.313.313,0,0,0,0-.626H58.29a.313.313,0,0,0,0,.626Z" transform="translate(-47.361 -243.27)" fill="#fff"/>
    <path id="Path_84" data-name="Path 84" d="M58.29,293.515H67a.313.313,0,0,0,0-.626H58.29a.313.313,0,0,0,0,.626Z" transform="translate(-47.361 -278.016)" fill="#fff"/>
    <path id="Path_85" data-name="Path 85" d="M58.29,330.121h7.285a.313.313,0,0,0,0-.626H58.29a.313.313,0,0,0,0,.626Z" transform="translate(-47.361 -312.763)" fill="#fff"/>
    <path id="Path_86" data-name="Path 86" d="M33.552,11.793a11.8,11.8,0,0,0-23.22-2.937,2.782,2.782,0,0,0-1.78,2.592v6.507a2.781,2.781,0,0,0,2.778,2.778h.837a.379.379,0,1,0,0-.758H11.33a2.022,2.022,0,0,1-2.02-2.02V11.449a2.023,2.023,0,0,1,2.02-2.02H22.062a2.022,2.022,0,0,1,2.02,2.02v6.507a2.022,2.022,0,0,1-2.02,2.02H19.818a.379.379,0,0,0-.379.379v2.37a.321.321,0,0,1-.53.244l-3.392-2.9a.379.379,0,0,0-.246-.091h-1.3a.379.379,0,1,0,0,.758h1.157l3.286,2.811a1.071,1.071,0,0,0,.7.261,1.085,1.085,0,0,0,.454-.1,1.068,1.068,0,0,0,.628-.98V20.734h1.865a2.781,2.781,0,0,0,2.778-2.778V11.449a2.781,2.781,0,0,0-2.778-2.778H12.8a9.59,9.59,0,0,1,3.213-4.422,9.392,9.392,0,0,1,5.745-1.942,9.484,9.484,0,0,1,9.38,10.9l-.238-.175a1.628,1.628,0,0,0-3.154-.66l-2.289,6.29A1.628,1.628,0,0,0,28.3,20.186l.046,0-.639,1.592a1.346,1.346,0,0,1-1.255.848H24.807a2.076,2.076,0,1,0,0,2.317h1.644a3.652,3.652,0,0,0,3.4-2.3L30.89,20.07a1.749,1.749,0,0,0,.792-.926l.377-1.036a.379.379,0,1,0-.712-.259l-.377,1.036a1,1,0,0,1-.995.65l-1.338-.087,2.05-5.631,1.081.794a1,1,0,0,1,.345,1.137l-.147.4a.379.379,0,1,0,.712.259l.147-.4a1.725,1.725,0,0,0,.092-.389,11.776,11.776,0,0,0,.637-3.825ZM23.085,25.106A1.318,1.318,0,1,1,24.4,23.788,1.32,1.32,0,0,1,23.085,25.106Zm6.9-4.813-.83,2.069a2.9,2.9,0,0,1-2.7,1.826H25.122a2.068,2.068,0,0,0,0-.8h1.329a2.1,2.1,0,0,0,1.958-1.324l.731-1.823.785.051Zm.11-7.064L27.8,19.519a.87.87,0,0,1-1.635-.6l2.289-6.29a.87.87,0,0,1,1.635.6Zm1.728.483A10.245,10.245,0,0,0,21.759,1.549a10.143,10.143,0,0,0-6.2,2.1A10.346,10.346,0,0,0,12,8.671H11.33c-.055,0-.109,0-.162.005a11.039,11.039,0,0,1,21.344,5.6,1.724,1.724,0,0,0-.3-.277Z" fill="#fff"/>
  </g>
</svg>
