<svg xmlns="http://www.w3.org/2000/svg" width="26" height="17" viewBox="0 0 26 17">
  <g id="credit-card" transform="translate(0 -85.334)">
    <path id="Path_438" data-name="Path 438" d="M0,213.289v6.858a3.543,3.543,0,0,0,3.508,3.576H22.492A3.543,3.543,0,0,0,26,220.147v-6.858a.616.616,0,0,0-.61-.622H.61A.616.616,0,0,0,0,213.289Zm6.492,4.353H4.864a1.089,1.089,0,0,1,0-2.177H6.492a1.089,1.089,0,0,1,0,2.177Z" transform="translate(0 -121.389)" fill="#fff"/>
    <path id="Path_439" data-name="Path 439" d="M26,89.135V88.91a3.543,3.543,0,0,0-3.508-3.576H3.508A3.543,3.543,0,0,0,0,88.91v.225a.616.616,0,0,0,.61.622H25.39a.616.616,0,0,0,.61-.622Z" transform="translate(0)" fill="#fff"/>
  </g>
</svg>
