<svg xmlns="http://www.w3.org/2000/svg" width="26.5" height="17.655" viewBox="0 0 26.5 17.655">
  <g id="credit-card" transform="translate(0 -85.334)">
    <path id="Path_438" data-name="Path 438" d="M0,213.289v6.858a3.576,3.576,0,0,0,3.576,3.576H22.924a3.576,3.576,0,0,0,3.576-3.576v-6.858a.622.622,0,0,0-.622-.622H.622A.622.622,0,0,0,0,213.289Zm6.616,4.353H4.958a1.088,1.088,0,0,1,0-2.177H6.616a1.088,1.088,0,0,1,0,2.177Z" transform="translate(0 -120.734)" fill="#fff"/>
    <path id="Path_439" data-name="Path 439" d="M26.5,89.135V88.91a3.576,3.576,0,0,0-3.576-3.576H3.576A3.576,3.576,0,0,0,0,88.91v.225a.622.622,0,0,0,.622.622H25.878a.622.622,0,0,0,.622-.622Z" fill="#fff"/>
  </g>
</svg>
