<svg xmlns="http://www.w3.org/2000/svg" width="141" height="141" viewBox="0 0 141 141">
  <g id="Group_391" data-name="Group 391" transform="translate(-771 -302.176)">
    <path id="Path_146" data-name="Path 146" d="M841.5,302.176a70.5,70.5,0,0,0-47.907,122.216c4.277-20.244,24.1-35.554,47.907-35.554s43.63,15.309,47.907,35.554A70.5,70.5,0,0,0,841.5,302.176Z" transform="translate(0)" fill="#1c1c1c"/>
    <path id="Path_147" data-name="Path 147" d="M875.587,340.676c-15.236,0-27.587,15.844-27.587,35.389s12.351,27.03,27.587,27.03,27.587-7.485,27.587-27.03S890.823,340.676,875.587,340.676Z" transform="translate(-34.087 -17.044)" fill="#fff"/>
    <path id="Path_148" data-name="Path 148" d="M859.446,457.676c-23.81,0-43.63,15.309-47.907,35.554a70.483,70.483,0,0,0,95.814,0C903.076,472.985,883.255,457.676,859.446,457.676Z" transform="translate(-17.946 -68.838)" fill="#fff"/>
  </g>
</svg>
