<svg xmlns="http://www.w3.org/2000/svg" width="30" height="35.747" viewBox="0 0 30 35.747">
  <g id="car-door" transform="translate(-41.156)">
    <path id="Path_206" data-name="Path 206" d="M65.678,0H52.494A5.49,5.49,0,0,0,47.51,3.206l-5.794,12.71a6.206,6.206,0,0,0-.53,3.173,34.2,34.2,0,0,0,2.379,9.887A13.51,13.51,0,0,0,46.806,33.7a7.844,7.844,0,0,0,5.345,2.048H70.633a.524.524,0,0,0,.524-.524V5.478A5.484,5.484,0,0,0,65.678,0ZM42.668,16.35,48.462,3.64a4.441,4.441,0,0,1,4.031-2.593H65.678a4.436,4.436,0,0,1,4.431,4.431V25.2H43.351a38.043,38.043,0,0,1-1.123-6.216,5.158,5.158,0,0,1,.44-2.637ZM52.151,34.7c-3.265,0-5.831-2.068-7.629-6.147-.069-.158-.136-.316-.2-.476H65.656a.524.524,0,1,0,0-1.047H43.922q-.137-.388-.261-.779H70.109v.779H67.748a.524.524,0,0,0,0,1.047h2.361V34.7Z" transform="translate(0)" fill="#fff"/>
    <path id="Path_207" data-name="Path 207" d="M107.75,54.817h15.131c1.49,0,2.7-2,2.7-4.467v-11c0-2.4-1.183-4.357-2.637-4.357H111.492c-1.029,0-1.971,1-2.4,2.55l-.368,1.334a1,1,0,0,0,.225,1c.229.172.5.006.6-.372l.368-1.334c.281-1.015.9-1.671,1.572-1.671h11.454c.952,0,1.727,1.28,1.727,2.853v11c0,1.634-.8,2.963-1.792,2.963H107.75c-.448,0-.844-.357-1.086-.98a3.315,3.315,0,0,1-.089-2.041l2.223-8.058a1,1,0,0,0-.225-1c-.229-.172-.5-.006-.6.372l-2.223,8.058a5.729,5.729,0,0,0,.152,3.478C106.306,54.193,107,54.817,107.75,54.817Z" transform="translate(-57.935 -31.482)" fill="#fff"/>
    <path id="Path_208" data-name="Path 208" d="M291.32,254.107h-7.145a2.866,2.866,0,1,0,0,5.733h7.145a2.866,2.866,0,1,0,0-5.733Zm0,4.229h-7.145a1.362,1.362,0,1,1,0-2.725h7.145a1.362,1.362,0,1,1,0,2.725Z" transform="translate(-229.155 -237.338)" fill="#fff"/>
  </g>
</svg>
