<svg id="Iconly_Bold_Arrow_-_Down_2" data-name="Iconly/Bold/Arrow - Down 2" xmlns="http://www.w3.org/2000/svg" width="20" height="20" viewBox="0 0 20 20">
  <rect id="Iconly_Bold_Arrow_-_Down_2-2" data-name="Iconly/Bold/Arrow - Down 2" width="20" height="20" fill="none"/>
  <g id="Iconly_Bold_Arrow_-_Down_2-3" data-name="Iconly/Bold/Arrow - Down 2">
    <rect id="Iconly_Bold_Arrow_-_Down_2-4" data-name="Iconly/Bold/Arrow - Down 2" width="20" height="20" fill="none"/>
    <g id="Group">
      <path id="Vector" d="M4.057,8.026c-.048-.047-.255-.225-.425-.39A18.075,18.075,0,0,1,.279,2.806,3.847,3.847,0,0,1,0,1.823a1.611,1.611,0,0,1,.182-.746A1.562,1.562,0,0,1,.935.415,8.2,8.2,0,0,1,1.822.2,19.982,19.982,0,0,1,4.993,0,23.1,23.1,0,0,1,8.068.178,7.079,7.079,0,0,1,9.173.462,1.488,1.488,0,0,1,10,1.776v.047a4.066,4.066,0,0,1-.341,1.1A18.075,18.075,0,0,1,6.354,7.647a4.716,4.716,0,0,1-.462.4,1.486,1.486,0,0,1-.887.284,1.562,1.562,0,0,1-.948-.308Z" 
      transform="translate(5 5.833)" fill="#fff"/>
    </g>
  </g>
</svg>