<svg id="Group_815" data-name="Group 815" xmlns="http://www.w3.org/2000/svg" xmlns:xlink="http://www.w3.org/1999/xlink" width="45" height="55.134" viewBox="0 0 45 55.134">
  <defs>
    <clipPath id="clip-path">
      <rect id="Rectangle_114" data-name="Rectangle 114" width="45" height="55.134" fill="#e0ba22"/>
    </clipPath>
  </defs>
  <g id="Group_814" data-name="Group 814" clip-path="url(#clip-path)">
    <path id="Path_649" data-name="Path 649" d="M235.225,92.347a1.811,1.811,0,0,0-1.315-.569h-4.652a1.8,1.8,0,0,0-1.8,1.916l1.038,16.668a1.807,1.807,0,0,0,1.8,1.692h2.576a1.807,1.807,0,0,0,1.8-1.692l1.038-16.668a1.811,1.811,0,0,0-.486-1.348m-2.164,17.915a.189.189,0,0,1-.189.177H230.3a.189.189,0,0,1-.189-.177l-1.038-16.668a.189.189,0,0,1,.189-.2h4.652a.189.189,0,0,1,.189.2Z" transform="translate(-209.084 -84.366)" fill="#e0ba22"/>
    <path id="Path_650" data-name="Path 650" d="M235.978,388.142a3.744,3.744,0,1,0,3.744,3.744,3.748,3.748,0,0,0-3.744-3.744m0,5.873a2.129,2.129,0,1,1,2.129-2.129,2.131,2.131,0,0,1-2.129,2.129" transform="translate(-213.478 -356.795)" fill="#e0ba22"/>
    <path id="Path_651" data-name="Path 651" d="M.808,17.142a.808.808,0,0,0,.808-.808V10.891a9.286,9.286,0,0,1,9.276-9.276H34.109a9.286,9.286,0,0,1,9.276,9.276V25.655a.808.808,0,1,0,1.615,0V10.891A10.9,10.9,0,0,0,34.109,0H10.891A10.9,10.9,0,0,0,0,10.891v5.443a.808.808,0,0,0,.808.808" fill="#e0ba22"/>
    <path id="Path_652" data-name="Path 652" d="M44.193,241.569a.808.808,0,0,0-.808.808v6.664a9.286,9.286,0,0,1-9.276,9.276H28.146a2.181,2.181,0,0,0-1.992,1.295l-3.138,7.064a.564.564,0,0,1-1.031,0l-3.138-7.064a2.181,2.181,0,0,0-1.992-1.295H10.892a9.286,9.286,0,0,1-9.276-9.276V233.056a.808.808,0,0,0-1.615,0v15.985a10.9,10.9,0,0,0,10.891,10.891h5.963a.565.565,0,0,1,.516.335l3.138,7.064a2.18,2.18,0,0,0,3.984,0l3.138-7.063a.565.565,0,0,1,.516-.335H34.11A10.9,10.9,0,0,0,45,249.041v-6.664a.808.808,0,0,0-.808-.808" transform="translate(-0.001 -213.491)" fill="#e0ba22"/>
  </g>
</svg>
