<svg id="Group_817" data-name="Group 817" xmlns="http://www.w3.org/2000/svg" xmlns:xlink="http://www.w3.org/1999/xlink" width="45" height="45.73" viewBox="0 0 45 45.73">
  <defs>
    <clipPath id="clip-path">
      <rect id="Rectangle_115" data-name="Rectangle 115" width="45" height="45.73" fill="#e0ba22"/>
    </clipPath>
  </defs>
  <g id="Group_816" data-name="Group 816" clip-path="url(#clip-path)">
    <path id="Path_653" data-name="Path 653" d="M9.016,39.534A21.159,21.159,0,0,1,32.445,4.553l-2.969.729a.672.672,0,1,0,.321,1.3l4.3-1.055c.164.107.326.216.485.327a.672.672,0,0,0,.768-1.1c-.2-.141-.411-.279-.619-.415L32.539.349A.672.672,0,1,0,31.361,1L32.5,3.069a22.5,22.5,0,0,0-24.339,37.5.672.672,0,1,0,.857-1.034" transform="translate(0 0)" fill="#e0ba22"/>
    <path id="Path_654" data-name="Path 654" d="M125.379,462.073A21.087,21.087,0,0,1,114,458.757a.672.672,0,1,0-.723,1.132,22.427,22.427,0,0,0,12.1,3.527.672.672,0,1,0,0-1.343" transform="translate(-102.879 -417.686)" fill="#e0ba22"/>
    <path id="Path_655" data-name="Path 655" d="M403.959,68.432c.218.188.436.383.646.58a.672.672,0,0,0,.917-.982c-.224-.209-.455-.416-.687-.616a.672.672,0,0,0-.876,1.018" transform="translate(-367.666 -61.245)" fill="#e0ba22"/>
    <path id="Path_656" data-name="Path 656" d="M449.813,120.986c.157.242.31.49.456.738a.672.672,0,0,0,1.157-.683c-.155-.263-.319-.527-.485-.785a.672.672,0,0,0-1.128.73" transform="translate(-409.539 -109.235)" fill="#e0ba22"/>
    <path id="Path_657" data-name="Path 657" d="M478.906,184.332c.081.276.157.557.227.836a.672.672,0,0,0,.651.509.656.656,0,0,0,.163-.02.672.672,0,0,0,.489-.814c-.074-.3-.156-.6-.242-.89a.672.672,0,1,0-1.288.379" transform="translate(-436.106 -167.083)" fill="#e0ba22"/>
    <path id="Path_658" data-name="Path 658" d="M486.894,217.725a.671.671,0,0,0-.57.76c.04.285.076.575.105.862a.672.672,0,0,0,.667.6.658.658,0,0,0,.068,0,.672.672,0,0,0,.6-.736c-.031-.3-.068-.613-.112-.916a.672.672,0,0,0-.76-.57" transform="translate(-442.881 -198.273)" fill="#e0ba22"/>
    <path id="Path_659" data-name="Path 659" d="M466.65,151.612c.12.261.236.529.345.8a.672.672,0,0,0,.622.417.664.664,0,0,0,.255-.051.671.671,0,0,0,.366-.876c-.116-.283-.24-.568-.368-.846a.672.672,0,1,0-1.22.561" transform="translate(-424.914 -137.203)" fill="#e0ba22"/>
    <path id="Path_660" data-name="Path 660" d="M429.326,93.738a.672.672,0,1,0,1.047-.841c-.192-.239-.392-.477-.592-.707a.672.672,0,1,0-1.012.883c.189.216.376.44.557.665" transform="translate(-390.322 -83.746)" fill="#e0ba22"/>
    <path id="Path_661" data-name="Path 661" d="M423.366,413.573a.671.671,0,0,0-.948.063c-.19.217-.387.433-.585.641a.672.672,0,0,0,.974.925c.21-.221.419-.451.622-.682a.672.672,0,0,0-.063-.948" transform="translate(-383.988 -376.482)" fill="#e0ba22"/>
    <path id="Path_662" data-name="Path 662" d="M463.433,354.773a.672.672,0,0,0-.891.329c-.121.262-.248.525-.38.782a.672.672,0,1,0,1.2.612c.14-.273.276-.553.4-.832a.672.672,0,0,0-.329-.891" transform="translate(-420.816 -323.029)" fill="#e0ba22"/>
    <path id="Path_663" data-name="Path 663" d="M445.454,385.54a.672.672,0,0,0-.929.2c-.157.242-.321.484-.487.719a.672.672,0,1,0,1.1.777c.177-.25.352-.507.519-.764a.672.672,0,0,0-.2-.929" transform="translate(-404.265 -351.006)" fill="#e0ba22"/>
    <path id="Path_664" data-name="Path 664" d="M476.905,321.923a.672.672,0,0,0-.834.454c-.082.275-.17.553-.263.827a.672.672,0,1,0,1.272.433c.1-.291.193-.586.279-.88a.671.671,0,0,0-.454-.834" transform="translate(-433.277 -293.145)" fill="#e0ba22"/>
    <path id="Path_665" data-name="Path 665" d="M489.266,252.688h0a.671.671,0,0,0-.672.672c0,.289-.006.581-.018.868a.672.672,0,0,0,.644.7h.028a.672.672,0,0,0,.671-.644c.013-.3.019-.615.019-.922a.672.672,0,0,0-.671-.672" transform="translate(-444.938 -230.119)" fill="#e0ba22"/>
    <path id="Path_666" data-name="Path 666" d="M268.8,494.772c-.285.038-.575.072-.862.1A.672.672,0,0,0,268,496.21c.021,0,.042,0,.063,0,.305-.028.614-.063.917-.1a.672.672,0,0,0-.179-1.331" transform="translate(-243.454 -450.575)" fill="#e0ba22"/>
    <path id="Path_667" data-name="Path 667" d="M396.688,438.244c-.219.188-.444.374-.669.551a.672.672,0,1,0,.832,1.054c.24-.189.479-.386.712-.586a.672.672,0,0,0-.875-1.019" transform="translate(-360.415 -398.954)" fill="#e0ba22"/>
    <path id="Path_668" data-name="Path 668" d="M485.566,287.656a.671.671,0,0,0-.76.569c-.041.285-.089.573-.141.856a.672.672,0,0,0,.538.783.688.688,0,0,0,.124.011.672.672,0,0,0,.66-.549c.056-.3.106-.608.15-.911a.672.672,0,0,0-.569-.76" transform="translate(-441.366 -261.957)" fill="#e0ba22"/>
    <path id="Path_669" data-name="Path 669" d="M336.518,475.641c-.262.118-.53.232-.8.338a.672.672,0,1,0,.5,1.247c.283-.114.568-.235.847-.36a.672.672,0,0,0-.551-1.225" transform="translate(-305.352 -433.104)" fill="#e0ba22"/>
    <path id="Path_670" data-name="Path 670" d="M303.26,487.627c-.277.079-.559.153-.839.221a.672.672,0,0,0,.157,1.325.665.665,0,0,0,.158-.019c.3-.072.6-.151.892-.235a.672.672,0,0,0-.368-1.292" transform="translate(-274.941 -444.05)" fill="#e0ba22"/>
    <path id="Path_671" data-name="Path 671" d="M367.861,459.059c-.242.154-.491.305-.74.45a.672.672,0,1,0,.674,1.162c.265-.154.53-.315.787-.478a.672.672,0,1,0-.721-1.134" transform="translate(-334.026 -417.961)" fill="#e0ba22"/>
    <path id="Path_672" data-name="Path 672" d="M62.08,172.2a21.69,21.69,0,0,0,10.387,4.815,10.3,10.3,0,0,0,1.6.126l.139,0,.131,0c3.935,0,8.175-1.708,12.26-4.94a32.468,32.468,0,0,0,5.019-4.909.671.671,0,0,0,0-.827,32.469,32.469,0,0,0-5.019-4.909c-4.086-3.232-8.325-4.941-12.26-4.941l-.151,0-.119,0a10.255,10.255,0,0,0-1.6.126,21.691,21.691,0,0,0-10.388,4.815,32.455,32.455,0,0,0-5.018,4.909.671.671,0,0,0,0,.827A32.472,32.472,0,0,0,62.08,172.2M72.694,158.06a13.132,13.132,0,0,1,1.5-.1,8.906,8.906,0,0,1,7.766,4.749.672.672,0,0,0,1.187-.629,10.3,10.3,0,0,0-1.558-2.192,25.953,25.953,0,0,1,4.155,2.7,33,33,0,0,1,4.475,4.288,30.93,30.93,0,0,1-8.648,7,10.266,10.266,0,0,0,2.553-9.083.672.672,0,1,0-1.316.271,8.927,8.927,0,0,1-8.581,10.73,12.973,12.973,0,0,1-1.542-.106,8.92,8.92,0,0,1,.01-17.625m-6.612,2.379a10.24,10.24,0,0,0,0,12.871,26.877,26.877,0,0,1-3.146-2.149,32.963,32.963,0,0,1-4.475-4.288,31.728,31.728,0,0,1,7.618-6.434" transform="translate(-51.835 -142.622)" fill="#e0ba22"/>
    <path id="Path_673" data-name="Path 673" d="M196.4,224.119a5.156,5.156,0,0,0,4.743-7.174.672.672,0,0,0-1.083-.222,1.216,1.216,0,0,1-1.8-1.626.671.671,0,0,0-.329-1.055,5.155,5.155,0,1,0-1.532,10.077m0-8.966q.176,0,.35.016a2.562,2.562,0,0,0,3.392,3.065,3.812,3.812,0,1,1-3.742-3.08" transform="translate(-174.164 -194.713)" fill="#e0ba22"/>
    <path id="Path_674" data-name="Path 674" d="M57.145,189.668a38.38,38.38,0,0,1,3.193-2.766.672.672,0,0,0-.821-1.063,39.649,39.649,0,0,0-3.306,2.863.672.672,0,1,0,.934.966" transform="translate(-51.004 -169.113)" fill="#e0ba22"/>
    <path id="Path_675" data-name="Path 675" d="M146.293,133.941a35.672,35.672,0,0,0-7.173-5.44,20.618,20.618,0,0,0-10.114-2.922,21.631,21.631,0,0,0-11.755,3.919.672.672,0,1,0,.733,1.126,20.325,20.325,0,0,1,11.022-3.7,19.3,19.3,0,0,1,9.454,2.749,34.8,34.8,0,0,1,6.9,5.237.672.672,0,0,0,.933-.967" transform="translate(-106.5 -114.363)" fill="#e0ba22"/>
  </g>
</svg>
