<svg id="Group_809" data-name="Group 809" xmlns="http://www.w3.org/2000/svg" xmlns:xlink="http://www.w3.org/1999/xlink" width="43" height="40.706" viewBox="0 0 43 40.706">
  <defs>
    <clipPath id="clip-path">
      <rect id="Rectangle_112" data-name="Rectangle 112" width="43" height="40.706" fill="#e0ba22"/>
    </clipPath>
  </defs>
  <g id="Group_808" data-name="Group 808" clip-path="url(#clip-path)">
    <path id="Path_639" data-name="Path 639" d="M42.255,30.855H39.7V28.922h.061a.746.746,0,0,0,.745-.745V25.319a.746.746,0,0,0-.745-.745H39.7V23.059h.061a.746.746,0,0,0,.745-.745V19.456a.746.746,0,0,0-.745-.745H39.7V17.281a.746.746,0,0,0-.745-.745H37a.746.746,0,0,0-.745.745v1.431h-.567a.63.63,0,0,0,0,1.26h3.555V21.8H19.161V19.971H32.748a.63.63,0,0,0,0-1.26h-10.6V17.281c0-.024,0-.048,0-.072a11.761,11.761,0,0,0,1.331-4.9,1.946,1.946,0,0,0,.336-.21,8.76,8.76,0,0,1,10.777,0,1.949,1.949,0,0,0,1.2.411A1.964,1.964,0,0,0,37.005,9a12.736,12.736,0,0,0-14.122-.993,11.683,11.683,0,0,0-1.3-2.676.63.63,0,1,0-1.055.689A10.423,10.423,0,0,1,21.786,8.71q-.2.141-.388.289a1.963,1.963,0,0,0,.808,3.472,10.5,10.5,0,0,1-1.131,4.064H19.452a.746.746,0,0,0-.745.745v1.431h-.061a.746.746,0,0,0-.745.745v.779A10.47,10.47,0,0,1,13.9,22.011l-.2-7.637,3.638-2.6a1.735,1.735,0,0,0,.495-2.288l-.006-.011a1.745,1.745,0,0,0-2.38-.637L13.571,9.913l-.086-3.2a1.742,1.742,0,0,0-3.483,0l-.2,7.309L7.294,12.573a1.744,1.744,0,0,0-2.379.636l-.007.013A1.735,1.735,0,0,0,5.4,15.509l4.282,3.063-.092,3.439A10.487,10.487,0,1,1,18.726,3.92a.63.63,0,1,0,.839-.94A11.746,11.746,0,1,0,9.559,23.288l-.083,3.1c-.008.317-.019.646-.031.977a.63.63,0,0,0,1.259.045c.012-.335.022-.667.031-.988l.1-3.641v0l.121-4.506a.63.63,0,0,0-.263-.529L6.136,14.485A.48.48,0,0,1,6,13.853l.007-.013a.482.482,0,0,1,.659-.177l3.429,1.98a.63.63,0,0,0,.945-.529l.224-8.366a.482.482,0,0,1,.964,0L12.34,11a.63.63,0,0,0,.945.529l2.782-1.606a.483.483,0,0,1,.66.177l.006.011a.48.48,0,0,1-.137.633l-3.91,2.8a.63.63,0,0,0-.263.529l.33,12.347A106.9,106.9,0,0,0,13.9,39.446H9.584c.45-2.984.776-6.021.97-9.033A.63.63,0,0,0,9.3,30.333c-.2,3.094-.54,6.214-1.012,9.276a.628.628,0,0,0-.007.1,1,1,0,0,0,1,1H14.21a1,1,0,0,0,1-1,.628.628,0,0,0-.007-.1,105.612,105.612,0,0,1-1.192-13.223l-.083-3.1A11.725,11.725,0,0,0,17.9,21.75v.565a.746.746,0,0,0,.745.745h.061v1.515h-.061a.746.746,0,0,0-.745.745v2.858a.746.746,0,0,0,.745.745h.061v1.932H16.149a.746.746,0,0,0-.745.745v2.3a.746.746,0,0,0,.745.745h.18v5.316a.746.746,0,0,0,.745.745h1.952a.746.746,0,0,0,.745-.745V34.645H38.633v5.316a.746.746,0,0,0,.745.745H41.33a.746.746,0,0,0,.745-.745V34.645h.18A.746.746,0,0,0,43,33.9V31.6a.746.746,0,0,0-.745-.745m-3.818,0h-.923V28.922h.923ZM22.149,28.922h14.1v1.932h-14.1Zm-2.811-1.26h-.177V25.834H39.243v1.828h-19.9Zm2.811-4.6h14.1v1.515h-14.1Zm16.287,1.515h-.923V23.059h.923ZM37.514,17.8h.923v.916h-.923ZM21.9,10.507a.7.7,0,0,1,.271-.513,11.427,11.427,0,0,1,14.059,0,.7.7,0,0,1,.271.513.69.69,0,0,1-.2.537.709.709,0,0,1-.935.065,10.056,10.056,0,0,0-12.325,0,.69.69,0,0,1-.287.132l-.017,0a.716.716,0,0,1-.631-.2.689.689,0,0,1-.2-.537M19.967,17.8h.923v.916h-.923Zm0,5.264h.923v1.515h-.923Zm0,5.863h.923v1.932h-.923Zm-3.3,3.192H41.74v1.271H16.664Zm1.848,7.332h-.923v-4.8h.923Zm22.3,0h-.923v-4.8h.923Z" fill="#e0ba22"/>
    <path id="Path_640" data-name="Path 640" d="M393.79,182.627a7.724,7.724,0,0,0-8.051,0,1.966,1.966,0,0,0,2.046,3.357,3.79,3.79,0,0,1,3.958,0,1.929,1.929,0,0,0,1.018.29,1.969,1.969,0,0,0,1.028-3.648m-.528,2.176a.7.7,0,0,1-.855.11h0a5.059,5.059,0,0,0-5.284,0,.706.706,0,0,1-.725-1.212,6.5,6.5,0,0,1,6.733,0,.706.706,0,0,1,.13,1.1" transform="translate(-360.563 -170.063)" fill="#e0ba22"/>
  </g>
</svg>
