<svg id="Layer_15" data-name="Layer 15" xmlns="http://www.w3.org/2000/svg" width="28.006" height="22.387" viewBox="0 0 28.006 22.387">
  <path id="Path_293" data-name="Path 293" fill="#000"
  d="M26.18,27.18a1,1,0,0,0,1-1V23.07a3.81,3.81,0,0,0,0-7.36V5.82a1,1,0,0,0-2,0v9.9a3.81,3.81,0,0,0,0,7.36v3.11a1,1,0,0,0,1,.99Zm-1.83-7.79a1.83,1.83,0,1,1,1.83,1.83A1.83,1.83,0,0,1,24.35,19.39Z" transform="translate(-1.997 -4.793)"/>
  <path id="Path_294" data-name="Path 294" fill="#000"
  d="M16,27.18a1,1,0,0,0,1-1V12.32a3.83,3.83,0,1,0-2,0V26.18A1,1,0,0,0,16,27.18ZM14.17,8.65A1.83,1.83,0,1,1,16,10.47a1.83,1.83,0,0,1-1.83-1.82Z" transform="translate(-1.997 -4.793)"/>
  <path id="Path_295" data-name="Path 295" fill="#000" d="M4.82,19.68v6.5a1,1,0,0,0,2,0v-6.5a3.81,3.81,0,0,0,0-7.36V5.82a1,1,0,0,0-2,0v6.5a3.81,3.81,0,0,0,0,7.36Zm1-5.51A1.83,1.83,0,1,1,4,16a1.83,1.83,0,0,1,1.82-1.83Z" transform="translate(-1.997 -4.793)"/>
</svg>
