<svg id="Iconly_Bold_Filter" data-name="Iconly/Bold/Filter" xmlns="http://www.w3.org/2000/svg" width="20" height="20" viewBox="0 0 20 20">
  <rect id="Iconly_Bold_Filter-2" data-name="Iconly/Bold/Filter" width="20" height="20" fill="none"/>
  <g id="Group">
    <g id="Union">
      <path id="Vector" d="M7.993,1.234A1.247,1.247,0,0,1,6.736,2.469H1.256A1.247,1.247,0,0,1,0,1.234,1.246,1.246,0,0,1,1.256,0h5.48A1.246,1.246,0,0,1,7.993,1.234Z" transform="translate(1.667 13.298)" fill="#febb1b" opacity="0.4"/>
      <path id="Vector-2" data-name="Vector" d="M6.736,2.468H1.256A1.246,1.246,0,0,1,0,1.234,1.246,1.246,0,0,1,1.256,0h5.48A1.246,1.246,0,0,1,7.992,1.234,1.246,1.246,0,0,1,6.736,2.468Z" transform="translate(10.342 4.082)" fill="#febb1b" opacity="0.4"/>
      <path id="Vector-3" data-name="Vector" d="M5.731,2.815A2.841,2.841,0,0,1,2.866,5.632,2.841,2.841,0,0,1,0,2.815,2.841,2.841,0,0,1,2.866,0,2.841,2.841,0,0,1,5.731,2.815Z" transform="translate(1.667 2.5)" fill="#febb1b"/>
      <path id="Vector-4" data-name="Vector" d="M5.731,2.816A2.841,2.841,0,0,1,2.866,5.632,2.841,2.841,0,0,1,0,2.816,2.841,2.841,0,0,1,2.866,0,2.841,2.841,0,0,1,5.731,2.816Z" transform="translate(12.602 11.683)" fill="#febb1b"/>
    </g>
  </g>
</svg>
