<svg id="fingerprint-scan" xmlns="http://www.w3.org/2000/svg" width="190.484" height="265" viewBox="0 0 190.484 265">
  <path id="Path_149" data-name="Path 149" d="M125.9,393.8a268.091,268.091,0,0,1-43.14-64.3,4.141,4.141,0,1,0-7.474,3.566,276.349,276.349,0,0,0,44.471,66.282c5.1,5.642,10.473,11.266,15.977,16.718a4.141,4.141,0,1,0,5.828-5.883C136.161,404.839,130.891,399.323,125.9,393.8Z" transform="translate(-74.786 -157.819)" fill="#e0ba22"/>
  <path id="Path_150" data-name="Path 150" d="M95.646,414.629a4.141,4.141,0,1,0-6.855,4.646,279.917,279.917,0,0,0,20.026,26.11,4.141,4.141,0,1,0,6.263-5.419,271.661,271.661,0,0,1-19.434-25.336Z" transform="translate(-81.153 -199.148)" fill="#e0ba22"/>
  <path id="Path_151" data-name="Path 151" d="M171.456,17.335A103.866,103.866,0,0,1,213.818,8.28a102.722,102.722,0,0,1,61.369,20.344,104.438,104.438,0,0,1,17.806,16.715A4.141,4.141,0,1,0,299.325,40,112.7,112.7,0,0,0,280.1,21.96a111.228,111.228,0,0,0-95.6-18.05,112.562,112.562,0,0,0-16.43,5.865,4.14,4.14,0,1,0,3.384,7.557Z" transform="translate(-118.563 0.002)" fill="#e0ba22"/>
  <path id="Path_152" data-name="Path 152" d="M88.173,64.812a4.141,4.141,0,0,0,5.809-.735,103.029,103.029,0,0,1,25.949-23.73,4.141,4.141,0,1,0-4.466-6.975A111.293,111.293,0,0,0,87.438,59,4.141,4.141,0,0,0,88.173,64.812Z" transform="translate(-80.426 -15.782)" fill="#e0ba22"/>
  <path id="Path_153" data-name="Path 153" d="M86.956,101.835a4.141,4.141,0,0,0,5.258-2.58,86.93,86.93,0,0,1,165.376,2.316c.03.1.064.2.1.291a62.872,62.872,0,0,0,3.923,7.978,4.141,4.141,0,0,0,7.182-4.123,55.77,55.77,0,0,1-3.344-6.749C253.181,59.532,215.809,32,174.515,32A95.2,95.2,0,0,0,84.376,96.579a4.141,4.141,0,0,0,2.579,5.256Z" transform="translate(-79.26 -15.436)" fill="#e0ba22"/>
  <path id="Path_154" data-name="Path 154" d="M138.1,312.779C100.625,271.315,88.157,230.3,86.037,222.5a86.144,86.144,0,0,1-2.1-35.529,4.141,4.141,0,1,0-8.19-1.225,94.378,94.378,0,0,0,2.3,38.922c2.206,8.121,15.173,50.795,53.908,93.66,1.955,2.164,3.966,4.34,5.975,6.467a4.143,4.143,0,1,0,6.022-5.69c-1.97-2.081-3.939-4.212-5.854-6.331Z" transform="translate(-74.7 -87.907)" fill="#e0ba22"/>
  <path id="Path_155" data-name="Path 155" d="M240.743,483.556c-5.275-4.629-10.488-9.444-15.494-14.311a4.141,4.141,0,1,0-5.773,5.938c5.107,4.965,10.424,9.876,15.8,14.6a4.141,4.141,0,1,0,5.463-6.224Z" transform="translate(-143.938 -225.807)" fill="#e0ba22"/>
  <path id="Path_156" data-name="Path 156" d="M405.959,177.852c-1.042-1.109-2.078-2.232-3.079-3.34a83.536,83.536,0,0,1-15.748-24.868,77.764,77.764,0,0,0-10.759-22.079,4.141,4.141,0,1,0-6.78,4.754,69.5,69.5,0,0,1,9.649,19.84c.023.077.049.153.077.228a90.7,90.7,0,0,0,17.419,27.676c1.035,1.147,2.11,2.312,3.19,3.461a4.141,4.141,0,1,0,6.033-5.673Z" transform="translate(-216.6 -60.688)" fill="#e0ba22"/>
  <path id="Path_157" data-name="Path 157" d="M166.942,74.744a70.094,70.094,0,0,1,65.827,16,4.141,4.141,0,1,0,5.572-6.127A78.6,78.6,0,0,0,109.473,163.3a164.155,164.155,0,0,0,7.66,21.235,4.141,4.141,0,1,0,7.6-3.284,155.626,155.626,0,0,1-7.274-20.122,70.477,70.477,0,0,1,49.479-86.384Z" transform="translate(-90.144 -30.873)" fill="#e0ba22"/>
  <path id="Path_158" data-name="Path 158" d="M225.087,406.05a391.906,391.906,0,0,1-43.624-41.335,236.8,236.8,0,0,1-34.528-49.584,4.141,4.141,0,1,0-7.35,3.816,245.072,245.072,0,0,0,35.734,51.32,400.177,400.177,0,0,0,44.548,42.213,4.141,4.141,0,1,0,5.22-6.429Z" transform="translate(-105.777 -150.947)" fill="#e0ba22"/>
  <path id="Path_159" data-name="Path 159" d="M306.568,143.086c.606,1.753,6.344,17.594,20.9,33.706,4.572,5.06,9.5,10.088,14.635,14.946a4.141,4.141,0,0,0,5.689-6.018c-4.981-4.71-9.752-9.581-14.182-14.481-13.25-14.66-18.506-28.816-19.193-30.775A62.456,62.456,0,0,0,254.88,96a4.141,4.141,0,1,0,0,8.281A54.131,54.131,0,0,1,306.51,142.9C306.528,142.964,306.547,143.025,306.568,143.086Z" transform="translate(-159.625 -46.311)" fill="#e0ba22"/>
  <path id="Path_160" data-name="Path 160" d="M170.042,235.373a4.141,4.141,0,0,0,6.759-4.785C157.133,202.8,150.1,179.2,148.9,174.751a53.9,53.9,0,0,1,35.687-65.427,4.141,4.141,0,1,0-2.5-7.9A62.182,62.182,0,0,0,140.9,176.921C142.692,183.5,150.079,207.174,170.042,235.373Z" transform="translate(-105.591 -48.836)" fill="#e0ba22"/>
  <path id="Path_161" data-name="Path 161" d="M280.863,428.312a376.772,376.772,0,0,1-49.591-45.776c-2.4-2.658-4.77-5.406-7.039-8.166a4.141,4.141,0,1,0-6.4,5.256c2.349,2.861,4.8,5.708,7.292,8.463a385.128,385.128,0,0,0,50.7,46.8,4.14,4.14,0,1,0,5.035-6.574Z" transform="translate(-143.296 -179.873)" fill="#e0ba22"/>
  <path id="Path_162" data-name="Path 162" d="M399.243,277.568a281.264,281.264,0,0,1-26.914-25.995,122.825,122.825,0,0,1-8.379-10.355,4.141,4.141,0,1,0-6.711,4.851,131.22,131.22,0,0,0,8.946,11.057,289.522,289.522,0,0,0,27.71,26.764,4.141,4.141,0,1,0,5.349-6.322Z" transform="translate(-210.624 -115.54)" fill="#e0ba22"/>
  <path id="Path_163" data-name="Path 163" d="M206.4,137.247a37.255,37.255,0,0,1,45.584,25.668c.012.043.026.086.039.128a92.862,92.862,0,0,0,6.413,14.385,4.141,4.141,0,1,0,7.3-3.917,86.115,86.115,0,0,1-5.81-12.955,45.546,45.546,0,1,0-87.71,24.594c1.687,6.2,11.673,38.9,42.824,73.368,6.665,7.374,13.757,14.6,21.078,21.476a4.141,4.141,0,0,0,5.669-6.037c-7.159-6.722-14.091-13.784-20.6-20.992-29.888-33.073-39.377-64.1-40.976-69.987A37.309,37.309,0,0,1,206.4,137.247Z" transform="translate(-120.923 -61.409)" fill="#e0ba22"/>
  <path id="Path_164" data-name="Path 164" d="M345.187,446.607c-6.411-4.7-12.939-9.886-19.406-15.421a4.14,4.14,0,1,0-5.383,6.292c6.625,5.668,13.318,10.987,19.9,15.808a4.141,4.141,0,1,0,4.9-6.679Z" transform="translate(-192.531 -207.532)" fill="#e0ba22"/>
  <path id="Path_165" data-name="Path 165" d="M323.422,259.1a296.452,296.452,0,0,1-37.585-34.908c-19.432-21.5-25.887-41.954-26.273-43.218A28.984,28.984,0,1,0,203.7,196.451c.148.544.479,1.708,1.03,3.394a4.141,4.141,0,1,0,7.871-2.574c-.494-1.511-.781-2.523-.909-2.991A20.7,20.7,0,1,1,251.6,183.254c.007.026.014.052.022.077.284.941,7.2,23.318,28.067,46.41a304.9,304.9,0,0,0,38.653,35.9,4.141,4.141,0,1,0,5.076-6.544Z" transform="translate(-136.421 -77.051)" fill="#e0ba22"/>
  <path id="Path_166" data-name="Path 166" d="M309.019,351.37a334.219,334.219,0,0,1-52.534-47.188,186.246,186.246,0,0,1-30.376-45.318,4.141,4.141,0,1,0-7.5,3.51,194.648,194.648,0,0,0,31.732,47.358,342.728,342.728,0,0,0,53.873,48.381,4.141,4.141,0,0,0,4.8-6.746Z" transform="translate(-143.936 -123.729)" fill="#e0ba22"/>
  <path id="Path_167" data-name="Path 167" d="M326.949,307.033a314.285,314.285,0,0,1-50.215-45.075c-25.793-28.541-33.28-55.335-33.586-56.462a4.141,4.141,0,1,1,7.991-2.174c.071.259,7.441,26.195,31.738,53.082,2.066,2.286,4.209,4.587,6.372,6.839a4.141,4.141,0,1,0,5.974-5.735c-2.105-2.193-4.193-4.432-6.2-6.657-22.773-25.2-29.836-49.507-29.9-49.727a12.422,12.422,0,1,0-23.967,6.545c.327,1.2,8.327,29.85,35.433,59.843A322.82,322.82,0,0,0,322.167,313.8a4.141,4.141,0,1,0,4.782-6.761Z" transform="translate(-151.895 -92.609)" fill="#e0ba22"/>
  <path id="Path_168" data-name="Path 168" d="M395.395,363.007c-2.366-1.722-4.851-3.606-7.383-5.6-6.734-5.307-13.487-11.128-20.068-17.3a4.141,4.141,0,1,0-5.665,6.04c6.754,6.335,13.687,12.312,20.607,17.765,2.616,2.062,5.186,4.011,7.638,5.8a4.141,4.141,0,1,0,4.872-6.7Z" transform="translate(-212.803 -163.531)" fill="#e0ba22"/>
</svg>
