<svg xmlns="http://www.w3.org/2000/svg" width="275.712" height="250" viewBox="0 0 275.712 250">
  <g id="Frame" transform="translate(0 0)">
    <rect id="Frame-2" data-name="Frame" width="275.712" height="250" fill="none"/>
    <g id="Group">
      <path id="Vector" d="M99.512,249.37H21.28A21.3,21.3,0,0,1,0,228.09V21.28A21.3,21.3,0,0,1,21.28,0H99.512a21.3,21.3,0,0,1,21.28,21.28c1.456,83.048,3.94,176.05,0,206.81a21.3,21.3,0,0,1-21.28,21.28h0Z" transform="translate(91.015)" fill="#3f3d56"/>
      <path id="Vector-2" data-name="Vector" d="M1.8.9V29.708a.9.9,0,0,1-1.8,0V.9A.9.9,0,0,1,1.8.9Z" transform="translate(211.998 76.071)" fill="#3f3d56"/>
      <path id="Vector-3" data-name="Vector" d="M116.741,19.256V226.063a19.257,19.257,0,0,1-18,19.216h0c-.149.009-.3.018-.45.023-.266.013-.531.018-.8.018,0,0-.99-.072-2.8-.207-1.828-.135-4.488-.338-7.805-.6q-1.492-.115-3.151-.252c-2.206-.18-4.627-.378-7.225-.6-1.035-.086-2.107-.18-3.2-.275-5.591-.482-11.852-1.044-18.455-1.683q-1.674-.155-3.376-.324C51.176,241.34,0,228.475,0,226.063V19.256A19.255,19.255,0,0,1,19.256,0h11.5a3.51,3.51,0,0,1,3.47,3.263c.013.122.027.243.05.365a3.912,3.912,0,0,0,3.894,3.124H78.575a3.912,3.912,0,0,0,3.894-3.124c.022-.122.036-.243.05-.365A3.51,3.51,0,0,1,85.988,0h11.5a19.255,19.255,0,0,1,19.256,19.256Z" transform="translate(93.041 2.024)" fill="#1f222a"/>
      <path id="Vector-4" data-name="Vector" d="M.9,0a.9.9,0,0,1,.9.9V8.1A.9.9,0,1,1,0,8.1V.9A.9.9,0,0,1,.9,0Z" transform="translate(89.665 54.465)" fill="#3f3d56"/>
      <path id="Vector-5" data-name="Vector" d="M.9,0a.9.9,0,0,1,.9.9V14.854a.9.9,0,0,1-1.8,0V.9A.9.9,0,0,1,.9,0Z" transform="translate(89.665 76.071)" fill="#3f3d56"/>
      <path id="Vector-6" data-name="Vector" d="M1.8.9V14.854a.9.9,0,1,1-1.8,0V.9A.9.9,0,0,1,1.8.9Z" transform="translate(89.665 95.877)" fill="#3f3d56"/>
      <path id="Vector-7" data-name="Vector" d="M.151,0H17.4a.151.151,0,0,1,.151.151V2.1a.151.151,0,0,1-.151.151H.151A.151.151,0,0,1,0,2.1V.151A.151.151,0,0,1,.151,0Z" transform="translate(106.095 5.177)" fill="#35383f"/>
      <path id="Vector-8" data-name="Vector" d="M3.6,1.8A1.8,1.8,0,1,1,1.8,0,1.8,1.8,0,0,1,3.6,1.8Z" transform="translate(180.074 3.826)" fill="#35383f"/>
      <path id="Vector-9" data-name="Vector" d="M3.6,1.8A1.8,1.8,0,1,1,1.8,0,1.8,1.8,0,0,1,3.6,1.8Z" transform="translate(185.025 3.826)" fill="#35383f"/>
      <path id="Vector-10" data-name="Vector" d="M3.6,1.8A1.8,1.8,0,1,1,1.8,0,1.8,1.8,0,0,1,3.6,1.8Z" transform="translate(189.977 3.826)" fill="#35383f"/>
    </g>
    <path id="Vector-11" data-name="Vector" d="M0,.581A.579.579,0,0,1,.581,0H268.146a.581.581,0,0,1,0,1.161H.581A.579.579,0,0,1,0,.581Z" transform="translate(6.985 248.839)" fill="#424242"/>
    <g id="Group-2" data-name="Group">
      <path id="Vector-12" data-name="Vector" d="M8.1,21.165H2.61L0,0H8.1Z" transform="translate(84.2 224.44)" fill="#ffb6b6"/>
      <path id="Vector-13" data-name="Vector" d="M.261,6.191h0c.428-.721,1.166-.6,2-.7l3.8-.468L12.922,0l.948,1.717c3.214,3.214,5.365,1.162,5.365,1.162a5.431,5.431,0,0,1,.89,4.747v.707a1.27,1.27,0,0,1-1.27,1.27H1.862A1.862,1.862,0,0,1,0,7.742,4.711,4.711,0,0,1,.261,6.191Z" transform="translate(73.237 239.29)" fill="#2f2e41"/>
    </g>
    <g id="Group-3" data-name="Group">
      <path id="Vector-14" data-name="Vector" d="M8.03,21.19l-5.487-.018L0,0,8.1.026Z" transform="translate(53.923 195.019)" fill="#ffb6b6"/>
      <path id="Vector-15" data-name="Vector" d="M.266,6.15h0c.43-.719,1.167-.6,2-.7L6.07,5l6.877-5,.942,1.72C17.093,4.944,19.25,2.9,19.25,2.9a5.432,5.432,0,0,1,.875,4.75l0,.707a1.27,1.27,0,0,1-1.274,1.266L1.856,9.569A1.862,1.862,0,0,1,0,7.7,4.711,4.711,0,0,1,.266,6.15Z" transform="translate(42.889 209.874)" fill="#2f2e41"/>
    </g>
    <path id="Vector-16" data-name="Vector" d="M48.014,1.708,67.046,24.156l-14.64,41.48-8.54,52.46-9.516.244,2.44-56.608s.976-5.856,2.928-15.437S36.3,25.132,36.3,25.132l-15.616,2.2-7.47,55.639L1.556,85.6S3.413,32.426.973,28.034s.244-8.54,2.2-11.468S28.25.488,28.25.488L35.082,0Z" transform="translate(49.212 117.12)" fill="#2f2e41"/>
    <path id="Vector-17" data-name="Vector" d="M3.58,8.07a7.922,7.922,0,0,1,3.6-1.015L18.367,0l3.2,5.421L9.876,11.994a7.922,7.922,0,0,1-2.8,2.479C4.3,15.989,1.261,15.785.3,14.017S.8,9.587,3.58,8.07Z" transform="translate(49.212 104.342)" fill="#ffb6b6"/>
    <path id="Vector-18" data-name="Vector" d="M43.432,4.392,54.656,7.32,53.192,37.088l-16.1,50.264s-20.5-1.464-22.967-13.207S0,60.024,0,60.024L8.784,58.56C8.3,55.632,12.2,55.144,12.2,55.144l-1.464-5.368,3.416-5.368L9.76,13.664l13.664-7.32,1.464-4.88L39.04,0Z" transform="translate(78.926 57.096)" fill="#35383f"/>
    <path id="Vector-19" data-name="Vector" d="M33.479.68l3.537,13.089-13,23.782L4.3,44.113,0,36.618l15.306-7.993S25.737,3.136,27.317,1.036,33.479.68,33.479.68Z" transform="translate(58.742 70.307)" fill="#35383f"/>
    <g id="Group-4" data-name="Group">
      <path id="Vector-20" data-name="Vector" d="M144.448,8.3V60.024a8.305,8.305,0,0,1-8.3,8.3H8.3a8.305,8.305,0,0,1-8.3-8.3V8.3A8.305,8.305,0,0,1,8.3,0H136.152a8.305,8.305,0,0,1,8.3,8.3Z" transform="translate(92.305 146.399)" fill="#1f222a"/>
      <path id="Vector-21" data-name="Vector" d="M144.448,8.3V60.024a8.305,8.305,0,0,1-8.3,8.3H8.3a8.305,8.305,0,0,1-8.3-8.3V8.3A8.305,8.305,0,0,1,8.3,0H136.152a8.305,8.305,0,0,1,8.3,8.3Zm-8.3,59.048a7.32,7.32,0,0,0,7.32-7.32V33.945A32.969,32.969,0,0,0,110.5.976H8.3A7.32,7.32,0,0,0,.976,8.3V60.024a7.32,7.32,0,0,0,7.32,7.32Z" transform="translate(92.305 146.399)" fill="#3f3d56"/>
      <g id="Group-5" data-name="Group">
        <path id="Vector-22" data-name="Vector" d="M18.227.763a.764.764,0,0,1-.763.764H.764A.764.764,0,1,1,.764,0h16.7A.764.764,0,0,1,18.227.763Z" transform="translate(132.235 177.651)" fill="#febb1b"/>
        <path id="Vector-23" data-name="Vector" d="M18.227.763a.764.764,0,0,1-.763.764H.764A.764.764,0,1,1,.764,0h16.7A.764.764,0,0,1,18.227.763Z" transform="translate(157.611 177.651)" fill="#febb1b"/>
      </g>
      <g id="Group-6" data-name="Group">
        <path id="Vector-24" data-name="Vector" d="M18.227.763a.764.764,0,0,1-.763.764H.764A.764.764,0,1,1,.764,0h16.7A.764.764,0,0,1,18.227.763Z" transform="translate(132.235 185.999)" fill="#febb1b"/>
        <path id="Vector-25" data-name="Vector" d="M18.227.763a.764.764,0,0,1-.763.764H.764A.764.764,0,1,1,.764,0h16.7A.764.764,0,0,1,18.227.763Z" transform="translate(157.611 185.999)" fill="#febb1b"/>
        <path id="Vector-26" data-name="Vector" d="M17.463,1.527H.764A.764.764,0,1,1,.764,0h16.7a.764.764,0,0,1,0,1.527Z" transform="translate(182.987 185.999)" fill="#febb1b"/>
      </g>
      <g id="Group-7" data-name="Group">
        <path id="Vector-27" data-name="Vector" d="M.764,1.527A.763.763,0,1,1,.764,0h16.7a.763.763,0,0,1,0,1.527Z" transform="translate(122.475 169.458)" fill="#febb1b"/>
        <path id="Vector-28" data-name="Vector" d="M0,.763A.764.764,0,0,1,.764,0h16.7a.764.764,0,0,1,0,1.527H.764A.764.764,0,0,1,0,.763Z" transform="translate(188.355 169.148)" fill="#febb1b"/>
        <path id="Vector-29" data-name="Vector" d="M0,.763A.764.764,0,0,1,.764,0H35.386a.763.763,0,0,1,0,1.527H.764A.764.764,0,0,1,0,.763Z" transform="translate(146.21 169.308)" fill="#febb1b"/>
      </g>
      <path id="Vector-30" data-name="Vector" d="M18.227.763a.764.764,0,0,1-.763.764H.764A.763.763,0,1,1,.764,0h16.7a.764.764,0,0,1,.763.763Z" transform="translate(143.132 193.583)" fill="#febb1b"/>
      <g id="Group-8" data-name="Group">
        <path id="Vector-31" data-name="Vector" d="M68.32,8.3V60.024a8.305,8.305,0,0,1-8.3,8.3H8.3a8.305,8.305,0,0,1-8.3-8.3V8.3A8.305,8.305,0,0,1,8.3,0H60.024a8.305,8.305,0,0,1,8.3,8.3Z" transform="translate(146.21 146.009)" fill="#1f222a"/>
        <path id="Vector-32" data-name="Vector" d="M68.32,8.3V60.024a8.305,8.305,0,0,1-8.3,8.3H8.3a8.305,8.305,0,0,1-8.3-8.3V8.3A8.305,8.305,0,0,1,8.3,0H60.024a8.305,8.305,0,0,1,8.3,8.3Zm-11.5,59.048A10.529,10.529,0,0,0,67.344,56.815V33.945A32.969,32.969,0,0,0,34.375.976H8.3A7.32,7.32,0,0,0,.976,8.3V52.807A14.537,14.537,0,0,0,15.513,67.344h41.3Z" transform="translate(146.21 146.009)" fill="#3f3d56"/>
        <path id="Vector-33" data-name="Vector" d="M17.463,1.527H.764A.764.764,0,1,1,.764,0h16.7a.763.763,0,0,1,0,1.527Z" transform="translate(169.793 165.608)" fill="#febb1b"/>
        <path id="Vector-34" data-name="Vector" d="M17.463,1.527H.764A.764.764,0,1,1,.764,0h16.7a.763.763,0,0,1,0,1.527Z" transform="translate(169.793 181.89)" fill="#febb1b"/>
        <path id="Vector-35" data-name="Vector" d="M17.463,1.527H.764A.764.764,0,1,1,.764,0h16.7a.763.763,0,0,1,0,1.527Z" transform="translate(161.497 204.338)" fill="#febb1b"/>
        <path id="Vector-36" data-name="Vector" d="M35.386,1.527H.764A.764.764,0,1,1,.764,0H35.386a.763.763,0,0,1,0,1.527h0Z" transform="translate(160.831 173.754)" fill="#febb1b"/>
      </g>
      <g id="Group-9" data-name="Group">
        <g id="Group-10" data-name="Group">
          <path id="Vector-37" data-name="Vector" d="M59.562,30.572c0,12.525-12.434,10.776-22.012,17.012H8.878A53.781,53.781,0,0,1,1.125,30.572C-4.26,6.871,10.369-4.037,30.343,1.353c15.579,4.2,29.218,13.081,29.218,29.218Z" transform="translate(145.235 95.069)" fill="#febb1b"/>
          <path id="Vector-38" data-name="Vector" d="M0,0H26.855a20.582,20.582,0,0,0-5.977,7.06C16.078,16.21,6.912,9.873,0,0Z" transform="translate(154.272 149.086)" fill="#febb1b"/>
        </g>
        <path id="Vector-39" data-name="Vector" d="M7.8,1.561A3.122,3.122,0,0,0,4.682,4.682v6.243h6.243V4.682A3.122,3.122,0,0,0,7.8,1.561Zm4.682,9.365a3.122,3.122,0,0,1,3.122,3.122v7.8a3.122,3.122,0,0,1-3.122,3.122H3.122A3.122,3.122,0,0,1,0,21.851v-7.8a3.122,3.122,0,0,1,3.122-3.122V4.682a4.682,4.682,0,1,1,9.365,0v6.243ZM3.122,12.487a1.561,1.561,0,0,0-1.561,1.561v7.8a1.561,1.561,0,0,0,1.561,1.561h9.365a1.561,1.561,0,0,0,1.561-1.561v-7.8a1.561,1.561,0,0,0-1.561-1.561H3.122Z" transform="translate(164.247 106.805)" fill="#1f222a"/>
      </g>
    </g>
    <path id="Vector-40" data-name="Vector" d="M.064,16.726A7.922,7.922,0,0,1,1.326,13.2L2.067,0,8.34.537,6.912,13.873a7.922,7.922,0,0,1,.394,3.72C6.93,20.737,5,23.09,3,22.851S-.312,19.869.064,16.726Z" transform="translate(127.377 127.986)" fill="#ffb6b6"/>
    <g id="Group-11" data-name="Group">
      <path id="Vector-41" data-name="Vector" d="M57.1,28.548A28.548,28.548,0,1,1,28.548,0,28.548,28.548,0,0,1,57.1,28.548Z" transform="translate(0 101.67)" fill="#febb1b"/>
      <path id="Vector-42" data-name="Vector" d="M9.129,1.826A3.651,3.651,0,0,0,5.477,5.477v7.3h7.3v-7.3A3.651,3.651,0,0,0,9.129,1.826ZM14.606,12.78h0a3.651,3.651,0,0,1,3.651,3.651V25.56a3.651,3.651,0,0,1-3.651,3.651H3.651A3.651,3.651,0,0,1,0,25.56V16.432A3.651,3.651,0,0,1,3.651,12.78v-7.3a5.477,5.477,0,1,1,10.954,0v7.3ZM3.651,14.606a1.826,1.826,0,0,0-1.826,1.826V25.56a1.826,1.826,0,0,0,1.826,1.826H14.606a1.826,1.826,0,0,0,1.826-1.826V16.432a1.826,1.826,0,0,0-1.826-1.826H3.651Z" transform="translate(19.419 115.612)" fill="#1f222a"/>
    </g>
    <path id="Vector-43" data-name="Vector" d="M2.44.637s6.832-1.952,8.3.976,4.88,41.48,4.88,41.48L9.028,73.866,1.464,71.885l3.9-31.232L0,17.229Z" transform="translate(126.506 64.51)" fill="#35383f"/>
    <path id="Vector-44" data-name="Vector" d="M22,11A11,11,0,1,1,11,0,11,11,0,0,1,22,11Z" transform="translate(99.506 33.241)" fill="#ffb6b6"/>
    <path id="Vector-45" data-name="Vector" d="M9.729,24.4s-9.76-.488-8.784-8.3C-1.471,7.789.667,2.391,8.265.488A21.136,21.136,0,0,1,10.7,0c6.419,0,9.76,1.952,9.76,1.952S19.977.019,20.465.5a6.8,6.8,0,0,1,.976,1.454s4.88,2.44,4.88,7.32V12.2s-.976,0-1.952-2.928-7.3-.976-7.3-.976l.463.976-1.464-.488-1.464,1.464-.976-.488H10.217c.488,0,.148,3.316.148,3.316l-3.564,4,3.9,7.32Z" transform="translate(95.061 29.768)" fill="#2f2e41"/>
  </g>
</svg>
