<svg id="Plus_icon" data-name="Plus icon" xmlns="http://www.w3.org/2000/svg" width="24" height="24" viewBox="0 0 24 24">
  <rect id="Iconly_Bold_Plus" data-name="Iconly/Bold/Plus" width="24" height="24" fill="none"/>
  <g id="Plus">
    <path id="Plus-2" data-name="Plus" d="M16.67,22H7.33a5.349,5.349,0,0,1-3.944-1.394A5.356,5.356,0,0,1,2,16.67V7.33A5.359,5.359,0,0,1,3.386,3.386,5.359,5.359,0,0,1,7.33,2H16.66a5.372,5.372,0,0,1,3.945,1.387A5.345,5.345,0,0,1,22,7.33V16.67C22,20.058,20.058,22,16.67,22ZM8.33,11.16a.819.819,0,0,0-.83.83.839.839,0,0,0,.83.841h2.83v2.83a.83.83,0,0,0,1.66,0V12.83h2.84a.835.835,0,0,0,0-1.67H12.82V8.34a.83.83,0,0,0-1.66,0v2.82Z" fill="#282828"/>
  </g>
</svg>
