<svg xmlns="http://www.w3.org/2000/svg" width="40.628" height="39.795" viewBox="0 0 40.628 39.795">
  <g id="gas-station" transform="translate(0 -0.001)">
    <path id="Path_216" data-name="Path 216" d="M39.134,4.026h-.677V1.719a.6.6,0,0,0-.322-.529L35.964.067a.6.6,0,0,0-.547,1.057l1.85.957V4.026h-.677A1.5,1.5,0,0,0,35.1,5.52v5.039a1.5,1.5,0,0,0,1.494,1.494h.724V32.88a1.554,1.554,0,0,1-1.552,1.552H33.337a1.554,1.554,0,0,1-1.552-1.552V19.786a2.745,2.745,0,0,0-2.742-2.743H27.9V14.358a.6.6,0,0,0-.6-.6H25.727V4.795a3.675,3.675,0,0,0-3.671-3.671H6.832A3.675,3.675,0,0,0,3.161,4.795V27.586a.6.6,0,0,0,1.19,0V4.795a2.483,2.483,0,0,1,2.48-2.481H22.057a2.483,2.483,0,0,1,2.481,2.481V32.352H4.352V29.59a.6.6,0,1,0-1.19,0v2.762H2.625A2.629,2.629,0,0,0,0,34.977V39.2a.6.6,0,0,0,.6.6h27.7a.6.6,0,0,0,.6-.6V34.977a2.628,2.628,0,0,0-2.625-2.625h-.536V21.514H27.3a.6.6,0,0,0,.6-.6V18.234h1.144a1.554,1.554,0,0,1,1.552,1.552V32.88a2.746,2.746,0,0,0,2.743,2.742h2.425A2.745,2.745,0,0,0,38.5,32.88V12.053h.631a1.5,1.5,0,0,0,1.494-1.494V5.52a1.5,1.5,0,0,0-1.494-1.494ZM27.7,34.977v3.628H1.19V34.977a1.437,1.437,0,0,1,1.435-1.435H26.263A1.437,1.437,0,0,1,27.7,34.977Zm-.99-14.653h-.98V14.953h.98Zm12.73-9.765a.3.3,0,0,1-.3.3H36.59a.3.3,0,0,1-.3-.3V5.52a.3.3,0,0,1,.3-.3h2.545a.3.3,0,0,1,.3.3Zm0,0" transform="translate(0)" fill="#fff"/>
    <path id="Path_217" data-name="Path 217" d="M102.1,253.4a.491.491,0,0,0-.491-.491H90.546a.491.491,0,1,0,0,.982h11.059A.491.491,0,0,0,102.1,253.4Zm0,0" transform="translate(-82.207 -232.732)" fill="#fff"/>
    <path id="Path_218" data-name="Path 218" d="M110.787,289.1a.491.491,0,0,0-.491-.491h-9.75a.491.491,0,1,0,0,.982h9.75A.491.491,0,0,0,110.787,289.1Zm0,0" transform="translate(-91.461 -265.579)" fill="#fff"/>
    <path id="Path_219" data-name="Path 219" d="M115.546,324.3a.491.491,0,1,0,0,.982h7.786a.491.491,0,1,0,0-.982Zm0,0" transform="translate(-105.359 -298.431)" fill="#fff"/>
    <path id="Path_220" data-name="Path 220" d="M101.605,61.368a.491.491,0,0,0,.491-.491V58.323a.491.491,0,0,0-.491-.491H90.546a.491.491,0,0,0-.491.491v8.17a.491.491,0,0,0,.491.491h11.059a.491.491,0,0,0,.491-.491V62.53a.491.491,0,1,0-.982,0V66h-1.5a3.574,3.574,0,0,0-1.423-2.386l1.564-1.564a.491.491,0,1,0-.694-.694l-1.775,1.775A3.576,3.576,0,0,0,92.537,66h-1.5V58.814h10.077v2.064a.491.491,0,0,0,.491.491ZM96.075,63.9A2.6,2.6,0,0,1,98.62,66H93.531A2.6,2.6,0,0,1,96.075,63.9Zm0,0" transform="translate(-82.207 -54.045)" fill="#fff"/>
  </g>
</svg>
