<svg xmlns="http://www.w3.org/2000/svg" xmlns:xlink="http://www.w3.org/1999/xlink" width="40" height="40.001" viewBox="0 0 40 40.001">
  <defs>
    <clipPath id="clip-path">
      <rect id="Rectangle_107" data-name="Rectangle 107" width="40" height="40.001" fill="#e0ba22"/>
    </clipPath>
  </defs>
  <g id="Group_756" data-name="Group 756" transform="translate(0 0)">
    <g id="Group_756-2" data-name="Group 756" transform="translate(0 0)" clip-path="url(#clip-path)">
      <path id="Path_607" data-name="Path 607" d="M33.208,37.775a4.564,4.564,0,1,0-3.229-1.335,4.556,4.556,0,0,0,3.229,1.335m-2.4-6.965a3.4,3.4,0,1,1,0,4.8,3.384,3.384,0,0,1,0-4.8" transform="translate(-8.356 -8.357)" fill="#e0ba22"/>
      <path id="Path_608" data-name="Path 608" d="M26.676,26.68a7.521,7.521,0,0,0-1.6,8.257.586.586,0,0,0,1.078-.458,6.352,6.352,0,1,1,1.413,2.061.586.586,0,1,0-.818.839,7.471,7.471,0,0,0,5.247,2.135h.045a7.518,7.518,0,1,0-5.36-12.834" transform="translate(-7.139 -7.142)" fill="#e0ba22"/>
      <path id="Path_609" data-name="Path 609" d="M38.878,22.225H36.794a12.135,12.135,0,0,0-1.637-3.956L36.63,16.8a1.124,1.124,0,0,0,0-1.587L34.5,13.077a1.123,1.123,0,0,0-1.586,0L31.438,14.55a12.135,12.135,0,0,0-3.956-1.637V10.829A1.124,1.124,0,0,0,26.36,9.707H23.345a1.121,1.121,0,0,0-.866.41H22.1a9.916,9.916,0,0,0-1.27-3.069l1.126-1.127a1.02,1.02,0,0,0,0-1.441L20.228,2.757a1.021,1.021,0,0,0-1.441,0L17.661,3.884a9.9,9.9,0,0,0-3.069-1.27V1.019A1.021,1.021,0,0,0,13.573,0H11.136a1.02,1.02,0,0,0-1.019,1.019V2.614a9.9,9.9,0,0,0-3.069,1.27L5.921,2.757a1.022,1.022,0,0,0-1.441,0L2.757,4.481a1.02,1.02,0,0,0,0,1.441L3.883,7.048a9.916,9.916,0,0,0-1.27,3.069H1.019A1.02,1.02,0,0,0,0,11.136v2.438a1.02,1.02,0,0,0,1.019,1.019H2.613a9.916,9.916,0,0,0,1.27,3.069L2.757,18.788a1.019,1.019,0,0,0,0,1.441L4.48,21.953a1.022,1.022,0,0,0,1.441,0l1.126-1.127a9.9,9.9,0,0,0,3.069,1.27v.383a1.122,1.122,0,0,0-.412.868v3.016a1.123,1.123,0,0,0,1.122,1.122h2.084a12.12,12.12,0,0,0,1.637,3.956l-1.473,1.473a1.122,1.122,0,0,0,0,1.587l2.133,2.132a1.123,1.123,0,0,0,1.587,0l1.473-1.473A12.127,12.127,0,0,0,22.223,36.8V38.88A1.124,1.124,0,0,0,23.345,40H26.36a1.124,1.124,0,0,0,1.122-1.122V36.8a12.12,12.12,0,0,0,3.956-1.637l1.473,1.473a1.123,1.123,0,0,0,1.586,0L36.63,34.5a1.124,1.124,0,0,0,0-1.587L35.157,31.44a12.135,12.135,0,0,0,1.637-3.956h2.084A1.124,1.124,0,0,0,40,26.363V23.347a1.124,1.124,0,0,0-1.122-1.122M7.58,19.776a1.027,1.027,0,0,0-1.274.135L5.2,21.016,3.693,19.508,4.8,18.4a1.026,1.026,0,0,0,.134-1.274,8.737,8.737,0,0,1-1.2-2.9,1.026,1.026,0,0,0-1-.806H1.172V11.289H2.736a1.026,1.026,0,0,0,1-.806,8.737,8.737,0,0,1,1.2-2.9A1.025,1.025,0,0,0,4.8,6.307L3.693,5.2,5.2,3.693,6.306,4.8a1.027,1.027,0,0,0,1.274.135,8.749,8.749,0,0,1,2.9-1.2,1.025,1.025,0,0,0,.806-1V1.172h2.133V2.736a1.025,1.025,0,0,0,.806,1,8.749,8.749,0,0,1,2.9,1.2A1.027,1.027,0,0,0,18.4,4.8l1.1-1.106L21.016,5.2l-1.1,1.106a1.024,1.024,0,0,0-.135,1.274,8.751,8.751,0,0,1,1.2,2.9,1.026,1.026,0,0,0,1,.806h.25v1.624a12.129,12.129,0,0,0-3.956,1.637l-1.473-1.473c-.017-.017-.035-.032-.052-.047A4.44,4.44,0,0,0,10.8,8.2a.586.586,0,0,0,.41,1.1,3.268,3.268,0,0,1,4.379,3.534,1.133,1.133,0,0,0-.38.249L13.076,15.21a1.12,1.12,0,0,0-.249.378A3.269,3.269,0,0,1,9.5,10.756a.586.586,0,0,0-1.021-.573,4.442,4.442,0,0,0,4.544,6.559c.016.018.032.036.049.054l1.473,1.473a12.12,12.12,0,0,0-1.637,3.956H11.288v-.251a1.025,1.025,0,0,0-.806-1,8.743,8.743,0,0,1-2.9-1.2m31.248,6.537H36.754a1.131,1.131,0,0,0-1.1.887,10.953,10.953,0,0,1-1.5,3.637,1.128,1.128,0,0,0,.148,1.4l1.465,1.466L33.7,35.769,32.238,34.3a1.129,1.129,0,0,0-1.4-.148A10.976,10.976,0,0,1,27.2,35.66a1.129,1.129,0,0,0-.887,1.1v2.075H23.394V36.756a1.129,1.129,0,0,0-.887-1.1,10.961,10.961,0,0,1-3.637-1.505,1.128,1.128,0,0,0-1.4.148L16,35.769l-2.063-2.063L15.4,32.24a1.128,1.128,0,0,0,.148-1.4A10.976,10.976,0,0,1,14.048,27.2a1.129,1.129,0,0,0-1.1-.887H10.877V23.4h2.075a1.129,1.129,0,0,0,1.1-.887,10.976,10.976,0,0,1,1.505-3.637,1.128,1.128,0,0,0-.148-1.4L13.938,16,16,13.941l1.466,1.467a1.13,1.13,0,0,0,1.4.147,10.97,10.97,0,0,1,3.637-1.505,1.129,1.129,0,0,0,.887-1.1v-1.87a.577.577,0,0,0,.115-.2h2.8v2.075a1.128,1.128,0,0,0,.887,1.1,10.976,10.976,0,0,1,3.637,1.505,1.129,1.129,0,0,0,1.4-.148L33.7,13.941,35.766,16,34.3,17.469a1.128,1.128,0,0,0-.148,1.4,10.97,10.97,0,0,1,1.505,3.637,1.129,1.129,0,0,0,1.1.887h2.075Z" transform="translate(0 0)" fill="#e0ba22"/>
    </g>
  </g>
</svg>
