<svg id="Iconly_Bold_Heart" data-name="Iconly/Bold/Heart" xmlns="http://www.w3.org/2000/svg" width="24" height="24" viewBox="0 0 24 24">
  <rect id="Iconly_Bold_Heart-2" data-name="Iconly/Bold/Heart" width="24" height="24" fill="none"/>
  <g id="Heart">
    <path id="Heart-2" data-name="Heart" d="M12.029,21.5h0l-.259-.161A38.161,38.161,0,0,1,5.4,16.38a13,13,0,0,1-3.011-4.8,7.744,7.744,0,0,1,.143-5.275A6.084,6.084,0,0,1,6.321,2.769,4.571,4.571,0,0,1,7.21,2.56h.12A5.828,5.828,0,0,1,8.17,2.5h.11a6.266,6.266,0,0,1,1.831.329h.059a.355.355,0,0,1,.09.059,3.508,3.508,0,0,1,.63.261l.38.17a2.667,2.667,0,0,1,.286.189c.057.041.106.077.144.1l.041.024A2.435,2.435,0,0,1,12,3.8a6.223,6.223,0,0,1,3.8-1.3h.048a5.827,5.827,0,0,1,1.86.29,6.019,6.019,0,0,1,3.755,3.517,7.915,7.915,0,0,1,.154,5.272,12.781,12.781,0,0,1-3.009,4.81,38.556,38.556,0,0,1-6.332,4.96l-.25.151ZM16.936,5.618a.809.809,0,0,0-.756.542.821.821,0,0,0,.5,1.03,1.674,1.674,0,0,1,1.07,1.57V8.79a.86.86,0,0,0,.19.62.846.846,0,0,0,.57.291.825.825,0,0,0,.79-.761V8.821a3.3,3.3,0,0,0-2.11-3.16A.777.777,0,0,0,16.936,5.618Z" 
    fill="none" stroke-width="1.5" stroke="#E0BA22"/>
  </g>
</svg>
