<svg xmlns="http://www.w3.org/2000/svg" width="18.233" height="18" viewBox="0 0 18.233 18">
  <g id="icon_Extras" transform="translate(-22.5 -425)">
    <path id="Path_818" data-name="Path 818" d="M93.686,70.388a3.743,3.743,0,0,1-1.78-.317.322.322,0,1,0-.305.566q.1.054.2.1a2.811,2.811,0,0,0-1.5,1.577,2.852,2.852,0,0,0-1.5-1.578,2.854,2.854,0,0,0,1.5-1.578c.062.152.118.257.12.262A.322.322,0,1,0,91,69.126a3.446,3.446,0,0,1-.344-1.66.35.35,0,0,0-.287-.388.354.354,0,0,0-.408.269,3.085,3.085,0,0,1-1.117,2.642,3.547,3.547,0,0,1-1.925.4.355.355,0,0,0,0,.691,3.531,3.531,0,0,1,1.941.411,3,3,0,0,1,1.092,2.56.354.354,0,0,0,.692.1,3.208,3.208,0,0,1,1.068-2.632,3.337,3.337,0,0,1,1.946-.431A.354.354,0,0,0,93.686,70.388Zm10.845-6.273c-.588-.065-4.778.523-6.609-3.322a9.122,9.122,0,0,1-.768-4.086.4.4,0,0,0-.784.072v.834c-.145,2.868-1.451,5.31-4.191,6.169a10.533,10.533,0,0,1-3.213.338.4.4,0,0,0,0,.777c.359.076,3.057-.362,5.153,1.379a.322.322,0,1,0,.411-.495,6.419,6.419,0,0,0-2.567-1.272,6.411,6.411,0,0,0,4.8-5.1,6.39,6.39,0,0,0,4.81,5.1A6.4,6.4,0,0,0,96.762,69.6a7.585,7.585,0,0,0-1.155-2.65.322.322,0,1,0-.525.371,6.192,6.192,0,0,1,.528.905,9.009,9.009,0,0,1,.761,4.037.4.4,0,1,0,.79-.089c-.044-1.066.039-4.678,2.956-6.392a8.543,8.543,0,0,1,4.451-.884.4.4,0,0,0-.036-.782Z" transform="translate(-64.143 368.603)" fill="#fff"/>
  </g>
</svg>
