<svg xmlns="http://www.w3.org/2000/svg" width="15.998" height="18" viewBox="0 0 15.998 18">
  <g id="icon__protrction" data-name="icon_ protrction" transform="translate(-3.556 -2)">
    <path id="Path_821" data-name="Path 821" d="M3.556,5.472v4.2a10.916,10.916,0,0,0,6.957,10.13,2.9,2.9,0,0,0,2.086,0l.624-.24a10,10,0,0,0,6.332-9.48V5.472a.643.643,0,0,0-.617-.642,12.776,12.776,0,0,1-7-2.706.644.644,0,0,0-.759,0,12.779,12.779,0,0,1-7,2.706.643.643,0,0,0-.618.643Zm1.286.6a14.121,14.121,0,0,0,6.714-2.642,14.119,14.119,0,0,0,6.714,2.642v4.012a8.724,8.724,0,0,1-5.508,8.279l-.624.24a1.616,1.616,0,0,1-1.163,0A9.624,9.624,0,0,1,4.841,9.676v-3.6Z" transform="translate(0 0)" fill="#fff"/>
    <path id="Path_822" data-name="Path 822" d="M12.5,17.124a.621.621,0,0,0,.878,0l3.861-3.86a.621.621,0,1,0-.878-.878l-3.422,3.422L11.181,14.05a.621.621,0,1,0-.878.878Z" transform="translate(-2.215 -3.551)" fill="#fff"/>
  </g>
</svg>
