<svg xmlns="http://www.w3.org/2000/svg" width="18" height="14.392" viewBox="0 0 18 14.392">
  <g id="icon_preferences" transform="translate(-2 -4)">
    <path id="Path_826" data-name="Path 826" d="M16.4,11.2a3.6,3.6,0,1,0-3.487-4.5H2.9a.9.9,0,1,0,0,1.8H12.913A3.6,3.6,0,0,0,16.4,11.2ZM14.6,7.6a1.8,1.8,0,1,0,1.8-1.8A1.8,1.8,0,0,0,14.6,7.6ZM2,14.8a3.6,3.6,0,0,1,7.087-.9H19.1a.9.9,0,0,1,0,1.8H9.087A3.6,3.6,0,0,1,2,14.8Zm5.4,0a1.8,1.8,0,1,0-1.8,1.8A1.8,1.8,0,0,0,7.4,14.8Z" fill="#fff" fill-rule="evenodd"/>
  </g>
</svg>
