<svg xmlns="http://www.w3.org/2000/svg" width="16.714" height="18" viewBox="0 0 16.714 18">
  <g id="icon_Details" transform="translate(-3 -2)">
    <path id="Layer_56" data-name="Layer 56" d="M5.571,8.429a.643.643,0,0,1,.643-.643h5.143a.643.643,0,1,1,0,1.286H6.214A.643.643,0,0,1,5.571,8.429ZM19.714,5.214V18.071A1.929,1.929,0,0,1,17.786,20H4.929A1.929,1.929,0,0,1,3,18.071V5.214A1.929,1.929,0,0,1,4.929,3.286H6.857A1.286,1.286,0,0,1,8.143,2h6.429a1.286,1.286,0,0,1,1.286,1.286h1.929a1.929,1.929,0,0,1,1.929,1.929ZM8.143,4.571h6.429V3.286H8.143Zm10.286.643a.643.643,0,0,0-.643-.643H15.857a1.286,1.286,0,0,1-1.286,1.286H8.143A1.286,1.286,0,0,1,6.857,4.571H4.929a.643.643,0,0,0-.643.643V18.071a.643.643,0,0,0,.643.643H17.786a.643.643,0,0,0,.643-.643ZM15.214,11h-9a.643.643,0,1,0,0,1.286h9a.643.643,0,1,0,0-1.286Zm0,3.214h-9a.643.643,0,1,0,0,1.286h9a.643.643,0,1,0,0-1.286Z" fill="#fff"/>
  </g>
</svg>
