<svg xmlns="http://www.w3.org/2000/svg" xmlns:xlink="http://www.w3.org/1999/xlink" width="30" height="30" viewBox="0 0 30 30">
  <defs>
    <clipPath id="clip-path">
      <path id="Path_715" data-name="Path 715" d="M0-682.665H22.038v22.038H0Z" transform="translate(0 0)" fill="none"/>
    </clipPath>
  </defs>
  <g id="icon_car" transform="translate(-20 -275)">
    <g id="Rectangle_128" data-name="Rectangle 128" transform="translate(20 275)" fill="none" stroke="#fff" stroke-width="1">
      <rect width="30" height="30" rx="15" stroke="none"/>
      <rect x="0.5" y="0.5" width="29" height="29" rx="14.5" fill="none"/>
    </g>
    <g id="Group_870" data-name="Group 870" transform="translate(23.981 961.646)" clip-path="url(#clip-path)">
      <path id="Path_702" data-name="Path 702" d="M-103.431-51.716a1.725,1.725,0,0,1-1.725,1.725,1.725,1.725,0,0,1-1.725-1.725,1.725,1.725,0,0,1,1.725-1.725A1.725,1.725,0,0,1-103.431-51.716Z" transform="translate(109.619 -617.859)" fill="none" stroke="#fff" stroke-linecap="round" stroke-linejoin="round" stroke-width="0.7"/>
      <path id="Path_703" data-name="Path 703" d="M0,0H10.006" transform="translate(6.189 -668.885)" fill="none" stroke="#fff" stroke-linecap="round" stroke-linejoin="round" stroke-width="0.7"/>
      <path id="Path_704" data-name="Path 704" d="M-14.627,0l-.488.488" transform="translate(19.334 -669.82)" fill="none" stroke="#fff" stroke-linecap="round" stroke-linejoin="round" stroke-width="0.7"/>
      <path id="Path_705" data-name="Path 705" d="M-103.431-51.716a1.725,1.725,0,0,1-1.725,1.725,1.725,1.725,0,0,1-1.725-1.725,1.725,1.725,0,0,1,1.725-1.725A1.725,1.725,0,0,1-103.431-51.716Z" transform="translate(123.076 -617.859)" fill="none" stroke="#fff" stroke-linecap="round" stroke-linejoin="round" stroke-width="0.7"/>
      <path id="Path_706" data-name="Path 706" d="M0,0,.488.488" transform="translate(17.676 -669.82)" fill="none" stroke="#fff" stroke-linecap="round" stroke-linejoin="round" stroke-width="0.7"/>
      <path id="Path_707" data-name="Path 707" d="M-72.4-186.175l-1.665-.476a1.035,1.035,0,0,1-.751-1v-2.06a.69.69,0,0,1,.6-.685l1.276-.16a5.175,5.175,0,0,0,1.673-.506l1.638-.819a4.83,4.83,0,0,1,2.16-.51h3.074a4.485,4.485,0,0,1,2.408.7l2.694,1.714a14.8,14.8,0,0,1,5.079.906,1.372,1.372,0,0,1,.787,1.248v1.145c0,.534-.309.841-.69.841" transform="translate(75.14 -483.055)" fill="none" stroke="#fff" stroke-linecap="round" stroke-linejoin="round" stroke-width="0.7"/>
      <path id="Path_708" data-name="Path 708" d="M-72.4-31.029h-.666a1.725,1.725,0,0,1-1.22-.505l-.53-.53" transform="translate(79.281 -641.997)" fill="none" stroke="#fff" stroke-linecap="round" stroke-linejoin="round" stroke-width="0.7"/>
      <path id="Path_709" data-name="Path 709" d="M-227.547,0h-7.591" transform="translate(243.397 -673.026)" fill="none" stroke="#fff" stroke-linecap="round" stroke-linejoin="round" stroke-width="0.7"/>
      <path id="Path_710" data-name="Path 710" d="M0,0H7.246" transform="translate(7.569 -670.266)" fill="none" stroke="#fff" stroke-linecap="round" stroke-linejoin="round" stroke-width="0.7"/>
      <path id="Path_711" data-name="Path 711" d="M0,0H.69" transform="translate(0.323 -671.991)" fill="none" stroke="#fff" stroke-linecap="round" stroke-linejoin="round" stroke-width="0.7"/>
      <path id="Path_712" data-name="Path 712" d="M0,0H.834" transform="translate(20.681 -671.301)" fill="none" stroke="#fff" stroke-linecap="round" stroke-linejoin="round" stroke-width="0.7"/>
      <path id="Path_713" data-name="Path 713" d="M0-72.4v-2.415" transform="translate(9.639 -600.624)" fill="none" stroke="#fff" stroke-linecap="round" stroke-linejoin="round" stroke-width="0.7"/>
      <path id="Path_714" data-name="Path 714" d="M0-59.48l.449-1.984" transform="translate(5.671 -613.686)" fill="none" stroke="#fff" stroke-linecap="round" stroke-linejoin="round" stroke-width="0.7"/>
    </g>
  </g>
</svg>
