<svg xmlns="http://www.w3.org/2000/svg" width="13.299" height="18" viewBox="0 0 13.299 18">
  <g id="icon_Location" transform="translate(-48.08 0)">
    <path id="Path_812" data-name="Path 812" d="M54.729,0A6.657,6.657,0,0,0,48.08,6.649a7.672,7.672,0,0,0,.564,2.56,10.722,10.722,0,0,0,.769,1.437l4.559,6.908a.867.867,0,0,0,1.515,0l4.559-6.908a10.678,10.678,0,0,0,.769-1.437,7.67,7.67,0,0,0,.564-2.56A6.657,6.657,0,0,0,54.729,0Zm5.364,8.906a9.826,9.826,0,0,1-.7,1.31l-4.559,6.908c-.09.137-.119.137-.208,0l-4.559-6.908a9.83,9.83,0,0,1-.7-1.311,6.964,6.964,0,0,1-.5-2.256,5.867,5.867,0,0,1,11.734,0,6.969,6.969,0,0,1-.5,2.256Z" fill="#fff"/>
    <path id="Path_813" data-name="Path 813" d="M115.654,64.008a3.461,3.461,0,1,0,3.574,3.46A3.522,3.522,0,0,0,115.654,64.008Zm0,6.15a2.692,2.692,0,1,1,2.78-2.691A2.74,2.74,0,0,1,115.654,70.158Z" transform="translate(-60.925 -60.844)" fill="#fff"/>
  </g>
</svg>
