<svg xmlns="http://www.w3.org/2000/svg" width="24.302" height="28.88" viewBox="0 0 24.302 28.88">
  <g id="icon_thumbs_up" data-name="icon_thumbs up" transform="translate(0.5 0.5)">
    <path id="Path_827" data-name="Path 827" d="M162.854,255.249h-7.618a1.748,1.748,0,0,0,0,3.5,1.748,1.748,0,1,0,0,3.5,1.748,1.748,0,0,0,0,3.5h1.33a1.748,1.748,0,0,0,0,3.5h7.9a12.475,12.475,0,0,0,6.478-2.1" transform="translate(-153.488 -241.352)" fill="none" stroke="#fff" stroke-linecap="round" stroke-linejoin="round" stroke-width="1"/>
    <path id="Path_828" data-name="Path 828" d="M169.2,109.081c-3.344-2.133-4.367-4.676-5.01-8.733-.2-1.285-.58-2.509-2.413-1.593a4.3,4.3,0,0,0-1.654,4.857l.983,3.71m-7.618,3.5h2.382m-2.382,3.5h2.382m-1.052,3.5h1.052" transform="translate(-151.74 -93.424)" fill="none" stroke="#fff" stroke-linecap="round" stroke-linejoin="round" stroke-width="1"/>
    <path id="Path_829" data-name="Path 829" d="M66.744,37.422h3.831a1.009,1.009,0,0,0,1.006-1.006v-11.4a1.009,1.009,0,0,0-1.006-1.006H66.744a1.009,1.009,0,0,0-1.006,1.006v11.4a1.009,1.009,0,0,0,1.006,1.005ZM65.738,25.656V35.776m2.788-8.624v0M63.841,12.7l1.007-.893M53.574,12.7,52.567,11.8m6.141-.458V10m8.316,6.706-1.346.056m-15.285-.056,1.346.056" transform="translate(-48.278 -10)" fill="none" stroke="#fff" stroke-linecap="round" stroke-linejoin="round" stroke-width="1"/>
  </g>
</svg>
