<svg xmlns="http://www.w3.org/2000/svg" width="18" height="14.017" viewBox="0 0 18 14.017">
  <g id="icon_Distance" transform="translate(-0.232 -3.499)">
    <path id="Path_819" data-name="Path 819" d="M17.072,14.267a.458.458,0,0,0,0-.915H15.934a.458.458,0,0,0,0,.915ZM10.99,8.4V7.261a.457.457,0,1,0-.914,0V8.4A.457.457,0,0,0,10.99,8.4Zm-4.6,1.911A.458.458,0,0,0,7.04,9.66l-.8-.805A.457.457,0,0,0,5.59,9.5l.8.8Zm-2.4,3.044a.458.458,0,0,0,0,.915H5.132a.458.458,0,0,0,0-.915Zm5.21,1.788a1.879,1.879,0,0,0,2.656,0,29.8,29.8,0,0,0,2.548-4.656.453.453,0,0,0-.615-.5c-.047.01-1.178.561-2.345,1.163-1.646.711-3.879,2.043-2.244,4Zm.646-2.014A20.612,20.612,0,0,1,12.962,11.4a23.146,23.146,0,0,1-1.747,3.094.966.966,0,0,1-1.364-1.366Z" transform="translate(-1.292 -1.288)" fill="#fff"/>
    <path id="Path_820" data-name="Path 820" d="M14.041,4.907C7.2.536-1.593,7.041.564,14.851a.457.457,0,0,0,.882-.238C-.938,4.162,13.835.173,17.037,10.4a8.072,8.072,0,0,1-.837,6.2H2.026a.457.457,0,0,0,0,.914h14.43a.458.458,0,0,0,.386-.213A8.987,8.987,0,0,0,14.041,4.907Z" transform="translate(0 0)" fill="#fff"/>
  </g>
</svg>
