<svg id="icon_question" xmlns="http://www.w3.org/2000/svg" width="16" height="16" viewBox="0 0 16 16">
  <path id="Path_718" data-name="Path 718" d="M8,0a8,8,0,1,0,8,8A8,8,0,0,0,8,0ZM8,14.884A6.884,6.884,0,1,1,14.884,8,6.892,6.892,0,0,1,8,14.884Z" fill="#e0ba22"/>
  <path id="Path_719" data-name="Path 719" d="M188.359,133.608a.811.811,0,0,0,0,1.622.811.811,0,0,0,0-1.622Zm.137-6.139c-1.422,0-2.074.842-2.074,1.411a.6.6,0,0,0,.632.6c.569,0,.337-.811,1.411-.811.527,0,.948.232.948.716,0,.569-.59.9-.937,1.19a1.927,1.927,0,0,0-.706,1.6c0,.548.147.706.579.706.516,0,.621-.232.621-.432a1.323,1.323,0,0,1,.59-1.316,2.7,2.7,0,0,0,1.179-1.927C190.738,128.217,189.843,127.469,188.5,127.469Z" transform="translate(-180.595 -123.486)" fill="#e0ba22"/>
</svg>
