<svg xmlns="http://www.w3.org/2000/svg" width="18" height="17.999" viewBox="0 0 18 17.999">
  <g id="icon_history" transform="translate(0.002 0.001)">
    <path id="Path_823" data-name="Path 823" d="M9,18A9,9,0,1,1,15.6,2.881a.562.562,0,1,1-.825.764A7.875,7.875,0,1,0,16.873,9,.562.562,0,1,1,18,9a9.01,9.01,0,0,1-9,9Z" transform="translate(0)" fill="#fff"/>
    <path id="Path_824" data-name="Path 824" d="M26.564,3.95A.564.564,0,0,1,26,3.386V.564a.564.564,0,1,1,1.129,0V3.386A.564.564,0,0,1,26.564,3.95Z" transform="translate(-11.387 0)" fill="#fff"/>
    <path id="Path_825" data-name="Path 825" d="M24.386,6.129H21.564a.564.564,0,0,1,0-1.129h2.821a.564.564,0,0,1,0,1.129Z" transform="translate(-9.209 -2.189)" fill="#fff"/>
  </g>
</svg>
