<svg xmlns="http://www.w3.org/2000/svg" width="18" height="17.996" viewBox="0 0 18 17.996">
  <g id="icon_Photos" transform="translate(-2.25 -2.25)">
    <path id="Path_816" data-name="Path 816" d="M17.837,20.246H4.659A2.409,2.409,0,0,1,2.25,17.837V4.659A2.409,2.409,0,0,1,4.659,2.25H17.837a2.409,2.409,0,0,1,2.409,2.409V17.837a2.409,2.409,0,0,1-2.409,2.409ZM4.659,3.634A1.024,1.024,0,0,0,3.634,4.659V17.837a1.024,1.024,0,0,0,1.024,1.024H17.837a1.024,1.024,0,0,0,1.024-1.024V4.659a1.024,1.024,0,0,0-1.024-1.024Z" transform="translate(0)" fill="#fff"/>
    <path id="Path_817" data-name="Path 817" d="M2.942,18.81a.68.68,0,0,1-.526-.26A.792.792,0,0,1,2.254,18,.772.772,0,0,1,2.5,17.49l4.725-4.32a1.743,1.743,0,0,1,2.492.11l2.243,2.43a.435.435,0,0,0,.6,0L14.736,14a1.734,1.734,0,0,1,2.252,0l3,2.59a.8.8,0,0,1,.111,1.06.66.66,0,0,1-.978.12l-2.99-2.6a.434.434,0,0,0-.563,0L13.389,17a1.741,1.741,0,0,1-2.409-.18L8.738,14.34a.435.435,0,0,0-.618,0l-4.734,4.3a.634.634,0,0,1-.443.17Zm11.074-7.06A2.65,2.65,0,0,1,11.479,9a2.65,2.65,0,0,1,2.538-2.75A2.65,2.65,0,0,1,16.555,9a2.65,2.65,0,0,1-2.538,2.75Zm0-4A1.2,1.2,0,0,0,12.863,9,1.157,1.157,0,1,0,15.17,9,1.2,1.2,0,0,0,14.017,7.75Z" transform="translate(0 -0.867)" fill="#fff"/>
  </g>
</svg>
