<svg xmlns="http://www.w3.org/2000/svg" width="24" height="24" viewBox="0 0 24 24">
  <g id="Group_757" data-name="Group 757" transform="translate(-332 -486)">
    <g id="Group_723" data-name="Group 723" transform="translate(336.219 490.219)">
      <path id="Path_558" data-name="Path 558" d="M101.294,90H94.269L90,94.269v7.025l4.269,4.269h7.025l4.269-4.269V94.269Z" transform="translate(-90 -90)" fill="#fd2424"/>
    </g>
    <g id="Group_725" data-name="Group 725" transform="translate(332 486)">
      <path id="Path_559" data-name="Path 559" d="M23.794,6.534,17.466.206a.7.7,0,0,0-.5-.206H7.031a.7.7,0,0,0-.5.206L.206,6.534a.7.7,0,0,0-.206.5v9.938a.7.7,0,0,0,.206.5l6.328,6.328a.7.7,0,0,0,.5.206h9.938a.7.7,0,0,0,.5-.206l6.328-6.328a.7.7,0,0,0,.206-.5V7.031A.7.7,0,0,0,23.794,6.534ZM21.187,15.8a.7.7,0,0,1-.206.5L16.3,20.981a.7.7,0,0,1-.5.206H8.2a.7.7,0,0,1-.5-.206L3.019,16.3a.7.7,0,0,1-.206-.5V8.2a.7.7,0,0,1,.206-.5L7.7,3.019a.7.7,0,0,1,.5-.206H15.8a.7.7,0,0,1,.5.206L20.981,7.7a.7.7,0,0,1,.206.5Z" fill="#fd2424"/>
    </g>
  </g>
</svg>
