<svg id="Iconly_Bold_Arrow_-_Down_Square" data-name="Iconly/Bold/Arrow - Down Square" xmlns="http://www.w3.org/2000/svg" width="16" height="16" viewBox="0 0 16 16">
  <rect id="Iconly_Bold_Arrow_-_Down_Square-2" data-name="Iconly/Bold/Arrow - Down Square" width="16" height="16" fill="none"/>
  <g id="Iconly_Bold_Arrow_-_Down_Square-3" data-name="Iconly/Bold/Arrow - Down Square">
    <rect id="Iconly_Bold_Arrow_-_Down_Square-4" data-name="Iconly/Bold/Arrow - Down Square" width="16" height="16" fill="none"/>
    <g id="Group">
      <path id="Exclude" d="M10.886,14.666H5.107A3.657,3.657,0,0,1,1.333,10.72V5.273A3.653,3.653,0,0,1,5.107,1.334h5.78a3.656,3.656,0,0,1,3.78,3.939V10.72A3.66,3.66,0,0,1,10.886,14.666ZM5.5,7.713a.527.527,0,0,0-.354.147.5.5,0,0,0,0,.707l2.5,2.513a.515.515,0,0,0,.706,0l2.5-2.513a.5.5,0,0,0,0-.707.512.512,0,0,0-.713,0L8.5,9.513V5.28a.5.5,0,0,0-.5-.5.5.5,0,0,0-.5.5V9.513L5.854,7.86A.514.514,0,0,0,5.5,7.713Z" 
      fill="#246BFD"/>
    </g>
  </g>
</svg>