<svg xmlns="http://www.w3.org/2000/svg" width="26" height="30.233" viewBox="0 0 26 30.233">
  <g id="car-key" transform="translate(-35.841)">
    <path id="Path_492" data-name="Path 492" d="M76.162,303.951H79.91a2.809,2.809,0,1,0,0-5.617H76.162a2.809,2.809,0,1,0,0,5.617Zm0-4.582H79.91a1.773,1.773,0,1,1,0,3.546H76.162a1.773,1.773,0,1,1,0-3.546Z" transform="translate(-34.874 -281.339)" fill="#fff"/>
    <path id="Path_493" data-name="Path 493" d="M76.162,397.093H79.91a2.809,2.809,0,1,0,0-5.617H76.162a2.809,2.809,0,1,0,0,5.617Zm0-4.582H79.91a1.773,1.773,0,1,1,0,3.546H76.162a1.773,1.773,0,1,1,0-3.546Z" transform="translate(-34.874 -369.718)" fill="#fff"/>
    <path id="Path_494" data-name="Path 494" d="M61.626,21.443l-1.1-1.1a.435.435,0,0,0-.615.615l1,1-1.4,1.4-.586-.585v-.935a.736.736,0,0,0-.735-.735h-.6a1.644,1.644,0,0,0-.478-1.027,1.664,1.664,0,0,0-1.36-.474l-2.617-2.617v-.935a.736.736,0,0,0-.735-.735h-.935L50.443,14.3l1.829-1.829,3.565,3.565a.737.737,0,0,0,.086.936l2.646,2.646A.435.435,0,1,0,59.184,19l-2.56-2.56a.737.737,0,0,0-.086-.936l-3.652-3.652.634-.634a2.157,2.157,0,0,0,0-3.051L50.469,5.118a2.157,2.157,0,0,0-3.051,0L45.563,6.973l-.044-.044A4.4,4.4,0,0,0,39.888.5a.435.435,0,1,0,.4.77,3.488,3.488,0,0,1,1.633-.4,3.535,3.535,0,0,1,3.463,2.849,3.719,3.719,0,0,0-6.927,0A3.5,3.5,0,0,1,39,2.426a.435.435,0,0,0-.721-.487,4.4,4.4,0,0,0,3.212,6.837v.872a2.522,2.522,0,0,0-1.2.537l-2.827,2.3A4.388,4.388,0,0,0,35.841,15.9v6.471a.435.435,0,1,0,.87,0V15.9a3.522,3.522,0,0,1,1.3-2.743l2.827-2.3a1.656,1.656,0,0,1,.647-.324v2.8H40.47a1.551,1.551,0,1,0,0,3.1h2.907a1.55,1.55,0,0,0,1.349-2.313l1.417,1.417a2.145,2.145,0,0,0,.915.543V26.552a2.815,2.815,0,0,1-2.812,2.812H39.522a2.815,2.815,0,0,1-2.812-2.812V24.42a.435.435,0,1,0-.87,0v2.131a3.685,3.685,0,0,0,3.681,3.681h4.725a3.685,3.685,0,0,0,3.681-3.681V16.161a2.146,2.146,0,0,0,1.266-.615l.634-.634,1.064,1.064a.73.73,0,0,0,.52.215h.856v.856a.731.731,0,0,0,.215.52l2.7,2.7a.736.736,0,0,0,.633.209.785.785,0,0,1,.912.772.736.736,0,0,0,.735.73h.592v.857a.731.731,0,0,0,.215.52l.72.72a.735.735,0,0,0,1.04,0l1.594-1.594a.736.736,0,0,0,0-1.04Zm-18.534-12a2.177,2.177,0,0,0-.284.351,2.52,2.52,0,0,0-.45-.132V8.776a4.384,4.384,0,0,0,2.59-1.187h0ZM41.924,2.226A2.849,2.849,0,0,1,44.57,6.135a.434.434,0,0,0-.387.678,2.852,2.852,0,0,1-1.825,1.082v-.01a.435.435,0,0,0-.87,0v.01a2.851,2.851,0,0,1,.435-5.669Zm1.453,13.347H40.47a.681.681,0,1,1,0-1.362h1.055a.435.435,0,0,0,.8,0h1.055a.681.681,0,0,1,0,1.362Zm0-2.232H42.358V10.558c.045.014.089.029.133.047a2.185,2.185,0,0,0-.031.364,2.143,2.143,0,0,0,.632,1.525l1.047,1.047a1.541,1.541,0,0,0-.763-.2Zm5.2,1.59a1.289,1.289,0,0,1-1.821,0L43.707,11.88a1.287,1.287,0,0,1,0-1.821L45.563,8.2l.4.4A1.674,1.674,0,0,0,48.6,10.625h0A1.674,1.674,0,0,0,46.58,7.991l-.4-.4,1.856-1.856a1.287,1.287,0,0,1,1.821,0l3.051,3.051a1.287,1.287,0,0,1,0,1.821ZM46.847,10.01a.8.8,0,0,1-.215-.745.434.434,0,0,0,.607-.608.809.809,0,0,1,.177-.02.8.8,0,0,1,.569,1.373h0A.805.805,0,0,1,46.847,10.01Z" fill="#fff"/>
    <path id="Path_495" data-name="Path 495" d="M121.933,415.873a.518.518,0,0,0,.732,0l.376-.376.376.376a.518.518,0,1,0,.732-.732l-.376-.376.376-.376a.518.518,0,0,0-.732-.732l-.376.376-.376-.376a.518.518,0,0,0-.732.732l.376.376-.376.376A.518.518,0,0,0,121.933,415.873Z" transform="translate(-80.951 -390.198)" fill="#fff"/>
    <path id="Path_496" data-name="Path 496" d="M117.976,321.868a.687.687,0,0,0,.972,0l1.35-1.35a.518.518,0,1,0-.732-.732l-1.1,1.1-.3-.3a.518.518,0,1,0-.732.732Z" transform="translate(-76.737 -301.021)" fill="#fff"/>
  </g>
</svg>
