<svg xmlns="http://www.w3.org/2000/svg" width="27.005" height="27" viewBox="0 0 27.005 27">
  <g id="legal-document" transform="translate(0 -0.044)">
    <path id="Path_485" data-name="Path 485" d="M68.657,133.2h6.07a.4.4,0,1,0,0-.791h-6.07a.4.4,0,1,0,0,.791Z" transform="translate(-64.661 -125.379)" fill="#fff"/>
    <path id="Path_486" data-name="Path 486" d="M68.657,312.4a.4.4,0,1,0,0,.791h6.6a.4.4,0,1,0,0-.791Z" transform="translate(-64.661 -295.885)" fill="#fff"/>
    <path id="Path_487" data-name="Path 487" d="M215.234,193.2a.4.4,0,0,0,0-.791H210.9a.4.4,0,0,0,0,.791Z" transform="translate(-199.398 -182.214)" fill="#fff"/>
    <path id="Path_488" data-name="Path 488" d="M66.634,193.2H72.4a.4.4,0,0,0,0-.791H66.634a.4.4,0,0,0,0,.791Z" transform="translate(-62.744 -182.214)" fill="#fff"/>
    <path id="Path_489" data-name="Path 489" d="M66.634,253.2h9.281a.4.4,0,1,0,0-.791H66.634a.4.4,0,1,0,0,.791Z" transform="translate(-62.744 -239.05)" fill="#fff"/>
    <path id="Path_490" data-name="Path 490" d="M66.634,373.2h7.7a.4.4,0,1,0,0-.791h-7.7a.4.4,0,1,0,0,.791Z" transform="translate(-62.744 -352.72)" fill="#fff"/>
    <path id="Path_491" data-name="Path 491" d="M27,22.754a1.905,1.905,0,0,0-.844-1.393l-3.439-2.718.782-.781a1.147,1.147,0,0,0,.5.111h0a1.5,1.5,0,0,0,1.047-.459l0,0a1.32,1.32,0,0,0,.14-1.838l-4.029-4.051a1.22,1.22,0,0,0-1.432-.155V8.033a1.955,1.955,0,0,0-.585-1.4L13.071.623A1.993,1.993,0,0,0,11.66.044H2.529A2.52,2.52,0,0,0,0,2.548V4.015a.4.4,0,0,0,.791,0V2.548A1.728,1.728,0,0,1,2.529.835l9.4.031V5.95a1.833,1.833,0,0,0,1.838,1.824h5.139l.03,4.618a1.258,1.258,0,0,0,.048.939L15.411,16.9a1.392,1.392,0,0,0-1.554.34,1.316,1.316,0,0,0-.145,1.841l4.041,4.04a1.176,1.176,0,0,0,1.182.253,1.783,1.783,0,0,1-.5,1.426,1.73,1.73,0,0,1-1.248.507l-.81-.006a1.457,1.457,0,0,0-.919-.75v-.335A1.452,1.452,0,0,0,14,22.766H9.133a1.452,1.452,0,0,0-1.45,1.45v.335a1.456,1.456,0,0,0-.887.691H2.529A1.728,1.728,0,0,1,.791,23.53V5.859a.4.4,0,0,0-.791,0V23.53a2.52,2.52,0,0,0,2.529,2.5h4.08v.351a.66.66,0,0,0,.659.659h1.8a.4.4,0,0,0,0-.791H7.4v-.3a.66.66,0,0,1,.659-.659h7.017a.66.66,0,0,1,.659.659v.3H10.918a.4.4,0,0,0,0,.791h4.95a.66.66,0,0,0,.659-.659v-.29l.669,0a2.525,2.525,0,0,0,1.792-.737,2.474,2.474,0,0,0,.738-1.767v-.769a1.346,1.346,0,0,0,.209-1.4l.759-.759,2.713,3.449a1.786,1.786,0,0,0,2.934.185A2.014,2.014,0,0,0,27,22.754Zm-17.868.8H14a.66.66,0,0,1,.659.659V24.5H8.473v-.285A.66.66,0,0,1,9.133,23.558ZM19.882,12.322c.207-.19.482-.325.715-.143l4.029,4.051c.154.155.087.494-.142.725-.213.2-.526.34-.747.111l-1.492-1.5a.4.4,0,1,0-.561.558L22.9,17.345c-1.047,1.046-2.434,2.433-3.481,3.479l-3.405-3.4,3.49-3.489.868.873a.4.4,0,0,0,.561-.558l-1.149-1.155c-.21-.165-.148-.513.1-.769ZM12.72,5.95V1.388l5.649,5.6h-4.6A1.041,1.041,0,0,1,12.72,5.95Zm5.593,16.613-4.041-4.04c-.182-.233-.049-.509.14-.717.251-.246.6-.311.761-.107l4,4c.182.234.048.512-.143.719C18.8,22.65,18.466,22.716,18.312,22.563Zm7.47,1.179a1.033,1.033,0,0,1-1.75-.112L21.258,20.1l.9-.9,3.515,2.779a1.04,1.04,0,0,1,.112,1.757Z" transform="translate(0 0)" fill="#fff"/>
  </g>
</svg>
