<svg id="Iconly_Light_Calendar" data-name="Iconly/Light/Calendar" xmlns="http://www.w3.org/2000/svg" width="25" height="25" viewBox="0 0 25 25">
  <rect id="Iconly_Light_Calendar-2" data-name="Iconly/Light/Calendar" width="21" height="21" fill="none"/>
  <g id="Calendar" transform="translate(2.591 3.536)">
    <path id="Line_200" d="M0,.473H15.672" transform="translate(0.076 5.992)" fill="none" stroke="#fff" stroke-linecap="round" stroke-linejoin="round" stroke-width="1.5" fill-rule="evenodd"/>
    <path id="Line_201" d="M.459.473H.466" transform="translate(11.354 9.403)" fill="none" stroke="#fff" stroke-linecap="round" stroke-linejoin="round" stroke-width="1.5" fill-rule="evenodd"/>
    <path id="Line_202" d="M.459.473H.466" transform="translate(7.454 9.403)" fill="none" stroke="#fff" stroke-linecap="round" stroke-linejoin="round" stroke-width="1.5" fill-rule="evenodd"/>
    <path id="Line_203" d="M.459.473H.466" transform="translate(3.547 9.403)" fill="none" stroke="#fff" stroke-linecap="round" stroke-linejoin="round" stroke-width="1.5" fill-rule="evenodd"/>
    <path id="Line_204" d="M.459.473H.466" transform="translate(11.354 12.796)" fill="none" stroke="#fff" stroke-linecap="round" stroke-linejoin="round" stroke-width="1.5" fill-rule="evenodd"/>
    <path id="Line_205" d="M.459.473H.466" transform="translate(7.454 12.796)" fill="none" stroke="#fff" stroke-linecap="round" stroke-linejoin="round" stroke-width="1.5" fill-rule="evenodd"/>
    <path id="Line_206" d="M.459.473H.466" transform="translate(3.547 12.796)" fill="none" stroke="#fff" stroke-linecap="round" stroke-linejoin="round" stroke-width="1.5" fill-rule="evenodd"/>
    <path id="Line_207" d="M.463,0V2.709" transform="translate(10.999)" fill="none" stroke="#fff" stroke-linecap="round" stroke-linejoin="round" stroke-width="1.5" fill-rule="evenodd"/>
    <path id="Line_208" d="M.463,0V2.709" transform="translate(3.9)" fill="none" stroke="#fff" stroke-linecap="round" stroke-linejoin="round" stroke-width="1.5" fill-rule="evenodd"/>
    <path id="Path" d="M15.817,4.074v8.007c0,2.639-1.6,4.082-4.192,4.082H4.192C1.612,16.164,0,14.695,0,12.015V4.074C0,1.435,1.612,0,4.192,0h7.44C14.222,0,15.825,1.435,15.817,4.074Z" transform="translate(0 1.3)" fill="none" stroke="#fff" stroke-linecap="round" stroke-linejoin="round" stroke-width="1.5" fill-rule="evenodd"/>
  </g>
</svg>
