<svg id="Category_Location_2_Component_Maps_Component" data-name="Category=Location 2, Component=Maps Component" xmlns="http://www.w3.org/2000/svg" xmlns:xlink="http://www.w3.org/1999/xlink" width="52" height="52" viewBox="0 0 52 52">
  <defs>
    <linearGradient id="linear-gradient" x1="1" y1="1" x2="0" gradientUnits="objectBoundingBox">
      <stop offset="0" stop-color="#febb1b" stop-opacity="0.251"/>
      <stop offset="1" stop-color="#ffc740" stop-opacity="0.251"/>
    </linearGradient>
    <linearGradient id="linear-gradient-2" x1="1" y1="1" x2="0" gradientUnits="objectBoundingBox">
      <stop offset="0" stop-color="#febb1b"/>
      <stop offset="1" stop-color="#ffc740"/>
    </linearGradient>
  </defs>
  <rect id="Category_Location_2_Component_Maps_Component-2" data-name="Category=Location 2, Component=Maps Component" width="52" height="52" rx="26" fill="url(#linear-gradient)"/>
  <g id="Auto_Layout_Horizontal" data-name="Auto Layout Horizontal" transform="translate(8 8)">
    <rect id="Auto_Layout_Horizontal-2" data-name="Auto Layout Horizontal" width="36" height="36" rx="18" fill="url(#linear-gradient-2)"/>
    <g id="Iconly_Bold_Location" data-name="Iconly/Bold/Location" transform="translate(8 8)">
      <rect id="Iconly_Bold_Location-2" data-name="Iconly/Bold/Location" width="20" height="20" fill="none"/>
      <g id="Group">
        <path id="Exclude" d="M10,18.334a1.131,1.131,0,0,1-.612-.207,17.908,17.908,0,0,1-4.617-4.284A8.648,8.648,0,0,1,2.917,8.6,7.013,7.013,0,0,1,9.995,1.667,7.019,7.019,0,0,1,17.083,8.6a8.654,8.654,0,0,1-1.859,5.245,18.266,18.266,0,0,1-4.617,4.284A1.1,1.1,0,0,1,10,18.334ZM9.995,6.481a2.314,2.314,0,1,0,2.344,2.333A2.335,2.335,0,0,0,9.995,6.481Z" fill="#35383f"/>
      </g>
    </g>
  </g>
</svg>
