<svg xmlns="http://www.w3.org/2000/svg" width="45" height="45" viewBox="0 0 45 45">
  <g id="Group_403" data-name="Group 403" transform="translate(-52 -510)">
    <g id="Path_204" data-name="Path 204" transform="translate(52 510)" fill="none">
      <path d="M22.5,0A22.5,22.5,0,1,1,0,22.5,22.5,22.5,0,0,1,22.5,0Z" stroke="none"/>
      <path d="M 22.5 2 C 19.73163986206055 2 17.04714012145996 2.541740417480469 14.52108955383301 3.61016845703125 C 12.0802001953125 4.642578125 9.887641906738281 6.120979309082031 8.004310607910156 8.004310607910156 C 6.120979309082031 9.887641906738281 4.642578125 12.0802001953125 3.61016845703125 14.52108955383301 C 2.541740417480469 17.04714012145996 2 19.73163986206055 2 22.5 C 2 25.26836013793945 2.541740417480469 27.95285987854004 3.61016845703125 30.47891044616699 C 4.642578125 32.9197998046875 6.120979309082031 35.11235809326172 8.004310607910156 36.99568939208984 C 9.887641906738281 38.87902069091797 12.0802001953125 40.357421875 14.52108955383301 41.38983154296875 C 17.04714012145996 42.45825958251953 19.73163986206055 43 22.5 43 C 25.26836013793945 43 27.95285987854004 42.45825958251953 30.47891044616699 41.38983154296875 C 32.9197998046875 40.357421875 35.11235809326172 38.87902069091797 36.99568939208984 36.99568939208984 C 38.87902069091797 35.11235809326172 40.357421875 32.9197998046875 41.38983154296875 30.47891044616699 C 42.45825958251953 27.95285987854004 43 25.26836013793945 43 22.5 C 43 19.73163986206055 42.45825958251953 17.04714012145996 41.38983154296875 14.52108955383301 C 40.357421875 12.0802001953125 38.87902069091797 9.887641906738281 36.99568939208984 8.004310607910156 C 35.11235809326172 6.120979309082031 32.9197998046875 4.642578125 30.47891044616699 3.61016845703125 C 27.95285987854004 2.541740417480469 25.26836013793945 2 22.5 2 M 22.5 0 C 34.92641067504883 0 45 10.07358932495117 45 22.5 C 45 34.92641067504883 34.92641067504883 45 22.5 45 C 10.07358932495117 45 0 34.92641067504883 0 22.5 C 0 10.07358932495117 10.07358932495117 0 22.5 0 Z" stroke="none" fill="#fff"/>
    </g>
    <g id="pin" transform="translate(64.455 519.197)">
      <g id="Group_395" data-name="Group 395">
        <g id="Group_394" data-name="Group 394">
          <path id="Path_200" data-name="Path 200" d="M93.706,0a9.647,9.647,0,0,0-9.768,9.5,9.25,9.25,0,0,0,1.9,5.624l7.4,10.683a.579.579,0,0,0,.944,0l7.4-10.683a9.25,9.25,0,0,0,1.9-5.624A9.647,9.647,0,0,0,93.706,0Zm6.947,14.477-.021.029-6.926,10-6.925-10-.022-.031A8.171,8.171,0,0,1,85.077,9.5a8.633,8.633,0,0,1,17.259,0A8.171,8.171,0,0,1,100.654,14.477Z" transform="translate(-83.938)" fill="#fff"/>
        </g>
      </g>
      <g id="Group_397" data-name="Group 397" transform="translate(5.339 5.01)">
        <g id="Group_396" data-name="Group 396" transform="translate(0)">
          <path id="Path_201" data-name="Path 201" d="M184.07,94.642a.554.554,0,0,0-.554.554,3.321,3.321,0,1,1-1.465-2.755.554.554,0,1,0,.62-.918,4.429,4.429,0,1,0,1.952,3.672A.554.554,0,0,0,184.07,94.642Z" transform="translate(-175.765 -90.766)" fill="#fff"/>
        </g>
      </g>
      <g id="Group_401" data-name="Group 401" transform="translate(12.74 7.065)">
        <g id="Group_400" data-name="Group 400">
          <path id="Path_203" data-name="Path 203" d="M308.517,127.98h-.011a.554.554,0,1,0,0,1.107h.011a.554.554,0,0,0,0-1.107Z" transform="translate(-307.952 -127.98)" fill="#fff"/>
        </g>
      </g>
    </g>
  </g>
</svg>
