<svg xmlns="http://www.w3.org/2000/svg" viewBox="1.32 1.33 13.36 13.34">
  <g id="Auto_Layout_Horizontal" data-name="Auto Layout Horizontal" transform="translate(0 -2)">
    <g id="Iconly_Bold_Arrow_-_Down_Square" data-name="Iconly/Bold/Arrow - Down Square" transform="translate(0 2)">
      <rect id="Iconly_Bold_Arrow_-_Down_Square-2" data-name="Iconly/Bold/Arrow - Down Square" width="16" height="16" fill="none"/>
      <g id="Iconly_Bold_Arrow_-_Down_Square-3" data-name="Iconly/Bold/Arrow - Down Square">
        <rect id="Iconly_Bold_Arrow_-_Down_Square-4" data-name="Iconly/Bold/Arrow - Down Square" width="16" height="16" fill="none"/>
        <g id="Iconly_Bold_Arrow_-_Down_Square-5" data-name="Iconly/Bold/Arrow - Down Square">
          <rect id="Iconly_Bold_Arrow_-_Down_Square-6" data-name="Iconly/Bold/Arrow - Down Square" width="16" height="16" fill="none"/>
          <g id="Iconly_Bold_Close_Square" data-name="Iconly/Bold/Close Square">
            <rect id="Iconly_Bold_Close_Square-2" data-name="Iconly/Bold/Close Square" width="16" height="16" fill="none"/>
            <g id="Group">
              <path id="Exclude" d="M10.894,14.666H5.113a3.656,3.656,0,0,1-3.78-3.939V5.279a3.66,3.66,0,0,1,3.78-3.946h5.781a3.657,3.657,0,0,1,3.773,3.946v5.448A3.653,3.653,0,0,1,10.894,14.666ZM8,8.82H8L9.186,10a.552.552,0,0,0,.407.174.584.584,0,0,0,.413-.994L8.82,7.994l1.186-1.188a.583.583,0,0,0-.41-1,.593.593,0,0,0-.416.171L8,7.166,6.813,5.981A.592.592,0,0,0,6.4,5.81a.584.584,0,0,0-.411,1L7.173,7.994,5.987,9.174a.584.584,0,0,0,0,.826.593.593,0,0,0,.413.174A.585.585,0,0,0,6.813,10L8,8.821Z" fill="#fd2424"/>
            </g>
          </g>
        </g>
      </g>
    </g>
  </g>
</svg>