<svg id="Frame" xmlns="http://www.w3.org/2000/svg" width="328.589" height="250" viewBox="0 0 328.589 250">
  <rect id="Frame-2" data-name="Frame" width="328.589" height="250" fill="none"/>
  <path id="Vector" d="M108.783,75.219h-1.2V199.16a19.006,19.006,0,0,1-19.006,19.006H19.006A19.006,19.006,0,0,1,0,199.159V19.006A19.006,19.006,0,0,1,19.006,0H88.578a19.006,19.006,0,0,1,19.006,19.006V51.844h1.2Z" transform="translate(22.702)" fill="#3f3d56"/>
  <path id="Vector-2" data-name="Vector" d="M153.784.805H.4A.4.4,0,0,1,.4,0H153.784a.4.4,0,0,1,0,.805Z" transform="translate(0 217.391)" fill="#616161"/>
  <path id="Vector-3" data-name="Vector" d="M1.741,42.249A10.573,10.573,0,0,1,3.193,40.4c.227-.236.467-.458.714-.674a11.329,11.329,0,0,1,18.68,6.444c1.66-6.14-2.662-12.188-7.007-16.834S6.263,19.6,6.288,13.233a12.259,12.259,0,0,1,4.36-9.042c.081-.071.161-.142.244-.21A16.534,16.534,0,0,1,22.279.012c7.729.414,14.478,5.609,19.164,11.77C48.988,21.7,52.294,35.613,47.012,46.9,42.367,56.826,32.46,62.72,22.348,67.459q-2.118.993-4.227,1.926c-.009,0-.019.009-.029.012-.068.03-.135.06-.2.09l-.868.383.133.087.416.269-.431-.259c-.043-.026-.088-.051-.131-.078-4.966-2.98-10-6.132-13.432-10.784C.022,54.274-1.409,47.355,1.741,42.249Z" transform="translate(277.746 179.289)" fill="#35383f"/>
  <path id="Vector-4" data-name="Vector" d="M31.681,27.062a28.106,28.106,0,0,1,2.164,7.862,24.406,24.406,0,0,1-.294,7.251A31.27,31.27,0,0,1,27.28,55.591a45,45,0,0,1-8.125,7.9q-2.118.993-4.227,1.926c-.009,0-.019.009-.029.012-.068.03-.135.06-.2.09l-.868.383.133.087.416.269L13.95,66c-.043-.026-.088-.051-.131-.078a24.878,24.878,0,0,0,.468-11.75,24.878,24.878,0,0,0-4.98-10.652A25.091,25.091,0,0,0,0,36.43c.227-.236.467-.458.714-.674A26.013,26.013,0,0,1,4.7,38.032,25.49,25.49,0,0,1,14.346,50.81a26.061,26.061,0,0,1,.566,14.569c.249-.163.5-.33.743-.5a45.7,45.7,0,0,0,12.1-11.462A29.091,29.091,0,0,0,32.918,40.3a26.292,26.292,0,0,0-2.984-14.857,60.892,60.892,0,0,0-9.54-13.555A69.192,69.192,0,0,0,7.6.891a.5.5,0,0,1-.147-.67A.423.423,0,0,1,7.7.011a.368.368,0,0,1,.314.063c.58.387,1.155.777,1.723,1.179A69.977,69.977,0,0,1,22.523,12.935a56.336,56.336,0,0,1,9.159,14.127Z" transform="translate(280.938 183.258)" fill="#1f222a"/>
  <path id="Vector-5" data-name="Vector" d="M.118.687A.4.4,0,0,1,.4,0H153.784a.4.4,0,0,1,0,.805H.4A.4.4,0,0,1,.118.687Z" transform="translate(174.402 249.195)" fill="#616161"/>
  <path id="Vector-6" data-name="Vector" d="M7.436,25.349H.895L0,0,7.437.117Z" transform="translate(204.257 217.762)" fill="#ffb7b7"/>
  <path id="Vector-7" data-name="Vector" d="M21.093,8.477H0V8.21A8.21,8.21,0,0,1,8.21,0H21.093Z" transform="translate(192.268 240.975)" fill="#2f2e41"/>
  <path id="Vector-8" data-name="Vector" d="M21.756,21.233l-5.5,3.534L0,5.216,8.124,0Z" transform="translate(252.812 211.156)" fill="#ffb7b7"/>
  <path id="Vector-9" data-name="Vector" d="M19.2,7.133l-17.75,11.4L1.3,18.3A8.21,8.21,0,0,1,3.774,6.96h0L14.616,0Z" transform="translate(260.202 229.69)" fill="#2f2e41"/>
  <path id="Vector-10" data-name="Vector" d="M7.477,25.044A5.9,5.9,0,0,1,3.033,14.2L15.554,0l10.59,2.288L11.249,16.876a5.867,5.867,0,0,1-3.772,8.167Z" transform="translate(187.924 125.408)" fill="#ffb7b7"/>
  <path id="Vector-11" data-name="Vector" d="M8.8,4.4A4.4,4.4,0,1,1,4.4,0,4.4,4.4,0,0,1,8.8,4.4Z" transform="translate(167.918 115.677)" fill="#35383f"/>
  <path id="Vector-12" data-name="Vector" d="M8.8,4.4A4.4,4.4,0,1,1,4.4,0,4.4,4.4,0,0,1,8.8,4.4Z" transform="translate(296.742 103.6)" fill="#35383f"/>
  <path id="Vector-13" data-name="Vector" d="M89.532,1.08a14.193,14.193,0,0,1,8.762,13.113V194.083A14.193,14.193,0,0,1,84.1,208.276H14.193A14.193,14.193,0,0,1,0,194.083V14.193A14.193,14.193,0,0,1,14.193,0h8.482a6.743,6.743,0,0,0,6.243,9.29H68.776A6.743,6.743,0,0,0,75.019,0H84.1a14.193,14.193,0,0,1,5.432,1.08Z" transform="translate(27.946 4.945)" fill="#1f222a"/>
  <path id="Vector-14" data-name="Vector" d="M67.992,34A34,34,0,1,1,34,0,34,34,0,0,1,67.992,34Z" transform="translate(43.097 71.17)" fill="#febb1b"/>
  <path id="Vector-15" data-name="Vector" d="M11.539,25.856a3.526,3.526,0,0,1-2.121-.7l-.038-.028L1.39,19.01a3.55,3.55,0,0,1,4.32-5.635l5.175,3.968L23.114,1.39A3.549,3.549,0,0,1,28.09.732h0l-.076.105.078-.105A3.553,3.553,0,0,1,28.75,5.71L14.366,24.467a3.551,3.551,0,0,1-2.824,1.385Z" transform="translate(62.186 92.279)" fill="#1f222a"/>
  <path id="Vector-16" data-name="Vector" d="M40.718,22.3,9.512,61.471,0,57.1,36.679,0Z" transform="translate(195.876 77.3)" fill="#3f3d56"/>
  <path id="Vector-17" data-name="Vector" d="M22.9,9.108a5.867,5.867,0,0,1-6.728,2.42L3.652,28.2,0,18,12.447,3.732A5.9,5.9,0,1,1,22.9,9.108Z" transform="translate(287.486 32.182)" fill="#ffb7b7"/>
  <path id="Vector-18" data-name="Vector" d="M0,43.826,51.821,0l5.573,8.86L16.078,52.954Z" transform="translate(243.589 41.47)" fill="#3f3d56"/>
  <path id="Vector-19" data-name="Vector" d="M28.986,14.493A14.493,14.493,0,1,1,14.493,0,14.493,14.493,0,0,1,28.986,14.493Z" transform="translate(235.953 38.647)" fill="#2f2e41"/>
  <path id="Vector-20" data-name="Vector" d="M0,8.4A30.389,30.389,0,0,1,11.056,1.254,15.555,15.555,0,0,1,19.432.214a7.982,7.982,0,0,1,6.216,5.237,9.883,9.883,0,0,1-1.01,6.766c-.989,2.11-2.31,4.067-3.11,6.256A14.279,14.279,0,0,0,35.9,37.62c-2.745.368-5.276,1.658-7.959,2.345s-5.851.64-7.845-1.282c-2.11-2.034-2.152-5.341-2.05-8.27L18.5,17.351a16.592,16.592,0,0,0-.657-6.584c-.8-2.072-2.7-3.887-4.925-3.868-1.684.014-3.174,1.034-4.524,2.04a9.244,9.244,0,0,1-4.457,2.229C2.255,11.317.34,10.076.466,8.4Z" transform="translate(251.611 36.55)" fill="#2f2e41"/>
  <path id="Vector-21" data-name="Vector" d="M69.26,89.956s-17.971,8.512-33.2.41S0,80.961,0,80.961,12.5,30.875,24.615,15.413c0,0,9.347-16.194,15.148-15.384S63.616,60.794,63.616,60.794Z" transform="translate(200.214 72.958)" fill="#3f3d56"/>
  <path id="Vector-22" data-name="Vector" d="M69.26,89.956s-17.971,8.512-33.2.41S0,80.961,0,80.961,20.95,40.537,26.989,15.577c0,0,6.973-16.358,12.774-15.548S63.616,60.794,63.616,60.794Z" transform="translate(200.214 72.958)" opacity="0.1"/>
  <path id="Vector-23" data-name="Vector" d="M47.179,4.18V34.306l3.545,43.641,17.713,33.011L59.984,117,35.829,85.6,26.276,54.417l-15,69.021L0,122.633l7.829-95.7L22.684,0Z" transform="translate(201.841 111.634)" fill="#2f2e41"/>
  <path id="Vector-24" data-name="Vector" d="M16.1,0s.007.25,12.084.653l6.039,6.441L25.362,46.7,0,39.855,6.441,25.362s-5.233-6.039.4-11.675c0,0,7.143-11.617,9.259-13.688Z" transform="translate(223.976 72.987)" fill="#febb1b"/>
  <path id="Vector-25" data-name="Vector" d="M23.455,2.219h0a10.821,10.821,0,0,1,3.131,13.82c-2.906,5.547-6.031,14.139-4.419,23.571,2.916,17.07,12.265,30.039,17.473,34.2a5.074,5.074,0,0,1,1.61,5.077c-.743,4.235-4.85,9.041-7.69,10.005a1.836,1.836,0,0,1-.593.093C28.351,88.991,17,74.3,3.958,45.587-4.165,27.709,1.73,13.373,8.106,4.5a10.823,10.823,0,0,1,15.208-2.38Z" transform="translate(235.909 73.863)" fill="#3f3d56"/>
  <path id="Vector-26" data-name="Vector" d="M21.337,10.668A10.668,10.668,0,1,1,10.668,0,10.668,10.668,0,0,1,21.337,10.668Z" transform="translate(231.596 52.604) rotate(-28.663)" fill="#ffb7b7"/>
  <path id="Vector-27" data-name="Vector" d="M0,11.511A11.524,11.524,0,0,1,11.511,0h2.172a11.523,11.523,0,0,1,11.51,11.511v.217H20.6L19.038,7.344l-.313,4.383H16.353l-.79-2.212L15.4,11.728H0Z" transform="translate(231.071 44.314)" fill="#2f2e41"/>
  <path id="Vector-28" data-name="Vector" d="M.307.307,0,0H12.417V15.964L5.843,18.1C9.342,19.734,4.585,4.579.307.307Z" transform="translate(248.093 45.894)" fill="#2f2e41"/>
  <path id="Vector-29" data-name="Vector" d="M14.44,7.22A7.22,7.22,0,1,1,7.22,0,7.22,7.22,0,0,1,14.44,7.22Z" transform="translate(204.15 1.346)" fill="#35383f"/>
</svg>
