<svg xmlns="http://www.w3.org/2000/svg" xmlns:xlink="http://www.w3.org/1999/xlink" width="339.003" height="250" viewBox="0 0 339.003 250">
  <defs>
    <linearGradient id="linear-gradient" x1="0.5" y1="1" x2="0.5" gradientUnits="objectBoundingBox">
      <stop offset="0" stop-color="gray" stop-opacity="0.251"/>
      <stop offset="0.54" stop-color="gray" stop-opacity="0.122"/>
      <stop offset="1" stop-color="gray" stop-opacity="0.102"/>
    </linearGradient>
  </defs>
  <g id="Frame" transform="translate(0.003)">
    <rect id="Frame-2" data-name="Frame" width="339" height="250" fill="none"/>
    <path id="Vector" d="M299.794,3.133c-20.679,21.42-49.145,36.64-81.531,42.155C155.654,55.952,71.765,65.241,34.568,47.23,16.675,38.563,5.353,20.683,0,0Z" transform="translate(3.649 119.859)" fill="#febb1b" opacity="0.1"/>
    <path id="Vector-2" data-name="Vector" d="M319.668,22.5a3.135,3.135,0,0,0,1.932-.653,44.186,44.186,0,0,1,4.034,16.237H0C11.319,17.632,30.207,5.4,55.62,12.646,106.749,27.2,163.161,20.432,193.325,14.8a72.283,72.283,0,0,0,25.129-9.964c6.157-3.861,23.612-7.616,72.5-1.938a51.39,51.39,0,0,1,13.988,3.488h-17.93a2.845,2.845,0,0,0-2.971,2.684,2.847,2.847,0,0,0,2.971,2.687h4.241a2.842,2.842,0,0,0-2.968,2.684,2.845,2.845,0,0,0,2.968,2.687h-5.942a2.849,2.849,0,0,0-2.968,2.687,2.846,2.846,0,0,0,2.968,2.684h34.352Z" transform="translate(12.299 0.001)" fill="#febb1b" opacity="0.1"/>
    <path id="Vector-3" data-name="Vector" d="M324.632,17.158a127.93,127.93,0,0,1-20.956,28.906L2.071,36.085A123.994,123.994,0,0,1,.739,0ZM123,23.059a2.845,2.845,0,0,0-2.968-2.687h-4.241a2.842,2.842,0,0,0,2.968-2.684A2.845,2.845,0,0,0,115.788,15H81.435a2.85,2.85,0,0,0-2.971,2.687,2.847,2.847,0,0,0,2.971,2.684h4.244a2.847,2.847,0,0,0-2.968,2.687,2.844,2.844,0,0,0,2.968,2.684H79.737a2.849,2.849,0,0,0-2.968,2.687,2.846,2.846,0,0,0,2.968,2.684H114.09a2.847,2.847,0,0,0,2.971-2.684,2.849,2.849,0,0,0-2.971-2.687h5.939A2.842,2.842,0,0,0,123,23.059Z" transform="translate(-0.003 76.688)" fill="#febb1b" opacity="0.1"/>
    <path id="Vector-4" data-name="Vector" d="M336.18,18.394A116.841,116.841,0,0,1,331.4,38H0A109.2,109.2,0,0,1,7.886,7.24L337.166,0a83.9,83.9,0,0,1-.986,18.394ZM69.823,21.056a2.847,2.847,0,0,0-2.968-2.687H62.615a2.842,2.842,0,0,0,2.968-2.684A2.845,2.845,0,0,0,62.615,13H28.263a2.85,2.85,0,0,0-2.971,2.687,2.847,2.847,0,0,0,2.971,2.684h4.244a2.847,2.847,0,0,0-2.968,2.687,2.844,2.844,0,0,0,2.968,2.684H26.565A2.849,2.849,0,0,0,23.6,26.426a2.849,2.849,0,0,0,2.968,2.687H60.917a2.849,2.849,0,0,0,2.971-2.687,2.849,2.849,0,0,0-2.971-2.687h5.939A2.844,2.844,0,0,0,69.823,21.056Z" transform="translate(0.78 38.27)" fill="#febb1b" opacity="0.1"/>
    <path id="Vector-5" data-name="Vector" d="M275.5,12.669c0,7-61.672,12.669-137.749,12.669S0,19.666,0,12.669,61.672,0,137.749,0,275.5,5.672,275.5,12.669Z" transform="translate(30.232 215.317)" fill="#febb1b" opacity="0.1"/>
    <path id="Vector-6" data-name="Vector" d="M66.849,42.1a1.029,1.029,0,0,1-.154.558c-.616.967-2.49.4-3.082,1.377-.3.5-.086,1.115-.015,1.682.29,2.3-2.425,4.4-4.663,3.611-.271,1.476-.635,3.093-1.868,3.99a4.123,4.123,0,0,1-4.623-.237,8.31,8.31,0,0,1-2.727-3.931c-.7-1.824-1.227-3.885-2.829-5.059-.589-.422-1.273-.693-1.849-1.118l.69,6.045,1.646,14.441s.635,1.448,1.168,1.291.508,8.528.478,8.562-.065.065-.1.1a9.979,9.979,0,0,0,1.319,2.117c1.113,1.186,2.866,9.382.53,8.458-1.991-.792-5.526-5.931-6.687-8.165a5.4,5.4,0,0,1-3.322-1.2c.675,3.694,1.168,7.123.826,7.767-.8,1.494,1.8,10.679,1.8,10.679a47.806,47.806,0,0,1-6.65.746c-.025.308-.025.616-.025.924-.1,4.477-.327,9.061-.718,9.773-.487.869-.3,3.919-.08,6.162.022.222.043.431.065.635a4.734,4.734,0,0,1,.616.154L36.22,123.85s-1.328,3.716-.213,4.7.052,4.024.052,4.024-.157.573.8,2.465,0,2.773,0,2.773v3.654a7.592,7.592,0,0,0,.1,4.489c.851,2.012-.1,6.19-.478,6.242h-.12c-.928.043-6.2,0-6.2,0a2.532,2.532,0,0,1-.216-.25,4.128,4.128,0,0,1-.684-4.085,28.279,28.279,0,0,0,1.06-7.17,3.218,3.218,0,0,0,.052-1.849,3.265,3.265,0,0,1-.108-1.7,4.264,4.264,0,0,0-.308-1.186,3.569,3.569,0,0,1,.055-1.753,12.83,12.83,0,0,0-.533-3.251c-.478-1.34-3.982-17.279-3.131-19.189l.561-.086c-.018-.2-.046-.4-.046-.616a48.213,48.213,0,0,1,.5-7.555s-.32-6.858-.481-7.53c-.068-.287-.176-2.536-.277-5l-4.857-.185c-.077,5.272-.311,12.857-.8,13.726s-.3,3.919-.08,6.162c.022.222.043.431.065.635a4.875,4.875,0,0,1,.6.154l-.376,12.386s-1.328,3.716-.213,4.7.052,4.024.052,4.024-.157.573.8,2.465,0,2.773,0,2.773v3.66a7.592,7.592,0,0,0,.1,4.489c.851,2.012-.1,6.19-.478,6.242h-.12c-.928.043-6.2,0-6.2,0a2.532,2.532,0,0,1-.216-.25,4.128,4.128,0,0,1-.663-4.092,28.279,28.279,0,0,0,1.06-7.17,3.218,3.218,0,0,0,.052-1.849,3.265,3.265,0,0,1-.108-1.7,4.264,4.264,0,0,0-.308-1.186,3.543,3.543,0,0,1,.052-1.753,12.759,12.759,0,0,0-.53-3.251c-.478-1.34-3.982-17.279-3.131-19.189l.561-.086c-.018-.2-.046-.4-.046-.616a48.377,48.377,0,0,1,.493-7.555s-.317-6.858-.478-7.53c-.062-.268-.16-1.125-.256-2.049-.031-.28-.062-.588-.089-.9a7.354,7.354,0,0,1-1.849.351C5.149,93.7-.854,90.962.1,89.989c1.156-1.186,6.937-22.03,6.937-22.03s2.918-12.894,5.467-14.7a2.687,2.687,0,0,0,.958-1.3c.037-.1.068-.2.1-.308h-.1a4.929,4.929,0,0,0,.271-1.482,14.478,14.478,0,0,0-.857-4.03h.111c-.068-.194-.111-.308-.111-.308s-.817-.974-1.92-2.329l-.157.616c3.649,2.819.749,8.122.749,8.122-5.1,2.952-8.654-2.56-8.919-4.313-.145-.857.672-2.163,1.541-3.281a2.984,2.984,0,0,1,.037-1.827c.826-1.322.8-6.452.8-7.305a.182.182,0,0,1,0-.123c.373-.567.373-3.608.373-3.608s1-4.794,1.59-7.117,4.777-2.9,6-2.684,3.979.924,5.143,0a1.88,1.88,0,0,1,1.584-.277,1.024,1.024,0,0,1,.176-.018c.151,0,.287-.022.419-.022l-.333-.222a3.767,3.767,0,0,1-2.136-3.371c-.29-2.523-2.783-4.736-2.727-7.086a3.142,3.142,0,0,1,.176-1.02,3.253,3.253,0,0,1,.188-.422v.062c.644-1.251,2.019-2.123,2.515-3.454a3.8,3.8,0,0,0,.16-.616v.031a5.986,5.986,0,0,0,.086-1.128c-.006-.45-.034-.9-.034-1.343V2.709h0A3.94,3.94,0,0,1,18.592,1.1a.368.368,0,0,0,0,.062,2.157,2.157,0,0,1,.749-.82c1.908-1.235,4.373,1.309,6.6.789a11.977,11.977,0,0,0,1.572-.65c2.6-1.008,5.544.823,7.017,3.14S36.543,8.7,37.8,11.129a6.193,6.193,0,0,0,1.932,2.388,3.069,3.069,0,0,0,2.986.336q1.824,3.947,3.649,7.891c.94,2.037,2.049,4.24,4.151,5.133.94.4,1.985.49,2.952.813a6.252,6.252,0,0,1,4.126,4.692,11.366,11.366,0,0,0,.379,2.067c.814,2.129,3.609,2.607,5.643,3.722a7.793,7.793,0,0,1,2.854,2.7,2.631,2.631,0,0,1,.391.989v.1a.456.456,0,0,0,0,.065.379.379,0,0,1-.012.083Zm-29.915,7.86c.031-.558-.376-4.381-.706-7.361a7.465,7.465,0,0,0-.57.967,10.012,10.012,0,0,0-.749,2.693,1.755,1.755,0,0,0-.04.28h.04v.028a23.515,23.515,0,0,0-.247,3.321c.012,1.254.1,2.135.1,2.135h-.025a2.769,2.769,0,0,1,.025.308,10.758,10.758,0,0,1,3.516,6.116c-.616-3.506-1.374-7.937-1.341-8.488Zm1.658,10.266a19.406,19.406,0,0,1,.1,4.122s1.125,5,2.006,9.739v-.052L39.058,62.8s-.194-1.063-.465-2.576Z" transform="translate(241.512 81.321)" fill="url(#linear-gradient)"/>
    <path id="Vector-7" data-name="Vector" d="M2.638,18.006C2.33,15.159-.752,12.7.172,9.995c.5-1.476,2.074-2.379,2.6-3.845a8.979,8.979,0,0,0,.2-3.059A3.212,3.212,0,0,1,4.074.342c1.849-1.232,4.228,1.3,6.385.786A11.3,11.3,0,0,0,11.979.481c2.518-1,5.365.823,6.78,3.127s1.945,5.053,3.159,7.475a6.131,6.131,0,0,0,1.868,2.375,2.9,2.9,0,0,0,2.891.336L30.2,21.65c.925,2.024,1.985,4.218,4.006,5.108.906.4,1.917.487,2.854.81a6.163,6.163,0,0,1,4.006,4.668,11.5,11.5,0,0,0,.367,2.061c.786,2.12,3.489,2.594,5.458,3.7a7.633,7.633,0,0,1,2.774,2.684,1.777,1.777,0,0,1,.243,1.756c-.595.961-2.4.394-2.977,1.371a2.559,2.559,0,0,0,0,1.676,3.563,3.563,0,0,1-4.512,3.593c-.262,1.47-.616,3.081-1.806,3.971a3.882,3.882,0,0,1-4.465-.234A8.258,8.258,0,0,1,33.517,48.9c-.681-1.818-1.19-3.87-2.74-5.038-.561-.419-1.233-.69-1.781-1.112a7.514,7.514,0,0,1-2.29-4.005,41.9,41.9,0,0,0-1.849-5.586,8.408,8.408,0,0,0-3.923-4.236c-1.68-.755-3.615-.706-5.35-1.319-2.986-1.054-5.2-3.565-8.167-4.748a13.218,13.218,0,0,1-2.681-1.516,3.682,3.682,0,0,1-2.1-3.334Z" transform="translate(257.411 82.006)" fill="#3f3d56"/>
    <g id="Group" opacity="0.1">
      <path id="Vector-8" data-name="Vector" d="M.055,1.947A4.313,4.313,0,0,1,.459,0a5.5,5.5,0,0,0-.1,1.023,9.059,9.059,0,0,1-.2,3.059A3.119,3.119,0,0,1,0,4.455,14.177,14.177,0,0,0,.055,1.947Z" transform="translate(260.326 83.096)" opacity="0.1"/>
      <path id="Vector-9" data-name="Vector" d="M40.886,42.562a3.784,3.784,0,0,0,1.208-1.648,4.55,4.55,0,0,1-1.507,2.563,3.888,3.888,0,0,1-4.465-.237,8.255,8.255,0,0,1-2.638-3.91c-.681-1.818-1.2-3.87-2.74-5.038-.545-.419-1.22-.693-1.778-1.112a7.532,7.532,0,0,1-2.293-3.99A37.778,37.778,0,0,0,24.823,23.6,8.473,8.473,0,0,0,20.9,19.368c-1.676-.755-3.612-.7-5.347-1.319C12.564,17,10.354,14.484,7.387,13.3A13.391,13.391,0,0,1,4.7,11.785,3.8,3.8,0,0,1,2.638,8.43C2.33,5.586-.752,3.13.172.419A3.906,3.906,0,0,1,.354,0c-.422,2.514,2.29,4.84,2.6,7.509a3.808,3.808,0,0,0,2.065,3.355A13.391,13.391,0,0,0,7.7,12.38c2.968,1.183,5.177,3.694,8.167,4.748,1.735.613,3.67.564,5.347,1.319a8.408,8.408,0,0,1,3.923,4.236,41.466,41.466,0,0,1,1.849,5.586,7.552,7.552,0,0,0,2.293,3.99c.545.419,1.22.693,1.778,1.112,1.553,1.168,2.059,3.22,2.74,5.038a8.121,8.121,0,0,0,2.623,3.916,3.883,3.883,0,0,0,4.465.237Z" transform="translate(257.432 91.523)" opacity="0.1"/>
      <path id="Vector-10" data-name="Vector" d="M2.963,0a1.125,1.125,0,0,1-.142.724C2.272,1.608.7,1.2,0,1.892a1.3,1.3,0,0,1,.148-.721C.676.274,2.248.678,2.963,0Z" transform="translate(304.498 123.674)" opacity="0.1"/>
      <path id="Vector-11" data-name="Vector" d="M4.373,0A3.618,3.618,0,0,1,0,2.835c.074-.32.133-.65.191-.958A3.585,3.585,0,0,0,4.373,0Z" transform="translate(299.932 128.237)" opacity="0.1"/>
    </g>
    <path id="Vector-12" data-name="Vector" d="M10.275.936C9.2,3.45,15.052,5.351,15.052,5.351L14.589,11l-.361,9.348L7.964,23.736,2.928,17.327S-2.052,3.925.977,3.882s2-2.114,2-2.114,8.373-3.346,7.295-.832Z" transform="translate(261.049 99.725)" fill="#fbbebe"/>
    <path id="Vector-13" data-name="Vector" d="M.508,0H4.7L8.013,3.516C3.7,8.344,0,4.7,0,4.7Z" transform="translate(282.215 151.434)" fill="#575a89"/>
    <path id="Vector-14" data-name="Vector" d="M8.013,3.516C3.7,8.344,0,4.7,0,4.7L.508,0" transform="translate(282.108 151.434)" opacity="0.1"/>
    <path id="Vector-15" data-name="Vector" d="M4.108,0S5.6,3.9,6.675,5.084s2.774,9.345.515,8.421S.616,5.7.357,4.52A39.93,39.93,0,0,1,0,0Z" transform="translate(284.73 152.075)" fill="#fbbebe"/>
    <path id="Vector-16" data-name="Vector" d="M7.578,0,17.615.2l2.311,8.424L0,7.857Z" transform="translate(256.532 164.245)" fill="#575a89"/>
    <path id="Vector-17" data-name="Vector" d="M7.578,0l10.04.2L19.93,8.627,0,7.857Z" transform="translate(259.303 164.245)" opacity="0.1"/>
    <path id="Vector-18" data-name="Vector" d="M9.347,18.782c-.472.878-.29,3.916-.077,6.162.136,1.43.284,2.53.284,2.53S2.1,29.785.977,27.782A6.09,6.09,0,0,1,.5,25.339a49.264,49.264,0,0,1,.478-7.521s-.308-6.828-.462-7.5C.453,10.053.357,9.2.265,8.282.129,6.914,0,5.392,0,5.392L10.17,0s0,1.011-.018,2.567c-.055,4.887-.219,15.137-.8,16.216Z" transform="translate(253.706 167.224)" fill="#fbbebe"/>
    <path id="Vector-19" data-name="Vector" d="M9.054,2.707S1.606,5.017.478,3.015A6.09,6.09,0,0,1,0,.571C1.541.337,6.231-.31,8.771.177c.136,1.43.284,2.53.284,2.53Z" transform="translate(254.205 191.992)" opacity="0.1"/>
    <path id="Vector-20" data-name="Vector" d="M9.937,40.912H9.82c-.9.034-5.994,0-5.994,0a2.774,2.774,0,0,1-.21-.246A4.2,4.2,0,0,1,2.954,36.6,28.936,28.936,0,0,0,3.98,29.46a3.308,3.308,0,0,0,.052-1.849,3.336,3.336,0,0,1-.1-1.695,4.389,4.389,0,0,0-.308-1.18,3.52,3.52,0,0,1,.052-1.747,13.077,13.077,0,0,0-.515-3.235C2.7,18.42-.695,2.553.128.652c0,0,7.19-1.232,9.914-.308L9.682,12.668s-1.285,3.7-.206,4.674.052,4.005.052,4.005-.154.564.77,2.465,0,2.773,0,2.773V30.23a7.793,7.793,0,0,0,.1,4.468c.82,2-.1,6.15-.462,6.215Z" transform="translate(253.578 192.607)" fill="#3f3d56"/>
    <path id="Vector-21" data-name="Vector" d="M9.347,20.353c-.472.878-.29,3.916-.077,6.162.136,1.43.284,2.53.284,2.53S2.1,31.356.977,29.353A6.09,6.09,0,0,1,.5,26.91a49.264,49.264,0,0,1,.478-7.521s-.308-6.828-.462-7.5c-.083-.36-.228-3.8-.342-6.883C.077,2.379,0,0,0,0L10.17,1.571s0,4.471-.126,9.064c-.111,4.455-.317,9.021-.7,9.718Z" transform="translate(268.28 165.653)" fill="#fbbebe"/>
    <path id="Vector-22" data-name="Vector" d="M9.054,2.707S1.606,5.017.478,3.015A6.09,6.09,0,0,1,0,.571C1.541.337,6.231-.31,8.771.177c.136,1.43.284,2.53.284,2.53Z" transform="translate(268.779 191.992)" opacity="0.1"/>
    <path id="Vector-23" data-name="Vector" d="M9.947,40.924H9.83c-.9.034-5.994,0-5.994,0a2.774,2.774,0,0,1-.21-.246,4.2,4.2,0,0,1-.663-4.067A28.9,28.9,0,0,0,3.98,29.46a3.308,3.308,0,0,0,.052-1.849,3.336,3.336,0,0,1-.1-1.695,4.389,4.389,0,0,0-.308-1.18,3.52,3.52,0,0,1,.052-1.747,13.077,13.077,0,0,0-.515-3.235C2.7,18.42-.695,2.553.128.652c0,0,7.19-1.232,9.914-.308L9.682,12.668s-1.285,3.7-.206,4.674.052,4.005.052,4.005-.154.564.77,2.465,0,2.773,0,2.773V30.23a7.793,7.793,0,0,0,.1,4.468c.82,2-.092,6.162-.453,6.227Z" transform="translate(268.142 192.595)" fill="#3f3d56"/>
    <path id="Vector-24" data-name="Vector" d="M14.484,7.24A7.242,7.242,0,1,1,7.242,0,7.241,7.241,0,0,1,14.484,7.24Z" transform="translate(260.794 89.434)" opacity="0.1"/>
    <path id="Vector-25" data-name="Vector" d="M14.484,7.24A7.242,7.242,0,1,1,7.242,0,7.241,7.241,0,0,1,14.484,7.24Z" transform="translate(260.794 89.126)" fill="#fbbebe"/>
    <path id="Vector-26" data-name="Vector" d="M0,5.392,10.17,0s0,1.011-.018,2.567c-1.485.887-3.726,2.221-5.88,3.482C3.1,6.735,1.957,7.4.977,7.958a4.377,4.377,0,0,1-.712.308C.129,6.914,0,5.392,0,5.392Z" transform="translate(253.706 167.224)" opacity="0.1"/>
    <path id="Vector-27" data-name="Vector" d="M10.157,1.571s0,4.471-.126,9.064H9.994a17.1,17.1,0,0,1-2.277-.071c-1.328-.142-2.391-.493-2.774-1.189C4.17,8.02,2,6.295.173,5.01.077,2.379,0,0,0,0Z" transform="translate(268.292 165.641)" opacity="0.1"/>
    <path id="Vector-28" data-name="Vector" d="M33.791,24.963a29.316,29.316,0,0,0-.148,6.048c4.672,3.851,3.8,11.964,3.8,11.964s3.6,16.434,2.826,17.923,1.744,10.63,1.744,10.63a44.853,44.853,0,0,1-6.493.746,17.1,17.1,0,0,1-2.277-.071c-1.328-.142-2.391-.493-2.774-1.189-1.436-2.514-7.652-6.264-7.652-6.264s-3.939,2.36-7.606,4.508c-1.171.687-2.314,1.353-3.294,1.91a6.115,6.115,0,0,1-2.573.706C4.983,72.2-.827,69.466.1,68.5,1.229,67.315,6.829,46.57,6.829,46.57s2.823-12.839,5.288-14.635a2.665,2.665,0,0,0,.925-1.291c.844-2.345-.567-6.1-.567-6.1s-7.96-9.807-7.6-10.374.361-3.593.361-3.593S6.209,5.8,6.773,3.488,11.4.61,12.576.817s3.849.924,4.977,0,3.032.36,3.032.36l4.678,1.288L29.47,0s4.216.216,4.576.78,5.908,1.645,5.908,1.645c2.823,1.9,2.721,10.938,2.721,10.938s-6.78,5.9-8.167,8.935a10.184,10.184,0,0,0-.718,2.665Z" transform="translate(242.766 103.092)" fill="#575a89"/>
    <path id="Vector-29" data-name="Vector" d="M6.475,0,8.016,1.232,9.609,15.559,11.2,29.939s.616,1.439,1.131,1.285.462,8.522.462,8.522-5.9-3.626-8.013,1.189L3.134,29.322S1.026,17.46,1.079,16.536,0,5.6,0,5.6Z" transform="translate(277.433 115.204)" fill="#575a89"/>
    <path id="Vector-30" data-name="Vector" d="M7.8,4.313c0,.154-2.774,13.3-4.006,13.812S-.729,10.22.146,8.781s.77-7.395.77-7.395L2.048,0S7.8,4.159,7.8,4.313Z" transform="translate(246.728 115.872)" fill="#575a89"/>
    <path id="Vector-31" data-name="Vector" d="M8.642,9.678C3.711,12.626.269,7.139.013,5.392S3.354,0,3.354,0C13.215,1.078,8.642,9.678,8.642,9.678Z" transform="translate(245.32 124.345)" fill="#575a89"/>
    <path id="Vector-32" data-name="Vector" d="M6.2.807C5.307.841.21.807.21.807A2.773,2.773,0,0,1,0,.56C1.3.117,4.12-.549,6.2.807Z" transform="translate(257.195 232.722)" opacity="0.1"/>
    <path id="Vector-33" data-name="Vector" d="M6.2.807C5.307.841.21.807.21.807A2.773,2.773,0,0,1,0,.56C1.3.117,4.114-.549,6.2.807Z" transform="translate(271.774 232.722)" opacity="0.1"/>
    <path id="Vector-34" data-name="Vector" d="M6.248,0c-.786,7.536-.527,22.492-.364,29.134-1.171.687-2.314,1.353-3.294,1.91a6.115,6.115,0,0,1-2.573.706C-.31,29.741,4.214,9.108,6.248,0Z" transform="translate(252.093 143.214)" opacity="0.1"/>
    <path id="Vector-35" data-name="Vector" d="M.961,0C.94.108.567,1.747,0,4.277.222,2.117.53.567.961,0Z" transform="translate(258.341 138.937)" opacity="0.1"/>
    <path id="Vector-36" data-name="Vector" d="M8.564,0S12.931,27.421,0,30.811C0,30.8,8.946,29.439,8.564,0Z" transform="translate(263.25 138.124)" opacity="0.1"/>
    <path id="Vector-37" data-name="Vector" d="M5.766,37.564a17.1,17.1,0,0,1-2.277-.071L0,0C2.225,1.454,4.888,28.062,5.766,37.564Z" transform="translate(272.52 137.8)" opacity="0.1"/>
    <path id="Vector-38" data-name="Vector" d="M0,4.66A10.674,10.674,0,0,0,.946,3.5,9.008,9.008,0,0,1,6.019.349,11.534,11.534,0,0,1,7.667.041a9.046,9.046,0,0,1,8.275,3.817,9.907,9.907,0,0,1,1.612,4.332,5.629,5.629,0,0,1-.564,3.6,2.36,2.36,0,0,1-.906.9,2.518,2.518,0,0,1-1.233.222,2.826,2.826,0,0,1-1.2-.262c-1.026-.508-1.408-1.735-1.889-2.773a1.134,1.134,0,0,0-.345-.478,2.2,2.2,0,0,0-.8-.185A2.018,2.018,0,0,1,9.353,8.064c-.262-.527-.419-1.112-.724-1.605a1.762,1.762,0,0,0-1.4-.924,3.877,3.877,0,0,0-1.106.308,3.1,3.1,0,0,1-2.94-.57,3,3,0,0,0-.869-.653,1.908,1.908,0,0,0-.687-.071C1.082,4.561.539,4.607,0,4.66Z" transform="translate(261.019 87.559)" opacity="0.1"/>
    <path id="Vector-39" data-name="Vector" d="M0,4.66A10.674,10.674,0,0,0,.946,3.5,9.008,9.008,0,0,1,6.019.349,11.534,11.534,0,0,1,7.667.041a9.046,9.046,0,0,1,8.275,3.817,9.907,9.907,0,0,1,1.612,4.332,5.629,5.629,0,0,1-.564,3.6,2.36,2.36,0,0,1-.906.9,2.518,2.518,0,0,1-1.233.222,2.826,2.826,0,0,1-1.2-.262c-1.026-.508-1.408-1.735-1.889-2.773a1.134,1.134,0,0,0-.345-.478,2.2,2.2,0,0,0-.8-.185A2.018,2.018,0,0,1,9.353,8.064c-.262-.527-.419-1.112-.724-1.605a1.762,1.762,0,0,0-1.4-.924,3.877,3.877,0,0,0-1.106.308,3.1,3.1,0,0,1-2.94-.57,3,3,0,0,0-.869-.653,1.908,1.908,0,0,0-.687-.071C1.082,4.561.539,4.607,0,4.66Z" transform="translate(261.019 87.251)" fill="#3f3d56"/>
    <path id="Vector-40" data-name="Vector" d="M1.259,0S1.62,2.878.387,3.6,1.259,0,1.259,0Z" transform="translate(253.525 109.042)" opacity="0.1"/>
    <path id="Vector-41" data-name="Vector" d="M0,3.3S2.927-1.011,3.34.221,0,3.3,0,3.3Z" transform="translate(280.927 128.028)" opacity="0.1"/>
    <path id="Vector-42" data-name="Vector" d="M0,2.478S2.887-1.065,3.164.322,0,2.478,0,2.478Z" transform="translate(281.134 130.287)" opacity="0.1"/>
    <path id="Vector-43" data-name="Vector" d="M20.179.373,21.31.394V.422a29.316,29.316,0,0,0-.148,6.048L.567,6.1C1.411,3.759,0,0,0,0L1.2.022a4.842,4.842,0,0,0,3.1,1.2A4.842,4.842,0,0,0,7.455.136h.336a4.5,4.5,0,0,0,1.509,1,4.5,4.5,0,0,0,1.779.322A4.562,4.562,0,0,0,14.25.262H14.5a4.688,4.688,0,0,0,2.9.955A4.741,4.741,0,0,0,20.179.373Z" transform="translate(255.247 127.331)" opacity="0.1"/>
    <path id="Vector-44" data-name="Vector" d="M20.179.373,21.31.394V.422a29.316,29.316,0,0,0-.148,6.048L.567,6.1C1.411,3.759,0,0,0,0L1.2.022a4.842,4.842,0,0,0,3.1,1.2A4.842,4.842,0,0,0,7.455.136h.336a4.5,4.5,0,0,0,1.509,1,4.5,4.5,0,0,0,1.779.322A4.562,4.562,0,0,0,14.25.262H14.5a4.688,4.688,0,0,0,2.9.955A4.741,4.741,0,0,0,20.179.373Z" transform="translate(255.247 127.947)" opacity="0.1"/>
    <path id="Vector-45" data-name="Vector" d="M17.406,1.217A4.741,4.741,0,0,0,20.179.373L21.31.394V.422a29.316,29.316,0,0,0-.148,6.048L.567,6.1C1.411,3.759,0,0,0,0L1.2.022a4.842,4.842,0,0,0,3.1,1.2A4.842,4.842,0,0,0,7.455.136h.336a4.5,4.5,0,0,0,1.509,1,4.5,4.5,0,0,0,1.779.322A4.562,4.562,0,0,0,14.25.262H14.5a4.688,4.688,0,0,0,2.9.955Z" transform="translate(255.247 127.639)" fill="#3f3d56"/>
    <path id="Vector-46" data-name="Vector" d="M0,0S4.335.277,4.363.894,0,0,0,0Z" transform="translate(271.737 108.311)" opacity="0.1"/>
    <path id="Vector-47" data-name="Vector" d="M0,.894C.028.277,4.363,0,4.363,0S-.028,1.51,0,.894Z" transform="translate(256.84 105.683)" opacity="0.1"/>
    <path id="Vector-48" data-name="Vector" d="M4.931,5.167C3.507,7.028,1.35,7.767.117,6.825.074,6.791.04,6.754,0,6.72c1.257.807,3.325.059,4.687-1.741S6.234,1,5.125,0c.043.028.086.052.129.083,1.239.946,1.1,3.223-.324,5.084Z" transform="translate(272.52 118.199)" opacity="0.1"/>
    <path id="Vector-49" data-name="Vector" d="M5.394,7.388a1.18,1.18,0,0,1-.129.086C3.9,8.22,1.868,7.185.74,5.139S-.209.823,1.153.065C1.2.04,1.249.022,1.3,0,.053.829-.089,3.013,1.009,4.991S4.035,8,5.394,7.388Z" transform="translate(252.947 117.955)" opacity="0.1"/>
    <path id="Vector-50" data-name="Vector" d="M1.411.743l-.4.616L0,.82.533,0a2.234,2.234,0,0,1,.878.743Z" transform="translate(254.011 105.523)" opacity="0.1"/>
    <path id="Vector-51" data-name="Vector" d="M1,13.867s.9-4.246-.308-5.6S-.127-.152,1.722,0s4.623,5.749,4.16,6.932-2.21,7.24-2.21,7.24Z" transform="translate(247.978 115.201)" fill="#fbbebe"/>
    <path id="Vector-52" data-name="Vector" d="M16.95,7.256A4.707,4.707,0,0,0,17.6,5.01a5.11,5.11,0,0,1-.616,2.853,2.36,2.36,0,0,1-.906.9,2.518,2.518,0,0,1-1.233.222,2.826,2.826,0,0,1-1.2-.262c-1.026-.508-1.408-1.735-1.889-2.773a1.134,1.134,0,0,0-.345-.478,2.2,2.2,0,0,0-.792-.194A2.018,2.018,0,0,1,9.353,4.125C9.091,3.6,8.934,3.013,8.629,2.52a1.762,1.762,0,0,0-1.4-.924,3.788,3.788,0,0,0-1.106.324,3.107,3.107,0,0,1-1.544.091,3.107,3.107,0,0,1-1.4-.664A3,3,0,0,0,2.311.693,1.908,1.908,0,0,0,1.624.622C1.082.635.539.681,0,.727A7.748,7.748,0,0,0,.564.068C.918.04,1.27.006,1.624.006a1.908,1.908,0,0,1,.687.071A3,3,0,0,1,3.18.73a3.107,3.107,0,0,0,1.4.664A3.107,3.107,0,0,0,6.12,1.3,3.788,3.788,0,0,1,7.227.98a1.7,1.7,0,0,1,1.4.924c.3.5.459,1.081.724,1.605a2.034,2.034,0,0,0,1.257,1.155,2.2,2.2,0,0,1,.792.194,1.134,1.134,0,0,1,.314.487c.481,1.035.863,2.261,1.889,2.773a2.826,2.826,0,0,0,1.2.262,2.518,2.518,0,0,0,1.233-.222,2.36,2.36,0,0,0,.906-.9Z" transform="translate(261.028 91.181)" opacity="0.1"/>
    <path id="Vector-53" data-name="Vector" d="M5.547,1.879c0,1.038-1.242,1.879-2.774,1.879S0,2.917,0,1.879,1.242,0,2.774,0,5.547.841,5.547,1.879Z" transform="translate(247.573 128.677)" fill="#575a89"/>
    <path id="Vector-54" data-name="Vector" d="M190.145,95.051A95.072,95.072,0,1,1,95.072,0,95.061,95.061,0,0,1,190.145,95.051Z" transform="translate(64.868 45.073)" fill="#febb1b"/>
    <path id="Vector-55" data-name="Vector" d="M99.769,40.842c0,15-23.594,1.282-48.889,1.282S0,55.28,0,40.276c0-8.556,8.154-20.455,19.853-29.1C28.667,4.665,39.49,0,50.362,0,61.543,0,72.5,5.05,81.232,11.982c11.027,8.741,18.537,20.486,18.537,28.86Z" transform="translate(110.056 147.046)" fill="#444053"/>
    <path id="Vector-56" data-name="Vector" d="M61.376,11.982C47.931,9.958,23.612,7.49,0,11.178,8.814,4.665,19.637,0,30.509,0,41.687,0,52.64,5.05,61.376,11.982Z" transform="translate(129.909 147.04)" fill="#f6f8fb"/>
    <path id="Vector-57" data-name="Vector" d="M0,46.937C-.233,18.3,28.406,0,28.406,0S.236,75.569,0,46.937Z" transform="translate(81.65 73.027)" opacity="0.05"/>
    <path id="Vector-58" data-name="Vector" d="M18.661,2.03a11.2,11.2,0,0,0-6.08-.706s.049.265,1,.364,4.179.733,4.179.733L15.6,3.386c-5.143-1.621-7.917-.126-7.917-.126a27.557,27.557,0,0,1,7.039.616l-3,1.8c-5.584-1.571-8.108.585-8.108.585,2.194-.783,7.365-.074,7.365-.074L8.2,8.433c-4.934-1.106-7.03,1.331-7.03,1.331,2.382-1.057,6.311-.727,6.311-.727-.539.166-2.552,2.939-2.552,2.939C.994,12.2.614,14.786.614,14.786A7.311,7.311,0,0,1,4.34,12.854a13.318,13.318,0,0,0-2.1,6.51C2.5,16.856,4.932,13.2,4.932,13.2c.6.031,1.341,5.546,1.341,5.546,1.2-2.144-.737-6.208-.737-6.208A17.1,17.1,0,0,1,8.353,9.5c1.482.625,1.707,8.9,1.707,8.9,1.723-3.845-1.1-9.447-1.1-9.447l2.8-2.178c2.139,2.77,1.615,9.881,1.615,9.881,2.04-4.637-.968-10.318-.968-10.318l3.082-1.8c2.173,2.323,1.436,9.1,1.436,9.1,1.957-4-.616-9.5-.616-9.5s2.1-1.066,2.274-1.094c.841-.12.983,5.546.983,5.546,1.186-2.625-.308-5.783-.308-5.783L23.629.946c.083.666-2.015,3.266-2.015,3.266C18.775,16.132,11.481,19.142,11.481,19.142h0a5.856,5.856,0,0,1-3.445,1.423,12.021,12.021,0,0,1-2.82-.136c-2.613-.456-2.66.89-2.66.89A4.418,4.418,0,0,1,.251,16.65C-2.809-1.528,23.139.034,23.139.034c.077.287-4.478,2-4.478,2Z" transform="translate(231.837 21.297)" fill="#febb1b"/>
    <path id="Vector-59" data-name="Vector" d="M8.42.9A5.052,5.052,0,0,0,5.677.588s.028.12.453.163,1.886.33,1.886.33l-.971.438A4.879,4.879,0,0,0,3.467,1.46a12.334,12.334,0,0,1,3.18.274l-1.356.813c-2.524-.712-3.664.262-3.664.262a10.7,10.7,0,0,1,3.328-.031L3.723,3.793C1.492,3.306.546,4.409.546,4.409A7.228,7.228,0,0,1,3.4,4.079,7.686,7.686,0,0,0,2.244,5.407C.459,5.509.29,6.677.29,6.677A3.3,3.3,0,0,1,1.973,5.8a6,6,0,0,0-.946,2.942A8.261,8.261,0,0,1,2.241,5.974c.284.009.616,2.5.616,2.5.542-.958-.333-2.807-.333-2.807A7.728,7.728,0,0,1,3.8,4.295c.672.283.774,4.024.774,4.024.777-1.738-.5-4.267-.5-4.267l1.264-.983c.965,1.251.73,4.464.73,4.464.921-2.1-.438-4.665-.438-4.665l1.393-.813c.98,1.051.647,4.113.647,4.113.878-1.806-.287-4.292-.287-4.292s.952-.493,1.029-.493c.379-.062.444,2.5.444,2.5a3.537,3.537,0,0,0-.145-2.613L10.688.425c.025.3-.925,1.476-.925,1.476C8.481,7.287,5.187,8.648,5.187,8.648h0a2.678,2.678,0,0,1-1.559.644,5.567,5.567,0,0,1-1.273-.062c-1.183-.216-1.2.4-1.2.4A2,2,0,0,1,.111,7.521C-1.257-.693,10.454.015,10.454.015A12.412,12.412,0,0,1,8.42.9Z" transform="translate(217.908 13.233)" fill="#febb1b"/>
    <path id="Vector-60" data-name="Vector" d="M16.6,1.4c0,.774-3.716,1.4-8.3,1.4S0,2.176,0,1.4,3.716,0,8.3,0,16.6.628,16.6,1.4Z" transform="translate(322.402 222.116)" fill="#febb1b" opacity="0.1"/>
    <path id="Vector-61" data-name="Vector" d="M16.6,1.4c0,.774-3.716,1.4-8.3,1.4S0,2.176,0,1.4,3.716,0,8.3,0,16.6.628,16.6,1.4Z" transform="translate(6.114 245.437)" fill="#febb1b" opacity="0.1"/>
    <path id="Vector-62" data-name="Vector" d="M16.6,1.4c0,.774-3.716,1.4-8.3,1.4S0,2.176,0,1.4,3.716,0,8.3,0,16.6.628,16.6,1.4Z" transform="translate(54.291 247.196)" fill="#febb1b" opacity="0.1"/>
    <path id="Vector-63" data-name="Vector" d="M24.784,2.1c0,1.157-5.548,2.1-12.392,2.1S0,3.252,0,2.1,5.548,0,12.392,0,24.784.938,24.784,2.1Z" transform="translate(300.145 236.446)" fill="#febb1b"/>
    <path id="Vector-64" data-name="Vector" d="M11.459,5.71A12.565,12.565,0,0,1,8.676,7.636H4.162a1.488,1.488,0,0,0-.111-.256A4.622,4.622,0,0,0,2.559,5.96,7.993,7.993,0,0,1,.476,4.29,1.981,1.981,0,0,1,.4,1.825a2.565,2.565,0,0,1,2.015-.57,2.466,2.466,0,0,1,1.233.29,2.228,2.228,0,0,1,.814,1.919,9.889,9.889,0,0,0,.028,2.157c.009-1.96.456-4.135,2.059-5.262C7.049,0,7.811-.187,8.233.263A1.269,1.269,0,0,1,8.51.879a3.225,3.225,0,0,1-1,3.023A2.925,2.925,0,0,0,9.635,2.879c.613-.53,1.424-1.057,2.182-.767a1.59,1.59,0,0,1,.826,1.815A3.614,3.614,0,0,1,11.459,5.71Z" transform="translate(306.2 229.408)" fill="#febb1b"/>
    <path id="Vector-65" data-name="Vector" d="M6.963,7.5c-3.048.089-6.78,6.295-6.78,6.295-.817-2.083,1.223-4.911,3.7-8.245S4.664,0,4.664,0C8,3.731,10.011,7.407,6.963,7.5Z" transform="translate(13.623 209.284)" fill="#febb1b"/>
    <path id="Vector-66" data-name="Vector" d="M6.872,7.505C3.824,7.595.092,13.8.092,13.8A2.862,2.862,0,0,1,0,13.526c.749-1.2,3.948-5.943,6.6-6.02,2.848-.08,1.27-3.331-1.695-6.812A2.773,2.773,0,0,0,4.564,0C7.9,3.731,9.92,7.416,6.872,7.505Z" transform="translate(13.723 209.284)" opacity="0.1"/>
    <path id="Vector-67" data-name="Vector" d="M.391.5c0,.78-.089,1.411-.2,1.411S0,1.3,0,.5.108.092.219.092.391-.275.391.5Z" transform="translate(21.042 211.598)" fill="#ffd037"/>
    <path id="Vector-68" data-name="Vector" d="M1.335.533C.651.905.056,1.13,0,1.035S.466.563,1.15.191s.413-.1.465,0,.416-.031-.28.342Z" transform="translate(21.165 212.501)" fill="#ffd037"/>
    <path id="Vector-69" data-name="Vector" d="M3.8,0s-1.692,2.212.78,5.546,4.515,6.162,3.7,8.245c0,0-3.735-6.205-6.78-6.295S.459,3.731,3.8,0Z" transform="translate(5.541 209.284)" fill="#febb1b"/>
    <path id="Vector-70" data-name="Vector" d="M3.808,0a2.659,2.659,0,0,0-.345.693C.5,4.175-1.083,7.425,1.768,7.505c2.653.077,5.855,4.822,6.6,6.02a2.849,2.849,0,0,1-.089.274S4.544,7.595,1.5,7.505.464,3.731,3.808,0Z" transform="translate(5.536 209.284)" opacity="0.1"/>
    <path id="Vector-71" data-name="Vector" d="M.173.092C.28.092.388-.29.388.5S.3,1.916.194,1.916,0,1.284,0,.5.065.092.173.092Z" transform="translate(6.197 211.598)" fill="#ffd037"/>
    <path id="Vector-72" data-name="Vector" d="M.137.191c.049-.1-.219-.373.465,0s1.2.749,1.146.844S1.1.905.414.533.088.292.137.191Z" transform="translate(4.701 212.501)" fill="#ffd037"/>
    <path id="Vector-73" data-name="Vector" d="M0,2.562S4.734,2.417,6.164,1.4,13.446-.827,13.8.784s7.113,8.1,1.769,8.146S3.153,8.1,1.729,7.23,0,2.562,0,2.562Z" transform="translate(6.737 220.232)" fill="#a8a8a8"/>
    <path id="Vector-74" data-name="Vector" d="M17.609,5.01c.028.81-.505,1.374-2.046,1.374-5.344.043-12.426-.835-13.84-1.7S0,0,0,0H.157C.3,1.094.733,3.463,1.818,4.122c1.424.866,8.5,1.744,13.84,1.7,1.149-.009,1.735-.317,1.951-.813Z" transform="translate(6.737 222.788)" opacity="0.2"/>
    <path id="Vector-75" data-name="Vector" d="M22.232,5.936c1.809-.1,10.324-.743,15.732-3.827a6.131,6.131,0,0,1,2.857-.841c1.72-.049,3.7.669,2.432,4.686C41.2,12.526,29.283,19.921,21.887,19.511,14.774,19.117,6.336,16.251.764,6.176A6.161,6.161,0,0,1,0,3.006C.068.972.808-1.576,4.626,1.265,9.785,5.1,19.572,5.828,21.535,5.936a6.509,6.509,0,0,0,.7,0Z" transform="translate(103.908 121.724)" fill="#444053"/>
    <path id="Vector-76" data-name="Vector" d="M22.232,5.936c1.809-.1,10.324-.743,15.732-3.827a6.131,6.131,0,0,1,2.857-.841c1.72-.049,3.7.669,2.432,4.686C41.2,12.526,29.283,19.921,21.887,19.511,14.774,19.117,6.336,16.251.764,6.176A6.161,6.161,0,0,1,0,3.006C.068.972.808-1.576,4.626,1.265,9.785,5.1,19.572,5.828,21.535,5.936a6.509,6.509,0,0,0,.7,0Z" transform="translate(172.323 121.724)" fill="#444053"/>
  </g>
</svg>
