<svg xmlns="http://www.w3.org/2000/svg" xmlns:xlink="http://www.w3.org/1999/xlink" width="125.625" height="121" viewBox="0 0 125.625 121">
  <defs>
    <linearGradient id="linear-gradient" x1="1" y1="1" x2="0" gradientUnits="objectBoundingBox">
      <stop offset="0" stop-color="#febb1b"/>
      <stop offset="1" stop-color="#ffc740"/>
    </linearGradient>
  </defs>
  <g id="Group" transform="translate(-127.188)">
    <circle id="Ellipse" cx="47.5" cy="47.5" r="47.5" transform="translate(143.813 14)" fill="url(#linear-gradient)"/>
    <circle id="Ellipse-2" data-name="Ellipse" cx="5.5" cy="5.5" r="5.5" transform="translate(241.813 14)" fill="url(#linear-gradient)"/>
    <circle id="Ellipse-3" data-name="Ellipse" cx="7" cy="7" r="7" transform="translate(133.188)" fill="url(#linear-gradient)"/>
    <circle id="Ellipse-4" data-name="Ellipse" cx="3" cy="3" r="3" transform="translate(130.188 86)" fill="url(#linear-gradient)"/>
    <circle id="Ellipse-5" data-name="Ellipse" cx="1.5" cy="1.5" r="1.5" transform="translate(235.188 105)" fill="url(#linear-gradient)"/>
    <g id="Iconly_Bold_Ticket_Star" data-name="Iconly/Bold/Ticket Star" transform="translate(171.188 41)">
      <rect id="Iconly_Bold_Ticket_Star-2" data-name="Iconly/Bold/Ticket Star" width="39" height="39" fill="none"/>
      <g id="Group-2" data-name="Group">
        <path id="Subtract" d="M29.018,34.125H9.981a6.709,6.709,0,0,1-6.733-6.669V23.108A1.215,1.215,0,0,1,4.468,21.9a2.412,2.412,0,0,0,2.421-2.4,2.292,2.292,0,0,0-2.421-2.257,1.217,1.217,0,0,1-1.22-1.208l0-4.491A6.709,6.709,0,0,1,9.983,4.875H29.014a6.71,6.71,0,0,1,6.733,6.671V15.9A1.212,1.212,0,0,1,34.529,17.1a2.4,2.4,0,1,0,0,4.8,1.215,1.215,0,0,1,1.219,1.208v4.349A6.707,6.707,0,0,1,29.018,34.125ZM19.5,23.189h0l2.364,1.23a1.209,1.209,0,0,0,.566.142,1.2,1.2,0,0,0,1.183-1.4l-.454-2.614L25.073,18.7a1.167,1.167,0,0,0,.3-1.223,1.182,1.182,0,0,0-.968-.807l-2.647-.382-1.184-2.377a1.207,1.207,0,0,0-2.156,0l-1.184,2.379-2.642.382a1.2,1.2,0,0,0-.976.808,1.177,1.177,0,0,0,.3,1.223l1.916,1.849-.452,2.614a1.181,1.181,0,0,0,.479,1.167,1.2,1.2,0,0,0,1.263.088L19.5,23.19Z" fill="#fff"/>
      </g>
    </g>
    <circle id="Ellipse-6" data-name="Ellipse" cx="1.5" cy="1.5" r="1.5" transform="translate(196.188 2)" fill="url(#linear-gradient)"/>
    <circle id="Ellipse-7" data-name="Ellipse" cx="2.5" cy="2.5" r="2.5" transform="translate(166.188 116)" fill="url(#linear-gradient)"/>
    <circle id="Ellipse-8" data-name="Ellipse" cx="1" cy="1" r="1" transform="translate(208.188 114)" fill="url(#linear-gradient)"/>
    <circle id="Ellipse-9" data-name="Ellipse" cx="1.5" cy="1.5" r="1.5" transform="translate(240.188 72)" fill="url(#linear-gradient)"/>
    <circle id="Ellipse-10" data-name="Ellipse" cx="1" cy="1" r="1" transform="translate(127.188 50)" fill="url(#linear-gradient)"/>
  </g>
</svg>
