<svg xmlns="http://www.w3.org/2000/svg" width="20.503" height="20.503" viewBox="0 0 20.503 20.503">
  <g id="tap" transform="translate(0 -0.002)">
    <g id="Group_148" data-name="Group 148" transform="translate(6.507 10.572)">
      <g id="Group_147" data-name="Group 147">
        <path id="Path_87" data-name="Path 87" d="M171.066,267.643a1.205,1.205,0,0,1-1.612-.641,1.2,1.2,0,0,1-1.612,0,1.2,1.2,0,0,0-.406.07v-1.908a1.207,1.207,0,1,0-2.413,0v5.044l-.23-.378a1.247,1.247,0,0,0-2.187,1.191l1.276,2.642a.4.4,0,0,0,.721-.348l-1.276-2.642a.446.446,0,0,1,.782-.426l.973,1.6a.4.4,0,0,0,.742-.208v-6.471a.406.406,0,0,1,.811,0v5a.4.4,0,1,0,.8,0v-1.953a.406.406,0,1,1,.811,0v1.953a.4.4,0,1,0,.8,0v-1.953a.406.406,0,1,1,.811,0v1.953a.4.4,0,1,0,.8,0v-1.312a.406.406,0,0,1,.811,0v4.64a.4.4,0,1,0,.8,0v-4.64A1.208,1.208,0,0,0,171.066,267.643Z" transform="translate(-162.483 -263.957)" fill="#e0ba22"/>
      </g>
    </g>
    <g id="Group_150" data-name="Group 150" transform="translate(7.687 9.212)">
      <g id="Group_149" data-name="Group 149">
        <path id="Path_88" data-name="Path 88" d="M194.518,229.994a2.569,2.569,0,0,0-2.567,2.567.4.4,0,0,0,.8,0,1.766,1.766,0,1,1,3.531,0,.4.4,0,0,0,.8,0A2.569,2.569,0,0,0,194.518,229.994Z" transform="translate(-191.951 -229.994)" fill="#e0ba22"/>
      </g>
    </g>
    <g id="Group_152" data-name="Group 152" transform="translate(6.245 7.77)">
      <g id="Group_151" data-name="Group 151">
        <path id="Path_89" data-name="Path 89" d="M163.659,196.453a4.009,4.009,0,0,0-7.706,1.55.4.4,0,1,0,.8,0,3.208,3.208,0,0,1,6.166-1.24.4.4,0,1,0,.739-.31Z" transform="translate(-155.953 -193.994)" fill="#e0ba22"/>
      </g>
    </g>
    <g id="Group_154" data-name="Group 154" transform="translate(13.461 11.364)">
      <g id="Group_153" data-name="Group 153">
        <path id="Path_90" data-name="Path 90" d="M336.536,283.743h0a.4.4,0,0,0-.4.4v.012a.4.4,0,1,0,.8,0v-.015A.4.4,0,0,0,336.536,283.743Z" transform="translate(-336.136 -283.743)" fill="#e0ba22"/>
      </g>
    </g>
    <g id="Group_156" data-name="Group 156" transform="translate(8.769 0.002)">
      <g id="Group_155" data-name="Group 155">
        <path id="Path_91" data-name="Path 91" d="M220.469,0a1.482,1.482,0,0,0-.4,2.908V5.133a.4.4,0,0,0,.8,0V2.91a1.482,1.482,0,0,0-.4-2.908Zm0,2.162a.681.681,0,1,1,.681-.681A.682.682,0,0,1,220.469,2.164Z" transform="translate(-218.987 -0.002)" fill="#e0ba22"/>
      </g>
    </g>
    <g id="Group_158" data-name="Group 158" transform="translate(14.971 8.772)">
      <g id="Group_157" data-name="Group 157">
        <path id="Path_92" data-name="Path 92" d="M377.906,218.994a1.484,1.484,0,0,0-1.426,1.081h-2.224a.4.4,0,0,0,0,.8h2.224a1.482,1.482,0,1,0,1.426-1.882Zm0,2.162a.681.681,0,1,1,.681-.681A.682.682,0,0,1,377.906,221.156Z" transform="translate(-373.856 -218.994)" fill="#e0ba22"/>
      </g>
    </g>
    <g id="Group_160" data-name="Group 160" transform="translate(2.569 2.57)">
      <g id="Group_159" data-name="Group 159">
        <path id="Path_93" data-name="Path 93" d="M69.062,68.472l-2.128-2.128a1.481,1.481,0,1,0-.566.566L68.5,69.038a.4.4,0,1,0,.566-.566ZM66.123,66.1h0a.681.681,0,1,1,.2-.481A.676.676,0,0,1,66.123,66.1Z" transform="translate(-64.161 -64.136)" fill="#e0ba22"/>
      </g>
    </g>
    <g id="Group_162" data-name="Group 162" transform="translate(9.851 6.008)">
      <g id="Group_161" data-name="Group 161">
        <path id="Path_94" data-name="Path 94" d="M246.674,150.111a.4.4,0,1,0,.117.283A.4.4,0,0,0,246.674,150.111Z" transform="translate(-245.99 -149.994)" fill="#e0ba22"/>
      </g>
    </g>
    <g id="Group_164" data-name="Group 164" transform="translate(12.614 2.57)">
      <g id="Group_163" data-name="Group 163">
        <path id="Path_95" data-name="Path 95" d="M319.886,64.57a1.482,1.482,0,0,0-2.34,1.773l-2.429,2.429a.4.4,0,0,0,.566.566l2.429-2.429a1.482,1.482,0,0,0,1.773-2.34Zm-.566,1.529a.681.681,0,0,1-.963,0h0a.681.681,0,1,1,.963,0Z" transform="translate(-314.999 -64.136)" fill="#e0ba22"/>
      </g>
    </g>
    <g id="Group_166" data-name="Group 166" transform="translate(0 8.772)">
      <g id="Group_165" data-name="Group 165">
        <path id="Path_96" data-name="Path 96" d="M5.126,220.075H2.908a1.482,1.482,0,1,0,0,.8H5.126a.4.4,0,0,0,0-.8Zm-3.644,1.081a.681.681,0,1,1,.681-.681A.682.682,0,0,1,1.482,221.156Z" transform="translate(0 -218.994)" fill="#e0ba22"/>
      </g>
    </g>
  </g>
</svg>
