<svg xmlns="http://www.w3.org/2000/svg" width="20.667" height="21.381" viewBox="0 0 20.667 21.381">
  <g id="call" transform="translate(-8.552)">
    <path id="Path_83" data-name="Path 83" d="M58.29,256.91H67a.313.313,0,0,0,0-.626H58.29a.313.313,0,0,0,0,.626Z" transform="translate(-47.361 -245.582)" fill="#e0ba22"/>
    <path id="Path_84" data-name="Path 84" d="M58.29,293.515H67a.313.313,0,0,0,0-.626H58.29a.313.313,0,0,0,0,.626Z" transform="translate(-47.361 -280.658)" fill="#e0ba22"/>
    <path id="Path_85" data-name="Path 85" d="M58.29,330.121h7.285a.313.313,0,0,0,0-.626H58.29a.313.313,0,0,0,0,.626Z" transform="translate(-47.361 -315.735)" fill="#e0ba22"/>
    <path id="Path_86" data-name="Path 86" d="M29.219,9.749a9.752,9.752,0,0,0-19.2-2.428A2.3,2.3,0,0,0,8.552,9.465v5.379a2.3,2.3,0,0,0,2.3,2.3h.692a.313.313,0,1,0,0-.626h-.692a1.672,1.672,0,0,1-1.67-1.67V9.465a1.672,1.672,0,0,1,1.67-1.67H19.72a1.672,1.672,0,0,1,1.67,1.67v5.379a1.672,1.672,0,0,1-1.67,1.67H17.865a.313.313,0,0,0-.313.313v1.96a.266.266,0,0,1-.438.2l-2.8-2.4a.313.313,0,0,0-.2-.075H13.034a.313.313,0,0,0,0,.626h.957l2.716,2.324a.885.885,0,0,0,.577.216.9.9,0,0,0,.376-.083.883.883,0,0,0,.519-.81V17.14H19.72a2.3,2.3,0,0,0,2.3-2.3V9.465a2.3,2.3,0,0,0-2.3-2.3H12.064A7.928,7.928,0,0,1,14.72,3.512,7.764,7.764,0,0,1,19.47,1.907a7.84,7.84,0,0,1,7.754,9.014l-.2-.145a1.345,1.345,0,0,0-2.607-.545l-1.892,5.2a1.346,1.346,0,0,0,2.349,1.258l.038,0-.528,1.316a1.113,1.113,0,0,1-1.037.7H21.99a1.716,1.716,0,1,0,0,1.915h1.359a3.019,3.019,0,0,0,2.815-1.9l.854-2.128a1.446,1.446,0,0,0,.655-.765l.311-.856a.313.313,0,1,0-.589-.214l-.311.856a.823.823,0,0,1-.822.537l-1.106-.072,1.694-4.655.893.657a.824.824,0,0,1,.285.94l-.121.333a.313.313,0,1,0,.589.214l.121-.333a1.426,1.426,0,0,0,.076-.322,9.735,9.735,0,0,0,.526-3.162ZM20.566,20.755a1.09,1.09,0,1,1,1.09-1.09A1.091,1.091,0,0,1,20.566,20.755Zm5.7-3.979-.687,1.71A2.4,2.4,0,0,1,23.349,20h-1.1a1.71,1.71,0,0,0,0-.663h1.1a1.736,1.736,0,0,0,1.618-1.094l.6-1.507.649.042.048,0Zm.091-5.84-1.892,5.2a.719.719,0,0,1-1.351-.492l1.892-5.2a.719.719,0,0,1,1.351.492Zm1.429.4A8.47,8.47,0,0,0,19.47,1.28,8.385,8.385,0,0,0,14.34,3.014,8.553,8.553,0,0,0,11.4,7.168h-.555c-.045,0-.09,0-.134,0A9.125,9.125,0,0,1,28.359,11.8a1.425,1.425,0,0,0-.245-.229Z" fill="#e0ba22"/>
  </g>
</svg>
