<svg id="Iconly_Bold_Arrow_-_Up_Square" data-name="Iconly/Bold/Arrow - Up Square" xmlns="http://www.w3.org/2000/svg" width="16" height="16" viewBox="0 0 16 16">
  <rect id="Iconly_Bold_Arrow_-_Up_Square-2" data-name="Iconly/Bold/Arrow - Up Square" width="16" height="16" fill="none"/>
  <g id="Iconly_Bold_Arrow_-_Up_Square-3" data-name="Iconly/Bold/Arrow - Up Square">
    <rect id="Iconly_Bold_Arrow_-_Up_Square-4" data-name="Iconly/Bold/Arrow - Up Square" width="16" height="16" fill="none"/>
    <g id="Group">
      <path id="Exclude" d="M10.894,14.666H5.113a3.656,3.656,0,0,1-3.78-3.939V5.28a3.66,3.66,0,0,1,3.78-3.947h5.781A3.657,3.657,0,0,1,14.666,5.28v5.447A3.653,3.653,0,0,1,10.894,14.666ZM7.5,6.486V10.72a.5.5,0,0,0,.5.5.5.5,0,0,0,.5-.5V6.486L10.147,8.14a.511.511,0,0,0,.354.147.526.526,0,0,0,.353-.147.5.5,0,0,0,0-.706L8.353,4.92a.515.515,0,0,0-.706,0l-2.5,2.513a.507.507,0,0,0,0,.706.511.511,0,0,0,.714,0L7.5,6.488Z" 
      fill="#FD2424"/>
    </g>
  </g>
</svg>
