<svg xmlns="http://www.w3.org/2000/svg" width="75" height="75" viewBox="0 0 75 75">
  <g id="Group_492" data-name="Group 492" transform="translate(-3531.146 -5027.822)">
    <path id="Path_413" data-name="Path 413" d="M3568.646,5027.822a37.5,37.5,0,1,0,37.5,37.5A37.5,37.5,0,0,0,3568.646,5027.822Zm0,70.1a32.605,32.605,0,1,1,32.6-32.6A32.605,32.605,0,0,1,3568.646,5097.927Z" fill="#616161"/>
    <path id="Path_414" data-name="Path 414" d="M3559.116,5087.188c-.462.059-1.053,1.118-.987,1.579.064.441.915,1.026,1.333,1.185a.912.912,0,0,0,.542,0,1.776,1.776,0,0,0,.79-1.185C3560.728,5088.194,3559.687,5087.114,3559.116,5087.188Z" fill="#616161"/>
    <path id="Path_415" data-name="Path 415" d="M3553.54,5085.411a2.4,2.4,0,0,0-.938,1.777c.13.567,1.314,1.535,1.875,1.381.363-.1.578-1,.592-1.381a2.729,2.729,0,0,0-.592-1.777A1.181,1.181,0,0,0,3553.54,5085.411Z" fill="#616161"/>
    <path id="Path_416" data-name="Path 416" d="M3547.667,5076.454a1.219,1.219,0,0,0-1.85,1.407c.09.45.727,1.36,1.184,1.406a2.3,2.3,0,0,0,1.776-1.406C3548.829,5077.415,3548.07,5076.65,3547.667,5076.454Z" fill="#616161"/>
    <path id="Path_417" data-name="Path 417" d="M3553.1,5077.861a2.938,2.938,0,0,0,0,2.912,2.659,2.659,0,0,0,2.369,0c.666-.435,1.717-2.246,1.282-2.912C3556.249,5077.1,3553.742,5077.215,3553.1,5077.861Z" fill="#616161"/>
    <path id="Path_418" data-name="Path 418" d="M3599.088,5060.44a20.086,20.086,0,0,0-1.282-2.566c-.256-.645-.528-2.021-.79-2.665a6.305,6.305,0,0,0-1.086-2.072c-.577-.467-2.324-.279-2.861-.789-.283-.27-.3-1.142-.5-1.481-.336-.593-1.363-1.529-1.776-2.073-.215-.284-.462-1.045-.789-1.184-.508-.216-1.62.372-2.172.394a12.952,12.952,0,0,1-4.146-.394,11.742,11.742,0,0,1-2.96-2.468c-.569-.638-1.2-2.333-1.875-2.862a11.281,11.281,0,0,0-3.849-1.382c-.924-.16-2.937-.467-3.752,0-.3.171-.429.963-.689,1.184a5.79,5.79,0,0,1-2.073.79c-.971.178-2.964-.065-3.948,0a14.741,14.741,0,0,0-3.749.494,25.233,25.233,0,0,0-2.273,1.875c-.806.519-2.685,1.1-3.452,1.678a12.049,12.049,0,0,0-1.778,1.973c-.5.686-1.442,2.341-2.085,3.5l.012,0c.874.331,1.59,2.31,2.073,3.109a7.469,7.469,0,0,0,.888,1.629c.69.561,2.56.758,3.405,1.036a24.054,24.054,0,0,0,2.517.888,11.207,11.207,0,0,0,4,0c.479-.155,1.158-1.006,1.629-1.184.73-.277,2.5.19,3.109-.3.275-.219.322-1,.444-1.332a10.515,10.515,0,0,1,1.184-2.961,3.387,3.387,0,0,1,1.333-.593,12.671,12.671,0,0,1,5.182,0c.592.217,1.339,1.4,1.924,1.629,1.136.456,3.894-.42,4.886.3.808.584.828,2.948,1.48,3.7.69.8,3.126,1.207,3.652,2.122a5.192,5.192,0,0,1,0,3.751,5.115,5.115,0,0,1-2.368,1.382,24.14,24.14,0,0,1-4.936.3c-1.011.018-3.035-.132-4.046-.1-.817.029-2.442.237-3.257.3-.864.063-2.657-.136-3.454.2-.646.27-1.5,1.48-2.073,1.874a8.819,8.819,0,0,1-2.567,1.284,17.758,17.758,0,0,1-6.711-.988c-1.019-.383-2.629-2-3.652-2.368a22.337,22.337,0,0,0-4.738-.593,11.622,11.622,0,0,0-1.481,0c-.754.088-2.241.938-2.96.692-.481-.165-.812-1.387-1.282-1.58a5.3,5.3,0,0,0-2.568.3,9.756,9.756,0,0,0-2.664,1.383,6.957,6.957,0,0,0-1.974,2.763,4.785,4.785,0,0,0,.888,3.356,1.824,1.824,0,0,0,1.185.1,15.025,15.025,0,0,0,2.862-1.777,4.945,4.945,0,0,1,1.184-.691c.745-.124,2.212.508,2.961.592a31.536,31.536,0,0,0,3.652.1,32.791,32.791,0,0,1,3.553-.4,28.542,28.542,0,0,1,4.442,1.481c1.012.341,3,1.169,4.046,1.381a17.672,17.672,0,0,0,5.528.4,15.141,15.141,0,0,0,3.257-1.875c1.064-.673,3.026-2.285,4.145-2.862a14.267,14.267,0,0,1,3.257-1.185c1.955-.294,5.93.6,7.9.4a39.851,39.851,0,0,0,6.711-1.777c1.146-.4,3.227-1.929,4.441-1.975a2.214,2.214,0,0,1,.586.079A16.331,16.331,0,0,0,3599.088,5060.44Z" fill="#616161"/>
  </g>
</svg>
