<svg xmlns="http://www.w3.org/2000/svg" width="75" height="75" viewBox="0 0 75 75">
  <g id="Group_496" data-name="Group 496" transform="translate(-3698.571 -5036.175)">
    <path id="Path_421" data-name="Path 421" d="M3759.293,5066.491a4.738,4.738,0,0,1-.425-.97,1.439,1.439,0,0,1,.07-.591c.071-.15.326-.387.379-.544s-.015-.484.024-.639c.042-.172.319-.461.307-.638-.01-.149-.252-.37-.331-.5a2.739,2.739,0,0,1-.355-.615,2.268,2.268,0,0,1,.095-.78c.069-.25.371-.693.425-.946a1.554,1.554,0,0,0,0-.8c-.064-.117-.321-.321-.449-.284s-.159.383-.236.5-.226.389-.355.379c-.242-.02-.473-.572-.544-.8a1.666,1.666,0,0,1,0-.71,2.2,2.2,0,0,1,.272-.426c.065-.1.247-.264.272-.378a2.294,2.294,0,0,0-.166-.875,4.4,4.4,0,0,0-.21-.471.879.879,0,0,1-.515.195c-.17-.032-.409-.344-.473-.5-.052-.132.03-.429,0-.567a.787.787,0,0,0-.977-.789c-.236,0-.68.233-.915.221a5.494,5.494,0,0,1-1.072-.378,6.259,6.259,0,0,0-.852-.284c-.375-.053-1.142.139-1.513.063-.163-.033-.438-.247-.6-.284a3.086,3.086,0,0,0-.819,0c-.171.024-.492.168-.663.189a2.665,2.665,0,0,1-1.04-.031c-.174-.075-.361-.464-.536-.536a2.578,2.578,0,0,0-.946,0c-.289.031-.845.255-1.135.252a1.939,1.939,0,0,1-.915-.221c-.142-.115-.159-.566-.315-.662a1.9,1.9,0,0,0-1.135.032c-.289.09-.71.625-1.01.662-.19.024-.536-.22-.725-.252-.287-.049-.886.08-1.167,0-.143-.041-.358-.29-.5-.315a2.546,2.546,0,0,0-1.2.252c-.222.116-.491.6-.725.693a6.273,6.273,0,0,1-1.419-.031c-.341.02-1.014.18-1.356.189a1.95,1.95,0,0,1-.725-.063c-.144-.076-.264-.432-.41-.5-.219-.108-.737.012-.978-.031-.294-.053-.838-.339-1.135-.379-.141-.019-.47-.071-.567.032a.945.945,0,0,0,0,.883c.147.181.82-.025.914.189.055.127-.165.4-.284.473a1.757,1.757,0,0,1-1.009.031,2.845,2.845,0,0,1-.915-.6c-.187-.193-.382-.719-.567-.915a3,3,0,0,0-.946-.662,2.444,2.444,0,0,0-1.135.031c-.169.061-.392.405-.568.442a2.266,2.266,0,0,1-.757-.19,4.241,4.241,0,0,0-.536-.157,5.826,5.826,0,0,0-1.072.126c-.151.025-.5.007-.6.126s-.113.483,0,.568c.137.1.493-.155.662-.189a2.25,2.25,0,0,1,.757-.1c.163.044.561.243.536.41-.035.242-.681.275-.914.347a3.749,3.749,0,0,1-1.215.292,2.037,2.037,0,0,1-.827-.521c-.131-.142-.2-.573-.355-.686-.258-.184-.956-.081-1.253-.189a10.376,10.376,0,0,1-1.325-.8c-.349-.212-1.047-.637-1.395-.851-.277-.171-.761-.5-1.129-.719l-4.122,39.553,19.015,2.081,1.088-1.135,1.538-.024a6.088,6.088,0,0,1,.733-.165c.184-.012.551.1.733.071a3.048,3.048,0,0,0,.662-.284,3.582,3.582,0,0,0,.591-.355c.095-.084.194-.345.308-.4a.971.971,0,0,1,.426,0c.171.027.49.186.662.213a1.8,1.8,0,0,0,.52,0c.116-.028.307-.211.426-.213a.9.9,0,0,1,.473.213c.073.073.093.305.165.379a1.152,1.152,0,0,0,.355.165c.1.035.326.139.426.1s.127-.371.236-.426a.438.438,0,0,1,.379.047c.058.067-.039.275,0,.355.068.144.338.418.5.4.13-.013.2-.43.331-.4s.038.435.142.52c.216.176.835.046,1.112.071a2.227,2.227,0,0,1,.615.071c.078.04.158.221.236.26.234.117.8,0,1.041.1a6.832,6.832,0,0,1,.639.473,6.1,6.1,0,0,1,.686.307,7.422,7.422,0,0,1,.544.805,2.6,2.6,0,0,0,.638.638c.212.091.7-.034.922.024a5.7,5.7,0,0,1,1.277.662,13.783,13.783,0,0,1,1.42,1.206c.311.3,1.159,1.3,1.159,1.3l6.172-29.138S3759.465,5066.891,3759.293,5066.491Z" fill="#616161"/>
    <path id="Path_422" data-name="Path 422" d="M3736.071,5036.175a37.5,37.5,0,1,0,37.5,37.5A37.5,37.5,0,0,0,3736.071,5036.175Zm0,70.1a32.605,32.605,0,1,1,32.6-32.6A32.605,32.605,0,0,1,3736.071,5106.28Z" fill="#616161"/>
  </g>
</svg>
