<svg xmlns="http://www.w3.org/2000/svg" width="30" height="22" viewBox="0 0 30 22">
  <g id="credit_card" data-name="credit card" transform="translate(-1 -5)">
    <g id="Group_620" data-name="Group 620">
      <path id="Path_477" data-name="Path 477" d="M27.2,5H4.8A3.8,3.8,0,0,0,1,8.8V23.2A3.8,3.8,0,0,0,4.8,27H27.2A3.8,3.8,0,0,0,31,23.2V8.8A3.8,3.8,0,0,0,27.2,5ZM29,23.2A1.805,1.805,0,0,1,27.2,25H4.8A1.805,1.805,0,0,1,3,23.2V8.8A1.805,1.805,0,0,1,4.8,7H27.2A1.805,1.805,0,0,1,29,8.8Z" fill="#fff"/>
      <path id="Path_478" data-name="Path 478" d="M10,21H6a1,1,0,0,0,0,2h4a1,1,0,0,0,0-2Z" fill="#fff"/>
      <path id="Path_479" data-name="Path 479" d="M26,10H6a1,1,0,0,0,0,2H26a1,1,0,0,0,0-2Z" fill="#fff"/>
    </g>
  </g>
</svg>
