<svg id="Image" xmlns="http://www.w3.org/2000/svg" xmlns:xlink="http://www.w3.org/1999/xlink" width="30" height="25.974" viewBox="0 0 30 25.974">
  <defs>
    <clipPath id="clip-path">
      <rect id="Rectangle_117" data-name="Rectangle 117" width="30" height="25.974" fill="#e0ba22"/>
    </clipPath>
  </defs>
  <g id="Group_819" data-name="Group 819" clip-path="url(#clip-path)">
    <path id="Path_676" data-name="Path 676" d="M365.746,49.088a3.025,3.025,0,1,0,3.025,3.025,3.029,3.029,0,0,0-3.025-3.025m0,5.17a2.144,2.144,0,1,1,2.144-2.144,2.147,2.147,0,0,1-2.144,2.144" transform="translate(-341.426 -46.206)" fill="#e0ba22"/>
    <path id="Path_677" data-name="Path 677" d="M27.755,0H5.466A2.248,2.248,0,0,0,3.221,2.244V3.349H2.245A2.248,2.248,0,0,0,0,5.594V23.727a2.248,2.248,0,0,0,2.245,2.245H17a.44.44,0,1,0,0-.881H2.245A1.366,1.366,0,0,1,.881,23.727V5.594A1.366,1.366,0,0,1,2.245,4.23h.976V20.378a2.248,2.248,0,0,0,2.245,2.245H25.9v1.1a1.366,1.366,0,0,1-1.365,1.365H19.785a.44.44,0,1,0,0,.881h4.749a2.248,2.248,0,0,0,2.245-2.245v-1.1h.976A2.248,2.248,0,0,0,30,20.378V2.244A2.248,2.248,0,0,0,27.755,0m1.365,16.519L23.25,9.9a.734.734,0,0,0-1.068-.032l-3.639,3.638L13.732,8.088a.736.736,0,0,0-.527-.246.728.728,0,0,0-.541.214l-3.411,3.41a.44.44,0,1,0,.622.623l3.3-3.3,6.253,7.047a.44.44,0,1,0,.659-.585l-.96-1.082L22.695,10.6l6.425,7.24v2.532a1.366,1.366,0,0,1-1.365,1.365H5.466A1.366,1.366,0,0,1,4.1,20.377V17.86l3.872-3.87a.44.44,0,1,0-.623-.623L4.1,16.615V2.244A1.366,1.366,0,0,1,5.466.88H27.755a1.366,1.366,0,0,1,1.365,1.365Z" transform="translate(0 0.001)" fill="#e0ba22"/>
  </g>
</svg>
