<svg xmlns="http://www.w3.org/2000/svg" width="30" height="30" viewBox="0 0 30 30">
  <g id="Pickup" transform="translate(-52 -510)">
    <g id="Path_204" data-name="Path 204" transform="translate(52 510)" fill="none">
      <path d="M15,0A15,15,0,1,1,0,15,15,15,0,0,1,15,0Z" stroke="none"/>
      <path d="M 15.00000095367432 1.000001907348633 C 11.26047134399414 1.000001907348633 7.744760513305664 2.45625114440918 5.10051155090332 5.10051155090332 C 2.45625114440918 7.744760513305664 1.000001907348633 11.26047134399414 1.000001907348633 15.00000095367432 C 1.000001907348633 18.73953056335449 2.45625114440918 22.25524139404297 5.10051155090332 24.89949035644531 C 7.744760513305664 27.54375076293945 11.26047134399414 29 15.00000095367432 29 C 18.73953056335449 29 22.25524139404297 27.54375076293945 24.89949035644531 24.89949035644531 C 27.54375076293945 22.25524139404297 29 18.73953056335449 29 15.00000095367432 C 29 11.26047134399414 27.54375076293945 7.744760513305664 24.89949035644531 5.10051155090332 C 22.25524139404297 2.45625114440918 18.73953056335449 1.000001907348633 15.00000095367432 1.000001907348633 M 15.00000095367432 1.9073486328125e-06 C 23.28427124023438 1.9073486328125e-06 30 6.715730667114258 30 15.00000095367432 C 30 23.28427124023438 23.28427124023438 30 15.00000095367432 30 C 6.715730667114258 30 1.9073486328125e-06 23.28427124023438 1.9073486328125e-06 15.00000095367432 C 1.9073486328125e-06 6.715730667114258 6.715730667114258 1.9073486328125e-06 15.00000095367432 1.9073486328125e-06 Z" stroke="none" fill="#9e9e9e"/>
    </g>
    <g id="pin" transform="translate(60.02 515.757)">
      <g id="Group_395" data-name="Group 395">
        <g id="Group_394" data-name="Group 394">
          <path id="Path_200" data-name="Path 200" d="M90.74,0a6.717,6.717,0,0,0-6.8,6.614,6.441,6.441,0,0,0,1.32,3.916l5.153,7.438a.4.4,0,0,0,.658,0l5.153-7.438a6.441,6.441,0,0,0,1.32-3.916A6.717,6.717,0,0,0,90.74,0Zm4.837,10.08-.014.02L90.74,17.062,85.918,10.1,85.9,10.08a5.689,5.689,0,0,1-1.171-3.467,6.011,6.011,0,0,1,12.017,0A5.69,5.69,0,0,1,95.577,10.08Z" transform="translate(-83.938)" fill="#9e9e9e"/>
        </g>
      </g>
      <g id="Group_397" data-name="Group 397" transform="translate(3.718 3.489)">
        <g id="Group_396" data-name="Group 396" transform="translate(0)">
          <path id="Path_201" data-name="Path 201" d="M181.547,93.465a.385.385,0,0,0-.385.385,2.312,2.312,0,1,1-1.02-1.918.385.385,0,0,0,.432-.639,3.084,3.084,0,1,0,1.359,2.557A.385.385,0,0,0,181.547,93.465Z" transform="translate(-175.765 -90.766)" fill="#9e9e9e"/>
        </g>
      </g>
      <g id="Group_401" data-name="Group 401" transform="translate(8.871 4.919)">
        <g id="Group_400" data-name="Group 400">
          <path id="Path_203" data-name="Path 203" d="M308.345,127.98h-.008a.385.385,0,1,0,0,.771h.008a.385.385,0,0,0,0-.771Z" transform="translate(-307.952 -127.98)" fill="#9e9e9e"/>
        </g>
      </g>
    </g>
  </g>
</svg>
