<svg xmlns="http://www.w3.org/2000/svg" width="8.308" height="18" viewBox="0 0 8.308 18">
  <g id="Pricing" transform="translate(-10 -3)">
    <path id="Path_811" data-name="Path 811" d="M17.615,9.923a.692.692,0,0,0,.692-.692V8.659a3.579,3.579,0,0,0-3.462-3.57v-1.4a.692.692,0,1,0-1.385,0v1.4a3.576,3.576,0,0,0-1.21,6.9L15.542,13.3a2.2,2.2,0,0,1-.816,4.237H13.582a2.2,2.2,0,0,1-2.2-2.2v-.572a.692.692,0,0,0-1.385,0v.572a3.579,3.579,0,0,0,3.462,3.57v1.4a.692.692,0,1,0,1.385,0v-1.4a3.576,3.576,0,0,0,1.21-6.9L12.766,10.7a2.2,2.2,0,0,1,.816-4.237h1.144a2.2,2.2,0,0,1,2.2,2.2v.572A.692.692,0,0,0,17.615,9.923Z" transform="translate(0)" fill="#fff"/>
  </g>
</svg>
