<svg xmlns="http://www.w3.org/2000/svg" xmlns:xlink="http://www.w3.org/1999/xlink" width="30" height="30" viewBox="0 0 30 30">
  <defs>
    <clipPath id="clip-path">
      <rect id="Rectangle_84" data-name="Rectangle 84" width="30" height="30" transform="translate(0 0)" fill="#fff"/>
    </clipPath>
  </defs>
  <g id="Profile" transform="translate(-0.001 -0.001)">
    <g id="Group_612" data-name="Group 612" transform="translate(0.001 0.001)" clip-path="url(#clip-path)">
      <path id="Path_467" data-name="Path 467" d="M226.607,151.881a5.273,5.273,0,1,1,5.273-5.273,5.279,5.279,0,0,1-5.273,5.273m0-9.375a4.1,4.1,0,1,0,4.1,4.1,4.106,4.106,0,0,0-4.1-4.1" transform="translate(-211.607 -135.123)" fill="#fff"/>
      <path id="Path_468" data-name="Path 468" d="M129.454,417.139l-.045,0a.585.585,0,0,1-.54-.627c0-.015,0-.03,0-.044a9.376,9.376,0,0,1,18.663.01.586.586,0,0,1-1.167.111,8.2,8.2,0,0,0-16.331,0l0,.016a.587.587,0,0,1-.583.536m.581-.519h0m0,0h0m0,0h0" transform="translate(-123.204 -390.071)" fill="#fff"/>
      <path id="Path_469" data-name="Path 469" d="M574.5,109.92a.586.586,0,1,1-.586-.586.586.586,0,0,1,.586.586" transform="translate(-548.138 -104.529)" fill="#fff"/>
      <path id="Path_470" data-name="Path 470" d="M15,30a14.867,14.867,0,0,1-9.1-3.075A15.118,15.118,0,0,1,1.6,21.76,15,15,0,0,1,15,0a14.942,14.942,0,0,1,9.2,3.147.586.586,0,0,1-.719.925A13.7,13.7,0,0,0,15,1.172,13.831,13.831,0,0,0,6.607,25.994a13.846,13.846,0,0,0,16.768.014l.018-.014A13.846,13.846,0,0,0,26.829,7.828a.586.586,0,1,1,1-.608A15,15,0,0,1,24.124,26.91l-.019.015A14.868,14.868,0,0,1,15,30m8.749-3.54h0Z" transform="translate(0 0)" fill="#fff"/>
    </g>
  </g>
</svg>
