<svg xmlns="http://www.w3.org/2000/svg" width="22.5" height="14.445" viewBox="0 0 22.5 14.445">
  <g id="right-arrow_lines" data-name="right-arrow lines" transform="translate(0 -91.651)">
    <path id="Path_355" data-name="Path 355" d="M13.993,106.1a2.236,2.236,0,0,1-2.234-2.233v-.2H9.143a.33.33,0,0,1,0-.659h2.946a.33.33,0,0,1,.33.33v.525a1.573,1.573,0,0,0,2.552,1.232l6.276-4.99a1.573,1.573,0,0,0,0-2.463l-6.276-4.989a1.573,1.573,0,0,0-2.552,1.232v.525a.33.33,0,0,1-.33.33H2.314A1.657,1.657,0,0,0,.659,96.394v4.96a1.657,1.657,0,0,0,1.655,1.655H7.824a.33.33,0,0,1,0,.659H2.314A2.317,2.317,0,0,1,0,101.353v-4.96A2.317,2.317,0,0,1,2.314,94.08h9.445v-.2a2.232,2.232,0,0,1,3.622-1.748l6.276,4.989a2.232,2.232,0,0,1,0,3.495l-6.276,4.99a2.24,2.24,0,0,1-1.388.485Z" fill="#e0ba22"/>
    <path id="Path_356" data-name="Path 356" d="M50.646,141.058a.549.549,0,0,1-.239-.055.544.544,0,0,1-.31-.493v-1.881H39.273a.936.936,0,0,1-.935-.935v-4.347a.936.936,0,0,1,.935-.935h2.271a.33.33,0,1,1,0,.659H39.273a.276.276,0,0,0-.276.276v4.347a.276.276,0,0,0,.276.276H50.208a.548.548,0,0,1,.548.548v1.761l5.985-4.758-5.985-4.758v1.761a.548.548,0,0,1-.548.548H42.863a.33.33,0,0,1,0-.659H50.1v-1.88a.548.548,0,0,1,.889-.429l6.276,4.989a.548.548,0,0,1,0,.857l-6.276,4.99A.545.545,0,0,1,50.646,141.058Z" transform="translate(-36.653 -36.646)" fill="#e0ba22"/>
  </g>
</svg>
