<svg xmlns="http://www.w3.org/2000/svg" width="214.333" height="69.668" viewBox="0 0 214.333 69.668">
  <g id="Logo" transform="translate(-1128.545 -481.563)">
    <g id="Group_121" data-name="Group 121" transform="translate(1128.545 481.563)">
      <path id="Path_1" data-name="Path 1" d="M1151.418,513.816H1135.26V532h-6.715V483.109h22.873a15.4,15.4,0,0,1,15.388,15.389,14.662,14.662,0,0,1-1.783,7.169,15.84,15.84,0,0,1-4.721,5.352,12.129,12.129,0,0,1,3.427,8.6V532h-6.506V519.622a5.565,5.565,0,0,0-1.608-3.987A5.476,5.476,0,0,0,1151.418,513.816Zm-.28-24.062H1135.26v17.417h16.158a8.6,8.6,0,0,0,8.673-8.673,8.49,8.49,0,0,0-2.518-6.19A8.652,8.652,0,0,0,1151.137,489.754Z" transform="translate(-1128.545 -481.85)" fill="#e0ba22"/>
      <path id="Path_2" data-name="Path 2" d="M1205.346,536.712a17.852,17.852,0,0,1-17.837,17.837,18.035,18.035,0,0,1-3.217-.279v-6.646a10.54,10.54,0,0,0,3.217.49,10.861,10.861,0,0,0,8.009-3.357,11.038,11.038,0,0,0,3.323-8.045V535.1h-1.609a17.792,17.792,0,0,1-17.837-17.837V499.43h6.5v17.837a11.345,11.345,0,0,0,11.332,11.331h1.609V499.43h6.5Z" transform="translate(-1137.987 -484.881)" fill="#e0ba22"/>
      <path id="Path_3" data-name="Path 3" d="M1219.394,526.574a17.854,17.854,0,0,1,12.625-30.462,18.851,18.851,0,0,1,3.218.279v6.715a11.062,11.062,0,0,0-3.218-.489,11.327,11.327,0,1,0,11.332,11.332V481.563h6.5v32.386a17.855,17.855,0,0,1-30.462,12.625Z" transform="translate(-1144.446 -481.563)" fill="#e0ba22"/>
      <path id="Path_4" data-name="Path 4" d="M1286.133,526.289l5.246,4.127a15.392,15.392,0,0,1-3.357,2.379l-.63.419a17.734,17.734,0,0,1-8.044,1.889,17.851,17.851,0,0,1-17.137-12.871l-.139-.489a17.8,17.8,0,0,1-.56-4.476,17.743,17.743,0,0,1,26.37-15.6l.21.07a17.989,17.989,0,0,1,5.945,5.456l-10.212,13.15-5.106-3.987,6.645-8.533-1.609-.98a9.24,9.24,0,0,0-4.406-.91,11.332,11.332,0,0,0-2.169,22.454,7.356,7.356,0,0,0,1.4.209h1.119A11.156,11.156,0,0,0,1286.133,526.289Z" transform="translate(-1153.234 -484.881)" fill="#e0ba22"/>
    </g>
    <g id="Group_123" data-name="Group 123" transform="translate(1283.234 486.575)">
      <path id="Path_5" data-name="Path 5" d="M1348.329,547.363a29.822,29.822,0,1,1,29.822-29.823A29.857,29.857,0,0,1,1348.329,547.363Zm0-56.181a26.359,26.359,0,1,0,26.359,26.359A26.388,26.388,0,0,0,1348.329,491.181Z" transform="translate(-1318.506 -487.718)" fill="#e0ba22"/>
      <g id="Group_122" data-name="Group 122" transform="translate(8.729 17.939)">
        <path id="Path_6" data-name="Path 6" d="M1345.634,509.944l-.032,13.942a9,9,0,0,1-13.189,7.484,9.2,9.2,0,0,1-3.189-2.9q1.025-.833,2.372-1.891a6.248,6.248,0,0,0,2.131,2.035,5.67,5.67,0,0,0,2.9.753,5.9,5.9,0,0,0,5.93-5.48V509.944Z" transform="translate(-1329.225 -509.784)" fill="#e0ba22"/>
        <path id="Path_7" data-name="Path 7" d="M1353.69,517.952a8.956,8.956,0,0,1,8.974-8.205,8.577,8.577,0,0,1,6.218,2.5,8.983,8.983,0,0,1,2.788,6.058q.032,3.75.032,14.005h-3.076v-8.333H1356.7v8.333h-3.077Q1353.626,518.529,1353.69,517.952Zm14.936,2.949q0-2.436-.032-2.6a5.912,5.912,0,0,0-1.875-3.91,5.944,5.944,0,0,0-8.285.16,5.822,5.822,0,0,0-1.73,4.23V520.9Z" transform="translate(-1333.756 -509.747)" fill="#e0ba22"/>
      </g>
    </g>
  </g>
</svg>
