<?xml version="1.0" encoding="UTF-8"?><svg id="Layer_1" xmlns="http://www.w3.org/2000/svg" viewBox="0 0 448.8 155.76"><defs><style>.cls-1{fill:#fff;}.cls-1,.cls-2{stroke-width:0px;}.cls-2{fill:#e0ba24;}</style></defs><path class="cls-2" d="m392.98,22.05c-30.83,0-55.82,24.99-55.82,55.82s24.99,55.82,55.82,55.82,55.82-24.99,55.82-55.82-24.99-55.82-55.82-55.82Zm0,104.36c-26.81,0-48.54-21.73-48.54-48.54s21.73-48.54,48.54-48.54,48.54,21.73,48.54,48.54-21.73,48.54-48.54,48.54Z"/><path class="cls-2" d="m384.89,57.62l-.06,24.1c-.19,4.09-1.76,7.58-4.74,10.44-2.97,2.87-6.57,4.29-10.77,4.29-2.66,0-5.09-.6-7.28-1.8s-4.03-2.87-5.51-5.01c1.18-.96,2.55-2.05,4.1-3.26.96,1.48,2.19,2.65,3.68,3.52,1.49.87,3.16,1.3,5.01,1.3,2.74,0,5.08-.92,7.03-2.75s3.03-4.07,3.22-6.73v-24.1h5.32,0Z"/><path class="cls-2" d="m390.98,71.51c.33-3.99,1.97-7.35,4.93-10.08,2.95-2.74,6.48-4.09,10.58-4.09s7.79,1.44,10.75,4.32c2.95,2.88,4.56,6.37,4.82,10.46.04,4.32.06,12.39.06,24.2h-5.32v-14.4h-20.6v14.4h-5.32c0-15.88.04-24.14.11-24.81h0Zm25.81,5.09c0-2.8-.02-4.3-.06-4.49-.23-2.66-1.3-4.91-3.25-6.76-1.93-1.85-4.27-2.77-7.01-2.77-2.88,0-5.32,1.02-7.31,3.05s-2.99,4.47-2.99,7.31v3.65h20.61Z"/><path class="cls-1" d="m51.13,2.81H0v109.31h15.01v-40.65h36.12c3.75,0,6.88,1.36,9.38,4.07,2.4,2.5,3.59,5.47,3.59,8.92v27.68h14.55v-27.68c0-7.4-2.56-13.81-7.66-19.24,4.38-3.13,7.9-7.11,10.56-11.96s3.99-10.19,3.99-16.03c0-9.48-3.36-17.6-10.09-24.31-6.73-6.73-14.83-10.09-24.31-10.09h0Zm13.76,48.16c-3.75,3.75-8.34,5.63-13.76,5.63H15.01V17.67h35.5c5.84,0,10.63,1.91,14.39,5.71,3.75,3.81,5.63,8.42,5.63,13.84s-1.88,10.01-5.63,13.76h0Z"/><path class="cls-1" d="m294.56,97.73h-2.5c-1.36-.1-2.4-.26-3.12-.47-5.94-1.14-10.84-4.07-14.7-8.76s-5.78-10.06-5.78-16.1c0-6.98,2.47-12.95,7.42-17.91s10.92-7.42,17.91-7.42c4.07,0,7.35.68,9.85,2.03l3.59,2.19-14.86,19.08,11.42,8.92,22.83-29.4c-3.55-5.1-7.97-9.17-13.29-12.2l-.47-.16c-5.94-3.34-12.3-5-19.08-5-11.05,0-20.46,3.91-28.23,11.73-7.76,7.82-11.65,17.2-11.65,28.14,0,3.44.42,6.77,1.25,10.01l.31,1.09c2.5,8.55,7.29,15.48,14.39,20.79,7.09,5.32,15.07,7.97,23.93,7.97,6.36,0,12.35-1.41,17.98-4.23l1.41-.93c2.92-1.57,5.42-3.34,7.51-5.32l-11.73-9.23c-4.27,3.24-9.07,4.95-14.39,5.16v.02Z"/><path class="cls-1" d="m232.95,41.85c0-.08-.2-.25-.42-.42-6.59-6.58-17.72-8.28-17.72-8.28-2.38-.39-4.77-.62-7.19-.62-1.6,0-3.17.1-4.71.27-9.04.97-16.88,4.77-23.51,11.45-1.1,1.1-2.1,2.25-3.05,3.42-4.35,5.4-7.03,11.49-8.07,18.25,0,.06-.02.1-.02.16-.16,1.03-.27,2.06-.36,3.09-.06.72-.08,1.44-.09,2.18,0,.44-.04.9-.04,1.34,0,1.02.07,2.01.13,3,.02.32.03.65.06.97.88,9.22,4.69,17.21,11.45,23.96,7.04,7.04,15.41,10.85,25.1,11.51,1.01.07,2.01.14,3.05.14,2.51,0,4.93-.23,7.28-.63.58-.1,1.15-.22,1.73-.35.48-.1.96-.23,1.43-.35,2.33-.62,4.58-1.44,6.72-2.46.13-.07.26-.12.4-.19.65-.32,1.29-.66,1.92-1.01.82-.47,1.64-.94,2.44-1.48.06-.04.12-.08.18-.11,2.14-1.45,4.18-3.13,6.11-5.07,1.7-1.68,3.18-3.45,4.5-5.29,3.75-5.37,6.23-11.71,6.94-18.57.08-.8.14-1.61.18-2.43,0-.22.04-.43.05-.65,0-.42.06-.84.06-1.27V0h-14.54v41.85h-.02Zm-25.21,56.81c-14.4,0-26.07-11.67-26.07-26.07s11.67-26.07,26.07-26.07,26.07,11.67,26.07,26.07-11.67,26.07-26.07,26.07Z"/><path class="cls-1" d="m158.73,88.63c-.3-.31-.8-.32-1.23-.08v9.21l-9.06.11V32.53h-14.54v65.2h-3.59c-6.98,0-12.95-2.47-17.91-7.42s-7.42-10.92-7.42-17.91v-39.87h-14.55v39.88c0,11.05,3.89,20.46,11.65,28.23s17.18,11.65,28.23,11.65h3.59v3.59c0,6.98-2.48,12.98-7.42,17.98-4.95,5-10.93,7.51-17.91,7.51-2.5,0-4.91-.37-7.19-1.09v14.86c2.29.42,4.69.62,7.19.62,10.94,0,20.33-3.89,28.14-11.65,7.82-7.76,11.73-17.18,11.73-28.23v-3.47l9.06-.11v9.46c.4.25.96.17,1.35-.22l15.56-15.58c.46-.44.52-1.13.14-1.52l-15.82-15.82Z"/></svg>