<svg xmlns="http://www.w3.org/2000/svg" xmlns:xlink="http://www.w3.org/1999/xlink" width="31.088" height="31.089" viewBox="0 0 31.088 31.089">
  <defs>
    <clipPath id="clip-path">
      <rect id="Rectangle_107" data-name="Rectangle 107" width="31.088" height="31.089" fill="none"/>
    </clipPath>
  </defs>
  <g id="Group_756" data-name="Group 756" transform="translate(0 0)">
    <g id="Group_756-2" data-name="Group 756" transform="translate(0 0)" clip-path="url(#clip-path)">
      <path id="Path_607" data-name="Path 607" d="M32.191,35.741a3.547,3.547,0,1,0-2.51-1.038,3.541,3.541,0,0,0,2.51,1.038m-1.866-5.413a2.639,2.639,0,1,1,0,3.732,2.63,2.63,0,0,1,0-3.732" transform="translate(-12.876 -12.877)" fill="#fff"/>
      <path id="Path_608" data-name="Path 608" d="M26.185,26.19a5.846,5.846,0,0,0-1.247,6.417.455.455,0,0,0,.838-.356,4.937,4.937,0,1,1,1.1,1.6.455.455,0,1,0-.636.652,5.806,5.806,0,0,0,4.078,1.659h.035a5.843,5.843,0,1,0-4.166-9.974" transform="translate(-11.001 -11.005)" fill="#fff"/>
      <path id="Path_609" data-name="Path 609" d="M30.216,17.273H28.6A9.432,9.432,0,0,0,27.324,14.2l1.144-1.144a.873.873,0,0,0,0-1.233l-1.658-1.658a.873.873,0,0,0-1.233,0l-1.144,1.144a9.432,9.432,0,0,0-3.074-1.272V8.416a.873.873,0,0,0-.872-.872H18.143a.871.871,0,0,0-.673.319h-.3a7.707,7.707,0,0,0-.987-2.385l.875-.876a.792.792,0,0,0,0-1.12l-1.34-1.34a.793.793,0,0,0-1.12,0l-.875.876a7.693,7.693,0,0,0-2.385-.987V.792A.793.793,0,0,0,10.549,0H8.655a.793.793,0,0,0-.792.792V2.031a7.693,7.693,0,0,0-2.385.987L4.6,2.142a.794.794,0,0,0-1.12,0L2.142,3.482a.792.792,0,0,0,0,1.12l.875.876a7.707,7.707,0,0,0-.987,2.385H.792A.792.792,0,0,0,0,8.655v1.895a.792.792,0,0,0,.792.792H2.031a7.707,7.707,0,0,0,.987,2.385l-.875.876a.792.792,0,0,0,0,1.12l1.339,1.34a.794.794,0,0,0,1.12,0l.875-.876a7.693,7.693,0,0,0,2.385.987v.3a.872.872,0,0,0-.32.674v2.344a.873.873,0,0,0,.872.872h1.62a9.42,9.42,0,0,0,1.272,3.074L10.162,25.58a.872.872,0,0,0,0,1.233l1.658,1.657a.872.872,0,0,0,1.233,0L14.2,27.326A9.425,9.425,0,0,0,17.271,28.6v1.62a.873.873,0,0,0,.872.872h2.344a.873.873,0,0,0,.872-.872V28.6a9.42,9.42,0,0,0,3.074-1.272l1.144,1.144a.873.873,0,0,0,1.233,0l1.658-1.658a.873.873,0,0,0,0-1.233l-1.144-1.144A9.432,9.432,0,0,0,28.6,21.361h1.62a.873.873,0,0,0,.872-.872V18.145a.873.873,0,0,0-.872-.872M5.891,15.37a.8.8,0,0,0-.99.1l-.859.859L2.87,15.162,3.73,14.3a.8.8,0,0,0,.1-.99A6.79,6.79,0,0,1,2.9,11.057a.8.8,0,0,0-.774-.626H.91V8.774H2.127A.8.8,0,0,0,2.9,8.147a6.79,6.79,0,0,1,.933-2.256.8.8,0,0,0-.1-.99L2.87,4.042,4.042,2.87,4.9,3.73a.8.8,0,0,0,.99.1A6.8,6.8,0,0,1,8.147,2.9a.8.8,0,0,0,.626-.774V.91h1.658V2.127a.8.8,0,0,0,.626.774,6.8,6.8,0,0,1,2.255.934.8.8,0,0,0,.99-.1l.859-.859,1.172,1.172-.859.859a.8.8,0,0,0-.1.99A6.8,6.8,0,0,1,16.3,8.147a.8.8,0,0,0,.774.626h.194v1.262A9.427,9.427,0,0,0,14.2,11.308l-1.144-1.144c-.013-.013-.027-.025-.041-.037A3.451,3.451,0,0,0,8.392,6.37a.455.455,0,0,0,.319.853,2.54,2.54,0,0,1,3.4,2.747.88.88,0,0,0-.3.194l-1.657,1.658a.871.871,0,0,0-.194.294A2.54,2.54,0,0,1,7.386,8.36a.455.455,0,0,0-.794-.445,3.453,3.453,0,0,0,3.532,5.1l.038.042L11.306,14.2a9.42,9.42,0,0,0-1.272,3.074H8.773v-.2a.8.8,0,0,0-.626-.774,6.8,6.8,0,0,1-2.255-.934m24.286,5.08H28.565a.879.879,0,0,0-.853.69,8.513,8.513,0,0,1-1.169,2.827.876.876,0,0,0,.115,1.09L27.8,26.2l-1.6,1.6-1.14-1.139a.877.877,0,0,0-1.09-.115,8.53,8.53,0,0,1-2.827,1.17.878.878,0,0,0-.69.852v1.612H18.182V28.567a.878.878,0,0,0-.69-.852,8.519,8.519,0,0,1-2.827-1.17.877.877,0,0,0-1.09.115L12.436,27.8l-1.6-1.6,1.139-1.14a.877.877,0,0,0,.115-1.09,8.53,8.53,0,0,1-1.17-2.827.878.878,0,0,0-.852-.69H8.453V18.184h1.612a.878.878,0,0,0,.852-.69,8.53,8.53,0,0,1,1.17-2.827.877.877,0,0,0-.115-1.09l-1.139-1.14,1.6-1.6,1.139,1.14a.878.878,0,0,0,1.09.115,8.526,8.526,0,0,1,2.827-1.17.877.877,0,0,0,.69-.852V8.614a.449.449,0,0,0,.089-.159h2.178v1.612a.877.877,0,0,0,.69.852,8.53,8.53,0,0,1,2.827,1.17.877.877,0,0,0,1.09-.115l1.14-1.14,1.6,1.6-1.139,1.14a.876.876,0,0,0-.115,1.09,8.526,8.526,0,0,1,1.17,2.827.878.878,0,0,0,.852.69h1.612Z" transform="translate(0 0)" fill="#fff"/>
    </g>
  </g>
</svg>
