<svg xmlns="http://www.w3.org/2000/svg" width="31.264" height="26" viewBox="0 0 31.264 26">
  <g id="camera" transform="translate(0 -43.099)">
    <g id="Group_705" data-name="Group 705" transform="translate(6.78 49.507)">
      <g id="Group_704" data-name="Group 704" transform="translate(0 0)">
        <path id="Path_540" data-name="Path 540" d="M119.882,148.04a8.852,8.852,0,1,0,6.126,15.242.464.464,0,0,0-.643-.67,7.914,7.914,0,1,1,.914-1.043.464.464,0,0,0,.749.549,8.853,8.853,0,0,0-7.146-14.077Z" transform="translate(-111.03 -148.04)" fill="#E0BA22"/>
      </g>
    </g>
    <g id="Group_707" data-name="Group 707" transform="translate(9.236 51.964)">
      <g id="Group_706" data-name="Group 706" transform="translate(0 0)">
        <path id="Path_541" data-name="Path 541" d="M157.658,188.273a6.4,6.4,0,1,0,6.4,6.4A6.4,6.4,0,0,0,157.658,188.273Zm0,11.862a5.467,5.467,0,1,1,5.467-5.467A5.473,5.473,0,0,1,157.658,200.135Z" transform="translate(-151.263 -188.273)" fill="#E0BA22"/>
      </g>
    </g>
    <g id="Group_709" data-name="Group 709" transform="translate(13.251 55.978)">
      <g id="Group_708" data-name="Group 708">
        <path id="Path_542" data-name="Path 542" d="M219.388,254.018a2.381,2.381,0,1,0,2.381,2.381A2.384,2.384,0,0,0,219.388,254.018Zm0,3.833a1.452,1.452,0,1,1,1.452-1.452A1.454,1.454,0,0,1,219.388,257.851Z" transform="translate(-217.007 -254.018)" fill="#E0BA22"/>
      </g>
    </g>
    <g id="Group_711" data-name="Group 711" transform="translate(17.312 44.77)">
      <g id="Group_710" data-name="Group 710" transform="translate(0 0)">
        <path id="Path_543" data-name="Path 543" d="M288.5,70.472h-3.649A1.334,1.334,0,0,0,283.52,71.8v.956a1.334,1.334,0,0,0,1.333,1.333H288.5a1.334,1.334,0,0,0,1.333-1.333V71.8A1.334,1.334,0,0,0,288.5,70.472Zm.4,2.289a.4.4,0,0,1-.4.4h-3.649a.4.4,0,0,1-.4-.4V71.8a.4.4,0,0,1,.4-.4H288.5a.4.4,0,0,1,.4.4Z" transform="translate(-283.52 -70.472)" fill="#E0BA22"/>
      </g>
    </g>
    <g id="Group_713" data-name="Group 713" transform="translate(4.088 63.094)">
      <g id="Group_712" data-name="Group 712" transform="translate(0 0)">
        <path id="Path_544" data-name="Path 544" d="M69.1,370.559a2.143,2.143,0,1,0,2.143,2.143A2.146,2.146,0,0,0,69.1,370.559Zm0,3.357A1.214,1.214,0,1,1,70.31,372.7,1.216,1.216,0,0,1,69.1,373.916Z" transform="translate(-66.953 -370.559)" fill="#E0BA22"/>
      </g>
    </g>
    <g id="Group_715" data-name="Group 715" transform="translate(0 43.099)">
      <g id="Group_714" data-name="Group 714" transform="translate(0 0)">
        <path id="Path_545" data-name="Path 545" d="M31.263,53.866V50.405a2.48,2.48,0,0,0-2.478-2.478h-1.5a1.55,1.55,0,0,1-1.464-1.042l-.735-2.121A2.479,2.479,0,0,0,22.742,43.1H12.886a.464.464,0,0,0,0,.929h9.855a1.55,1.55,0,0,1,1.464,1.042l.735,2.121a2.479,2.479,0,0,0,2.341,1.666h1.5a1.551,1.551,0,0,1,1.549,1.549v3H24.266a.464.464,0,1,0,0,.929h6.068V66.621a1.551,1.551,0,0,1-1.549,1.549H2.478A1.551,1.551,0,0,1,.929,66.621V54.335H7a.464.464,0,0,0,0-.929H.929v-3a1.551,1.551,0,0,1,1.549-1.549H6.459A2.479,2.479,0,0,0,8.8,47.19l.735-2.121A1.55,1.55,0,0,1,11,44.028h.34a.464.464,0,0,0,0-.929H11a2.479,2.479,0,0,0-2.341,1.666l-.735,2.121a1.55,1.55,0,0,1-1.463,1.042H2.478A2.48,2.48,0,0,0,0,50.405V66.621A2.48,2.48,0,0,0,2.478,69.1H28.786a2.48,2.48,0,0,0,2.478-2.478V53.875s0,0,0,0S31.263,53.868,31.263,53.866Z" 
        transform="translate(0 -43.099)" fill="#E0BA22"/>
      </g>
    </g>
    <g id="Group_717" data-name="Group 717" transform="translate(2.446 43.842)">
      <g id="Group_716" data-name="Group 716" transform="translate(0 0)">
        <path id="Path_546" data-name="Path 546" d="M44.06,55.269H40.515a.464.464,0,0,0-.464.464v2.739a.464.464,0,0,0,.929,0V56.2H43.6v2.275a.464.464,0,0,0,.929,0V55.733A.464.464,0,0,0,44.06,55.269Z" transform="translate(-40.051 -55.269)" fill="#E0BA22"/>
      </g>
    </g>
  </g>
</svg>
