<svg xmlns="http://www.w3.org/2000/svg" width="30" height="43.268" viewBox="0 0 30 43.268">
  <g id="car-seat" transform="translate(-78.5)">
    <path id="Path_209" data-name="Path 209" d="M106,29.671a24.07,24.07,0,0,0,.379-5.285.634.634,0,1,0-1.267.052,23.858,23.858,0,0,1-.456,5.551,2.59,2.59,0,0,0-1.216,1.461l-1.182,3.582a4.019,4.019,0,0,0-2.631-1.058v-9.5a72.223,72.223,0,0,1,1.194-13.06l.346-1.875a2.756,2.756,0,0,1,1.566,1.948l1.939,9.379c.05.239.1.483.137.725a.634.634,0,0,0,1.249-.215c-.044-.256-.093-.514-.145-.767l-1.939-9.379a4.03,4.03,0,0,0-3.931-3.2h-.227l.1-.368a7.367,7.367,0,0,0-.161-4.334l-.417-1.2A3.171,3.171,0,0,0,96.346,0H90.655a3.172,3.172,0,0,0-2.993,2.128l-.12.344a.634.634,0,1,0,1.2.416l.12-.344a1.9,1.9,0,0,1,1.635-1.27L89.78,3.326a7.366,7.366,0,0,0-.161,4.334l.1.368H88.494l-.185-.694a6.127,6.127,0,0,1-.2-1.761.634.634,0,1,0-1.267-.038,7.389,7.389,0,0,0,.246,2.126l.1.368h-.225a4.03,4.03,0,0,0-3.931,3.2l-1.939,9.379A23.582,23.582,0,0,0,81,29.671a2.6,2.6,0,0,0-2.5,2.593v8.68a2.327,2.327,0,0,0,2.324,2.324h25.352a2.327,2.327,0,0,0,2.324-2.324v-8.68a2.6,2.6,0,0,0-2.5-2.593Zm-1.356,2.177a1.328,1.328,0,0,1,2.589.416v3.761a5.1,5.1,0,0,1-3.446,1.328h-.959Zm-16,2.124V31.986h9.718v1.986ZM99.922,9.3c-.317,1.7-.673,3.612-.9,5.366H95.19a.634.634,0,1,0,0,1.268h3.67q-.074.633-.137,1.268H88.277q-.063-.634-.137-1.268h4.093a.634.634,0,1,0,0-1.268H87.98c-.215-1.672-.593-3.714-.9-5.366ZM88.638,23.958q0-.634-.019-1.268h9.763q-.015.634-.019,1.268Zm0,1.268h9.718v2.958H88.641Zm9.783-3.8H88.576q-.062-1.48-.183-2.958H98.607Q98.486,19.942,98.424,21.423Zm-9.783,8.028h9.718v1.268H88.641Zm9.5-26.906.417,1.2a6.1,6.1,0,0,1,.134,3.588l-.19.7H97.283l.1-.368a7.367,7.367,0,0,0-.161-4.334l-.713-2.051a1.9,1.9,0,0,1,1.635,1.27Zm-7.3,4.789a6.1,6.1,0,0,1,.133-3.591l.861-2.475h3.324l.861,2.475a6.1,6.1,0,0,1,.133,3.591l-.185.695H91.029ZM82.329,20.865l1.939-9.379a2.756,2.756,0,0,1,1.566-1.948l.346,1.875a72.222,72.222,0,0,1,1.194,13.06v9.5a4.019,4.019,0,0,0-2.631,1.058L83.56,31.451a2.59,2.59,0,0,0-1.216-1.461A22.725,22.725,0,0,1,82.329,20.865ZM81.1,30.936a1.325,1.325,0,0,1,1.261.912l1.816,5.5h-.959a5.1,5.1,0,0,1-3.447-1.328V32.264A1.329,1.329,0,0,1,81.1,30.936Zm26.137,10.008A1.057,1.057,0,0,1,106.176,42H80.824a1.057,1.057,0,0,1-1.056-1.056V37.616a6.362,6.362,0,0,0,3.447,1h5.8a.634.634,0,1,0,0-1.268h-3.51l-.307-.929a2.752,2.752,0,0,1,2.257-1.183H99.542a2.752,2.752,0,0,1,2.257,1.183l-.307.929H91.975a.634.634,0,1,0,0,1.268h11.811a6.362,6.362,0,0,0,3.447-1Z" fill="#fff"/>
  </g>
</svg>
