<svg id="Category_Taxi_Bold_Component_Additional_Icons" data-name="Category=Taxi Bold, Component=Additional Icons" xmlns="http://www.w3.org/2000/svg" width="28" height="28" viewBox="0 0 28 28">
  <rect id="Category_Taxi_Bold_Component_Additional_Icons-2" data-name="Category=Taxi Bold, Component=Additional Icons" width="28" height="28" fill="none"/>
  <path id="Vector" d="M22.942,10.374a2.333,2.333,0,0,1,.391,1.293V17.5a2.322,2.322,0,0,1-1.167,2.01v2.656A1.167,1.167,0,0,1,21,23.333H19.833a1.167,1.167,0,0,1-1.167-1.167V19.833h-14v2.333A1.167,1.167,0,0,1,3.5,23.333H2.333a1.167,1.167,0,0,1-1.167-1.167V19.51A2.324,2.324,0,0,1,0,17.5V11.667A2.333,2.333,0,0,1,1.433,9.514l1.6-4.788A3.494,3.494,0,0,1,6.348,2.333H9.333V0H14V2.333h2.986A3.494,3.494,0,0,1,20.3,4.726l1.6,4.788a2.333,2.333,0,0,1,1.042.86ZM6.348,4.667a1.167,1.167,0,0,0-1.107.8L3.952,9.333h15.43l-1.29-3.869a1.164,1.164,0,0,0-1.107-.8H6.348ZM4.083,16.333a1.751,1.751,0,1,0-.67-.133,1.751,1.751,0,0,0,.67.133Zm15.167,0a1.751,1.751,0,1,0-.67-.133,1.751,1.751,0,0,0,.67.133Z" transform="translate(2.333 2.333)" fill="#35383f"/>
</svg>
