<svg xmlns="http://www.w3.org/2000/svg" width="24" height="26.182" viewBox="0 0 24 26.182">
  <g id="share" transform="translate(0 0)">
    <path id="Path_192" data-name="Path 192" d="M322.793,20.062A4.062,4.062,0,1,1,318.73,16a4.062,4.062,0,0,1,4.062,4.062Zm0,0" transform="translate(-299.73 -15.062)" fill="#fff"/>
    <path id="Path_193" data-name="Path 193" d="M303.668,10a5,5,0,1,1,5-5A5.005,5.005,0,0,1,303.668,10Zm0-8.125A3.125,3.125,0,1,0,306.793,5a3.129,3.129,0,0,0-3.125-3.125Zm0,0" transform="translate(-284.668)" fill="#fff"/>
    <path id="Path_194" data-name="Path 194" d="M322.793,361.395a4.062,4.062,0,1,1-4.062-4.063A4.062,4.062,0,0,1,322.793,361.395Zm0,0" transform="translate(-299.73 -340.213)" fill="#fff"/>
    <path id="Path_195" data-name="Path 195" d="M303.668,351.332a5,5,0,1,1,5-5A5,5,0,0,1,303.668,351.332Zm0-8.125a3.125,3.125,0,1,0,3.125,3.125A3.129,3.129,0,0,0,303.668,343.207Zm0,0" transform="translate(-284.668 -325.15)" fill="#fff"/>
    <path id="Path_196" data-name="Path 196" d="M24.125,190.73a4.063,4.063,0,1,1-4.063-4.062A4.062,4.062,0,0,1,24.125,190.73Zm0,0" transform="translate(-15.063 -177.639)" fill="#fff"/>
    <path id="Path_197" data-name="Path 197" d="M5,180.668a5,5,0,1,1,5-5,5,5,0,0,1-5,5Zm0-8.125a3.125,3.125,0,1,0,3.125,3.125A3.128,3.128,0,0,0,5,172.543Zm0,0" transform="translate(0 -162.577)" fill="#fff"/>
    <path id="Path_198" data-name="Path 198" d="M115.289,99.329a.93.93,0,0,1-.818-.631,1.5,1.5,0,0,1,.352-1.705l8.719-6.612a.827.827,0,0,1,1.282.467,1.5,1.5,0,0,1-.352,1.705l-8.719,6.612a.763.763,0,0,1-.464.164Zm0,0" transform="translate(-107.648 -85.895)" fill="#fff"/>
    <path id="Path_199" data-name="Path 199" d="M124.029,275.332a.762.762,0,0,1-.464-.164l-8.719-6.612a1.494,1.494,0,0,1-.351-1.705.827.827,0,0,1,1.282-.467L124.5,273a1.494,1.494,0,0,1,.351,1.705A.931.931,0,0,1,124.029,275.332Zm0,0" transform="translate(-107.67 -253.471)" fill="#fff"/>
  </g>
</svg>
