<svg xmlns="http://www.w3.org/2000/svg" width="40" height="44.059" viewBox="0 0 40 44.059">
  <g id="shield" transform="translate(-23.584)">
    <g id="Group_628" data-name="Group 628" transform="translate(42.139 19.986)">
      <g id="Group_627" data-name="Group 627">
        <path id="Path_499" data-name="Path 499" d="M240.683,232.255a1.468,1.468,0,0,0-.627,2.8v1.785a.627.627,0,1,0,1.254,0V235.05a1.468,1.468,0,0,0-.627-2.8Z" transform="translate(-239.214 -232.255)" fill="#e0ba22"/>
      </g>
    </g>
    <g id="Group_630" data-name="Group 630" transform="translate(26.664 2.904)">
      <g id="Group_629" data-name="Group 629">
        <path id="Path_500" data-name="Path 500" d="M91.972,40.409a11.15,11.15,0,0,1-6.033-5.539,1.982,1.982,0,0,0-1.784-1.121H68.442a1.981,1.981,0,0,0-1.784,1.121,11.15,11.15,0,0,1-6.033,5.539,1.965,1.965,0,0,0-1.246,1.839V46.07A26.7,26.7,0,0,0,63.6,60.382,30.721,30.721,0,0,0,75.3,71.006l.079.042a1.98,1.98,0,0,0,1.843,0l.079-.042A30.722,30.722,0,0,0,88.994,60.382,26.7,26.7,0,0,0,93.219,46.07V42.248A1.965,1.965,0,0,0,91.972,40.409Zm-.008,5.661a25.446,25.446,0,0,1-4.029,13.64A29.468,29.468,0,0,1,76.716,69.9l-.079.042a.726.726,0,0,1-.676,0l-.079-.042A29.468,29.468,0,0,1,64.662,59.71a25.446,25.446,0,0,1-4.029-13.64V42.248a.718.718,0,0,1,.454-.673,12.4,12.4,0,0,0,6.7-6.167A.722.722,0,0,1,68.442,35H84.155a.722.722,0,0,1,.651.406,12.4,12.4,0,0,0,6.7,6.167.718.718,0,0,1,.454.673Z" transform="translate(-59.379 -33.749)" fill="#e0ba22"/>
      </g>
    </g>
    <g id="Group_632" data-name="Group 632" transform="translate(24.27 21.125)">
      <g id="Group_631" data-name="Group 631">
        <path id="Path_501" data-name="Path 501" d="M69.688,245.538a.627.627,0,0,0-.75.473,30.619,30.619,0,0,1-15.957,20.1l-1.913,1.005a.424.424,0,0,1-.394,0l-1.913-1.005A30.61,30.61,0,0,1,32.8,245.977a.627.627,0,0,0-1.223.275,31.86,31.86,0,0,0,16.605,20.971l1.913,1.005a1.678,1.678,0,0,0,1.561,0l1.913-1.005a31.869,31.869,0,0,0,16.6-20.935A.627.627,0,0,0,69.688,245.538Z" transform="translate(-31.557 -245.487)" fill="#e0ba22"/>
      </g>
    </g>
    <g id="Group_634" data-name="Group 634" transform="translate(23.584)">
      <g id="Group_633" data-name="Group 633">
        <path id="Path_502" data-name="Path 502" d="M62.1,7.175a6.974,6.974,0,0,1-6.4-5.715A1.693,1.693,0,0,0,54.03,0H33.138a1.693,1.693,0,0,0-1.663,1.46,6.974,6.974,0,0,1-6.4,5.715,1.667,1.667,0,0,0-1.488,1.667v6.733a28.863,28.863,0,0,0,.151,2.94.627.627,0,0,0,.623.563.635.635,0,0,0,.065,0,.627.627,0,0,0,.56-.688,27.612,27.612,0,0,1-.144-2.812V8.842a.421.421,0,0,1,.366-.42,8.223,8.223,0,0,0,7.513-6.788.429.429,0,0,1,.421-.379H54.03a.429.429,0,0,1,.422.379,8.223,8.223,0,0,0,7.513,6.788.421.421,0,0,1,.366.42v6.733a27.624,27.624,0,0,1-.141,2.783.627.627,0,0,0,1.248.127,28.869,28.869,0,0,0,.147-2.91V8.842A1.667,1.667,0,0,0,62.1,7.175Z" transform="translate(-23.584)" fill="#e0ba22"/>
      </g>
    </g>
    <g id="Group_636" data-name="Group 636" transform="translate(34.456 6.53)">
      <g id="Group_635" data-name="Group 635">
        <path id="Path_503" data-name="Path 503" d="M166.237,85h-1.031V82.012a6.127,6.127,0,0,0-12.254,0V85h-1.031A2,2,0,0,0,149.927,87v8.978a2,2,0,0,0,1.994,1.994h14.316a2,2,0,0,0,1.994-1.994V87A2,2,0,0,0,166.237,85Zm-12.031-2.993a4.873,4.873,0,0,1,9.746,0V85h-9.746Zm12.771,13.965a.741.741,0,0,1-.74.74H151.921a.741.741,0,0,1-.74-.74V87a.741.741,0,0,1,.74-.74h14.316a.741.741,0,0,1,.74.74Z" transform="translate(-149.927 -75.885)" fill="#e0ba22"/>
      </g>
    </g>
  </g>
</svg>
