<svg id="Group_920" data-name="Group 920" xmlns="http://www.w3.org/2000/svg" xmlns:xlink="http://www.w3.org/1999/xlink" width="237" height="220" viewBox="0 0 237 220">
  <defs>
    <clipPath id="clip-path">
      <rect id="Rectangle_144" data-name="Rectangle 144" width="237" height="220" fill="none"/>
    </clipPath>
    <clipPath id="clip-path-3">
      <rect id="Rectangle_133" data-name="Rectangle 133" width="237" height="203.318" fill="none"/>
    </clipPath>
    <clipPath id="clip-path-5">
      <rect id="Rectangle_135" data-name="Rectangle 135" width="207.193" height="18.241" fill="none"/>
    </clipPath>
    <clipPath id="clip-path-9">
      <path id="Path_743" data-name="Path 743" d="M121.28,222.772V46.988a3.8,3.8,0,0,1,3.788-3.8H218.7a3.8,3.8,0,0,1,3.789,3.8V222.772a3.8,3.8,0,0,1-3.789,3.8H125.068a3.8,3.8,0,0,1-3.788-3.8m3.788-179.886a4.1,4.1,0,0,0-4.092,4.1V222.772a4.1,4.1,0,0,0,4.092,4.1H218.7a4.1,4.1,0,0,0,4.092-4.1V46.988a4.1,4.1,0,0,0-4.092-4.1Z" transform="translate(-120.976 -42.886)" fill="none"/>
    </clipPath>
    <clipPath id="clip-path-10">
      <rect id="Rectangle_140" data-name="Rectangle 140" width="89.534" height="114.565" fill="none"/>
    </clipPath>
  </defs>
  <g id="Group_919" data-name="Group 919" clip-path="url(#clip-path)">
    <g id="Group_898" data-name="Group 898">
      <g id="Group_897" data-name="Group 897" clip-path="url(#clip-path)">
        <path id="Path_720" data-name="Path 720" d="M174.99,193.246s29.108-1.824,49.12-37.7,16.373-90.6-8.49-121S151.946-6.191,114.955,3.538C96.931,8.278,84.911,20.572,74.525,35.392,65.477,48.3,55.3,60.746,41.608,68.916c-13.561,8.089-27.5,14.542-34.348,29.917C-9.4,136.249,2.774,179.785,42.184,194.462c42.449,15.809,113.4,7.3,132.806-1.216" transform="translate(0 0)" fill="#e0ba22"/>
        <g id="Group_896" data-name="Group 896" opacity="0.7">
          <g id="Group_895" data-name="Group 895">
            <g id="Group_894" data-name="Group 894" clip-path="url(#clip-path-3)">
              <path id="Path_721" data-name="Path 721" d="M174.99,193.246s29.108-1.824,49.12-37.7,16.373-90.6-8.49-121S151.946-6.191,114.955,3.538C96.931,8.278,84.911,20.572,74.525,35.392,65.477,48.3,55.3,60.746,41.608,68.916c-13.561,8.089-27.5,14.542-34.348,29.917C-9.4,136.249,2.774,179.785,42.184,194.462c42.449,15.809,113.4,7.3,132.806-1.216" transform="translate(0 0)" fill="#fff"/>
            </g>
          </g>
        </g>
      </g>
    </g>
    <g id="Group_903" data-name="Group 903">
      <g id="Group_902" data-name="Group 902" clip-path="url(#clip-path)">
        <path id="Path_722" data-name="Path 722" d="M238.089,340.939c0,5.037-46.382,9.121-103.6,9.121s-103.6-4.084-103.6-9.121,46.382-9.121,103.6-9.121,103.6,4.084,103.6,9.121" transform="translate(-12.16 -130.059)" fill="#e0ba22"/>
        <g id="Group_901" data-name="Group 901" transform="translate(18.736 201.759)" opacity="0.5">
          <g id="Group_900" data-name="Group 900">
            <g id="Group_899" data-name="Group 899" clip-path="url(#clip-path-5)">
              <path id="Path_723" data-name="Path 723" d="M238.089,340.939c0,5.037-46.382,9.121-103.6,9.121s-103.6-4.084-103.6-9.121,46.382-9.121,103.6-9.121,103.6,4.084,103.6,9.121" transform="translate(-30.896 -331.818)" fill="#fff"/>
            </g>
          </g>
        </g>
      </g>
    </g>
    <g id="Group_905" data-name="Group 905">
      <g id="Group_904" data-name="Group 904" clip-path="url(#clip-path)">
        <path id="Path_724" data-name="Path 724" d="M27.337,162.607a.3.3,0,0,1-.3-.3V156.91a.3.3,0,1,1,.606,0V162.3a.3.3,0,0,1-.3.3" transform="translate(-10.64 -61.383)" fill="#263238"/>
        <path id="Path_725" data-name="Path 725" d="M28.281,161.648H22.9a.3.3,0,0,1,0-.608h5.379a.3.3,0,0,1,0,.608" transform="translate(-8.895 -63.121)" fill="#263238"/>
        <path id="Path_726" data-name="Path 726" d="M330,86.607a.3.3,0,0,1-.3-.3V80.91a.3.3,0,1,1,.606,0V86.3a.3.3,0,0,1-.3.3" transform="translate(-129.764 -31.594)" fill="#263238"/>
        <path id="Path_727" data-name="Path 727" d="M330.948,85.648h-5.379a.3.3,0,0,1,0-.608h5.379a.3.3,0,0,1,0,.608" transform="translate(-128.019 -33.332)" fill="#263238"/>
        <path id="Path_728" data-name="Path 728" d="M204,17.94a.3.3,0,0,1-.3-.3V12.243a.3.3,0,1,1,.606,0v5.393a.3.3,0,0,1-.3.3" transform="translate(-80.172 -4.68)" fill="#263238"/>
        <path id="Path_729" data-name="Path 729" d="M204.948,16.982h-5.379a.3.3,0,0,1,0-.608h5.379a.3.3,0,0,1,0,.608" transform="translate(-78.427 -6.418)" fill="#263238"/>
        <path id="Path_730" data-name="Path 730" d="M58,261.94a.3.3,0,0,1-.3-.3v-5.393a.3.3,0,1,1,.606,0v5.393a.3.3,0,0,1-.3.3" transform="translate(-22.71 -100.318)" fill="#263238"/>
        <path id="Path_731" data-name="Path 731" d="M58.948,260.982H53.569a.3.3,0,0,1,0-.608h5.379a.3.3,0,0,1,0,.608" transform="translate(-20.964 -102.056)" fill="#263238"/>
        <path id="Path_732" data-name="Path 732" d="M315.813,50.828a4.763,4.763,0,1,1,4.751-4.763,4.762,4.762,0,0,1-4.751,4.763m0-8.918a4.155,4.155,0,1,0,4.144,4.155,4.154,4.154,0,0,0-4.144-4.155" transform="translate(-122.429 -16.189)" fill="#263238"/>
        <path id="Path_733" data-name="Path 733" d="M6.48,220.161a4.763,4.763,0,1,1,4.75-4.763,4.762,4.762,0,0,1-4.75,4.763m0-8.918a4.155,4.155,0,1,0,4.144,4.155,4.154,4.154,0,0,0-4.144-4.155" transform="translate(-0.681 -82.56)" fill="#263238"/>
        <path id="Path_734" data-name="Path 734" d="M357.044,124.6a1.317,1.317,0,1,1,1.314-1.317,1.317,1.317,0,0,1-1.314,1.317m0-2.027a.709.709,0,1,0,.708.71.709.709,0,0,0-.708-.71" transform="translate(-140.009 -47.807)" fill="#263238"/>
        <path id="Path_735" data-name="Path 735" d="M102.71,100.6a1.317,1.317,0,1,1,1.314-1.317,1.317,1.317,0,0,1-1.314,1.317m0-2.027a.709.709,0,1,0,.708.71.709.709,0,0,0-.708-.71" transform="translate(-39.908 -38.399)" fill="#263238"/>
      </g>
    </g>
    <g id="Group_907" data-name="Group 907">
      <g id="Group_906" data-name="Group 906" clip-path="url(#clip-path)">
        <path id="Path_736" data-name="Path 736" d="M333,170.36l.021-.028-.034,0-.015-.032-.021.029a34.046,34.046,0,0,0-17.534,3.313,21.429,21.429,0,0,0,4.509-15.709c-1.922-19.271-20.06-30.305-21.457-31.128v-.052l-.044.026-.044-.026v.052c-1.4.823-19.535,11.857-21.457,31.128a21.45,21.45,0,0,0,1.663,10.961c-10.213-6.122-22.128-5.092-23.225-4.981l-.025-.035-.017.039-.042,0,.025.035c-.539,1.247-7.356,17.678.834,31.645,7.324,12.489,22.684,9.188,26.854,8.015,3.507,3.693,9.9,12.093,12.72,26.434h-3.983l1.918,27.157H302.6l1.918-27.157h-4.685a83.07,83.07,0,0,1,11.435-27.312c4.178,1.042,15.484,2.8,21.056-6.7,6.645-11.332,1.114-24.665.677-25.676m-34.848-.106-9.461-13.175a.257.257,0,1,1,.417-.3l9.059,12.616V156.047l-.016.02-9.461-13.175a.257.257,0,1,1,.417-.3l9.059,12.615V135.777a.257.257,0,1,1,.514,0v18.782l9.825-12.493a.258.258,0,0,1,.4.32l-10.228,13.007v13.353l9.825-12.493a.257.257,0,0,1,.4.319l-10.228,13.007v11.29l9.825-12.493a.257.257,0,0,1,.4.319L298.684,181.7v.246h-.838L288.693,169.2a.257.257,0,1,1,.417-.3l9.059,12.616V170.233Zm-15.03,32.162-.933-1.279-13.312-3.722a.216.216,0,0,1,.116-.416l12.786,3.575-5.559-7.625-13.312-3.722a.216.216,0,0,1,.115-.416l12.787,3.575-6.575-9.018-13.313-3.722a.216.216,0,0,1,.116-.416l12.786,3.575L259.58,170.12a.215.215,0,1,1,.347-.255l9.566,13.122-.093-13a.215.215,0,1,1,.43,0l.1,13.581-.021-.005,6.571,9.014-.093-13a.215.215,0,1,1,.431,0l.1,13.581-.021-.005,5.555,7.62-.093-13a.215.215,0,1,1,.431,0l.1,13.581-.021-.006.8,1.092Zm1.513,0c1.944-2.96,7.544-12.687,4.2-22.043a42.385,42.385,0,0,0,8.3,4.258V226.85c-3.071-12.935-8.861-20.7-12.389-24.434Zm14.555,21.835V184.826a42.246,42.246,0,0,0,7.936-3.877c-5.341,8.585.642,18.5,2.219,20.839a82.8,82.8,0,0,0-10.154,22.464M332.5,183.094l-10.8,3.02-5.335,7.318,10.375-2.9a.175.175,0,0,1,.094.337l-10.8,3.02-4.511,6.187,10.375-2.9a.175.175,0,0,1,.093.337l-10.8,3.02-.567.778c-.1-.06-.2-.119-.3-.181l.324-.445-.016,0,.079-11.02a.175.175,0,1,1,.349,0l-.076,10.552,4.508-6.183-.017,0,.079-11.02a.174.174,0,1,1,.349,0l-.075,10.552,5.332-7.314-.017,0,.079-11.02a.174.174,0,1,1,.349,0l-.075,10.552,7.762-10.647a.175.175,0,1,1,.281.207l-7.5,10.293,10.375-2.9a.175.175,0,0,1,.094.337" transform="translate(-99.234 -49.68)" fill="#263238"/>
      </g>
    </g>
    <g id="Group_909" data-name="Group 909">
      <g id="Group_908" data-name="Group 908" clip-path="url(#clip-path)">
        <path id="Path_737" data-name="Path 737" d="M224.025,226.875H130.391a4.1,4.1,0,0,1-4.092-4.1V46.988a4.1,4.1,0,0,1,4.092-4.1h93.635a4.1,4.1,0,0,1,4.092,4.1V222.772a4.1,4.1,0,0,1-4.092,4.1" transform="translate(-49.709 -16.81)" fill="#263238"/>
        <path id="Path_738" data-name="Path 738" d="M223.828,226.983H130.194a4.406,4.406,0,0,1-4.395-4.406V46.792a4.406,4.406,0,0,1,4.395-4.406h93.635a4.406,4.406,0,0,1,4.395,4.406V222.577a4.406,4.406,0,0,1-4.395,4.406M130.194,42.994a3.8,3.8,0,0,0-3.788,3.8V222.577a3.8,3.8,0,0,0,3.788,3.8h93.635a3.8,3.8,0,0,0,3.788-3.8V46.792a3.8,3.8,0,0,0-3.788-3.8Z" transform="translate(-49.512 -16.614)" fill="#263238"/>
        <path id="Path_739" data-name="Path 739" d="M218.7,226.875H125.068a4.1,4.1,0,0,1-4.092-4.1V46.988a4.1,4.1,0,0,1,4.092-4.1H218.7a4.1,4.1,0,0,1,4.092,4.1V222.772a4.1,4.1,0,0,1-4.092,4.1" transform="translate(-47.614 -16.81)" fill="#fff"/>
        <path id="Path_740" data-name="Path 740" d="M218.506,226.983H124.871a4.406,4.406,0,0,1-4.395-4.406V46.792a4.406,4.406,0,0,1,4.395-4.406h93.635a4.406,4.406,0,0,1,4.395,4.406V222.577a4.406,4.406,0,0,1-4.395,4.406M124.871,42.994a3.8,3.8,0,0,0-3.788,3.8V222.577a3.8,3.8,0,0,0,3.788,3.8h93.635a3.8,3.8,0,0,0,3.788-3.8V46.792a3.8,3.8,0,0,0-3.788-3.8Z" transform="translate(-47.417 -16.614)" fill="#263238"/>
      </g>
    </g>
    <g id="Group_914" data-name="Group 914" transform="translate(73.362 26.076)">
      <g id="Group_913" data-name="Group 913" clip-path="url(#clip-path-9)">
        <path id="Path_741" data-name="Path 741" d="M230.766,157.063,141.232,271.628h85.443a4.1,4.1,0,0,0,4.092-4.1Z" transform="translate(-128.948 -87.639)" fill="#c6ff00"/>
        <g id="Group_912" data-name="Group 912" transform="translate(12.284 69.424)" opacity="0.5">
          <g id="Group_911" data-name="Group 911">
            <g id="Group_910" data-name="Group 910" clip-path="url(#clip-path-10)">
              <path id="Path_742" data-name="Path 742" d="M230.766,157.063,141.232,271.628h85.443a4.1,4.1,0,0,0,4.092-4.1Z" transform="translate(-141.232 -157.063)" fill="#fff"/>
            </g>
          </g>
        </g>
      </g>
    </g>
    <g id="Group_916" data-name="Group 916">
      <g id="Group_915" data-name="Group 915" clip-path="url(#clip-path)">
        <path id="Path_744" data-name="Path 744" d="M207.463,59.28H194.788a1.3,1.3,0,0,1,0-2.607h12.675a1.3,1.3,0,0,1,0,2.607" transform="translate(-76.153 -22.214)" fill="#263238"/>
        <path id="Path_745" data-name="Path 745" d="M207.266,59.388H194.591a1.608,1.608,0,0,1,0-3.215h12.675a1.608,1.608,0,0,1,0,3.215m-12.675-2.607a1,1,0,0,0,0,2h12.675a1,1,0,0,0,0-2Z" transform="translate(-75.956 -22.018)" fill="#263238"/>
        <path id="Path_746" data-name="Path 746" d="M220.536,217.61h-88.95V61.208h21.083l2.372,1.973a4.61,4.61,0,0,0,2.948,1.067h37.2a4.615,4.615,0,0,0,3.048-1.152l2.144-1.889h20.155Z" transform="translate(-51.79 -23.991)" fill="#263238"/>
        <path id="Path_747" data-name="Path 747" d="M220.34,217.719H131.39a.3.3,0,0,1-.3-.3V61.012a.3.3,0,0,1,.3-.3h21.083a.3.3,0,0,1,.193.071l2.372,1.973a4.315,4.315,0,0,0,2.755,1h37.2a4.307,4.307,0,0,0,2.848-1.076l2.144-1.889a.3.3,0,0,1,.2-.076H220.34a.3.3,0,0,1,.3.3v156.4a.3.3,0,0,1-.3.3m-88.646-.608h88.343V61.316H200.3l-2.058,1.813a4.909,4.909,0,0,1-3.248,1.227h-37.2a4.922,4.922,0,0,1-3.142-1.137l-2.288-1.9h-20.67Z" transform="translate(-51.593 -23.795)" fill="#263238"/>
        <path id="Path_748" data-name="Path 748" d="M214.482,263.081H158.907a.3.3,0,0,1,0-.608h55.575a.3.3,0,0,1,0,.608" transform="translate(-62.424 -102.879)" fill="#fff"/>
        <path id="Path_749" data-name="Path 749" d="M214.482,275.139H158.907a.3.3,0,0,1,0-.608h55.575a.3.3,0,0,1,0,.608" transform="translate(-62.424 -107.605)" fill="#fff"/>
        <path id="Path_750" data-name="Path 750" d="M214.482,287.2H158.907a.3.3,0,0,1,0-.608h55.575a.3.3,0,0,1,0,.608" transform="translate(-62.424 -112.332)" fill="#fff"/>
        <path id="Path_751" data-name="Path 751" d="M186.883,186.662A27.894,27.894,0,0,1,164,142.957a.3.3,0,1,1,.5.345,27.107,27.107,0,1,0,17.416-11.329.3.3,0,0,1-.11-.6,27.871,27.871,0,1,1,5.083,55.287" transform="translate(-62.611 -51.311)" fill="#fff"/>
        <path id="Path_752" data-name="Path 752" d="M170.8,145.119a.3.3,0,0,1-.227-.506A28.106,28.106,0,0,1,173.207,142a.3.3,0,0,1,.4.46,27.4,27.4,0,0,0-2.581,2.554.3.3,0,0,1-.227.1" transform="translate(-67.102 -55.63)" fill="#fff"/>
        <path id="Path_753" data-name="Path 753" d="M213.115,161.675a23.333,23.333,0,1,0-23.333,23.395,23.364,23.364,0,0,0,23.333-23.395" transform="translate(-65.512 -54.2)" fill="#e0ba22"/>
        <path id="Path_754" data-name="Path 754" d="M194.824,176.746a1.816,1.816,0,0,1-1.366-.62l-8.85-10.083a1.821,1.821,0,1,1,2.731-2.41l7.327,8.349L207.82,153.3a1.821,1.821,0,1,1,2.973,2.1l-14.482,20.571a1.821,1.821,0,0,1-1.389.77c-.033,0-.065,0-.1,0" transform="translate(-72.48 -59.784)" fill="#263238"/>
        <path id="Path_755" data-name="Path 755" d="M198.237,63.1a4.61,4.61,0,0,1-3.048,1.152h-37.2a4.614,4.614,0,0,1-2.949-1.067l-2.372-1.974H131.587v16h88.949v-16H200.381Z" transform="translate(-51.79 -23.991)" fill="#e0ba22"/>
        <path id="Path_756" data-name="Path 756" d="M220.339,77.317H131.39a.3.3,0,0,1-.3-.3v-16a.3.3,0,0,1,.3-.3h21.083a.305.305,0,0,1,.194.07l2.372,1.973a4.314,4.314,0,0,0,2.755,1h37.2a4.307,4.307,0,0,0,2.848-1.076l2.144-1.889a.3.3,0,0,1,.2-.076h20.155a.3.3,0,0,1,.3.3v16a.3.3,0,0,1-.3.3m-88.646-.608h88.342V61.316H200.3l-2.058,1.813a4.91,4.91,0,0,1-3.248,1.228h-37.2a4.921,4.921,0,0,1-3.142-1.137l-2.288-1.9h-20.67ZM198.04,62.9h0Z" transform="translate(-51.593 -23.795)" fill="#263238"/>
        <path id="Path_757" data-name="Path 757" d="M206.988,325.053a2.022,2.022,0,1,0-2.021,2.027,2.024,2.024,0,0,0,2.021-2.027" transform="translate(-79.875 -126.613)" fill="#263238"/>
        <path id="Path_758" data-name="Path 758" d="M204.769,327.187a2.331,2.331,0,1,1,2.325-2.331,2.331,2.331,0,0,1-2.325,2.331m0-4.054a1.723,1.723,0,1,0,1.719,1.723,1.722,1.722,0,0,0-1.719-1.723" transform="translate(-79.679 -126.417)" fill="#263238"/>
      </g>
    </g>
    <g id="Group_918" data-name="Group 918">
      <g id="Group_917" data-name="Group 917" clip-path="url(#clip-path)">
        <path id="Path_759" data-name="Path 759" d="M70.529,222.906,62.6,294.041s-5.815,5.071-5.307,7.121,7.226-1.2,8.151-2.906a17.688,17.688,0,0,0,1.395-4.431l16.7-53.489,12.843,57.382s5.49,4.5,8.518,4.341,1.956-1.345.225-3.541-5.64-3.45-5.64-3.45L97.56,221.113Z" transform="translate(-22.536 -86.667)" fill="#263238"/>
        <path id="Path_760" data-name="Path 760" d="M104.554,302.171c-3.131,0-8.334-4.23-8.558-4.413a.308.308,0,0,1-.1-.17L83.3,241.312,66.931,293.72a17.535,17.535,0,0,1-1.418,4.485c-.815,1.506-5.493,3.969-7.6,3.7a1.162,1.162,0,0,1-1.113-.867c-.518-2.087,4.4-6.538,5.312-7.346l7.919-71.019a.3.3,0,0,1,.281-.269l27.031-1.792a.289.289,0,0,1,.224.078.307.307,0,0,1,.1.217l1.92,73.743c.845.3,4.023,1.506,5.58,3.481l.2.257c1.08,1.366,1.793,2.269,1.472,2.981-.22.486-.874.732-2.122.8-.055,0-.111,0-.168,0m-8.093-4.819c.685.547,5.548,4.347,8.23,4.208,1.249-.064,1.539-.3,1.6-.44.169-.374-.591-1.335-1.395-2.352l-.2-.258c-1.652-2.1-5.457-3.336-5.495-3.348a.3.3,0,0,1-.21-.282L97.07,221.242,70.608,223l-7.9,70.884a.3.3,0,0,1-.1.2c-2.194,1.914-5.549,5.457-5.211,6.819.037.148.139.352.6.411,1.845.236,6.279-2.079,6.988-3.389a17.484,17.484,0,0,0,1.363-4.337l16.713-53.529a.308.308,0,0,1,.3-.213.3.3,0,0,1,.283.237ZM62.4,293.845h0Z" transform="translate(-22.341 -86.471)" fill="#263238"/>
        <rect id="Rectangle_142" data-name="Rectangle 142" width="26.682" height="3.645" transform="translate(47.908 134.55) rotate(-2.909)" fill="#263238"/>
        <path id="Path_761" data-name="Path 761" d="M78.989,224.16a.3.3,0,0,1-.3-.289l-.184-3.643a.3.3,0,0,1,.287-.319l26.648-1.357a.276.276,0,0,1,.218.078.3.3,0,0,1,.1.21l.184,3.643a.3.3,0,0,1-.287.319L79,224.16h-.016m.134-3.66.153,3.037,26.043-1.326-.154-3.037Z" transform="translate(-30.897 -85.663)" fill="#263238"/>
        <path id="Path_762" data-name="Path 762" d="M102.819,221.885c.045.9-1.1,1.7-2.568,1.771s-2.688-.6-2.734-1.5,1.1-1.7,2.568-1.771,2.688.6,2.734,1.5" transform="translate(-38.38 -86.38)" fill="#fff"/>
        <path id="Path_763" data-name="Path 763" d="M92.233,161.372l-10.021,2.946,1.246,33.574,23.5-.589-2.973-34.7Z" transform="translate(-32.357 -63.251)" fill="#fff"/>
        <path id="Path_764" data-name="Path 764" d="M83.26,198a.3.3,0,0,1-.3-.292l-1.246-33.574a.3.3,0,0,1,.218-.3l10.022-2.946a.279.279,0,0,1,.116-.01l11.751,1.228a.3.3,0,0,1,.27.276l2.973,34.7a.305.305,0,0,1-.076.229.3.3,0,0,1-.218.1l-23.5.588Zm-.934-33.653,1.226,33.037,22.878-.572-2.924-34.132-11.442-1.2Z" transform="translate(-32.16 -63.055)" fill="#263238"/>
        <path id="Path_765" data-name="Path 765" d="M82.351,161.99,81,219.288l-12.762-6.2,5.611-18.094-3.825-30.551Z" transform="translate(-26.859 -63.493)" fill="#e0ba22"/>
        <path id="Path_766" data-name="Path 766" d="M80.808,219.4a.3.3,0,0,1-.132-.03l-12.762-6.2a.306.306,0,0,1-.158-.364l5.591-18.031-3.817-30.485a.3.3,0,0,1,.242-.336L82.1,161.5a.3.3,0,0,1,.254.065.3.3,0,0,1,.109.24l-1.347,57.3a.3.3,0,0,1-.3.3m-12.395-6.663,12.1,5.879,1.327-56.446-11.675,2.326,3.79,30.269a.3.3,0,0,1-.011.128Z" transform="translate(-26.662 -63.297)" fill="#263238"/>
        <path id="Path_767" data-name="Path 767" d="M108.237,161.14l7.132,56.866,12.07-7.464-7.411-17.431.717-30.782Z" transform="translate(-42.6 -63.16)" fill="#e0ba22"/>
        <path id="Path_768" data-name="Path 768" d="M115.172,218.115a.3.3,0,0,1-.3-.266l-7.132-56.866a.3.3,0,0,1,.33-.34l12.507,1.189a.3.3,0,0,1,.275.31l-.716,30.716,7.385,17.371a.305.305,0,0,1-.119.378l-12.07,7.464a.307.307,0,0,1-.159.045m-6.784-56.832,7.026,56.021,11.446-7.078-7.309-17.191a.311.311,0,0,1-.024-.126l.711-30.5Z" transform="translate(-42.403 -62.965)" fill="#263238"/>
        <path id="Path_769" data-name="Path 769" d="M95.716,170.373,97.7,173.62l-1.587,22.607,3.769,4.476,1.954-5.376-3.021-21.663,1.865-3.139-2.708-3.514Z" transform="translate(-37.672 -65.462)" fill="#263238"/>
        <path id="Path_770" data-name="Path 770" d="M99.687,200.811a.3.3,0,0,1-.232-.108l-3.769-4.476a.3.3,0,0,1-.071-.217L97.2,173.5l-1.935-3.164a.306.306,0,0,1,.007-.329l2.258-3.362a.3.3,0,0,1,.242-.134.291.291,0,0,1,.249.118l2.708,3.514a.3.3,0,0,1,.021.342l-1.811,3.048,3.006,21.556a.313.313,0,0,1-.015.146l-1.954,5.376a.3.3,0,0,1-.232.2.392.392,0,0,1-.053,0m-3.458-4.881,3.352,3.98,1.75-4.812-3.01-21.587a.3.3,0,0,1,.039-.2l1.76-2.961-2.325-3.018-1.915,2.85,1.884,3.081a.307.307,0,0,1,.044.18Z" transform="translate(-37.475 -65.266)" fill="#263238"/>
        <path id="Path_771" data-name="Path 771" d="M95.383,166.923l-3.753,2.829-3-7.355,1.689-2.623,9.185-.468,2.172,2.933-1.786,6.687Z" transform="translate(-34.882 -62.442)" fill="#fff"/>
        <path id="Path_772" data-name="Path 772" d="M91.434,169.861a.3.3,0,0,1-.281-.189l-3-7.355a.3.3,0,0,1,.026-.28l1.688-2.622a.3.3,0,0,1,.24-.139l9.185-.468a.3.3,0,0,1,.259.122l2.172,2.933a.3.3,0,0,1,.05.26l-1.787,6.687a.3.3,0,0,1-.162.2.3.3,0,0,1-.253,0l-4.341-1.931L91.616,169.8a.3.3,0,0,1-.182.061m-2.663-7.628,2.795,6.845L95,166.484a.3.3,0,0,1,.305-.035l4.18,1.859,1.657-6.2-1.988-2.684-8.869.452Z" transform="translate(-34.685 -62.246)" fill="#263238"/>
        <path id="Path_773" data-name="Path 773" d="M92.677,155.281l.844,4.675,3.457,5.3,3.175-6.25-.2-3.947Z" transform="translate(-36.476 -60.778)" fill="#fff"/>
        <path id="Path_774" data-name="Path 774" d="M96.781,165.368a.3.3,0,0,1-.254-.137l-3.457-5.3a.3.3,0,0,1-.044-.112l-.844-4.675a.306.306,0,0,1,.062-.246.3.3,0,0,1,.227-.112l7.275-.218a.306.306,0,0,1,.312.288l.2,3.947a.3.3,0,0,1-.033.153l-3.175,6.25a.3.3,0,0,1-.254.166h-.016m-3.169-5.722,3.136,4.813,2.9-5.71-.181-3.569-6.627.2Z" transform="translate(-36.279 -60.582)" fill="#263238"/>
        <path id="Path_775" data-name="Path 775" d="M60.142,166.026,43.125,186.68l11.306,13.427,4.555-2.971L53.4,185.7l8.346-6.057Z" transform="translate(-16.973 -65.076)" fill="#e0ba22"/>
        <path id="Path_776" data-name="Path 776" d="M54.234,200.215a.3.3,0,0,1-.232-.108L42.7,186.68a.3.3,0,0,1,0-.389l17.018-20.654a.3.3,0,0,1,.535.158l1.6,13.616a.305.305,0,0,1-.123.282L53.585,185.6l5.477,11.2a.3.3,0,0,1-.107.388L54.4,200.166a.3.3,0,0,1-.165.049M43.323,186.482l10.97,13.028,4.105-2.678-5.471-11.193a.3.3,0,0,1,.1-.38l8.2-5.953-1.5-12.733Z" transform="translate(-16.776 -64.88)" fill="#263238"/>
        <path id="Path_777" data-name="Path 777" d="M66.9,217.189l.683,1.487-3.837,2.174-.516-1.192Z" transform="translate(-24.886 -85.129)" fill="#fff"/>
        <path id="Path_778" data-name="Path 778" d="M63.548,220.959a.292.292,0,0,1-.1-.016.3.3,0,0,1-.181-.167l-.516-1.192a.3.3,0,0,1,.109-.374l3.669-2.47a.3.3,0,0,1,.445.125l.683,1.487a.3.3,0,0,1-.126.392L63.7,220.92a.3.3,0,0,1-.149.039m-.137-1.385.281.649,3.3-1.87-.417-.909Z" transform="translate(-24.689 -84.933)" fill="#263238"/>
        <path id="Path_779" data-name="Path 779" d="M67.894,219.635l3.9,5.128-1.286,1.588-.931-.409-1.891,1.619s-1.386-.386-1.56-.834-2.053-1.57-2.092-2.329.021-2.588.021-2.588Z" transform="translate(-25.199 -86.088)" fill="#fff"/>
        <path id="Path_780" data-name="Path 780" d="M67.492,227.668a.308.308,0,0,1-.081-.011c-.359-.1-1.548-.469-1.761-1.016a4.4,4.4,0,0,0-.688-.652c-.685-.579-1.394-1.178-1.424-1.772-.038-.763.018-2.538.021-2.613a.3.3,0,0,1,.154-.255l3.836-2.175a.3.3,0,0,1,.391.08l3.9,5.129a.306.306,0,0,1-.005.376l-1.286,1.587a.3.3,0,0,1-.357.087l-.757-.333-1.747,1.495a.3.3,0,0,1-.2.073m-3.333-5.874c-.013.469-.047,1.789-.016,2.393.016.33.763.961,1.209,1.338.489.413.771.66.862.9a2.748,2.748,0,0,0,1.206.606l1.767-1.512a.3.3,0,0,1,.318-.047l.72.317.99-1.222-3.6-4.728Z" transform="translate(-25.002 -85.892)" fill="#263238"/>
        <path id="Path_781" data-name="Path 781" d="M144.072,161.761a3.357,3.357,0,0,0,.149-1.89,13.792,13.792,0,0,1-.777-4.056c.122-.825,1.367-2.035,1.477-3.105s-.022-2.047.03-2.622a.736.736,0,0,1,1.372-.316,2.149,2.149,0,0,1,.682,2.176,10.2,10.2,0,0,0-.279,2.553s.967,1.343,1.5,2.217a6.384,6.384,0,0,1,.126,4.088,5.65,5.65,0,0,1-1.38,1.79l.058,1.586Z" transform="translate(-56.451 -58.562)" fill="#fff"/>
        <path id="Path_782" data-name="Path 782" d="M146.835,164.29a.3.3,0,0,1-.192-.068l-2.959-2.421a.3.3,0,0,1-.093-.341,2.98,2.98,0,0,0,.151-1.676,13.967,13.967,0,0,1-.794-4.211,4.219,4.219,0,0,1,.7-1.439,4.417,4.417,0,0,0,.776-1.653,12.376,12.376,0,0,0,.028-1.686,8.42,8.42,0,0,1,0-.933,1.058,1.058,0,0,1,.712-.909,1.109,1.109,0,0,1,1.192.423,2.476,2.476,0,0,1,.736,2.484,9.143,9.143,0,0,0-.259,2.346c.218.3.991,1.395,1.456,2.155a6.69,6.69,0,0,1,.149,4.359,5.628,5.628,0,0,1-1.354,1.81l.053,1.443a.3.3,0,0,1-.3.315m-2.606-2.828,2.278,1.864-.033-.914a.3.3,0,0,1,.106-.243,5.374,5.374,0,0,0,1.295-1.671,6.086,6.086,0,0,0-.1-3.818c-.523-.854-1.479-2.185-1.488-2.2a.3.3,0,0,1-.058-.176,10.3,10.3,0,0,1,.3-2.664c.209-.544.015-1.121-.628-1.868-.181-.21-.374-.3-.548-.241a.45.45,0,0,0-.293.385,7.852,7.852,0,0,0,0,.859,13.105,13.105,0,0,1-.031,1.767,4.872,4.872,0,0,1-.868,1.917,3.953,3.953,0,0,0-.61,1.2,13.825,13.825,0,0,0,.76,3.9,3.227,3.227,0,0,1-.078,1.9" transform="translate(-56.254 -58.366)" fill="#263238"/>
        <path id="Path_783" data-name="Path 783" d="M147.335,155.564s-.427,1.25.323,1.54,3.793.708,3.825-.277.089-1.479-.4-1.454-2.779-.022-2.779-.022-1.063-.027-.969.213" transform="translate(-57.941 -60.891)" fill="#fff"/>
        <path id="Path_784" data-name="Path 784" d="M149.774,157.549a8.466,8.466,0,0,1-2.423-.358c-.775-.3-.7-1.274-.523-1.853a.37.37,0,0,1,.069-.214c.057-.082.2-.3,1.218-.274.021,0,2.283.047,2.755.023a.646.646,0,0,1,.508.171c.258.255.243.68.218,1.385l-.007.211a.748.748,0,0,1-.362.616,2.8,2.8,0,0,1-1.452.293m-2.361-2.048c-.05.178-.249.967.155,1.122.608.235,2.721.525,3.322.126.089-.059.09-.1.092-.128l.007-.213a3.009,3.009,0,0,0-.036-.927H150.9c-.494.024-2.706-.02-2.8-.022a3.663,3.663,0,0,0-.686.043" transform="translate(-57.742 -60.694)" fill="#263238"/>
        <path id="Path_785" data-name="Path 785" d="M147.931,165.677s-.306.93.235,1.147,2.733.532,2.754-.2.062-1.1-.29-1.083-2-.02-2-.02-.766-.022-.7.157" transform="translate(-58.189 -64.877)" fill="#fff"/>
        <path id="Path_786" data-name="Path 786" d="M149.637,167.187a5.943,5.943,0,0,1-1.781-.277c-.621-.249-.56-1.041-.42-1.493a.371.371,0,0,1,.057-.165c.054-.076.183-.256.947-.233.565.013,1.707.035,1.977.021a.544.544,0,0,1,.427.147c.215.212.2.544.187,1.092l0,.156a.647.647,0,0,1-.309.528,2.074,2.074,0,0,1-1.081.224M148,165.647c-.054.215-.1.624.079.7a4.094,4.094,0,0,0,2.3.11l.039-.2a3.948,3.948,0,0,0-.005-.61c-.446.014-1.928-.02-1.994-.022a2.539,2.539,0,0,0-.423.02" transform="translate(-57.992 -64.68)" fill="#263238"/>
        <path id="Path_787" data-name="Path 787" d="M147.249,162.419s-.354,1.077.272,1.328,3.164.616,3.19-.233.072-1.275-.336-1.254-2.317-.023-2.317-.023-.887-.026-.808.182" transform="translate(-57.915 -63.59)" fill="#fff"/>
        <path id="Path_788" data-name="Path 788" d="M149.256,164.152a6.83,6.83,0,0,1-2.046-.319c-.673-.27-.618-1.129-.468-1.64a.362.362,0,0,1,.069-.207c.053-.075.193-.269,1.056-.249.018,0,1.9.044,2.293.024a.59.59,0,0,1,.458.157c.234.231.222.607.2,1.229l-.006.181a.691.691,0,0,1-.335.573,2.353,2.353,0,0,1-1.224.253m-1.933-1.78c-.061.227-.159.787.112.9a4.865,4.865,0,0,0,2.712.123c.061-.04.062-.066.062-.082l.006-.183a2.8,2.8,0,0,0-.027-.784c-.41.045-2.258,0-2.335,0a2.845,2.845,0,0,0-.529.029" transform="translate(-57.717 -63.393)" fill="#263238"/>
        <path id="Path_789" data-name="Path 789" d="M146.848,159.226s-.427,1.25.323,1.54,3.793.708,3.825-.277.089-1.479-.4-1.454-2.778-.023-2.778-.023-1.064-.027-.97.213" transform="translate(-57.749 -62.326)" fill="#fff"/>
        <path id="Path_790" data-name="Path 790" d="M149.287,161.211a8.461,8.461,0,0,1-2.423-.358c-.776-.3-.7-1.274-.523-1.853a.37.37,0,0,1,.069-.214c.057-.082.2-.3,1.218-.274.021,0,2.281.046,2.754.022a.647.647,0,0,1,.508.172c.258.255.243.68.218,1.386l-.007.21a.748.748,0,0,1-.362.616,2.8,2.8,0,0,1-1.452.293m-2.361-2.048c-.05.178-.249.967.155,1.122.609.235,2.723.525,3.322.126.089-.059.09-.1.092-.128l.007-.212a2.992,2.992,0,0,0-.036-.929.309.309,0,0,1-.032,0h-.021c-.494.026-2.706-.019-2.8-.022a3.664,3.664,0,0,0-.686.043" transform="translate(-57.551 -62.129)" fill="#263238"/>
        <path id="Path_791" data-name="Path 791" d="M143.921,170.544l.475-1.908,3.286,1.962-.549,2.075Z" transform="translate(-56.644 -66.098)" fill="#fff"/>
        <path id="Path_792" data-name="Path 792" d="M146.936,172.782a.307.307,0,0,1-.167-.05l-3.212-2.13a.3.3,0,0,1-.127-.327l.475-1.908a.305.305,0,0,1,.178-.207.3.3,0,0,1,.272.019l3.286,1.962a.3.3,0,0,1,.138.339l-.548,2.076a.308.308,0,0,1-.186.206.3.3,0,0,1-.108.02m-2.865-2.569,2.68,1.777.382-1.445-2.738-1.635Z" transform="translate(-56.448 -65.903)" fill="#263238"/>
        <path id="Path_793" data-name="Path 793" d="M128.656,163.1l6.3,13.429,3.089-8.637,3.031,2.889-3.1,16.021a2.564,2.564,0,0,1-4.606,1.008l-5.027-7.037Z" transform="translate(-50.511 -63.927)" fill="#e0ba22"/>
        <path id="Path_794" data-name="Path 794" d="M135.233,188.992a2.822,2.822,0,0,1-2.313-1.205l-5.027-7.037a.305.305,0,0,1-.056-.182l.319-17.672a.3.3,0,0,1,.578-.124l5.985,12.763,2.841-7.945a.3.3,0,0,1,.495-.118l3.03,2.89a.3.3,0,0,1,.089.278l-3.1,16.021a2.837,2.837,0,0,1-2.206,2.263,2.961,2.961,0,0,1-.632.069m-6.788-8.514,4.968,6.955a2.261,2.261,0,0,0,4.062-.889l3.072-15.858-2.574-2.453-2.931,8.2a.3.3,0,0,1-.271.2.282.282,0,0,1-.289-.174l-5.743-12.247Z" transform="translate(-50.314 -63.731)" fill="#263238"/>
        <path id="Path_795" data-name="Path 795" d="M86.888,145.968s-1.27-1.359-1.438-.365A4.208,4.208,0,0,0,86.6,148.94c.8.617,1.509-.406,1.509-.406Z" transform="translate(-33.619 -56.928)" fill="#fff"/>
        <path id="Path_796" data-name="Path 796" d="M86.939,149.246a1.164,1.164,0,0,1-.719-.261,4.484,4.484,0,0,1-1.266-3.628.663.663,0,0,1,.446-.592c.555-.169,1.3.569,1.513.8a.3.3,0,0,1,.052.077l1.223,2.566a.3.3,0,0,1-.025.305,1.789,1.789,0,0,1-1.06.721,1.133,1.133,0,0,1-.163.012m-1.36-3.9c0,.006-.015.038-.027.111A3.961,3.961,0,0,0,86.59,148.5a.537.537,0,0,0,.418.128,1.055,1.055,0,0,0,.548-.337l-1.118-2.347c-.313-.324-.717-.619-.859-.6" transform="translate(-33.423 -56.733)" fill="#263238"/>
        <path id="Path_797" data-name="Path 797" d="M107.07,144.888s1.126-1.481,1.394-.509a4.211,4.211,0,0,1-.809,3.436c-.73.694-1.542-.25-1.542-.25Z" transform="translate(-41.764 -56.461)" fill="#fff"/>
        <path id="Path_798" data-name="Path 798" d="M106.868,148.179l-.055,0a1.786,1.786,0,0,1-1.127-.609.3.3,0,0,1-.056-.3l.956-2.677a.293.293,0,0,1,.045-.082c.19-.251.853-1.057,1.424-.948a.661.661,0,0,1,.5.542,4.488,4.488,0,0,1-.893,3.738,1.149,1.149,0,0,1-.8.339m-.6-.89a1.053,1.053,0,0,0,.579.281.525.525,0,0,0,.4-.171,3.963,3.963,0,0,0,.725-3.134c-.04-.144-.051-.116-.052-.116a2.192,2.192,0,0,0-.78.691Z" transform="translate(-41.567 -56.266)" fill="#263238"/>
        <path id="Path_799" data-name="Path 799" d="M86.489,137.782l-1.223-2.566a12.044,12.044,0,0,1-1.981-4.608c-.579-2.818.394-5.167,1.668-5.889a3.5,3.5,0,0,1,2.38-.45s.244-1.655,4.214-3.062,8.357,1.108,8.293,1.987-1.138,1.263-1.138,1.263,3.117,1.155,1.99,2.636a7.131,7.131,0,0,1-2.624,2.105,21.3,21.3,0,0,1,.552,2.272,30.771,30.771,0,0,1-.72,5.184l-2.157-5.913-6.754.344a12.952,12.952,0,0,1-1.113,3.89,5.36,5.36,0,0,0-.744,2.557s-.272,1.109-.643.252" transform="translate(-32.712 -47.344)" fill="#263238"/>
        <path id="Path_800" data-name="Path 800" d="M86.571,138.215c-.334,0-.5-.37-.556-.5l-1.207-2.532a12.362,12.362,0,0,1-2.018-4.707c-.621-3.017.472-5.454,1.815-6.215a3.954,3.954,0,0,1,2.325-.524c.253-.576,1.158-1.89,4.318-3.01a9.185,9.185,0,0,1,7.956,1.219c.514.394.763.756.739,1.077a1.658,1.658,0,0,1-.751,1.209,3.358,3.358,0,0,1,1.8,1.667,1.305,1.305,0,0,1-.257,1.184,7.53,7.53,0,0,1-2.5,2.084,19.935,19.935,0,0,1,.487,2.059,28.874,28.874,0,0,1-.723,5.3.3.3,0,0,1-.582.043l-2.079-5.7-6.284.32a11.772,11.772,0,0,1-1.127,3.773,5.07,5.07,0,0,0-.69,2.388.3.3,0,0,1-.008.066c-.07.288-.244.775-.617.807l-.039,0m.094-.581h0ZM86.6,124.327a3.447,3.447,0,0,0-1.7.459c-1.173.665-2.062,2.928-1.52,5.564a11.857,11.857,0,0,0,1.923,4.482.266.266,0,0,1,.035.057l1.223,2.566,0,.01,0,0a1.62,1.62,0,0,0,.06-.178,5.575,5.575,0,0,1,.8-2.688,12.774,12.774,0,0,0,1.062-3.758.3.3,0,0,1,.285-.261l6.754-.344a.3.3,0,0,1,.3.2l1.785,4.9a20.91,20.91,0,0,0,.508-4.012,21.07,21.07,0,0,0-.543-2.232.305.305,0,0,1,.174-.369,6.9,6.9,0,0,0,2.5-2.009.7.7,0,0,0,.157-.646c-.2-.71-1.522-1.339-2.012-1.521a.3.3,0,0,1,0-.571c.009,0,.888-.331.938-1,0-.049-.147-.33-.778-.743a8.671,8.671,0,0,0-7.111-.935c-3.691,1.308-4.013,2.811-4.016,2.826a.313.313,0,0,1-.135.2.3.3,0,0,1-.237.043,2.3,2.3,0,0,0-.461-.04" transform="translate(-32.515 -47.147)" fill="#263238"/>
        <path id="Path_801" data-name="Path 801" d="M89.505,131.165a40.332,40.332,0,0,1-.388,5.277,3.95,3.95,0,0,1-1.4,2.481,32.563,32.563,0,0,0,1.95,6.143c1.091,2.135,3.364,3.881,5.646,3.655s4.116-2.838,4.332-5.039-.853-10.36-.853-10.36-7.146,1.24-9.284-2.156" transform="translate(-34.523 -51.411)" fill="#fff"/>
        <path id="Path_802" data-name="Path 802" d="M94.7,148.849c-2.425,0-4.526-1.937-5.5-3.841a32.3,32.3,0,0,1-1.976-6.218.3.3,0,0,1,.127-.316,3.72,3.72,0,0,0,1.275-2.287,40.35,40.35,0,0,0,.382-5.221.3.3,0,0,1,.56-.159c2,3.184,8.907,2.031,8.976,2.019a.3.3,0,0,1,.231.054.306.306,0,0,1,.121.206c.044.335,1.071,8.219.854,10.43-.227,2.32-2.175,5.072-4.6,5.312-.15.015-.3.022-.447.022m-6.842-10a30.939,30.939,0,0,0,1.882,5.885c.972,1.9,3.112,3.707,5.347,3.491,2.138-.212,3.856-2.681,4.06-4.766.187-1.9-.622-8.478-.812-9.983-1.326.187-6.394.716-8.738-1.66a33.282,33.282,0,0,1-.375,4.492,4.469,4.469,0,0,1-1.364,2.542" transform="translate(-34.326 -51.215)" fill="#263238"/>
        <path id="Path_803" data-name="Path 803" d="M91.462,144.554a.3.3,0,0,1-.158-.564,2.892,2.892,0,0,1,2.732-.128.3.3,0,0,1-.3.529,2.3,2.3,0,0,0-2.118.119.3.3,0,0,1-.157.044" transform="translate(-35.878 -56.27)" fill="#263238"/>
        <path id="Path_804" data-name="Path 804" d="M91.309,140.945l-.039,0a.3.3,0,0,1-.263-.334c.007-.061.2-1.484,2.448-1.6a.3.3,0,0,1,.03.607c-1.714.088-1.87,1.025-1.876,1.065a.307.307,0,0,1-.3.263" transform="translate(-35.818 -54.486)" fill="#263238"/>
        <path id="Path_805" data-name="Path 805" d="M102.865,139.745a.3.3,0,0,1-.238-.115,2,2,0,0,0-2.31-.587.3.3,0,0,1-.242-.558,2.581,2.581,0,0,1,3.027.766.3.3,0,0,1-.237.493" transform="translate(-39.316 -54.202)" fill="#263238"/>
        <path id="Path_806" data-name="Path 806" d="M98.268,147.085a1.279,1.279,0,0,1-.7-.209.3.3,0,0,1,.327-.512.712.712,0,0,0,.615.075,1.455,1.455,0,0,0,.828-.748c.039-.089.053-.123-.29-.3-.213-.11-.479-.247-.494-.539-.01-.214-.208-1.732-.338-2.7a.3.3,0,1,1,.6-.081c.032.236.3,2.212.338,2.685.042.029.118.068.171.1.255.131.85.439.568,1.085a2.05,2.05,0,0,1-1.207,1.086,1.436,1.436,0,0,1-.417.064" transform="translate(-38.345 -55.582)" fill="#263238"/>
        <path id="Path_807" data-name="Path 807" d="M98.249,153.55a3.413,3.413,0,0,1-1.288-.276.3.3,0,0,1,.228-.563c1.329.541,1.975-.033,2-.058a.3.3,0,0,1,.419.44,2.005,2.005,0,0,1-1.361.457" transform="translate(-38.088 -59.802)" fill="#263238"/>
        <path id="Path_808" data-name="Path 808" d="M102.973,143.08c.022.448-.185.822-.465.836s-.524-.337-.546-.784.185-.822.464-.837.523.337.546.785" transform="translate(-40.13 -55.774)" fill="#263238"/>
      </g>
    </g>
  </g>
</svg>
