<svg id="Group_821" data-name="Group 821" xmlns="http://www.w3.org/2000/svg" xmlns:xlink="http://www.w3.org/1999/xlink" width="161.861" height="192.667" viewBox="0 0 161.861 192.667">
  <defs>
    <clipPath id="clip-path">
      <rect id="Rectangle_118" data-name="Rectangle 118" width="161.861" height="192.667" fill="#e0ba22"/>
    </clipPath>
  </defs>
  <g id="Group_820" data-name="Group 820" clip-path="url(#clip-path)">
    <path id="Path_678" data-name="Path 678" d="M262.289,39.522a2.819,2.819,0,0,0-4.067.908c-.019.034-.043.065-.063.1a2.868,2.868,0,0,1-3.988.7,2.822,2.822,0,0,0-3.931.692L246.127,47.8a2.822,2.822,0,1,0,4.623,3.238l2.771-3.959a8.549,8.549,0,0,0,7.56-1.512l4.163,2.915a2.822,2.822,0,1,0,3.237-4.623Z" transform="translate(-153.19 -24.331)" fill="#e0ba22"/>
    <path id="Path_679" data-name="Path 679" d="M359.961,116.76a2.823,2.823,0,0,0,3.93-.694l4.115-5.874a2.823,2.823,0,0,0-.692-3.93,2.867,2.867,0,0,1-.7-3.99.936.936,0,0,1,.068-.09,2.826,2.826,0,0,0-.537-4.135l-6.191-4.335a2.823,2.823,0,0,0-3.238,4.624l4.163,2.913a8.545,8.545,0,0,0,1.164,7.622l-2.771,3.957a2.823,2.823,0,0,0,.692,3.93" transform="translate(-221.73 -58.13)" fill="#e0ba22"/>
    <path id="Path_680" data-name="Path 680" d="M315.718,293.985a4.771,4.771,0,0,1,3.505,1.513,2.823,2.823,0,0,0,4.1-3.876,10.465,10.465,0,1,0-7.61,17.649,10.392,10.392,0,0,0,7.4-3.065,2.822,2.822,0,0,0-3.991-3.991,4.821,4.821,0,1,1-3.409-8.23" transform="translate(-190.385 -179.837)" fill="#e0ba22"/>
    <path id="Path_681" data-name="Path 681" d="M150.461,99.088v-22.6a13.935,13.935,0,0,0-13.919-13.919H121.565c.876-7.567-1.595-14.223-6.807-17.873-4.416-3.091-10.136-3.645-16.11-1.561A31.009,31.009,0,0,0,83.863,54.794a33.856,33.856,0,0,0-4.085,7.77H61.4L100.9,6.162l54.8,38.372L147.352,56.46a2.822,2.822,0,1,0,4.623,3.237l9.1-13a4.335,4.335,0,0,0-1.06-6.033L103.061.786a4.33,4.33,0,0,0-6.033,1.06L83.966,20.5V9.253a4.337,4.337,0,0,0-4.332-4.332H11.94A4.337,4.337,0,0,0,7.608,9.253V24.7a2.822,2.822,0,1,0,5.645,0V10.567H21.43v52H13.919q-.333,0-.666.016V35.992a2.822,2.822,0,0,0-5.645,0V64.078A13.936,13.936,0,0,0,0,76.483v84.97a13.935,13.935,0,0,0,13.919,13.919H34.992a2.822,2.822,0,0,0,0-5.645H13.919a8.283,8.283,0,0,1-8.275-8.274V76.483a8.289,8.289,0,0,1,5.568-7.82c.072-.02.144-.044.213-.07a8.235,8.235,0,0,1,2.494-.385H136.542a8.286,8.286,0,0,1,8.276,8.276V98.7H124.612a20.271,20.271,0,1,0,0,40.542h20.206v22.214a8.284,8.284,0,0,1-8.276,8.274H114.977a2.822,2.822,0,1,0,0,5.645h21.566a13.936,13.936,0,0,0,13.92-13.919v-22.6a14.523,14.523,0,0,0,11.149-14.107V113.2a14.527,14.527,0,0,0-11.151-14.108M34.962,62.563H27.075v-52h7.888Zm5.645,0v-52H78.321v18l-23.807,34Zm75.267,0h-30a28.834,28.834,0,0,1,2.608-4.529c6.437-9.193,16.77-13.1,23.035-8.718,3.608,2.527,5.2,7.485,4.352,13.247m40.092,62.177a8.864,8.864,0,0,1-8.855,8.855h-22.5a14.627,14.627,0,1,1,0-29.253h22.5a8.864,8.864,0,0,1,8.855,8.855Z" transform="translate(0 0)" fill="#e0ba22"/>
    <path id="Path_682" data-name="Path 682" d="M143.405,330.777a34.1,34.1,0,1,0,34.1,34.1,34.136,34.136,0,0,0-34.1-34.1m0,62.55a28.453,28.453,0,1,1,28.453-28.452,28.484,28.484,0,0,1-28.453,28.452" transform="translate(-68.176 -206.305)" fill="#e0ba22"/>
    <path id="Path_683" data-name="Path 683" d="M184.718,387.376H179.9a2.572,2.572,0,0,1,0-5.145h9.212a2.822,2.822,0,0,0,0-5.645h-3.465V374.2a2.822,2.822,0,0,0-5.645,0v2.386h-.1a8.217,8.217,0,0,0,0,16.434h4.814a2.572,2.572,0,0,1,0,5.143h-9.212a2.822,2.822,0,0,0,0,5.645h4.5v2.386a2.822,2.822,0,0,0,5.645,0v-2.439a8.216,8.216,0,0,0-.933-16.379" transform="translate(-107.081 -231.628)" fill="#e0ba22"/>
  </g>
</svg>
