<svg id="sun" xmlns="http://www.w3.org/2000/svg" width="40.667" height="40.667" viewBox="0 0 40.667 40.667">
  <path id="Path_235" data-name="Path 235" d="M145.51,136a9.51,9.51,0,1,0,9.51,9.51A9.521,9.521,0,0,0,145.51,136Zm0,17.827a8.316,8.316,0,1,1,8.316-8.316A8.326,8.326,0,0,1,145.51,153.827Z" transform="translate(-125.177 -125.177)" fill="#fff"/>
  <path id="Path_236" data-name="Path 236" d="M248.6,5.65a.6.6,0,0,0,.6-.6V.6A.6.6,0,1,0,248,.6V5.054A.6.6,0,0,0,248.6,5.65Z" transform="translate(-228.263)" fill="#fff"/>
  <path id="Path_237" data-name="Path 237" d="M248.6,90.467a.6.6,0,0,0,.6-.6V88.6a.6.6,0,1,0-1.194,0V89.87A.6.6,0,0,0,248.6,90.467Z" transform="translate(-228.263 -80.997)" fill="#fff"/>
  <path id="Path_238" data-name="Path 238" d="M248.6,440a.6.6,0,0,0-.6.6v4.457a.6.6,0,0,0,1.194,0V440.6A.6.6,0,0,0,248.6,440Z" transform="translate(-228.263 -404.983)" fill="#fff"/>
  <path id="Path_239" data-name="Path 239" d="M248.6,392a.6.6,0,0,0-.6.6v1.273a.6.6,0,0,0,1.194,0V392.6A.6.6,0,0,0,248.6,392Z" transform="translate(-228.263 -360.803)" fill="#fff"/>
  <path id="Path_240" data-name="Path 240" d="M445.054,248H440.6a.6.6,0,0,0,0,1.194h4.457a.6.6,0,0,0,0-1.194Z" transform="translate(-404.983 -228.263)" fill="#fff"/>
  <path id="Path_241" data-name="Path 241" d="M392.6,248a.6.6,0,1,0,0,1.194h1.273a.6.6,0,0,0,0-1.194Z" transform="translate(-360.803 -228.263)" fill="#fff"/>
  <path id="Path_242" data-name="Path 242" d="M5.65,248.6a.6.6,0,0,0-.6-.6H.6a.6.6,0,1,0,0,1.194H5.054A.6.6,0,0,0,5.65,248.6Z" transform="translate(0 -228.263)" fill="#fff"/>
  <path id="Path_243" data-name="Path 243" d="M88.6,248a.6.6,0,1,0,0,1.194H89.87a.6.6,0,1,0,0-1.194Z" transform="translate(-80.997 -228.263)" fill="#fff"/>
  <path id="Path_244" data-name="Path 244" d="M85.442,350l-5.267,5.267a.6.6,0,1,0,.844.844l5.267-5.267a.6.6,0,0,0-.844-.844Z" transform="translate(-73.634 -321.983)" fill="#fff"/>
  <path id="Path_245" data-name="Path 245" d="M350.42,86.461a.6.6,0,0,0,.422-.175l5.267-5.267a.6.6,0,1,0-.844-.844L350,85.442a.6.6,0,0,0,.422,1.019Z" transform="translate(-321.983 -73.634)" fill="#fff"/>
  <path id="Path_246" data-name="Path 246" d="M170.394,61.363a.6.6,0,0,0,1.1-.457L169.548,56.2a.6.6,0,0,0-1.1.457Z" transform="translate(-154.997 -51.389)" fill="#fff"/>
  <path id="Path_247" data-name="Path 247" d="M304.254,381.405a.6.6,0,1,0-1.1.457l1.949,4.706a.6.6,0,0,0,1.1-.457Z" transform="translate(-278.983 -350.712)" fill="#fff"/>
  <path id="Path_248" data-name="Path 248" d="M350.842,350a.6.6,0,0,0-.844.844l5.267,5.267a.6.6,0,1,0,.844-.844Z" transform="translate(-321.983 -321.983)" fill="#fff"/>
  <path id="Path_249" data-name="Path 249" d="M85.442,86.286a.6.6,0,0,0,.844-.844l-5.267-5.267a.6.6,0,0,0-.844.844Z" transform="translate(-73.634 -73.634)" fill="#fff"/>
  <path id="Path_250" data-name="Path 250" d="M303.473,61.687a.6.6,0,0,0,.78-.323l1.949-4.706a.6.6,0,1,0-1.1-.457l-1.949,4.706A.6.6,0,0,0,303.473,61.687Z" transform="translate(-278.982 -51.389)" fill="#fff"/>
  <path id="Path_251" data-name="Path 251" d="M171.175,381.082a.6.6,0,0,0-.78.323l-1.949,4.706a.6.6,0,1,0,1.1.457l1.949-4.706A.6.6,0,0,0,171.175,381.082Z" transform="translate(-154.998 -350.712)" fill="#fff"/>
  <path id="Path_252" data-name="Path 252" d="M61.686,303.473a.6.6,0,0,0-.78-.323L56.2,305.1a.6.6,0,1,0,.457,1.1l4.706-1.949A.6.6,0,0,0,61.686,303.473Z" transform="translate(-51.389 -278.983)" fill="#fff"/>
  <path id="Path_253" data-name="Path 253" d="M381.082,171.175a.6.6,0,0,0,.78.323l4.706-1.949a.6.6,0,0,0-.457-1.1L381.4,170.4A.6.6,0,0,0,381.082,171.175Z" transform="translate(-350.712 -154.999)" fill="#fff"/>
  <path id="Path_254" data-name="Path 254" d="M56.2,169.549l4.706,1.949a.6.6,0,1,0,.457-1.1l-4.706-1.949a.6.6,0,0,0-.457,1.1Z" transform="translate(-51.388 -154.999)" fill="#fff"/>
  <path id="Path_255" data-name="Path 255" d="M386.568,305.1l-4.706-1.949a.6.6,0,1,0-.457,1.1l4.706,1.949a.6.6,0,0,0,.457-1.1Z" transform="translate(-350.713 -278.983)" fill="#fff"/>
</svg>
