<svg id="Group_807" data-name="Group 807" xmlns="http://www.w3.org/2000/svg" xmlns:xlink="http://www.w3.org/1999/xlink" width="43" height="43" viewBox="0 0 43 43">
  <defs>
    <clipPath id="clip-path">
      <rect id="Rectangle_110" data-name="Rectangle 110" width="43" height="43" fill="#e0ba22"/>
    </clipPath>
  </defs>
  <g id="Group_806" data-name="Group 806" clip-path="url(#clip-path)">
    <path id="Path_621" data-name="Path 621" d="M107.311,469.674l-5.345,5.345a.84.84,0,1,0,1.188,1.188l5.345-5.345a.84.84,0,0,0-1.188-1.188" transform="translate(-95.313 -439.859)" fill="#e0ba22"/>
    <path id="Path_622" data-name="Path 622" d="M470.267,108.745a.837.837,0,0,0,.594-.246l5.345-5.345a.84.84,0,1,0-1.188-1.188l-5.345,5.345a.84.84,0,0,0,.594,1.434" transform="translate(-439.858 -95.313)" fill="#e0ba22"/>
    <path id="Path_623" data-name="Path 623" d="M107.311,108.5a.84.84,0,0,0,1.188-1.188l-5.345-5.345a.84.84,0,0,0-1.188,1.188Z" transform="translate(-95.313 -95.314)" fill="#e0ba22"/>
    <path id="Path_624" data-name="Path 624" d="M470.86,469.674a.84.84,0,0,0-1.188,1.188l5.345,5.345a.84.84,0,0,0,1.188-1.188Z" transform="translate(-439.858 -439.859)" fill="#e0ba22"/>
    <path id="Path_625" data-name="Path 625" d="M406.146,513.289a.84.84,0,0,0-1.552.643l1.928,4.655a.84.84,0,1,0,1.552-.643Z" transform="translate(-379.049 -480.472)" fill="#e0ba22"/>
    <path id="Path_626" data-name="Path 626" d="M222.842,75.133a.84.84,0,0,0,1.552-.643l-1.928-4.655a.84.84,0,0,0-1.552.643Z" transform="translate(-206.939 -64.95)" fill="#e0ba22"/>
    <path id="Path_627" data-name="Path 627" d="M75.588,405.05a.84.84,0,0,0-1.1-.454l-4.655,1.928a.84.84,0,1,0,.643,1.552l4.655-1.928a.84.84,0,0,0,.455-1.1" transform="translate(-64.95 -379.051)" fill="#e0ba22"/>
    <path id="Path_628" data-name="Path 628" d="M512.835,223.941a.839.839,0,0,0,1.1.454l4.655-1.928a.84.84,0,0,0-.643-1.552l-4.655,1.928a.84.84,0,0,0-.454,1.1" transform="translate(-480.472 -206.94)" fill="#e0ba22"/>
    <path id="Path_629" data-name="Path 629" d="M518.586,406.523l-4.655-1.928a.84.84,0,0,0-.643,1.552l4.655,1.928a.84.84,0,0,0,.643-1.552" transform="translate(-480.471 -379.05)" fill="#e0ba22"/>
    <path id="Path_630" data-name="Path 630" d="M69.835,222.465l4.655,1.928a.84.84,0,1,0,.643-1.552l-4.655-1.928a.84.84,0,1,0-.643,1.552" transform="translate(-64.95 -206.938)" fill="#e0ba22"/>
    <path id="Path_631" data-name="Path 631" d="M223.939,512.834a.84.84,0,0,0-1.1.455l-1.928,4.655a.84.84,0,1,0,1.552.643l1.928-4.655a.84.84,0,0,0-.455-1.1" transform="translate(-206.939 -480.471)" fill="#e0ba22"/>
    <path id="Path_632" data-name="Path 632" d="M405.049,75.588a.839.839,0,0,0,1.1-.455l1.928-4.655a.84.84,0,0,0-1.552-.643l-1.928,4.655a.84.84,0,0,0,.455,1.1" transform="translate(-379.05 -64.951)" fill="#e0ba22"/>
    <path id="Path_633" data-name="Path 633" d="M328.84,528a.84.84,0,0,0-.84.84V536.9a.84.84,0,1,0,1.68,0v-8.062a.84.84,0,0,0-.84-.84" transform="translate(-307.34 -494.743)" fill="#e0ba22"/>
    <path id="Path_634" data-name="Path 634" d="M328.84,9.742a.84.84,0,0,0,.84-.84V.84a.84.84,0,1,0-1.68,0V8.9a.84.84,0,0,0,.84.84" transform="translate(-307.34)" fill="#e0ba22"/>
    <path id="Path_635" data-name="Path 635" d="M9.742,328.841A.84.84,0,0,0,8.9,328H.84a.84.84,0,1,0,0,1.68H8.9a.84.84,0,0,0,.84-.84" transform="translate(0 -307.341)" fill="#e0ba22"/>
    <path id="Path_636" data-name="Path 636" d="M536.9,328H528.84a.84.84,0,0,0,0,1.68H536.9a.84.84,0,0,0,0-1.68" transform="translate(-494.742 -307.34)" fill="#e0ba22"/>
    <path id="Path_637" data-name="Path 637" d="M415.013,414.174a.84.84,0,1,0-.84.84.84.84,0,0,0,.84-.84" transform="translate(-387.298 -387.299)" fill="#e0ba22"/>
    <path id="Path_638" data-name="Path 638" d="M224.8,216.4a8.39,8.39,0,1,0-6.064,8.069.84.84,0,1,0-.466-1.614,6.711,6.711,0,1,1,4.587-4.587.84.84,0,1,0,1.614.466,8.412,8.412,0,0,0,.329-2.335" transform="translate(-194.899 -194.899)" fill="#e0ba22"/>
  </g>
</svg>
