<svg version="1.1" id="Layer_1" xmlns="http://www.w3.org/2000/svg" xmlns:xlink="http://www.w3.org/1999/xlink" x="0px" y="0px"
	 width="100%" viewBox="0 0 150 150" enable-background="new 0 0 150 150" xml:space="preserve">
<path fill="#000000" opacity="1.000000" stroke="none" 
	d="
M91.000000,151.000000 
	C60.691544,151.000000 30.883083,151.000000 1.037313,151.000000 
	C1.037313,101.066589 1.037313,51.133144 1.037313,1.099849 
	C50.891567,1.099849 100.783401,1.099849 150.837616,1.099849 
	C150.837616,50.999573 150.837616,100.999741 150.837616,151.000000 
	C131.133499,151.000000 111.316750,151.000000 91.000000,151.000000 
M60.749012,80.056343 
	C56.145767,83.660751 51.542519,87.265152 46.939274,90.869553 
	C47.139053,91.294662 47.338829,91.719780 47.538609,92.144890 
	C50.557201,91.836723 53.898746,92.231049 56.507648,91.031693 
	C59.374592,89.713699 61.567028,86.928482 63.971142,84.853493 
	C69.953682,88.247665 74.553146,94.354797 83.032364,91.195816 
	C78.037827,87.653091 73.379898,84.349121 68.038948,80.560677 
	C79.429359,75.176559 90.728348,69.835663 101.912392,64.549103 
	C98.426125,65.236290 94.548637,65.511147 91.038139,66.791908 
	C83.126801,69.678268 75.407997,73.089661 67.585335,76.223763 
	C65.794846,76.941116 63.901249,77.401100 62.117710,77.346855 
	C60.359673,72.498421 56.419022,71.090828 47.139145,72.467957 
	C52.470413,74.523918 54.811398,80.571877 60.749012,80.056343 
z"/>
<path fill="#EEEEEE" opacity="1.000000" stroke="none" 
	d="
M62.055107,77.979523 
	C63.901249,77.401100 65.794846,76.941116 67.585335,76.223763 
	C75.407997,73.089661 83.126801,69.678268 91.038139,66.791908 
	C94.548637,65.511147 98.426125,65.236290 101.912392,64.549103 
	C90.728348,69.835663 79.429359,75.176559 68.038948,80.560677 
	C73.379898,84.349121 78.037827,87.653091 83.032364,91.195816 
	C74.553146,94.354797 69.953682,88.247665 63.971142,84.853493 
	C61.567028,86.928482 59.374592,89.713699 56.507648,91.031693 
	C53.898746,92.231049 50.557201,91.836723 47.538609,92.144890 
	C47.338829,91.719780 47.139053,91.294662 46.939274,90.869553 
	C51.542519,87.265152 56.145767,83.660751 60.914658,79.485580 
	C61.405239,78.603058 61.730171,78.291290 62.055107,77.979523 
z"/>
<path fill="#F1F1F1" opacity="1.000000" stroke="none" 
	d="
M62.086411,77.663193 
	C61.730171,78.291290 61.405239,78.603058 61.077789,79.094368 
	C54.811398,80.571877 52.470413,74.523918 47.139145,72.467957 
	C56.419022,71.090828 60.359673,72.498421 62.086411,77.663193 
z"/>
</svg>