<svg id="Group_753" data-name="Group 753" xmlns="http://www.w3.org/2000/svg" xmlns:xlink="http://www.w3.org/1999/xlink" width="25.841" height="25.411" viewBox="0 0 25.841 25.411">
  <defs>
    <clipPath id="clip-path">
      <rect id="Rectangle_105" data-name="Rectangle 105" width="25.841" height="25.411" fill="none"/>
    </clipPath>
  </defs>
  <g id="Group_753-2" data-name="Group 753" transform="translate(0 0)" clip-path="url(#clip-path)">
    <path id="Path_583" data-name="Path 583" d="M24.139,5.317,20.524,1.7A5.77,5.77,0,0,0,16.416,0H7.406A1.642,1.642,0,0,0,5.766,1.64V14.022a5.687,5.687,0,0,0-3.486,1.137.378.378,0,1,0,.455.605,4.938,4.938,0,1,1-.993.993.378.378,0,1,0-.605-.455,5.7,5.7,0,0,0,7.906,8.024H24.2a1.641,1.641,0,0,0,1.64-1.64V9.425a5.769,5.769,0,0,0-1.7-4.108m-.535.535A5.029,5.029,0,0,1,24.81,7.777a3.416,3.416,0,0,0-2.4-.981H19.927a.884.884,0,0,1-.883-.883V3.428a3.416,3.416,0,0,0-.981-2.4,5.029,5.029,0,0,1,1.926,1.206Zm.6,17.717H9.893a5.657,5.657,0,0,0,1.36-2.606h7.213a.378.378,0,1,0,0-.757h-7.1A5.74,5.74,0,0,0,11.28,18.6H22.223a.378.378,0,1,0,0-.757H11.074a5.655,5.655,0,0,0-.87-1.607H22.223a.378.378,0,1,0,0-.757H9.5a5.684,5.684,0,0,0-2.977-1.4V1.64A.884.884,0,0,1,7.406.757h8.209a2.675,2.675,0,0,1,2.672,2.671V5.914a1.641,1.641,0,0,0,1.64,1.64h2.486a2.675,2.675,0,0,1,2.671,2.672v12.46a.884.884,0,0,1-.883.883" transform="translate(0 0)" fill="#fff"/>
    <path id="Path_584" data-name="Path 584" d="M27.377,15.51h-10.2a.378.378,0,0,0,0,.757h10.2a.378.378,0,1,0,0-.757" transform="translate(-5.154 -4.759)" fill="#fff"/>
    <path id="Path_585" data-name="Path 585" d="M31.235,18.921h-1.49a.378.378,0,1,0,0,.757h1.49a.378.378,0,0,0,0-.757" transform="translate(-9.012 -5.806)" fill="#fff"/>
    <path id="Path_586" data-name="Path 586" d="M23.207,18.921H13.37a.378.378,0,1,0,0,.757h9.836a.378.378,0,0,0,0-.757" transform="translate(-3.987 -5.806)" fill="#fff"/>
    <path id="Path_587" data-name="Path 587" d="M6.393,30.4a.34.34,0,0,0,.06,0,.381.381,0,0,0,.279-.2l2.614-5.18a.378.378,0,0,0-.676-.341L6.291,29.38l-1.85-1.85a.379.379,0,0,0-.536.536l2.22,2.219a.378.378,0,0,0,.268.111" transform="translate(-1.164 -7.506)" fill="#fff"/>
    <path id="Path_588" data-name="Path 588" d="M14.908,8.244a.378.378,0,0,0,.489-.219l.208-.545h1.418l.206.545a.379.379,0,0,0,.708-.268l-1.2-3.172,0-.01a.45.45,0,0,0-.417-.279h0a.449.449,0,0,0-.417.281l0,.008L14.689,7.756a.378.378,0,0,0,.219.488m1.409-2.635.42,1.113h-.844Z" transform="translate(-4.5 -1.318)" fill="#fff"/>
    <path id="Path_589" data-name="Path 589" d="M20.027,8.2a.378.378,0,0,0,.527-.091l.9-1.283.9,1.283a.379.379,0,0,0,.62-.436l-1.059-1.5.9-1.276a.379.379,0,0,0-.619-.436l-.743,1.054-.742-1.054a.379.379,0,0,0-.62.435L21,6.167l-1.06,1.5a.378.378,0,0,0,.091.527" transform="translate(-6.096 -1.318)" fill="#fff"/>
    <path id="Path_590" data-name="Path 590" d="M13.077,7.89V5.052h.514a.378.378,0,1,0,0-.757H11.814a.378.378,0,1,0,0,.757h.506V7.89a.378.378,0,0,0,.757,0" transform="translate(-3.509 -1.318)" fill="#fff"/>
  </g>
</svg>
