<svg id="Group_790" data-name="Group 790" xmlns="http://www.w3.org/2000/svg" xmlns:xlink="http://www.w3.org/1999/xlink" width="48" height="31.396" viewBox="0 0 48 31.396">
  <defs>
    <clipPath id="clip-path">
      <rect id="Rectangle_101" data-name="Rectangle 101" width="48" height="31.396" fill="#e0ba22"/>
    </clipPath>
  </defs>
  <g id="Group_721" data-name="Group 721" clip-path="url(#clip-path)">
    <path id="Path_553" data-name="Path 553" d="M48,7a3.328,3.328,0,0,0-3.324-3.324h-.143a3.315,3.315,0,0,0-3.069,2.048l-.611,1.469L38.785,2.443A4.061,4.061,0,0,0,35.062,0H28.6a1.021,1.021,0,0,0,0,2.041h6.465a2.02,2.02,0,0,1,1.853,1.214L39.3,8.738H8.865l2.388-5.48a2.02,2.02,0,0,1,1.853-1.214h6.511a1.021,1.021,0,0,0,0-2.041H13.105a4.061,4.061,0,0,0-3.724,2.44L7.228,7.384,6.536,5.719A3.315,3.315,0,0,0,3.467,3.671H3.324a3.324,3.324,0,1,0,0,6.648H5.357L3.678,12.074a4.493,4.493,0,0,0-1.23,3.5l.6,6.865c0,.049.01.1.016.146a3.6,3.6,0,0,0-.023.4v4.837A3.585,3.585,0,0,0,6.626,31.4H9.045a3.586,3.586,0,0,0,3.582-3.581V25.858q5.736.341,11.494.342,5.671,0,11.332-.332v1.95A3.586,3.586,0,0,0,39.037,31.4h2.419a3.585,3.585,0,0,0,3.581-3.581v-4.44a2.474,2.474,0,0,0,.055-.335l.656-7.469a4.5,4.5,0,0,0-1.23-3.5h0l-1.679-1.754h1.836A3.328,3.328,0,0,0,48,7M43.349,6.5a1.279,1.279,0,0,1,1.185-.79h.143a1.283,1.283,0,1,1,0,2.566H42.61Zm-9.506,4.276-1.328,3.8a1.509,1.509,0,0,1-1.451.825H17.292a1.516,1.516,0,0,1-1.44-.795l-1.506-3.828ZM2.041,7A1.284,1.284,0,0,1,3.324,5.713h.143a1.279,1.279,0,0,1,1.185.79L5.39,8.278H3.324A1.284,1.284,0,0,1,2.041,7m8.545,20.822a1.542,1.542,0,0,1-1.541,1.54H6.626a1.542,1.542,0,0,1-1.54-1.54V25.143a3.2,3.2,0,0,0,.853.2l.141.013q2.249.211,4.506.369Zm18.5-4.242a.492.492,0,0,1-.492.492H19.989a.492.492,0,0,1-.492-.492V22.184a.492.492,0,0,1,.492-.492H28.6a.492.492,0,0,1,.492.492ZM43,27.817a1.542,1.542,0,0,1-1.54,1.54H39.037a1.543,1.543,0,0,1-1.541-1.54v-2.08q2.611-.181,5.214-.432L42.8,25.3l.061-.006q.067-.006.133-.016ZM43.715,15.4l-.656,7.469a.433.433,0,0,1-.039.144l0,.009a.427.427,0,0,1-.028.049l-.01.015a.42.42,0,0,1-.04.047l0,0-.006.005a.436.436,0,0,1-.045.038l-.026.017c-.012.008-.024.015-.037.022l-.036.015c-.012,0-.024.01-.036.014a.432.432,0,0,1-.079.016h0l-.016,0c-2.075.2-4.175.368-6.241.5-.023,0-.046,0-.069.008q-2.623.168-5.252.264a2.554,2.554,0,0,0,.041-.456V22.184A2.536,2.536,0,0,0,28.6,19.651H19.989a2.536,2.536,0,0,0-2.533,2.533v1.392a2.531,2.531,0,0,0,.044.468q-2.893-.1-5.78-.288l-.047-.005c-1.844-.12-3.7-.267-5.51-.437A1.2,1.2,0,0,1,5.1,22.359c0-.008,0-.016-.006-.025,0-.025-.008-.049-.01-.075l-.6-6.865a2.452,2.452,0,0,1,.671-1.91l2.59-2.706h4.41l1.8,4.576a3.534,3.534,0,0,0,3.339,2.089H31.063a3.493,3.493,0,0,0,3.378-2.192L36,10.779h4.449l2.59,2.706a2.453,2.453,0,0,1,.671,1.91" transform="translate(0 -0.003)" fill="#e0ba22"/>
    <path id="Path_554" data-name="Path 554" d="M340.657,182.751l-4.045.306a1.021,1.021,0,0,0,.076,2.038c.026,0,.052,0,.078,0l4.045-.306a1.021,1.021,0,1,0-.154-2.035" transform="translate(-301.408 -164.096)" fill="#e0ba22"/>
    <path id="Path_555" data-name="Path 555" d="M82.92,183.058l-4.045-.306a1.021,1.021,0,1,0-.154,2.035l4.045.306c.026,0,.052,0,.078,0a1.021,1.021,0,0,0,.076-2.038" transform="translate(-69.839 -164.096)" fill="#e0ba22"/>
    <path id="Path_556" data-name="Path 556" d="M227.185,1.412a1.037,1.037,0,0,0,.094.176.976.976,0,0,0,.127.155,1.024,1.024,0,0,0,.922.28,1.055,1.055,0,0,0,.191-.058,1.035,1.035,0,0,0,.176-.094,1.035,1.035,0,0,0,.283-.283,1.033,1.033,0,0,0,.094-.176,1.081,1.081,0,0,0,.058-.191,1.021,1.021,0,0,0,.019-.2,1.011,1.011,0,0,0-.019-.2,1.031,1.031,0,0,0-.058-.191A1.008,1.008,0,0,0,228.848.3a1.02,1.02,0,0,0-1.443,0,.976.976,0,0,0-.127.155,1.047,1.047,0,0,0-.094.177,1.029,1.029,0,0,0-.058.191,1.007,1.007,0,0,0-.02.2,1.017,1.017,0,0,0,.02.2,1.079,1.079,0,0,0,.058.191" transform="translate(-203.927)" fill="#e0ba22"/>
  </g>
</svg>
