<svg id="Iconly_Bold_Download" data-name="Iconly/Bold/Download" xmlns="http://www.w3.org/2000/svg" width="16" height="16" viewBox="0 0 16 16">
  <rect id="Iconly_Bold_Download-2" data-name="Iconly/Bold/Download" width="16" height="16" fill="none"/>
  <g id="Group">
    <path id="Vector" d="M6.153,3.194V.521A.513.513,0,0,1,7.175.451l0,.07V3.194h3.187a3.018,3.018,0,0,1,2.963,2.92l0,.144v3.36a3.02,3.02,0,0,1-2.821,3.046l-.139,0H2.96A3.007,3.007,0,0,1,0,9.747L0,9.6V6.251A3.021,3.021,0,0,1,2.815,3.2l.139,0h3.2V7.462l-1.067-1.1a.5.5,0,0,0-.727,0,.557.557,0,0,0-.054.685l.054.066L6.3,9.121a.5.5,0,0,0,.677.048l.05-.048,1.94-2.01a.544.544,0,0,0,0-.75A.5.5,0,0,0,8.3,6.309l-.057.051-1.06,1.1V3.194Z" transform="translate(1.333 1.667)" fill="#35383f"/>
  </g>
</svg>
