<svg xmlns="http://www.w3.org/2000/svg" xmlns:xlink="http://www.w3.org/1999/xlink" width="26" height="27.694" viewBox="0 0 26 27.694">
  <defs>
    <clipPath id="clip-path">
      <rect id="Rectangle_106" data-name="Rectangle 106" width="26" height="27.694" fill="none"/>
    </clipPath>
  </defs>
  <g id="Group_755" data-name="Group 755" transform="translate(0 0)">
    <g id="Group_754" data-name="Group 754" transform="translate(0 -0.001)" clip-path="url(#clip-path)">
      <path id="Path_591" data-name="Path 591" d="M21.944,4.056A13.868,13.868,0,0,0,7.608.763a.406.406,0,1,0,.267.766A13.038,13.038,0,1,1,3.227,23.347l.74-.741A11.989,11.989,0,0,0,20.631,5.369,11.988,11.988,0,0,0,3.7,5.341a.406.406,0,0,0,0,.575l.505.505L.973,7.269l.848-3.235.568.569a.407.407,0,0,0,.573,0A13.027,13.027,0,0,1,6.172,2.262.406.406,0,0,0,5.8,1.541,13.839,13.839,0,0,0,2.681,3.747L1.894,2.96a.406.406,0,0,0-.679.184l-1.2,4.59a.405.405,0,0,0,.495.495l4.59-1.2a.406.406,0,0,0,.184-.68L4.57,5.635a11.178,11.178,0,1,1,7.583,19.389,11.1,11.1,0,0,1-7.9-3.274.406.406,0,0,0-.574,0L2.362,23.065a.4.4,0,0,0,0,.573,13.847,13.847,0,0,0,19.582,0,13.847,13.847,0,0,0,0-19.582Z" transform="translate(0 0)" fill="#fff"/>
      <path id="Path_592" data-name="Path 592" d="M19.556,22.858A9.121,9.121,0,1,0,17.923,24a.406.406,0,1,0-.391-.711,8.349,8.349,0,1,1,1.488-1.045.406.406,0,1,0,.535.61Z" transform="translate(-1.367 -2.137)" fill="#fff"/>
      <path id="Path_593" data-name="Path 593" d="M14.265,9.22a7.509,7.509,0,1,0,7.509,7.509A7.518,7.518,0,0,0,14.265,9.22Zm0,14.206a6.7,6.7,0,1,1,6.7-6.7,6.705,6.705,0,0,1-6.7,6.7" transform="translate(-2.112 -2.882)" fill="#fff"/>
      <path id="Path_594" data-name="Path 594" d="M16.7,17.805V14.714a.406.406,0,1,0-.811,0v3.092a.653.653,0,0,0-.243.42l-2.2,1.273a.406.406,0,0,0,.2.757.4.4,0,0,0,.2-.054l2.2-1.272a.646.646,0,0,0,.243.047.655.655,0,0,0,.406-1.17" transform="translate(-4.137 -4.472)" fill="#fff"/>
      <path id="Path_595" data-name="Path 595" d="M17.5,12.37a.405.405,0,0,0,.406-.406v-.351a.406.406,0,0,0-.811,0v.351a.405.405,0,0,0,.406.406" transform="translate(-5.342 -3.503)" fill="#fff"/>
      <path id="Path_596" data-name="Path 596" d="M13.147,13.239a.405.405,0,1,0,.7-.406l-.175-.3a.405.405,0,1,0-.7.406Z" transform="translate(-4.038 -3.853)" fill="#fff"/>
      <path id="Path_597" data-name="Path 597" d="M10.775,15.611l-.3-.175a.406.406,0,1,0-.406.7l.3.175a.4.4,0,0,0,.2.054.406.406,0,0,0,.2-.757Z" transform="translate(-3.083 -4.808)" fill="#fff"/>
      <path id="Path_598" data-name="Path 598" d="M9.906,19.96a.405.405,0,0,0-.406-.406H9.15a.406.406,0,1,0,0,.811H9.5a.405.405,0,0,0,.406-.406" transform="translate(-2.733 -6.112)" fill="#fff"/>
      <path id="Path_599" data-name="Path 599" d="M10.368,23.526l-.3.176a.406.406,0,0,0,.2.757.41.41,0,0,0,.2-.054l.3-.176a.406.406,0,1,0-.406-.7" transform="translate(-3.083 -7.337)" fill="#fff"/>
      <path id="Path_600" data-name="Path 600" d="M13.7,26.394a.406.406,0,0,0-.554.148l-.176.3a.406.406,0,0,0,.148.554.41.41,0,0,0,.2.054.4.4,0,0,0,.351-.2l.176-.3a.406.406,0,0,0-.148-.554" transform="translate(-4.038 -8.234)" fill="#fff"/>
      <path id="Path_601" data-name="Path 601" d="M17.5,27.389a.405.405,0,0,0-.406.406v.351a.406.406,0,1,0,.811,0v-.351a.405.405,0,0,0-.406-.406" transform="translate(-5.342 -8.562)" fill="#fff"/>
      <path id="Path_602" data-name="Path 602" d="M21.765,26.543a.406.406,0,0,0-.7.406l.175.3a.406.406,0,1,0,.7-.406Z" transform="translate(-6.567 -8.234)" fill="#fff"/>
      <path id="Path_603" data-name="Path 603" d="M24.788,23.7l-.3-.176a.406.406,0,0,0-.406.7l.3.175a.4.4,0,0,0,.2.054.406.406,0,0,0,.2-.757Z" transform="translate(-7.463 -7.337)" fill="#fff"/>
      <path id="Path_604" data-name="Path 604" d="M25.682,19.554h-.351a.406.406,0,1,0,0,.811h.351a.406.406,0,1,0,0-.811" transform="translate(-7.792 -6.112)" fill="#fff"/>
      <path id="Path_605" data-name="Path 605" d="M24.281,16.368a.4.4,0,0,0,.2-.054l.3-.176a.406.406,0,1,0-.406-.7l-.3.176a.406.406,0,0,0,.2.757Z" transform="translate(-7.463 -4.808)" fill="#fff"/>
      <path id="Path_606" data-name="Path 606" d="M21.791,12.38a.406.406,0,0,0-.554.148l-.176.3a.406.406,0,0,0,.148.554.41.41,0,0,0,.2.054.4.4,0,0,0,.351-.2l.176-.3A.406.406,0,0,0,21.791,12.38Z" transform="translate(-6.567 -3.853)" fill="#fff"/>
    </g>
  </g>
</svg>
