<svg id="Iconly_Bold_Category" data-name="Iconly/Bold/Category" xmlns="http://www.w3.org/2000/svg" width="24" height="24" viewBox="0 0 24 24">
  <rect id="Iconly_Bold_Category-2" data-name="Iconly/Bold/Category" width="24" height="24" fill="none"/>
  <g id="Category">
    <g id="Category-2" data-name="Category">
      <path id="Fill_1" data-name="Fill 1" d="M8.46,2.561V5.97A2.542,2.542,0,0,1,5.92,8.53H2.54A2.548,2.548,0,0,1,0,5.97V2.561A2.555,2.555,0,0,1,2.54,0H5.92A2.548,2.548,0,0,1,8.46,2.561Z" transform="translate(2 2)" fill="#fff"/>
      <path id="Fill_4" data-name="Fill 4" d="M8.46,2.561V5.97A2.548,2.548,0,0,1,5.92,8.53H2.54A2.554,2.554,0,0,1,0,5.97V2.561A2.549,2.549,0,0,1,2.54,0H5.92A2.542,2.542,0,0,1,8.46,2.561Z" transform="translate(2 13.47)" fill="#fff"/>
      <path id="Fill_7" data-name="Fill 7" d="M8.46,2.561V5.97A2.548,2.548,0,0,1,5.92,8.53H2.54A2.542,2.542,0,0,1,0,5.97V2.561A2.548,2.548,0,0,1,2.54,0H5.92A2.555,2.555,0,0,1,8.46,2.561Z" transform="translate(13.54 2)" fill="#fff"/>
      <path id="Fill_9" data-name="Fill 9" d="M8.46,2.561V5.97A2.554,2.554,0,0,1,5.92,8.53H2.54A2.548,2.548,0,0,1,0,5.97V2.561A2.542,2.542,0,0,1,2.54,0H5.92A2.549,2.549,0,0,1,8.46,2.561Z" transform="translate(13.54 13.47)" fill="#fff"/>
    </g>
  </g>
</svg>
