<svg xmlns="http://www.w3.org/2000/svg" width="25" height="25" viewBox="0 0 25 25">
  <path id="check" d="M25,13a12.451,12.451,0,0,1-2.118,6.939.977.977,0,1,1-1.624-1.085,10.52,10.52,0,0,0,1.456-8.491.977.977,0,1,1,1.892-.487A12.545,12.545,0,0,1,25,13Zm-7.044,9.028a10.547,10.547,0,1,1,.532-17.712A.977.977,0,0,0,19.6,2.71,12.5,12.5,0,0,0,3.661,21.839,12.5,12.5,0,0,0,18.968,23.7a.977.977,0,1,0-1.012-1.67Zm-5.362-6.2a.557.557,0,0,1-.411-.156L7.068,10.827a.977.977,0,0,0-1.344,1.417l5.114,4.849a2.494,2.494,0,0,0,1.731.693l.1,0a2.5,2.5,0,0,0,1.773-.836l.034-.039,10.3-12.817a.977.977,0,0,0-1.522-1.224L12.977,15.66a.558.558,0,0,1-.383.173Zm0,0" transform="translate(0 -0.501)" fill="#e0ba22"/>
</svg>
