<svg xmlns="http://www.w3.org/2000/svg" xmlns:xlink="http://www.w3.org/1999/xlink" width="53" height="17.127" viewBox="0 0 53 17.127">
  <defs>
    <clipPath id="clip-path">
      <rect id="Rectangle_102" data-name="Rectangle 102" width="53" height="17.127" fill="none"/>
    </clipPath>
  </defs>
  <g id="Group_731" data-name="Group 731" transform="translate(-36 -566.437)">
    <g id="Group_729" data-name="Group 729" transform="translate(36 566.437)">
      <g id="Group_728" data-name="Group 728" clip-path="url(#clip-path)">
        <path id="Path_562" data-name="Path 562" d="M399.579,17.776Q398.2,11.2,396.834,4.623c-.112-.534-.228-1.067-.344-1.608h-3.5a1.964,1.964,0,0,0-2.046,1.363q-2.79,6.654-5.58,13.309c-.26.62-.516,1.242-.786,1.893,1.484,0,2.926,0,4.368-.009.076,0,.187-.122.22-.21.247-.65.488-1.3.708-1.963a.362.362,0,0,1,.412-.3c1.6.013,3.2.018,4.8,0,.321,0,.413.107.464.395.124.692.28,1.378.426,2.08h3.99v-.118c-.129-.559-.267-1.116-.385-1.678m-8.354-4.088,2.2-6.071.051.01,1.264,6.061Z" transform="translate(-346.964 -2.72)" fill="#fff"/>
        <path id="Path_563" data-name="Path 563" d="M274.079,10.75a3.906,3.906,0,0,0-1.881-2.8c-.848-.561-1.765-1.017-2.638-1.542a6.357,6.357,0,0,1-1.092-.787.931.931,0,0,1,.029-1.472,2.75,2.75,0,0,1,1.021-.543,5.559,5.559,0,0,1,2.712.023c.655.145,1.293.37,1.96.566l.747-3.493c-.506-.144-.971-.3-1.447-.407-.521-.12-1.052-.2-1.578-.3h-2a2.186,2.186,0,0,1-.248.059,7.728,7.728,0,0,0-4.111,1.6,4.717,4.717,0,0,0-1.839,4.356,3.879,3.879,0,0,0,1.736,2.759c.728.524,1.545.924,2.314,1.392a10.515,10.515,0,0,1,1.444.95,1.192,1.192,0,0,1-.134,1.962,3.111,3.111,0,0,1-1.126.47A7.723,7.723,0,0,1,263.57,13c-.3-.119-.584-.253-.891-.388l-.772,3.618a1,1,0,0,0,.12.074c.118.048.236.1.357.138a13.567,13.567,0,0,0,5.543.628,8.079,8.079,0,0,0,3.8-1.227,4.985,4.985,0,0,0,2.356-5.092" transform="translate(-236.292 -0.001)" fill="#fff"/>
        <path id="Path_564" data-name="Path 564" d="M20.1,2.979c-.12-.006-.205-.013-.29-.013-1.316,0-2.632,0-3.947-.006a.342.342,0,0,0-.381.259q-2.1,5.349-4.219,10.692c-.027.068-.068.13-.127.24-.038-.186-.066-.317-.091-.449Q10.194,9.18,9.339,4.656a1.973,1.973,0,0,0-2.056-1.69H.479c-.473,0-.473,0-.479.5L.165,3.5A21.447,21.447,0,0,1,3.879,4.7,2.255,2.255,0,0,1,5.226,6.357c1.086,4.285,2.2,8.562,3.3,12.844.063.246.153.343.427.339,1.3-.018,2.592-.014,3.888,0a.406.406,0,0,0,.453-.293q3.068-7.353,6.155-14.7c.215-.513.427-1.027.651-1.567" transform="translate(0 -2.671)" fill="#fff"/>
        <path id="Path_565" data-name="Path 565" d="M195.828,3.2h-4.3l-3.541,16.548h.353c1.178,0,2.357-.014,3.534.009.329.006.441-.094.507-.411q1.444-6.833,2.914-13.66c.176-.823.351-1.647.53-2.486" transform="translate(-169.604 -2.883)" fill="#fff"/>
      </g>
    </g>
  </g>
</svg>
