<svg id="Iconly_Bold_Wallet" data-name="Iconly/Bold/Wallet" xmlns="http://www.w3.org/2000/svg" width="30" height="30" viewBox="0 0 30 30">
  <rect id="Iconly_Bold_Wallet-2" data-name="Iconly/Bold/Wallet" width="30" height="30" fill="none"/>
  <g id="Wallet" transform="translate(2 3)">
    <path id="Wallet-2" data-name="Wallet" d="M18.871,24H7.13a7.222,7.222,0,0,1-5.246-1.882A7.2,7.2,0,0,1,0,16.883V7.118A7.2,7.2,0,0,1,1.884,1.882,7.222,7.222,0,0,1,7.13,0H18.871a7.2,7.2,0,0,1,5.246,1.889A7.294,7.294,0,0,1,26,7.176H20.5v.047a4.622,4.622,0,0,0,0,9.244H26v.416a7.2,7.2,0,0,1-1.883,5.235A7.221,7.221,0,0,1,18.871,24ZM6.159,5.189a1,1,0,0,0-.993.982,1.008,1.008,0,0,0,.993,1.006H13.5a.994.994,0,0,0,0-1.987Zm18.871,9.29H20.568a2.741,2.741,0,0,1-2.679-2.126A2.692,2.692,0,0,1,20.5,9.163h4.53a.971.971,0,0,1,.97.971v3.374A.987.987,0,0,1,25.03,14.479Zm-4.343-3.756a.983.983,0,0,0-.984.983,1.01,1.01,0,0,0,.993,1.006h.428a.994.994,0,0,0,0-1.988h-.438Z" transform="translate(0 0)" fill="#e0ba22"/>
  </g>
</svg>
