<svg id="Iconly_Bold_Location" data-name="Iconly/Bold/Location" xmlns="http://www.w3.org/2000/svg" width="24" height="24" viewBox="0 0 24 24">
  <rect id="Iconly_Bold_Location-2" data-name="Iconly/Bold/Location" width="24" height="24" fill="none"/>
  <g id="Location">
    <path id="Location-2" data-name="Location" d="M12,22a1.356,1.356,0,0,1-.734-.248,21.477,21.477,0,0,1-5.54-5.141A10.375,10.375,0,0,1,3.5,10.318,8.416,8.416,0,0,1,11.993,2,8.423,8.423,0,0,1,20.5,10.318a10.381,10.381,0,0,1-2.231,6.294,21.894,21.894,0,0,1-5.54,5.141A1.316,1.316,0,0,1,12,22ZM11.993,7.777a2.777,2.777,0,1,0,2.813,2.8A2.8,2.8,0,0,0,11.993,7.777Z" fill="#e0ba22"/>
  </g>
</svg>
