<svg id="Iconly_Bold_Hide" data-name="Iconly/Bold/Hide" xmlns="http://www.w3.org/2000/svg" width="20" height="20" viewBox="0 0 20 20">
  <rect id="Iconly_Bold_Hide-2" data-name="Iconly/Bold/Hide" width="20" height="20" fill="none"/>
  <g id="Group">
    <g id="Union">
      <path id="Vector" d="M2.13,10.428A13.187,13.187,0,0,1,.049,7.006a.625.625,0,0,1,0-.484C1.789,2.437,4.887,0,8.326,0h.008a7.374,7.374,0,0,1,3.334.8L8.952,3.544a3.761,3.761,0,0,0-.618-.057A3.266,3.266,0,0,0,5.082,6.769a3.861,3.861,0,0,0,.057.624Z" transform="translate(1.667 3.238)" 
      fill="#9e9e9e"/>
      <path id="Exclude" d="M3.584,17.083a.583.583,0,0,1-.431-.18.618.618,0,0,1-.074-.771L3.1,16.1,15.13,3.964a.216.216,0,0,0,.04-.049l0,0a.208.208,0,0,0,.036-.045l.764-.771a.62.62,0,0,1,.434-.178.611.611,0,0,1,.428,1.048l-1.48,1.493a12.315,12.315,0,0,1,2.927,4.3.627.627,0,0,1,0,.484c-1.741,4.089-4.838,6.53-8.285,6.53H9.991a7.577,7.577,0,0,1-4.4-1.461L4.014,16.9A.6.6,0,0,1,3.584,17.083Zm5.472-5.267-.887.895A3.244,3.244,0,0,0,13.244,10a3.322,3.322,0,0,0-.562-1.847l-.886.895a2.063,2.063,0,0,1,.228.952A2.036,2.036,0,0,1,10,12.046,2.006,2.006,0,0,1,9.056,11.816Z" 
      fill="#9e9e9e"/>
    </g>
  </g>
</svg>
