<svg id="Iconly_Bold_Lock" data-name="Iconly/Bold/Lock" xmlns="http://www.w3.org/2000/svg" width="20" height="20" viewBox="0 0 20 20">
  <rect id="Iconly_Bold_Lock-2" data-name="Iconly/Bold/Lock" width="20" height="20" fill="none"/>
  <g id="Group">
    <path id="Exclude" d="M13.527,18.333H6.474a3.522,3.522,0,0,1-3.557-3.479V10.741a3.47,3.47,0,0,1,2.48-3.3V6.163a4.6,4.6,0,0,1,9.205,0V7.441a3.47,3.47,0,0,1,2.48,3.3v4.114A3.522,3.522,0,0,1,13.527,18.333ZM10,11.154a.729.729,0,0,0-.736.72v1.839a.741.741,0,0,0,1.481,0V11.874A.734.734,0,0,0,10,11.154ZM10,3.116A3.093,3.093,0,0,0,6.88,6.147V7.261H13.12v-1.1A3.086,3.086,0,0,0,10,3.116Z" 
    fill="#9e9e9e"/>
  </g>
</svg>
