<svg id="Auto_Layout_Horizontal" data-name="Auto Layout Horizontal" xmlns="http://www.w3.org/2000/svg" xmlns:xlink="http://www.w3.org/1999/xlink" width="80" height="80" viewBox="0 0 80 80">
  <defs>
    <linearGradient id="linear-gradient" x1="1" y1="1" x2="0" gradientUnits="objectBoundingBox">
      <stop offset="0" stop-color="#febb1b"/>
      <stop offset="1" stop-color="#ffc740"/>
    </linearGradient>
  </defs>
  <rect id="Auto_Layout_Horizontal-2" data-name="Auto Layout Horizontal" width="80" height="80" rx="40" fill="rgba(254,187,27,0.08)"/>
  <g id="Iconly_Bold_Message" data-name="Iconly/Bold/Message" transform="translate(24 24)">
    <rect id="Iconly_Bold_Message-2" data-name="Iconly/Bold/Message" width="32" height="32" fill="none"/>
    <g id="Group">
      <path id="Exclude" d="M22.586,28H9.414a6.747,6.747,0,0,1-6.746-6.733V10.733A6.734,6.734,0,0,1,9.414,4H22.586a6.787,6.787,0,0,1,4.774,1.975,6.678,6.678,0,0,1,1.975,4.758V21.267A6.748,6.748,0,0,1,22.586,28ZM8.046,10.994a.975.975,0,0,0-.712.3,1.018,1.018,0,0,0-.095,1.334l.175.173,6.066,4.733a4.175,4.175,0,0,0,2.6.907,4.241,4.241,0,0,0,2.612-.907l6.015-4.813.107-.106A1.034,1.034,0,0,0,24.8,11.28a1.12,1.12,0,0,0-.706-.347h-.056a1.016,1.016,0,0,0-.692.268L17.334,16a2.088,2.088,0,0,1-1.329.481A2.123,2.123,0,0,1,14.667,16l-6-4.8A1.04,1.04,0,0,0,8.046,10.994Z" fill="url(#linear-gradient)"/>
    </g>
  </g>
</svg>
