<svg xmlns="http://www.w3.org/2000/svg" width="15.492" height="16.917" viewBox="0 0 15.492 16.917">
  <g id="Group" transform="translate(-2.291 -1.542)">
    <path id="Vector" d="M13.992,7.708c0,5.783-1.75,7.708-7,7.708S0,13.492,0,7.708,1.75,0,6.992,0A15.167,15.167,0,0,1,9.033.125l4.725,4.5a17.538,17.538,0,0,1,.233,3.083Z" transform="translate(3.042 2.292)" fill="none" stroke="#fafafa" stroke-linecap="round" stroke-linejoin="round" stroke-width="1.5" fill-rule="evenodd"/>
    <path id="Vector-2" data-name="Vector" d="M5.262,5.02H2.8A2.8,2.8,0,0,1,0,2.217V0" transform="translate(11.612 2.361)" fill="none" stroke="#fafafa" stroke-linecap="round" stroke-linejoin="round" stroke-width="1.5" fill-rule="evenodd"/>
    <path id="Line" d="M.417,5.034V0" transform="translate(9.3 8.313)" fill="none" stroke="#fafafa" stroke-linecap="round" stroke-linejoin="round" stroke-width="1.5" fill-rule="evenodd"/>
    <path id="Vector-3" data-name="Vector" d="M3.908,0,1.954,1.962,0,0" transform="translate(7.762 11.385)" fill="none" stroke="#fafafa" stroke-linecap="round" stroke-linejoin="round" stroke-width="1.5" fill-rule="evenodd"/>
  </g>
</svg>
