<svg id="Iconly_Bold_Location" data-name="Iconly/Bold/Location" xmlns="http://www.w3.org/2000/svg" width="28" height="28" viewBox="0 0 28 28">
  <rect id="Iconly_Bold_Location-2" data-name="Iconly/Bold/Location" width="28" height="28" fill="none"/>
  <g id="Group">
    <path id="Exclude" d="M14.005,25.667a1.583,1.583,0,0,1-.856-.289,25.1,25.1,0,0,1-6.464-6,12.111,12.111,0,0,1-2.6-7.343,9.819,9.819,0,0,1,9.909-9.7,9.827,9.827,0,0,1,9.924,9.7,12.122,12.122,0,0,1-2.6,7.343,25.6,25.6,0,0,1-6.465,6A1.539,1.539,0,0,1,14.005,25.667ZM13.992,9.073a3.239,3.239,0,1,0,3.281,3.267A3.27,3.27,0,0,0,13.992,9.073Z" fill="#35383f"/>
  </g>
</svg>
