<svg xmlns="http://www.w3.org/2000/svg" width="23.333" height="23.328" viewBox="0 0 23.333 23.328">
  <g id="Group" transform="translate(-2.333 -2.334)">
    <path id="Exclude" d="M14.007,25.662a3.524,3.524,0,0,1-2.486-1.013L10.67,23.8a1.738,1.738,0,0,0-1.238-.512H8.23A3.517,3.517,0,0,1,4.717,19.77v-1.2A1.794,1.794,0,0,0,4.2,17.321l-.841-.829a3.524,3.524,0,0,1-.012-4.968L4.2,10.67a1.752,1.752,0,0,0,.513-1.248V8.232A3.516,3.516,0,0,1,8.23,4.721h1.2a1.74,1.74,0,0,0,1.238-.515l.84-.84a3.522,3.522,0,0,1,4.973-.011l.851.851a1.74,1.74,0,0,0,1.237.515h1.2a3.516,3.516,0,0,1,3.514,3.511v1.2A1.737,1.737,0,0,0,23.8,10.67l.841.84a3.536,3.536,0,0,1,.023,4.959l-.021.021-.014.014-.829.829a1.739,1.739,0,0,0-.513,1.238v1.2a3.517,3.517,0,0,1-3.514,3.513h-1.2a1.738,1.738,0,0,0-1.237.512l-.841.841A3.488,3.488,0,0,1,14.007,25.662Zm3-9.683a1.021,1.021,0,1,0,1.015,1.015A1.022,1.022,0,0,0,17.006,15.979Zm-.006-6a1.011,1.011,0,0,0-.718.3l-6,6a1.025,1.025,0,0,0,0,1.447.966.966,0,0,0,.712.3.983.983,0,0,0,.724-.3l6-6A1.02,1.02,0,0,0,17,9.977Zm-5.993,0A1.021,1.021,0,1,0,12.023,11,1.022,1.022,0,0,0,11.008,9.982Z" fill="#35383f"/>
  </g>
</svg>
