<svg id="Category_Money_Component_Additional_Icons" data-name="Category=Money, Component=Additional Icons" xmlns="http://www.w3.org/2000/svg" width="28" height="28" viewBox="0 0 28 28">
  <rect id="Category_Money_Component_Additional_Icons-2" data-name="Category=Money, Component=Additional Icons" width="28" height="28" fill="none"/>
  <path id="Vector" d="M22.167,0a1.167,1.167,0,0,1,1.167,1.167V17.5a1.167,1.167,0,0,1-1.167,1.167h-21A1.167,1.167,0,0,1,0,17.5V1.167A1.167,1.167,0,0,1,1.167,0h21ZM21,5.833a3.5,3.5,0,0,1-3.5-3.5H5.833a3.5,3.5,0,0,1-3.5,3.5v7a3.5,3.5,0,0,1,3.5,3.5H17.5a3.5,3.5,0,0,1,3.5-3.5Z" transform="translate(2.333 4.667)" fill="#35383f"/>
  <path id="Vector-2" data-name="Vector" d="M9.333,4.667A4.667,4.667,0,1,1,4.667,0,4.671,4.671,0,0,1,9.333,4.667ZM7,4.667A2.333,2.333,0,1,0,4.667,7,2.336,2.336,0,0,0,7,4.667Z" transform="translate(9.333 9.333)" fill="#35383f"/>
</svg>
