<svg id="Iconly_Bold_Wallet" data-name="Iconly/Bold/Wallet" xmlns="http://www.w3.org/2000/svg" width="28" height="28" viewBox="0 0 28 28">
  <rect id="Iconly_Bold_Wallet-2" data-name="Iconly/Bold/Wallet" width="28" height="28" fill="none"/>
  <g id="Group">
    <path id="Exclude" d="M19.268,24.5H8.732a6.578,6.578,0,0,1-4.708-1.647,6.207,6.207,0,0,1-1.69-4.581V9.728a6.207,6.207,0,0,1,1.69-4.581A6.578,6.578,0,0,1,8.732,3.5H19.268a6.557,6.557,0,0,1,4.708,1.653,6.287,6.287,0,0,1,1.691,4.625H20.731v.041a4.046,4.046,0,1,0,0,8.089h4.937v.364a6.206,6.206,0,0,1-1.691,4.581A6.58,6.58,0,0,1,19.268,24.5ZM7.861,8.04a.87.87,0,1,0,0,1.739h6.585a.87.87,0,1,0,0-1.739ZM24.8,16.168H20.789a2.443,2.443,0,0,1-2.4-1.86,2.3,2.3,0,0,1,.5-1.927,2.432,2.432,0,0,1,1.839-.863H24.8a.861.861,0,0,1,.871.849V15.32A.866.866,0,0,1,24.8,16.168Zm-3.9-3.286a.885.885,0,0,0-.619.248.85.85,0,0,0-.262.611.894.894,0,0,0,.892.879h.383a.87.87,0,1,0,0-1.739H20.9Z" fill="#35383f"/>
  </g>
</svg>
