<svg id="Iconly_Bold_Edit" data-name="Iconly/Bold/Edit" xmlns="http://www.w3.org/2000/svg" width="24" height="24" viewBox="0 0 24 24">
  <rect id="Iconly_Bold_Edit-2" data-name="Iconly/Bold/Edit" width="24" height="24" fill="none"/>
  <g id="Group">
    <g id="Union">
      <path id="Vector" d="M7.731,1.023A1.017,1.017,0,0,1,6.72,2.047H1.01A1.017,1.017,0,0,1,0,1.023,1.018,1.018,0,0,1,1.01,0H6.72A1.018,1.018,0,0,1,7.731,1.023Z" transform="translate(13.269 18.953)" fill="#febb1b"/>
      <path id="Vector-2" data-name="Vector" d="M15.163,5.665,6.376,17.028a2.1,2.1,0,0,1-1.634.817l-3.5.043a.4.4,0,0,1-.393-.312l-.8-3.451a2.133,2.133,0,0,1,.4-1.8L6.684,4.268a.313.313,0,0,1,.424-.054L9.73,6.3a.846.846,0,0,0,.647.183.945.945,0,0,0,.817-1.043,1.05,1.05,0,0,0-.329-.634L8.318,2.763a.378.378,0,0,1-.064-.526L9.242.957A2.584,2.584,0,0,1,13.03.7L14.5,1.871a3.066,3.066,0,0,1,1.146,1.752,2.4,2.4,0,0,1-.488,2.042Z" transform="translate(3 3)" fill="#febb1b"/>
    </g>
  </g>
</svg>
