<svg xmlns="http://www.w3.org/2000/svg" width="11.333" height="13.334" viewBox="0 0 11.333 13.334">
  <g id="Group" transform="translate(-2.334 -1.333)">
    <path id="Exclude" d="M8,14.666a.908.908,0,0,1-.49-.165A14.331,14.331,0,0,1,3.82,11.075a6.916,6.916,0,0,1-1.487-4.2A5.611,5.611,0,0,1,8,1.333a5.616,5.616,0,0,1,5.671,5.546,6.922,6.922,0,0,1-1.487,4.2A14.619,14.619,0,0,1,8.486,14.5.881.881,0,0,1,8,14.666ZM8,5.185A1.851,1.851,0,1,0,9.87,7.052,1.868,1.868,0,0,0,8,5.185Z" fill="#febb1b"/>
  </g>
</svg>
