<svg id="Iconly_Bold_Location" data-name="Iconly/Bold/Location" xmlns="http://www.w3.org/2000/svg" width="20" height="20" viewBox="0 0 20 20">
  <rect id="Iconly_Bold_Location-2" data-name="Iconly/Bold/Location" width="20" height="20" fill="none"/>
  <g id="Group">
    <path id="Exclude" d="M10,18.334a1.131,1.131,0,0,1-.612-.207,17.908,17.908,0,0,1-4.617-4.284A8.648,8.648,0,0,1,2.917,8.6,7.013,7.013,0,0,1,9.995,1.667,7.019,7.019,0,0,1,17.083,8.6a8.654,8.654,0,0,1-1.859,5.245,18.266,18.266,0,0,1-4.617,4.284A1.1,1.1,0,0,1,10,18.334ZM9.995,6.481a2.314,2.314,0,1,0,2.344,2.333A2.335,2.335,0,0,0,9.995,6.481Z" fill="#9e9e9e"/>
  </g>
</svg>
