<svg id="Iconly_Bold_Edit_Square" data-name="Iconly/Bold/Edit Square" xmlns="http://www.w3.org/2000/svg" width="35" height="35" viewBox="0 0 35 35">
  <rect id="Iconly_Bold_Edit_Square-2" data-name="Iconly/Bold/Edit Square" width="35" height="35" fill="none"/>
  <g id="Group">
    <path id="Exclude" d="M10.211,32.083a7.756,7.756,0,0,1-5.253-2.04A7.821,7.821,0,0,1,2.933,24.3V10.7a7.822,7.822,0,0,1,2.025-5.74,7.763,7.763,0,0,1,5.256-2.04c.161,0,.324.005.484.015H24.3c.159-.01.321-.015.481-.015a7.749,7.749,0,0,1,5.245,2.04A7.9,7.9,0,0,1,32.07,10.7V24.3a7.872,7.872,0,0,1-2.025,5.739,7.76,7.76,0,0,1-5.256,2.04c-.161,0-.323-.005-.484-.015H10.7C10.537,32.078,10.373,32.083,10.211,32.083Zm7.843-19.74a.309.309,0,0,0-.218.087l-6.949,6.95a2.618,2.618,0,0,0-.772,1.806l-.087,3.452a.678.678,0,0,0,.189.495.7.7,0,0,0,.495.2h3.424a2.688,2.688,0,0,0,1.879-.772l9.8-9.833a2.313,2.313,0,0,0,0-3.249L23.926,9.59a2.3,2.3,0,0,0-3.263,0l-.976.991a.376.376,0,0,0-.109.269.383.383,0,0,0,.109.271c.023.023,2.316,2.3,2.36,2.36a.989.989,0,0,1,.262.67.963.963,0,0,1-.961.962.911.911,0,0,1-.641-.263L18.273,12.43A.309.309,0,0,0,18.054,12.343Z" fill="#e0ba22"/>
  </g>
</svg>
