<svg id="Iconly_Bold_Bookmark" data-name="Iconly/Bold/Bookmark" xmlns="http://www.w3.org/2000/svg" width="28" height="28" viewBox="0 0 28 28">
  <rect id="Iconly_Bold_Bookmark-2" data-name="Iconly/Bold/Bookmark" width="28" height="28" fill="none"/>
  <g id="Group">
    <path id="Exclude" d="M22.149,25.668a1.191,1.191,0,0,1-.6-.164l-7.56-3.78L6.417,25.5a1.245,1.245,0,0,1-.572.152,1.186,1.186,0,0,1-1.178-1.191V6.755a3.869,3.869,0,0,1,1.677-3.4,7.181,7.181,0,0,1,4.04-1.021h7.2A7.212,7.212,0,0,1,21.63,3.355a3.922,3.922,0,0,1,1.7,3.4V24.465a1.22,1.22,0,0,1-.14.572,1.2,1.2,0,0,1-.723.583A1.1,1.1,0,0,1,22.149,25.668ZM9.59,9.38a.922.922,0,0,0,0,1.843h8.785a.922.922,0,0,0,0-1.843Z" fill="#febb1b"/>
  </g>
</svg>
