<svg id="Auto_Layout_Horizontal" data-name="Auto Layout Horizontal" xmlns="http://www.w3.org/2000/svg" xmlns:xlink="http://www.w3.org/1999/xlink" width="47" height="22" viewBox="0 0 47 22">
  <defs>
    <linearGradient id="linear-gradient" x1="1" y1="1" x2="0" gradientUnits="objectBoundingBox">
      <stop offset="0" stop-color="#febb1b"/>
      <stop offset="1" stop-color="#ffc740"/>
    </linearGradient>
  </defs>
  <g id="Iconly_Bulk_Star" data-name="Iconly/Bulk/Star">
    <rect id="Iconly_Bulk_Star-2" data-name="Iconly/Bulk/Star" width="20" height="20" fill="none"/>
    <g id="Group">
      <path id="Vector" d="M9.147.511,11,4.24a.926.926,0,0,0,.7.5l4.168.607a.934.934,0,0,1,.613.359.9.9,0,0,1,.175.68.927.927,0,0,1-.268.527l-3.02,2.927a.88.88,0,0,0-.268.8l.743,4.115a.929.929,0,0,1-.743,1.06.974.974,0,0,1-.6-.1L8.789,13.785a.974.974,0,0,0-.878,0L4.194,15.722a.952.952,0,0,1-1.277-.373.943.943,0,0,1-.1-.583l.743-4.116a.884.884,0,0,0-.268-.8L.277,6.92A.9.9,0,0,1,.252,5.643l.024-.024a.9.9,0,0,1,.535-.263l4.168-.608a.928.928,0,0,0,.7-.5L7.467.511A.922.922,0,0,1,8.314,0h.112a.93.93,0,0,1,.721.511Z" transform="translate(1.667 2.083)" opacity="0.4" fill="url(#linear-gradient)"/>
      <path id="Vector-2" data-name="Vector" d="M8.327,13.681a1.022,1.022,0,0,0-.46.126l-3.7,1.932a.965.965,0,0,1-1.248-.384.922.922,0,0,1-.1-.578l.739-4.108a.919.919,0,0,0-.267-.812L.273,6.932A.911.911,0,0,1,.259,5.645l.014-.013A.945.945,0,0,1,.8,5.367l4.171-.614a.9.9,0,0,0,.7-.5L7.481.469A.921.921,0,0,1,8.333,0c-.007.248-.007,13.511-.007,13.68Z" transform="translate(1.667 2.083)" fill="url(#linear-gradient)"/>
    </g>
  </g>
  <text id="Ratings" transform="translate(28 3)" fill="#e0e0e0" font-size="14" font-family="SegoeUI, Segoe UI" letter-spacing="0.014em"><tspan x="0" y="15">4.8</tspan></text>
</svg>
