<svg id="Iconly_Bold_Star" data-name="Iconly/Bold/Star" xmlns="http://www.w3.org/2000/svg" width="40" height="40" viewBox="0 0 40 40">
  <rect id="Iconly_Bold_Star-2" data-name="Iconly/Bold/Star" width="40" height="40" fill="none"/>
  <g id="Group">
    <path id="Vector" d="M26.531,19.7A1.834,1.834,0,0,0,26,21.317l1.482,8.2a1.8,1.8,0,0,1-.75,1.8,1.835,1.835,0,0,1-1.95.133L17.4,27.6a1.885,1.885,0,0,0-.833-.218h-.452a1.353,1.353,0,0,0-.45.15L8.281,31.4a1.947,1.947,0,0,1-1.183.183,1.853,1.853,0,0,1-1.483-2.118l1.483-8.2a1.865,1.865,0,0,0-.532-1.632L.548,13.8A1.8,1.8,0,0,1,.1,11.917a1.871,1.871,0,0,1,1.482-1.25l8.283-1.2A1.853,1.853,0,0,0,11.331,8.45L14.981.967a1.735,1.735,0,0,1,.333-.45L15.465.4a1.119,1.119,0,0,1,.268-.217l.182-.067L16.2,0h.7a1.864,1.864,0,0,1,1.467,1l3.7,7.45a1.852,1.852,0,0,0,1.383,1.015l8.283,1.2a1.889,1.889,0,0,1,1.517,1.25,1.81,1.81,0,0,1-.483,1.883Z" transform="translate(3.333 4.167)" fill="#febb1b"/>
  </g>
</svg>
