<svg xmlns="http://www.w3.org/2000/svg" xmlns:xlink="http://www.w3.org/1999/xlink" width="185.933" height="180" viewBox="0 0 185.933 180">
  <defs>
    <linearGradient id="linear-gradient" x1="1" y1="1" x2="0" gradientUnits="objectBoundingBox">
      <stop offset="0" stop-color="#febb1b"/>
      <stop offset="1" stop-color="#ffc740"/>
    </linearGradient>
  </defs>
  <g id="Group" transform="translate(-77.033 -40)">
    <circle id="Ellipse" cx="70.5" cy="70.5" r="70.5" transform="translate(102 60)" fill="url(#linear-gradient)"/>
    <circle id="Ellipse-2" data-name="Ellipse" cx="7.5" cy="7.5" r="7.5" transform="translate(247.967 60)" fill="#fed676"/>
    <circle id="Ellipse-3" data-name="Ellipse" cx="10" cy="10" r="10" transform="translate(87.033 40)" fill="#fed676"/>
    <circle id="Ellipse-4" data-name="Ellipse" cx="5" cy="5" r="5" transform="translate(82.033 168)" fill="#fed676"/>
    <circle id="Ellipse-5" data-name="Ellipse" cx="2.5" cy="2.5" r="2.5" transform="translate(240.033 198)" fill="#fed676"/>
    <g id="Iconly_Bold_Wallet" data-name="Iconly/Bold/Wallet" transform="translate(143 101)">
      <rect id="Iconly_Bold_Wallet-2" data-name="Iconly/Bold/Wallet" width="59" height="59" fill="none"/>
      <g id="Group-2" data-name="Group">
        <path id="Exclude" d="M40.6,51.625H18.4a17.087,17.087,0,0,1-5.684-.891,11.481,11.481,0,0,1-4.237-2.579A11.092,11.092,0,0,1,5.831,44.03,15.839,15.839,0,0,1,4.917,38.5v-18a15.839,15.839,0,0,1,.914-5.529,11.092,11.092,0,0,1,2.648-4.125,11.481,11.481,0,0,1,4.237-2.579A17.087,17.087,0,0,1,18.4,7.375H40.6a17.044,17.044,0,0,1,5.684.893,11.44,11.44,0,0,1,4.237,2.591,11.153,11.153,0,0,1,2.647,4.157,16.154,16.154,0,0,1,.914,5.591h-10.4v.085a8.525,8.525,0,1,0,0,17.044h10.4V38.5a15.839,15.839,0,0,1-.914,5.529,11.092,11.092,0,0,1-2.647,4.125,11.481,11.481,0,0,1-4.237,2.579A17.087,17.087,0,0,1,40.6,51.625ZM16.564,16.941a1.863,1.863,0,0,0-1.879,1.811,1.884,1.884,0,0,0,1.879,1.854H30.44a1.833,1.833,0,1,0,0-3.665ZM43.808,34.07a5.153,5.153,0,0,1-5.064-3.92,4.863,4.863,0,0,1,1.065-4.062,5.131,5.131,0,0,1,3.874-1.819h8.566a1.816,1.816,0,0,1,1.836,1.79V32.28a1.823,1.823,0,0,1-1.836,1.789h-8.44Zm.225-6.925a1.872,1.872,0,0,0-1.307.523,1.8,1.8,0,0,0-.552,1.288,1.884,1.884,0,0,0,1.879,1.854h.808a1.833,1.833,0,1,0,0-3.665h-.829Z" fill="#35383f"/>
      </g>
    </g>
    <circle id="Ellipse-6" data-name="Ellipse" cx="2.5" cy="2.5" r="2.5" transform="translate(181.033 42)" fill="#fed676"/>
    <circle id="Ellipse-7" data-name="Ellipse" cx="3.5" cy="3.5" r="3.5" transform="translate(136.033 213)" fill="#fed676"/>
    <circle id="Ellipse-8" data-name="Ellipse" cx="1" cy="1" r="1" transform="translate(198.033 210)" fill="#fed676"/>
    <circle id="Ellipse-9" data-name="Ellipse" cx="2.5" cy="2.5" r="2.5" transform="translate(245.033 148)" fill="#fed676"/>
    <circle id="Ellipse-10" data-name="Ellipse" cx="1" cy="1" r="1" transform="translate(77.033 114)" fill="#fed676"/>
  </g>
</svg>
