<svg id="Iconly_Light_Image_3" data-name="Iconly/Light/Image 3" xmlns="http://www.w3.org/2000/svg" width="20" height="20" viewBox="0 0 20 20">
  <rect id="Iconly_Light_Image_3-2" data-name="Iconly/Light/Image 3" width="20" height="20" fill="none"/>
  <g id="Group">
    <path id="Vector" d="M15.377,4.3v6.788a3.958,3.958,0,0,1-4.088,4.3H4.084A3.958,3.958,0,0,1,0,11.083V4.3A3.961,3.961,0,0,1,4.084,0h7.21a3.954,3.954,0,0,1,4.083,4.3Z" 
    transform="translate(2.291 2.292)" fill="none" stroke="#E0BA22" stroke-linecap="round" stroke-linejoin="round" stroke-width="1.5" fill-rule="evenodd"/>
    <path id="Vector-2" data-name="Vector" d="M3.077,1.538A1.538,1.538,0,1,1,1.538,0,1.538,1.538,0,0,1,3.077,1.538Z" transform="translate(5.843 5.782)" fill="none" 
    stroke="#E0BA22" stroke-linecap="round" stroke-linejoin="round" stroke-width="1.5" fill-rule="evenodd"/>
    <path id="Vector-3" data-name="Vector" d="M0,6.066A13.393,13.393,0,0,1,2.413,2.955c1.24-1.023,2.646.572,4.193.572S9.082,0,10.691,0s3.087,1.6,3.857,2.391" 
    transform="translate(3.125 10.068)" fill="none" stroke="#9e9e9e" stroke-linecap="round" stroke-linejoin="round" stroke-width="1.5" fill-rule="evenodd"/>
  </g>
</svg>