<svg id="Iconly_Bold_Voice" data-name="Iconly/Bold/Voice" xmlns="http://www.w3.org/2000/svg" width="24" height="24" viewBox="0 0 24 24">
  <rect id="Iconly_Bold_Voice-2" data-name="Iconly/Bold/Voice" width="24" height="24" fill="none"/>
  <g id="Group">
    <g id="Union">
      <path id="Vector" d="M17,.957A8.442,8.442,0,0,1,9.469,9.291v1.926a.969.969,0,0,1-1.937,0V9.291A8.443,8.443,0,0,1,0,.957.962.962,0,0,1,.969,0a.962.962,0,0,1,.969.957,6.563,6.563,0,0,0,13.125,0A.969.969,0,0,1,17,.957Z" transform="translate(3.5 9.826)" fill="#35383f"/>
      <path id="Vector-2" data-name="Vector" d="M0,8.92V4.3A4.324,4.324,0,0,1,4.351,0H4.7A4.325,4.325,0,0,1,9.054,4.3V8.92a4.326,4.326,0,0,1-4.352,4.3h-.35A4.325,4.325,0,0,1,0,8.92Z" transform="translate(7.474 2)" fill="#35383f"/>
    </g>
  </g>
</svg>
