<svg xmlns="http://www.w3.org/2000/svg" xmlns:xlink="http://www.w3.org/1999/xlink" viewBox="0 0 41.22 20.97">
  <defs>
    <clipPath id="clip-path">
      <rect id="Rectangle_100" data-name="Rectangle 100" width="24" height="20.973" fill="#e0ba22"/>
    </clipPath>
  </defs>
  <g id="Inbox_-_chat_white" data-name="Inbox - chat white" transform="translate(0 -3)">
    <g id="Group_720" data-name="Group 720" transform="translate(8.2 3)">
      <g id="Group_719" data-name="Group 719" clip-path="url(#clip-path)">
        <path id="Path_548" data-name="Path 548" d="M24,5.872c0-.026,0-.051,0-.077,0-.007,0-.015,0-.022s0-.036,0-.053,0-.018,0-.028,0-.031-.006-.047l0-.029c0-.015-.005-.03-.008-.044l-.006-.03-.01-.043-.008-.029-.012-.042L23.926,5.4l-.014-.042L23.9,5.33l-.017-.044-.01-.024-.023-.051L23.845,5.2q-.016-.033-.033-.064l-.007-.012-.029-.05-.013-.021-.025-.039-.016-.023L23.7,4.95l-.018-.024-.026-.033-.019-.023-.027-.032-.02-.022-.029-.03-.021-.021-.031-.03-.021-.019-.036-.031-.018-.016-.05-.039-.006-.005-.058-.041L23.3,4.571l-.042-.027-.024-.014-.038-.022-.026-.014-.038-.019L23.1,4.462l-.038-.017-.029-.012L23,4.417l-.029-.011-.04-.014L22.9,4.383l-.043-.012-.027-.007-.05-.012-.022,0-.072-.013L19.647.578a1.554,1.554,0,0,0-.533-.424l-.006,0-.044-.02L19.029.116l-.012,0A1.557,1.557,0,0,0,18.437,0H5.568A1.548,1.548,0,0,0,4.351.586L1.365,4.331H1.358l-.028,0-.044.008-.03.006-.042.01-.03.008-.041.011-.029.009-.04.013-.029.01-.04.016L.978,4.44l-.04.018L.913,4.47l-.042.021L.849,4.5.8,4.533l-.009.005-.061.038-.015.01-.044.031-.02.015L.612,4.66.59,4.678l-.033.028-.022.02-.031.029-.021.021-.029.03-.02.022-.028.031-.019.022-.027.033-.017.022-.027.037L.3,4.994l-.029.044-.01.015q-.019.03-.037.062L.22,5.127l-.028.052L.182,5.2l-.02.042L.151,5.27l-.017.04-.011.028-.014.04-.01.03-.012.04-.008.03-.01.041-.007.031c0,.014-.006.028-.008.042l-.005.03c0,.015,0,.03-.006.044s0,.019,0,.029,0,.033,0,.05,0,.016,0,.025c0,.025,0,.05,0,.075L0,7.43s0,0,0,0,0,0,0,0v.88a2.776,2.776,0,0,0,1.369,2.391v9.326h-.9a.469.469,0,0,0,0,.937H23.531a.469.469,0,1,0,0-.937h-.9V17.5a.469.469,0,0,0-.938,0v2.532H8.87V13.068A.469.469,0,0,0,8.4,12.6H4.269a.469.469,0,0,0-.469.469v6.968H2.306V11.054l.033,0,.035.005.092.012.046,0,.083.006.051,0,.092,0h.055l.1,0,.041,0,.112-.009.036,0,.089-.011.037-.005.108-.019.04-.008.091-.021L3.483,11l.1-.027.039-.012.1-.034.032-.012.08-.032.035-.014.1-.044L4,10.809l.079-.041.03-.016.088-.051.034-.021.089-.057.026-.018.07-.05.03-.022.083-.065.029-.024.067-.058.022-.019c.026-.024.052-.049.077-.074l.027-.027c.025-.025.05-.051.074-.078l.018-.021L4.9,10.1l.023-.027q.034-.042.066-.084l.02-.028.053-.074.016-.023,0,0,0,0L5.1,9.89l.052.073.02.027q.032.043.066.084l.024.028.06.07.019.021c.023.025.047.05.072.075l.027.027q.038.037.077.073l.023.021.066.057.028.024.083.065.03.022.071.05.025.017.09.057.034.021.093.053.026.014.078.04.035.017.1.044.035.014.081.032.031.012.1.035.039.012.1.028.034.009.091.021.039.008.108.019.037.005.089.011.036,0,.112.009.041,0,.1,0h.036l.1,0,.041,0,.112-.009.036,0,.089-.011.037-.005.108-.019.039-.008.091-.021L8.1,11l.1-.027.039-.012.1-.035.032-.012.081-.032.034-.014.1-.044.035-.017.08-.041.028-.015.089-.052.034-.02.09-.058.026-.018.071-.051.029-.022.083-.066.028-.024.068-.059.021-.019c.026-.024.052-.049.078-.074l.027-.027c.025-.026.05-.051.074-.078l.018-.02.06-.069.023-.027q.034-.042.067-.085l.02-.027.053-.075.016-.023,0,0,0,0,.015.021.054.076.019.026q.033.043.067.085l.022.026.061.07.017.019c.024.027.05.053.075.079l.026.026c.026.025.052.05.078.075l.02.018.069.06.027.023.084.066.029.021.072.051.025.017.09.058.033.02.091.052.026.014.081.041.034.017.1.044.034.014.081.032.031.012.1.035.038.012.1.027.034.009.092.021.039.008.108.019.036.005.089.011.036,0,.112.009.041,0,.1,0h.036l.1,0,.041,0,.112-.009.036,0,.089-.011.036-.005.108-.019.039-.008.092-.021L12.707,11l.1-.027.038-.012.1-.035.031-.012.081-.032.034-.014.1-.044.035-.017.08-.041.027-.015.09-.052.033-.02.09-.058.025-.018.072-.051.029-.022.084-.066.028-.023.068-.059.021-.019c.026-.024.052-.049.078-.074l.027-.027c.025-.026.05-.052.074-.078l.018-.02.06-.069.023-.027q.034-.042.067-.085l.02-.027.053-.075.016-.023,0,0,0,0,.013.019q.027.04.056.079l.018.025q.033.044.068.087l.021.025.063.072.015.017c.025.027.05.053.076.08l.025.025c.026.026.052.051.079.076l.019.017.07.061.027.022.085.066.028.021.073.052.024.017.091.058.033.02.092.053.026.014.081.042.034.017.1.044.034.014.081.032.031.012.1.035.038.012.1.027.034.009.092.021.039.008.108.019.037.005.089.011.036,0,.112.009.041,0,.1,0h.036l.1,0,.041,0,.112-.009.036,0,.089-.011.036-.005.108-.019.039-.008.093-.021L17.319,11l.1-.028.038-.012.1-.035.031-.012.082-.032.033-.014.1-.044.034-.016.082-.042.025-.013.092-.053.032-.02.091-.058.024-.017.073-.052.028-.021.084-.066.027-.022.07-.06.019-.017c.027-.024.053-.05.079-.075l.026-.026c.026-.026.051-.052.075-.079l.017-.019.061-.071.022-.026q.034-.042.067-.086l.019-.026.055-.077.014-.021,0,0,0,0,.015.021.054.076.02.026q.033.043.067.085l.022.026.061.07.017.019c.024.027.05.053.075.079l.026.026c.026.025.052.05.078.075l.02.018.069.06.027.023.084.066.029.021.072.052.025.017.09.058.033.02.091.052.026.014.081.042.034.017.1.044.033.014.082.032.031.012.1.035.038.012.1.028.033.009.092.021.039.008.108.019.036.005.089.011.036,0,.112.009.041,0,.1,0h.055l.092,0,.051,0,.083-.006.046,0,.092-.012.035-.005.033,0v2.332a.469.469,0,0,0,.938,0V10.71A2.776,2.776,0,0,0,24,8.319v-.88h0ZM4.738,13.537H7.932v6.5H4.738Zm11.875-3.381a1.836,1.836,0,0,1-1.838-1.837V7.907H18.45v.412a1.836,1.836,0,0,1-1.837,1.837M1.584,5.253h3V6.969H.946l.02-1.108a.622.622,0,0,1,.619-.608m20.86,0a.619.619,0,0,1,.619.619v1.1H19.388V5.253ZM13.332.938l.083.638.357,2.741H10.222l.4-3.378ZM18.45,6.969H14.775V5.253H18.45ZM10.163,5.253h3.675V6.969H10.163ZM9.225,6.969h-3.7V5.253h3.7ZM16.292.938,18.13,4.316H14.718l-.083-.638L14.278.938ZM5.55,8.319s0-.008,0-.012l-.011-.4H9.225v.411a1.837,1.837,0,1,1-3.675,0m8.287,0a1.837,1.837,0,0,1-3.675,0h0V7.907h3.675v.411h0m4.6-7.381a.616.616,0,0,1,.481.23l2.544,3.148H19.2L17.359.938ZM9.278,4.316H5.85L7.707.938H9.681ZM6.637.938,4.781,4.316h-2.2L5.084,1.17,5.1,1.151A.615.615,0,0,1,5.568.938ZM.938,7.907H4.6l.011.414c0,.019,0,.039,0,.058s0,.024,0,.036,0,.04,0,.061,0,.022,0,.032-.005.042-.008.063,0,.019,0,.028-.008.044-.012.066,0,.016,0,.024c0,.023-.01.046-.016.069l0,.02c-.006.024-.013.048-.02.072l0,.015c-.008.025-.016.05-.025.074l0,.011c-.01.026-.02.052-.03.077l0,.006q-.017.04-.036.079v0a1.84,1.84,0,0,1-1.656,1.041,1.87,1.87,0,0,1-.19-.01l-.062-.008-.029,0-.088-.016h0a1.841,1.841,0,0,1-1.468-1.8Zm22.125.412a1.841,1.841,0,0,1-1.467,1.8h0l-.086.015-.031,0-.06.008a1.872,1.872,0,0,1-.191.01,1.84,1.84,0,0,1-1.837-1.837V7.907h3.675Z" transform="translate(0 0)" fill="#febb1b"/>
        <path id="Path_549" data-name="Path 549" d="M292.337,381.873h-2.543a.469.469,0,0,0-.469.469v3.11h-.114a.469.469,0,1,0,0,.937h3.707a.469.469,0,0,0,0-.937h-.114v-3.11a.469.469,0,0,0-.469-.469m-2.074.937h1.605v2.641h-1.605Z" transform="translate(-278.592 -368.448)" fill="#febb1b"/>
        <path id="Path_550" data-name="Path 550" d="M457.433,381.873H454.89a.469.469,0,0,0-.469.469v3.11h-.113a.469.469,0,1,0,0,.937h3.707a.469.469,0,1,0,0-.937H457.9v-3.11a.469.469,0,0,0-.469-.469m-2.074.937h1.605v2.641h-1.605Z" transform="translate(-437.884 -368.448)" fill="#febb1b"/>
        <path id="Path_551" data-name="Path 551" d="M150.054,465.711a.45.45,0,0,0-.027-.088.456.456,0,0,0-.043-.081.409.409,0,0,0-.027-.037c-.01-.012-.02-.023-.031-.034s-.022-.021-.034-.031a.412.412,0,0,0-.037-.027.478.478,0,0,0-.168-.07l-.046-.007a.447.447,0,0,0-.092,0l-.045.007a.46.46,0,0,0-.088.027.467.467,0,0,0-.081.043.409.409,0,0,0-.037.027c-.012.01-.024.02-.034.031s-.021.022-.031.034-.019.024-.027.037a.458.458,0,0,0-.043.081.477.477,0,0,0-.027.088c0,.015-.005.03-.007.046s0,.031,0,.046,0,.031,0,.046,0,.031.007.045a.488.488,0,0,0,.027.088.47.47,0,0,0,.043.081c.008.013.018.025.027.037s.02.023.031.034.022.021.034.031l.037.027a.466.466,0,0,0,.081.043.483.483,0,0,0,.088.027l.045.007.046,0,.046,0,.046-.007a.471.471,0,0,0,.088-.027.452.452,0,0,0,.081-.043l.037-.027c.012-.01.024-.02.034-.031a.406.406,0,0,0,.031-.034c.01-.012.019-.024.027-.037a.468.468,0,0,0,.043-.081.46.46,0,0,0,.027-.088.393.393,0,0,0,.007-.045c0-.015,0-.031,0-.046s0-.031,0-.046a.4.4,0,0,0-.007-.046" transform="translate(-143.883 -448.974)" fill="#febb1b"/>
        <path id="Path_552" data-name="Path 552" d="M618,424.7a.517.517,0,0,0-.027-.088.508.508,0,0,0-.043-.081.448.448,0,0,0-.027-.037.348.348,0,0,0-.031-.034.4.4,0,0,0-.034-.031.43.43,0,0,0-.037-.027.5.5,0,0,0-.081-.043.477.477,0,0,0-.088-.027l-.046-.007a.447.447,0,0,0-.092,0l-.045.007a.486.486,0,0,0-.088.027.494.494,0,0,0-.081.043.387.387,0,0,0-.037.027.409.409,0,0,0-.035.031c-.01.011-.021.022-.031.034s-.019.024-.027.037a.513.513,0,0,0-.043.081.481.481,0,0,0-.027.088c0,.015-.005.03-.007.045a.439.439,0,0,0,0,.092c0,.015,0,.03.007.045a.472.472,0,0,0,.027.088.486.486,0,0,0,.043.081.409.409,0,0,0,.027.037.4.4,0,0,0,.031.034.351.351,0,0,0,.034.031.43.43,0,0,0,.037.027.47.47,0,0,0,.169.07l.045.007.046,0,.046,0,.046-.007a.476.476,0,0,0,.169-.07.43.43,0,0,0,.037-.027.466.466,0,0,0,.065-.065.4.4,0,0,0,.027-.037.482.482,0,0,0,.043-.081.507.507,0,0,0,.027-.088c0-.015.005-.03.007-.045a.439.439,0,0,0,0-.092c0-.015,0-.03-.007-.045" transform="translate(-595.373 -409.406)" fill="#febb1b"/>
      </g>
    </g>
  </g>
</svg>