<svg id="Heart" xmlns="http://www.w3.org/2000/svg" width="24" height="24" viewBox="0 0 24 24">
  <rect id="Iconly_Broken_Heart" data-name="Iconly/Broken/Heart" width="24" height="24" fill="none"/>
  <g id="Heart-2" data-name="Heart" transform="translate(2 2.5)">
    <g id="Heart-3" data-name="Heart" transform="translate(0)">
      <path id="Path_34119" d="M19.571,9.454a12.518,12.518,0,0,1-2.965,4.764,23.865,23.865,0,0,1-2.815,2.472l-.053.045a.724.724,0,0,1-1.006-.2.748.748,0,0,1-.128-.559.739.739,0,0,1,.3-.483,23.352,23.352,0,0,0,2.647-2.328A10.946,10.946,0,0,0,18.2,8.986a6.345,6.345,0,0,0-.3-4.8,4.78,4.78,0,0,0-2.85-2.445,5.042,5.042,0,0,0-4.615.818.73.73,0,0,1-.882,0,5.033,5.033,0,0,0-4.615-.818A4.778,4.778,0,0,0,2.065,4.177a6.4,6.4,0,0,0-.282,4.782A10.981,10.981,0,0,0,4.429,13.13a33.042,33.042,0,0,0,5.753,4.495.763.763,0,0,1,.287.838A.743.743,0,0,1,9.776,19a.705.705,0,0,1-.406-.126,34.307,34.307,0,0,1-5.991-4.683A12.364,12.364,0,0,1,.406,9.427,7.945,7.945,0,0,1,.776,3.494,6.208,6.208,0,0,1,4.491.3a6.565,6.565,0,0,1,5.515.737A6.565,6.565,0,0,1,15.521.3a6.208,6.208,0,0,1,3.715,3.191,7.9,7.9,0,0,1,.335,5.96Z" transform="translate(0 0)" fill="#fff"/>
      <path id="Path_34120" d="M.349,1.4A.762.762,0,0,1,.037.519.741.741,0,0,1,.8,0,3.466,3.466,0,0,1,3.172,3.014h0a.747.747,0,0,1-.148.549.72.72,0,0,1-.488.278.744.744,0,0,1-.829-.647A1.972,1.972,0,0,0,.349,1.4Z" transform="translate(13.09 3.995)" fill="#fff"/>
    </g>
  </g>
</svg>
