<svg xmlns="http://www.w3.org/2000/svg" id="Inbox-chat" viewBox="19.2 2 20 20">  
  <g id="Iconly_Bold_Chat" data-name="Iconly/Bold/Chat" transform="translate(17.2)">    
    <rect id="Iconly_Bold_Chat-2" data-name="Iconly/Bold/Chat" width="24" height="24" fill="none"></rect>    
    <g id="Chat">     
      <path id="Chat-2" data-name="Chat" d="M12,22A9.948,9.948,0,0,1,7.08,20.7a2.172,2.172,0,0,0-1.108-.424,1.213,1.213,0,0,0-.383.063l-2.02.6a.756.756,0,0,1-.226.036.62.62,0,0,1-.5-.239.647.647,0,0,1-.093-.577l.67-2.244a1.046,1.046,0,0,0-.07-.9,10.571,10.571,0,0,1-1.35-5A10.157,10.157,0,0,1,4.831,5.032,10,10,0,0,1,22,11.985a10.136,10.136,0,0,1-.865,4.171,9.6,9.6,0,0,1-2.275,3.153A10.245,10.245,0,0,1,12,22Zm4.59-11.256a1.282,1.282,0,1,0,1.281,1.282A1.282,1.282,0,0,0,16.59,10.743Zm-4.627,0A1.268,1.268,0,0,0,10.7,12.015a1.28,1.28,0,1,0,1.28-1.272h-.018Zm-4.592,0a1.282,1.282,0,0,0,0,2.564,1.3,1.3,0,0,0,1.28-1.283A1.282,1.282,0,0,0,7.37,10.743Z" fill="#e0ba22"></path>    
    </g>  
  </g>
</svg>
