<svg id="Chat" xmlns="http://www.w3.org/2000/svg" width="24" height="24" viewBox="0 0 24 24">
  <rect id="Iconly_Broken_Chat" data-name="Iconly/Broken/Chat" width="24" height="24" fill="none"/>
  <g id="Chat-2" data-name="Chat">
    <g id="Chat-3" data-name="Chat">
      <path id="Fill_1" data-name="Fill 1" d="M18.848,14.662A10.027,10.027,0,0,1,10,20a9.926,9.926,0,0,1-2.148-.235A.749.749,0,1,1,8.172,18.3,8.5,8.5,0,1,0,10.006,1.5H10A8.5,8.5,0,0,0,2.46,13.931l.192.375a1.963,1.963,0,0,1,.135,1.483,17.122,17.122,0,0,0-.53,1.632C2.818,17.252,3.5,17,4,16.822l.2-.073a.748.748,0,0,1,.509,1.408l-.2.073a23.753,23.753,0,0,1-2.441.791.768.768,0,0,1-.178.018A1.207,1.207,0,0,1,1,18.7a1.311,1.311,0,0,1-.336-1,.767.767,0,0,1,.019-.147,17.512,17.512,0,0,1,.69-2.246.47.47,0,0,0-.049-.309l-.193-.374A10,10,0,0,1,10,0h.011a10,10,0,0,1,8.841,14.662Z" transform="translate(2 2)" fill="#fff"/>
      <path id="Fill_4" data-name="Fill 4" d="M2.378,1.189A1.189,1.189,0,1,1,1.189,0,1.19,1.19,0,0,1,2.378,1.189Z" transform="translate(6.403 10.81)" fill="#fff"/>
      <path id="Fill_6" data-name="Fill 6" d="M1.189,2.379A1.189,1.189,0,1,1,2.378,1.189,1.19,1.19,0,0,1,1.189,2.379Z" transform="translate(10.807 10.809)" fill="#fff"/>
      <path id="Fill_8" data-name="Fill 8" d="M1.189,2.379A1.189,1.189,0,1,1,2.378,1.189,1.19,1.19,0,0,1,1.189,2.379Z" transform="translate(15.21 10.809)" fill="#fff"/>
    </g>
  </g>
</svg>
