<svg xmlns="http://www.w3.org/2000/svg" viewBox="16.8 0 24 24.83">  <g id="Trip_gold" data-name="Trip gold" transform="translate(0 1)">    <g id="road_2" data-name="road 2" transform="translate(8.3 -1)">      <path id="Path_104" data-name="Path 104" d="M17.242,0a1.757,1.757,0,0,0-1.675,1.21L8.586,22.528a1.754,1.754,0,0,0,1.675,2.3h1.421L17.368,0Z" fill="#e0ba22"></path>      <path id="Path_105" data-name="Path 105" d="M112.471,0V2.311a.724.724,0,1,1-1.449,0V0h-.956l-5.623,24.824h6.576V22.513a.724.724,0,1,1,1.449,0v2.311h7.076L113.921,0Zm-1.453,6.885V4.913a.724.724,0,1,1,1.449,0V6.885a.724.724,0,1,1-1.449,0Zm1.451,2.2v2.069a.724.724,0,1,1-1.449,0V9.083a.724.724,0,1,1,1.449,0Zm-1.45,4.267a.724.724,0,1,1,1.449,0v2.069a.724.724,0,1,1-1.449,0Zm1.451,6.384a.724.724,0,1,1-1.449,0V17.665a.724.724,0,1,1,1.449,0Z" transform="translate(-91.258 0)" fill="#e0ba22"></path>      <path id="Path_106" data-name="Path 106" d="M339.821,22.559,333.28,1.241A1.751,1.751,0,0,0,331.595,0H331.5l5.686,24.824h.949a1.749,1.749,0,0,0,1.415-.708A1.73,1.73,0,0,0,339.821,22.559Z" transform="translate(-307.4 0)" fill="#e0ba22"></path>    </g>  </g></svg>
