<svg xmlns="http://www.w3.org/2000/svg" width="24.814" height="25.667" viewBox="0 0 24.814 25.667">
  <g id="Group_167" data-name="Group 167" transform="translate(-2022 -883)">
    <g id="road_outline" data-name="road outline" transform="translate(2022 883)">
      <path id="Path_122" data-name="Path 122" d="M33.239,23.325,26.523,1.283A1.8,1.8,0,0,0,24.793,0H17.479a1.8,1.8,0,0,0-1.72,1.251L8.593,23.293a1.82,1.82,0,0,0,.257,1.628,1.789,1.789,0,0,0,1.462.746h21.2a1.812,1.812,0,0,0,1.73-2.342Zm-12.345-1.3a.752.752,0,0,0-.752.752v1.387H14.158L19.311,1.5h.834V2.891a.752.752,0,0,0,1.5,0V1.5h1.346l5.153,22.659h-6.5V22.776A.752.752,0,0,0,20.894,22.024ZM10.068,24.037a.305.305,0,0,1-.044-.279L17.19,1.716a.3.3,0,0,1,.29-.212h.289L12.615,24.163h-2.3A.3.3,0,0,1,10.068,24.037Zm21.685,0a.3.3,0,0,1-.244.123H29.691L24.537,1.5h.255a.3.3,0,0,1,.291.218L31.8,23.763A.305.305,0,0,1,31.752,24.039Z" transform="translate(-8.505 0)" fill="#fff"/>
      <path id="Path_123" data-name="Path 123" d="M242.2,350.089a.752.752,0,0,0-1.5,0v2.139a.752.752,0,0,0,1.5,0Z" transform="translate(-229.058 -331.825)" fill="#fff"/>
      <path id="Path_124" data-name="Path 124" d="M241.394,263.98a.752.752,0,0,0,.752-.752v-2.139a.752.752,0,0,0-1.5,0v2.139A.752.752,0,0,0,241.394,263.98Z" transform="translate(-229.005 -247.286)" fill="#fff"/>
      <path id="Path_125" data-name="Path 125" d="M241.422,172.337a.752.752,0,0,0-.752.752v2.139a.752.752,0,0,0,1.5,0v-2.139A.752.752,0,0,0,241.422,172.337Z" transform="translate(-229.032 -163.698)" fill="#fff"/>
      <path id="Path_126" data-name="Path 126" d="M241.365,89.879a.752.752,0,0,0,.752-.752V87.089a.752.752,0,1,0-1.5,0v2.038A.752.752,0,0,0,241.365,89.879Z" transform="translate(-228.977 -82.009)" fill="#fff"/>
    </g>
  </g>
</svg>
