<svg xmlns="http://www.w3.org/2000/svg" id="Search_gold" data-name="Search gold" viewBox="16 20 20 20">  <g id="Search" transform="translate(13,15)">    <rect id="Iconly_Broken_Search" data-name="Iconly/Broken/Search" width="24" height="24" fill="none"></rect>    <g id="Iconly_Bold_Search" data-name="Iconly/Bold/Search" transform="translate(1 3)">      <rect id="Iconly_Bold_Search-2" data-name="Iconly/Bold/Search" width="24" height="24" fill="none"></rect>      <g id="Search-2" data-name="Search">        <g id="Search-3" data-name="Search">          <path id="Search_-_Bd" data-name="Search - Bd" d="M14.643,2.539A8.717,8.717,0,0,1,17.155,8.67a8.624,8.624,0,0,1-8.578,8.67A8.624,8.624,0,0,1,0,8.67,8.624,8.624,0,0,1,8.578,0a8.532,8.532,0,0,1,6.065,2.539Z" transform="translate(2 2)" fill="#e0ba22"></path>          <path id="Path_33905" d="M4.3,2.35a1.348,1.348,0,0,1,0,1.892,1.314,1.314,0,0,1-1.872,0L.313,1.812h0a1.084,1.084,0,0,1,0-1.524.986.986,0,0,1,1.393,0L4.26,2.35Z" transform="translate(17.308 17.366)" fill="#e0ba22"></path>        </g>      </g>    </g>  </g></svg>

