<svg xmlns="http://www.w3.org/2000/svg" xmlns:xlink="http://www.w3.org/1999/xlink" viewBox="0 0 41.8 16.36">  
  <defs>    
    <clipPath id="clip-path">      
      <rect id="Rectangle_101" data-name="Rectangle 101" width="25" height="16.352" fill="#fff" />
    </clipPath>  
  </defs>  
  <g id="Trip_white" data-name="Trip white" transform="translate(0 -8)">    
    <g id="Group_722" data-name="Group 722" transform="translate(8.8 8)">      
      <g id="Group_721" data-name="Group 721" clip-path="url(#clip-path)">        
        <path id="Path_553" data-name="Path 553" d="M25,3.645a1.733,1.733,0,0,0-1.731-1.731h-.074A1.727,1.727,0,0,0,21.6,2.98l-.318.765L20.2,1.274A2.115,2.115,0,0,0,18.261,0H14.894a.532.532,0,1,0,0,1.063h3.367a1.052,1.052,0,0,1,.965.632L20.47,4.552H4.617L5.861,1.7a1.052,1.052,0,0,1,.965-.632h3.391a.532.532,0,1,0,0-1.063H6.826a2.115,2.115,0,0,0-1.94,1.271L3.765,3.847,3.4,2.98a1.727,1.727,0,0,0-1.6-1.067H1.731a1.731,1.731,0,1,0,0,3.463H2.79l-.874.914a2.34,2.34,0,0,0-.641,1.823l.314,3.576c0,.025.005.051.008.076a1.876,1.876,0,0,0-.012.206V14.49a1.867,1.867,0,0,0,1.865,1.865h1.26A1.868,1.868,0,0,0,6.577,14.49v-1.02q2.988.178,5.987.178,2.954,0,5.9-.173V14.49a1.868,1.868,0,0,0,1.866,1.865h1.26a1.867,1.867,0,0,0,1.865-1.865V12.177A1.288,1.288,0,0,0,23.486,12l.342-3.89a2.341,2.341,0,0,0-.641-1.823h0l-.874-.914h.956A1.733,1.733,0,0,0,25,3.645m-2.423-.257a.666.666,0,0,1,.617-.412h.074a.668.668,0,1,1,0,1.336H22.193ZM17.626,5.615l-.692,1.978a.786.786,0,0,1-.756.429H9.006a.79.79,0,0,1-.75-.414L7.472,5.615ZM1.063,3.645a.669.669,0,0,1,.668-.668h.074a.666.666,0,0,1,.617.412l.384.925H1.731a.669.669,0,0,1-.668-.668M5.514,14.49a.8.8,0,0,1-.8.8H3.451a.8.8,0,0,1-.8-.8V13.1a1.665,1.665,0,0,0,.444.1l.074.007q1.172.11,2.347.192Zm9.636-2.209a.256.256,0,0,1-.256.256H10.411a.256.256,0,0,1-.256-.256v-.725a.256.256,0,0,1,.256-.256h4.483a.256.256,0,0,1,.256.256Zm7.243,2.209a.8.8,0,0,1-.8.8h-1.26a.8.8,0,0,1-.8-.8V13.406q1.36-.094,2.716-.225l.048,0,.032,0,.069-.009Zm.374-6.47-.342,3.89a.225.225,0,0,1-.02.075l0,0a.223.223,0,0,1-.015.026l-.005.008a.219.219,0,0,1-.021.025v0l0,0-.023.02-.013.009-.019.011-.018.008-.019.007a.225.225,0,0,1-.041.008h-.01c-1.081.1-2.174.192-3.25.26l-.036,0q-1.366.087-2.736.137a1.33,1.33,0,0,0,.022-.238v-.725a1.321,1.321,0,0,0-1.319-1.319H10.411a1.321,1.321,0,0,0-1.319,1.319v.725a1.318,1.318,0,0,0,.023.244q-1.507-.052-3.01-.15l-.024,0c-.961-.063-1.926-.139-2.87-.227a.627.627,0,0,1-.554-.5l0-.013c0-.013,0-.026-.005-.039L2.334,8.02a1.277,1.277,0,0,1,.35-.995L4.033,5.615h2.3L7.267,8A1.84,1.84,0,0,0,9.006,9.087h7.173a1.819,1.819,0,0,0,1.759-1.142l.815-2.329H21.07l1.349,1.409a1.278,1.278,0,0,1,.35.995" transform="translate(0 -0.003)" fill="#fff" />
        <path id="Path_554" data-name="Path 554" d="M338.266,182.75l-2.107.159a.532.532,0,0,0,.04,1.062l.041,0,2.107-.159a.532.532,0,1,0-.08-1.06" transform="translate(-317.824 -173.034)" fill="#fff" />
        <path id="Path_555" data-name="Path 555" d="M80.456,182.91l-2.107-.159a.532.532,0,1,0-.08,1.06l2.107.159.041,0a.532.532,0,0,0,.04-1.062" transform="translate(-73.643 -173.034)" fill="#fff" />
        <path id="Path_556" data-name="Path 556" d="M227.147.735a.54.54,0,0,0,.049.091.508.508,0,0,0,.066.081.533.533,0,0,0,.48.146.55.55,0,0,0,.1-.03.539.539,0,0,0,.091-.049.539.539,0,0,0,.147-.147.539.539,0,0,0,.049-.091.563.563,0,0,0,.03-.1.532.532,0,0,0,.01-.1.526.526,0,0,0-.01-.1.537.537,0,0,0-.03-.1.525.525,0,0,0-.115-.173.531.531,0,0,0-.752,0,.508.508,0,0,0-.066.081.544.544,0,0,0-.049.092.537.537,0,0,0-.03.1.525.525,0,0,0-.011.1.53.53,0,0,0,.011.1.563.563,0,0,0,.03.1" transform="translate(-215.033)" fill="#fff" />  
      </g>
    </g>
  </g>
</svg>