<svg id="Iconly_Light_Wallet" data-name="Iconly/Light/Wallet" xmlns="http://www.w3.org/2000/svg" width="24" height="24" viewBox="0 0 24 24">
  <rect id="Iconly_Light_Wallet-2" data-name="Iconly/Light/Wallet" width="24" height="24" fill="none"/>
  <g id="Group">
    <path id="Vector-2" data-name="Vector" d="M5.248,0h8.643a5.248,5.248,0,0,1,5.248,5.248v7.177a5.248,5.248,0,0,1-5.248,5.248H5.248A5.248,5.248,0,0,1,0,12.425V5.248A5.248,5.248,0,0,1,5.248,0Z" transform="translate(2.5 3)" fill="#febb1b" stroke-linecap="round" stroke-linejoin="round" stroke-width="1.5" fill-rule="evenodd"/>
    <path id="Vector" d="M6.74,5.383H2.692A2.691,2.691,0,1,1,2.692,0H6.74" transform="translate(14.898 9.013)" fill="none" stroke="#181A20" stroke-linecap="round" stroke-linejoin="round" stroke-width="1.5" fill-rule="evenodd"/>
    <path id="Line" d="M.612.456H.3" transform="translate(17.437 11.187)" fill="none" stroke="#181A20" stroke-linecap="round" stroke-linejoin="round" stroke-width="1.5" fill-rule="evenodd"/>
    <path id="Line-2" data-name="Line" d="M0,.456H5.4" transform="translate(7.036 7.082)" fill="none" stroke="#181A20" stroke-linecap="round" stroke-linejoin="round" stroke-width="1.5" fill-rule="evenodd"/>
  </g>
</svg>