<svg id="Iconly_Curved_3_User" data-name="Iconly/Curved/3 User" xmlns="http://www.w3.org/2000/svg" width="24" height="24" viewBox="0 0 24 24">
  <rect id="Iconly_Curved_3_User-2" data-name="Iconly/Curved/3 User" width="24" height="24" fill="none"/>
  <g id="Group">
    <path id="Vector" d="M6.006,6.122C2.767,6.122,0,5.632,0,3.67S2.749,0,6.006,0c3.239,0,6.006,1.692,6.006,3.653S9.263,6.122,6.006,6.122Z" transform="translate(5.966 14.246)" fill="none" stroke="#fff" stroke-linecap="round" stroke-linejoin="round" stroke-width="1.5" fill-rule="evenodd"/>
    <path id="Vector-2" data-name="Vector" d="M3.823,7.7a3.864,3.864,0,1,1,.027,0Z" transform="translate(8.122 3.75)" fill="none" stroke="#fff" stroke-linecap="round" stroke-linejoin="round" stroke-width="1.5" fill-rule="evenodd"/>
    <path id="Vector-3" data-name="Vector" d="M0,0A2.9,2.9,0,0,1,2.315,2.841a2.9,2.9,0,0,1-2.149,2.8" transform="translate(18.196 4.749)" fill="none" stroke="#fff" stroke-linecap="round" stroke-linejoin="round" stroke-width="1.5" fill-rule="evenodd"/>
    <path id="Vector-4" data-name="Vector" d="M0,0C1.754,0,3.252,1.189,3.252,2.251a1.64,1.64,0,0,1-1.3,1.49" transform="translate(18.943 13.544)" fill="none" stroke="#fff" stroke-linecap="round" stroke-linejoin="round" stroke-width="1.5" fill-rule="evenodd"/>
    <path id="Vector-5" data-name="Vector" d="M2.15,5.643A2.9,2.9,0,0,1,2.315,0" transform="translate(3.434 4.749)" fill="none" stroke="#fff" stroke-linecap="round" stroke-linejoin="round" stroke-width="1.5" fill-rule="evenodd"/>
    <path id="Vector-6" data-name="Vector" d="M1.3,3.741A1.64,1.64,0,0,1,0,2.251C0,1.189,1.5,0,3.252,0" transform="translate(1.75 13.544)" fill="none" stroke="#fff" stroke-linecap="round" stroke-linejoin="round" stroke-width="1.5" fill-rule="evenodd"/>
  </g>
</svg>
