<svg xmlns="http://www.w3.org/2000/svg" width="25" height="25" viewBox="0 0 25 25">
  <path id="speed-limit" d="M20.5,32.4A11.9,11.9,0,1,0,8.6,20.5,11.9,11.9,0,0,0,20.5,32.4Zm0,.6A12.5,12.5,0,1,0,8,20.5,12.5,12.5,0,0,0,20.5,33Zm0-2.083A10.417,10.417,0,1,0,10.083,20.5,10.417,10.417,0,0,0,20.5,30.917Zm0,.6A11.012,11.012,0,1,0,9.488,20.5,11.012,11.012,0,0,0,20.5,31.512Zm-1.006-5.5a.564.564,0,1,0,0-1.128H14.582v-.059l2.331-2.293a12.774,12.774,0,0,0,2.127-2.52,4.03,4.03,0,0,0,.568-2.015,2.655,2.655,0,0,0-.852-2.073,3.362,3.362,0,0,0-2.352-.777,4.763,4.763,0,0,0-2.8.919.5.5,0,0,0-.092.715.56.56,0,0,0,.76.1,4.2,4.2,0,0,1,.887-.479,3.618,3.618,0,0,1,1.26-.22,1.965,1.965,0,0,1,1.435.506,1.794,1.794,0,0,1,.517,1.355,3.122,3.122,0,0,1-.2,1.136,4.758,4.758,0,0,1-.612,1.084,20.732,20.732,0,0,1-1.69,1.861l-2.589,2.618a.743.743,0,0,0,.528,1.265Zm7.478-5.7a3.874,3.874,0,0,0-2.644-.843,8.436,8.436,0,0,0-1.668.169l.269-3.216h3.7a.56.56,0,0,0,0-1.121H21.9l-.4,5.011.626.4a10.813,10.813,0,0,1,1.85-.212q2.731,0,2.731,2.242a2.182,2.182,0,0,1-.714,1.758A2.955,2.955,0,0,1,24,25.107a6.336,6.336,0,0,1-1.493-.183q-.242-.061-.458-.136a.6.6,0,0,0-.809.514.443.443,0,0,0,.241.405,5.815,5.815,0,0,0,2.505.448,4.173,4.173,0,0,0,2.9-.945A3.321,3.321,0,0,0,27.94,22.6a2.869,2.869,0,0,0-.969-2.293Z" transform="translate(-8 -8)" fill="#e0ba22" fill-rule="evenodd"/>
</svg>
