<svg xmlns="http://www.w3.org/2000/svg" width="17.329" height="41.267" viewBox="0 0 17.329 41.267">
  <g id="automatic-transmission" transform="translate(-148.5)">
    <path id="Path_266" data-name="Path 266" d="M165.225,18.589a.6.6,0,0,0,.6-.6V16.16a2.542,2.542,0,0,0-2.539-2.539h-3.1V10.45a3.435,3.435,0,0,0,2.1-3.16V1.914A1.916,1.916,0,0,0,160.368,0h-6.408a1.916,1.916,0,0,0-1.914,1.914v.625a.6.6,0,0,0,1.209,0V1.914a.706.706,0,0,1,.705-.705h6.408a.706.706,0,0,1,.705.705V7.29a2.224,2.224,0,0,1-2.221,2.221h-3.376a2.224,2.224,0,0,1-2.221-2.221V5.148a.6.6,0,0,0-1.209,0V7.29a3.435,3.435,0,0,0,2.1,3.16v3.172h-3.1A2.542,2.542,0,0,0,148.5,16.16V38.728a2.542,2.542,0,0,0,2.539,2.539H163.29a2.542,2.542,0,0,0,2.539-2.539V20.634a.6.6,0,0,0-1.209,0V38.728a1.331,1.331,0,0,1-1.33,1.33H151.039a1.331,1.331,0,0,1-1.33-1.33V16.16a1.331,1.331,0,0,1,1.33-1.33h3.1v1.209h-2.3a.928.928,0,0,0-.927.927V37.922a.928.928,0,0,0,.927.927h2.745a.6.6,0,0,0,0-1.209h-2.463V17.248h2.015V31.918a3.023,3.023,0,1,0,6.045,0V17.248H162.2V37.64h-5.038a.6.6,0,0,0,0,1.209h5.32a.928.928,0,0,0,.927-.927V16.966a.928.928,0,0,0-.927-.927h-2.3V14.83h3.1a1.331,1.331,0,0,1,1.33,1.33v1.824A.6.6,0,0,0,165.225,18.589Zm-9.748-7.869h3.376c.042,0,.084,0,.126,0V22.18a1.814,1.814,0,0,1-3.627,0V10.717c.042,0,.083,0,.125,0Zm1.688,23.011a1.816,1.816,0,0,1-1.814-1.814V24.6a3.019,3.019,0,0,0,3.627,0v7.32A1.816,1.816,0,0,1,157.165,33.731Z" transform="translate(0 0)" fill="#fff"/>
  </g>
</svg>
