<svg id="Group_572" data-name="Group 572" xmlns="http://www.w3.org/2000/svg" xmlns:xlink="http://www.w3.org/1999/xlink" width="8" height="35" viewBox="0 0 8 35">
  <defs>
    <clipPath id="clip-path">
      <rect id="Rectangle_83" data-name="Rectangle 83" width="8" height="35" fill="#E0BA22"/>
    </clipPath>
  </defs>
  <g id="Group_571" data-name="Group 571" clip-path="url(#clip-path)">
    <path id="Path_443" data-name="Path 443" d="M7.077,15.441H6.434V6.434A.643.643,0,0,0,5.79,5.79V4.5a.643.643,0,0,0,.63-.772L5.777.515A.644.644,0,0,0,5.147,0H2.573a.644.644,0,0,0-.63.515L1.3,3.731a.643.643,0,0,0,.63.772V5.79a.643.643,0,0,0-.643.643v9.007H.643A.643.643,0,0,0,0,16.084v11.58a.643.643,0,0,0,.643.643v6.434a.643.643,0,0,0,.643.643H6.434a.643.643,0,0,0,.643-.643V28.308a.643.643,0,0,0,.643-.643V16.084a.643.643,0,0,0-.643-.643M3.1,1.287H4.619l.386,1.93H2.715Zm1.4,4.5H3.217V4.5H4.5ZM2.573,7.077H5.147V8.364H2.573Zm0,2.573H5.147v1.287H2.573Zm0,2.573H5.147v3.217H2.573ZM5.79,29.594H2.573v1.287H5.79v1.287H3.217v1.287H5.79V34.1H1.93v-5.79H5.79Zm.643-2.573H1.287V16.727H6.434Z" 
    fill="#E0BA22"/>
  </g>
</svg>