<svg xmlns="http://www.w3.org/2000/svg" width="27.81" height="27.596" viewBox="0 0 27.81 27.596">
  <g id="Layer_32" data-name="Layer 32" transform="translate(-0.758 -0.997)">
    <path id="Path_453" data-name="Path 453" d="M2.2,41.8v5.661h.89V41.847l.5.165.395,2.37v3.079h.89V44.7a14.109,14.109,0,0,1,6.231,0v2.759h.89V44.382l.395-2.37.5-.165v5.614h.89V41.8L15,42.106l.215-.863-1.443-.361V39.271a3.566,3.566,0,0,0-1.491-2.9,7.388,7.388,0,0,0-8.59,0,3.566,3.566,0,0,0-1.491,2.9v1.611l-1.443.361.215.863Zm2.587,2.012-.309-1.856.24-.1a8.84,8.84,0,0,1,6.536,0l.239.1-.309,1.856a14.955,14.955,0,0,0-6.4,0Zm7.553-6.142h-.794a.445.445,0,0,1-.445-.445V36.69a6.586,6.586,0,0,1,.662.411,2.655,2.655,0,0,1,.577.568Zm-2.129-1.384v.939a1.335,1.335,0,0,0,1.335,1.335h1.234a2.656,2.656,0,0,1,.1.712v1.638l-.876.292-.421-.169a9.727,9.727,0,0,0-7.2,0l-.422.169-.876-.292V39.271a2.656,2.656,0,0,1,.1-.712H4.426a1.335,1.335,0,0,0,1.335-1.335v-.939a6.449,6.449,0,0,1,4.451,0Zm-6,.814a6.586,6.586,0,0,1,.662-.409v.534a.445.445,0,0,1-.445.445H3.632a2.655,2.655,0,0,1,.577-.57Z" transform="translate(0 -18.867)" fill="#fff"/>
    <path id="Path_454" data-name="Path 454" d="M43.773,5.271a3.567,3.567,0,0,0-1.491-2.9,7.388,7.388,0,0,0-8.59,0,3.568,3.568,0,0,0-1.491,2.9V6.88l-1.443.361.215.863L32.2,7.8v6.106a11.2,11.2,0,0,0,.152,1.839l.451,2.709a2.537,2.537,0,0,0,2.512,2.128h5.341a2.537,2.537,0,0,0,2.512-2.128l.451-2.707a11.21,11.21,0,0,0,.153-1.841V7.8L45,8.106l.215-.863-1.443-.361Zm-.983,9.948-.8-.638v-4.2l.395-2.37.5-.165v6.058A10.331,10.331,0,0,1,42.79,15.219Zm-9.606,0a10.332,10.332,0,0,1-.093-1.314V7.847l.5.165.395,2.37v4.2Zm1.3-7.265.24-.1a8.84,8.84,0,0,1,6.536,0l.239.1-.309,1.856a14.967,14.967,0,0,0-6.4,0Zm.392,2.746a14.074,14.074,0,0,1,6.231,0v3.746l-.148.037a14.291,14.291,0,0,1-5.936,0l-.148-.036Zm0,4.662a15.2,15.2,0,0,0,6.231,0v.767a.89.89,0,0,1-.89.89H35.762a.89.89,0,0,1-.89-.89Zm7.47-11.694h-.794a.445.445,0,0,1-.445-.445V2.69a6.506,6.506,0,0,1,.662.41,2.676,2.676,0,0,1,.577.569ZM40.212,2.285v.939a1.335,1.335,0,0,0,1.335,1.335h1.234a2.656,2.656,0,0,1,.1.712V6.907l-.876.292-.421-.168a9.736,9.736,0,0,0-7.2,0l-.421.168-.876-.291V5.271a2.656,2.656,0,0,1,.1-.712h1.234a1.335,1.335,0,0,0,1.335-1.335V2.285a6.449,6.449,0,0,1,4.451,0Zm-6,.814a6.505,6.505,0,0,1,.662-.409v.534a.445.445,0,0,1-.445.445h-.794A2.655,2.655,0,0,1,34.21,3.1Zm8.082,15.209a1.651,1.651,0,0,1-1.634,1.384H35.317a1.651,1.651,0,0,1-1.634-1.384l-.345-2.071.644-.515v.409a1.78,1.78,0,0,0,1.78,1.78h4.451a1.78,1.78,0,0,0,1.78-1.78v-.409l.644.515Z" transform="translate(-16.648)" fill="#fff"/>
    <path id="Path_455" data-name="Path 455" d="M29.78,24.89a.89.89,0,0,1-.89-.89H28a1.78,1.78,0,0,0,1.78,1.78Z" transform="translate(-15.117 -12.765)" fill="#fff"/>
    <path id="Path_456" data-name="Path 456" d="M27.561,26.67A2.673,2.673,0,0,1,24.89,24H24a3.565,3.565,0,0,0,3.561,3.561Z" transform="translate(-12.897 -12.765)" fill="#fff"/>
    <path id="Path_457" data-name="Path 457" d="M20.89,24H20a5.347,5.347,0,0,0,5.341,5.341v-.89A4.456,4.456,0,0,1,20.89,24Z" transform="translate(-10.678 -12.765)" fill="#fff"/>
  </g>
</svg>
