<svg xmlns="http://www.w3.org/2000/svg" width="20.806" height="41.267" viewBox="0 0 20.806 41.267">
  <g id="bluetooth" transform="translate(-126.934 0)">
    <g id="Group_414" data-name="Group 414" transform="translate(138.041 7.975)">
      <g id="Group_413" data-name="Group 413" transform="translate(0)">
        <path id="Path_258" data-name="Path 258" d="M269.595,102.937l-3.818-3.818a.6.6,0,0,0-1.032.427v1.717a.6.6,0,0,0,1.209,0v-.257l2.358,2.358-2.358,2.358v-1.875a.6.6,0,0,0-1.209,0v3.335a.6.6,0,0,0,1.032.427l3.818-3.818A.6.6,0,0,0,269.595,102.937Z" transform="translate(-264.745 -98.942)" fill="#E0BA22"/>
      </g>
    </g>
    <g id="Group_416" data-name="Group 416" transform="translate(126.934 0)">
      <g id="Group_415" data-name="Group 415" transform="translate(0)">
        <path id="Path_259" data-name="Path 259" d="M140.259,20.634l6.946-6.946a1.825,1.825,0,0,0,0-2.58L136.454.356a1.215,1.215,0,0,0-2.073.859V14.756l-3.649-3.649a1.215,1.215,0,0,0-1.718,0l-1.725,1.725a1.216,1.216,0,0,0,0,1.718l6.083,6.084-6.083,6.083a1.216,1.216,0,0,0,0,1.718l1.725,1.725a1.215,1.215,0,0,0,1.718,0l3.649-3.649V40.052a1.214,1.214,0,0,0,2.073.859L147.2,30.16a1.825,1.825,0,0,0,0-2.581Zm6.091,8.672L135.6,40.059h0s-.01,0-.009,0a.035.035,0,0,1,0-.007v-15a.6.6,0,0,0-1.032-.428l-4.689,4.681-1.725-1.733,6.511-6.511a.6.6,0,0,0,0-.855l-6.511-6.519,1.733-1.725,4.681,4.681a.6.6,0,0,0,1.032-.428l0-15s.009-.005.012,0L146.35,11.962a.616.616,0,0,1,0,.871l-7.374,7.374a.6.6,0,0,0,0,.855l7.374,7.373a.616.616,0,0,1,0,.871Z" 
        transform="translate(-126.934 0)" fill="#E0BA22"/>
      </g>
    </g>
    <g id="Group_418" data-name="Group 418" transform="translate(138.041 24.448)">
      <g id="Group_417" data-name="Group 417">
        <path id="Path_260" data-name="Path 260" d="M269.594,307.315l-3.818-3.818a.6.6,0,0,0-1.032.427v1.4a.6.6,0,0,0,1.206.06l2.361,2.361-2.358,2.358v-2.2a.6.6,0,1,0-1.209,0v3.655a.6.6,0,0,0,1.032.427l3.818-3.818A.6.6,0,0,0,269.594,307.315Z" transform="translate(-264.744 -303.32)" fill="#E0BA22"/>
      </g>
    </g>
  </g>
</svg>