<svg xmlns="http://www.w3.org/2000/svg" width="17.865" height="36.601" viewBox="0 0 17.865 36.601">
  <g id="usb-cable" transform="translate(-131.049)">
    <path id="Path_231" data-name="Path 231" d="M146.987,9.345h-6.469V1.072h4.669a.855.855,0,0,1,.854.854V7.371a.536.536,0,1,0,1.072,0V1.927A1.929,1.929,0,0,0,145.187,0H134.776a1.929,1.929,0,0,0-1.927,1.927V9.35a1.929,1.929,0,0,0-1.8,1.922V21.858a6.256,6.256,0,0,0,5.712,6.225v1.136a1.45,1.45,0,0,0,1.128,1.412v4.941a1.031,1.031,0,0,0,1.029,1.029h2.125a1.031,1.031,0,0,0,1.029-1.029V30.631a1.45,1.45,0,0,0,1.128-1.412V28.083a6.256,6.256,0,0,0,5.712-6.225V11.271a1.929,1.929,0,0,0-1.927-1.927ZM133.921,1.927a.855.855,0,0,1,.854-.854h4.669V9.345h-5.524ZM141,35.529h-2.039V30.667H141Zm6.84-13.671a5.182,5.182,0,0,1-5.176,5.176H139.8a.536.536,0,1,0,0,1.072h2.325v1.113a.376.376,0,0,1-.376.376h-3.544a.376.376,0,0,1-.376-.376V27.57a.536.536,0,0,0-.536-.536,5.182,5.182,0,0,1-5.176-5.176V11.271a.855.855,0,0,1,.854-.854h14.011a.855.855,0,0,1,.854.854V21.858Z" fill="#E0BA22"/>
    <path id="Path_232" data-name="Path 232" d="M229.653,179.711h-4.781a.736.736,0,1,0,0,1.472h4.781a.736.736,0,1,0,0-1.472Z" transform="translate(-87.281 -167.009)" fill="#E0BA22"/>
    <path id="Path_233" data-name="Path 233" d="M195.4,32.753h-1.59a.736.736,0,0,0,0,1.472h1.59a.736.736,0,1,0,0-1.472Z" transform="translate(-57.824 -29.539)" fill="#E0BA22"/>
    <path id="Path_234" data-name="Path 234" d="M288.455,32.753a.736.736,0,1,0,0,1.472h1.591a.736.736,0,0,0,0-1.472Z" transform="translate(-146.066 -29.539)" fill="#E0BA22"/>
  </g>
</svg>
