<svg xmlns="http://www.w3.org/2000/svg" width="23.81" height="18" viewBox="0 0 23.81 18">
  <g id="gopro" transform="translate(0 -62.471)">
    <g id="Group_575" data-name="Group 575" transform="translate(11.764 64.71)">
      <g id="Group_574" data-name="Group 574" transform="translate(0 0)">
        <path id="Path_444" data-name="Path 444" d="M262.787,110.61h-9.472a.349.349,0,0,0-.349.349v8.135a.349.349,0,0,0,.349.349h9.472a.349.349,0,0,0,.349-.349v-8.135A.349.349,0,0,0,262.787,110.61Zm-.349,8.135h-8.774v-7.437h8.774Z" 
        transform="translate(-252.966 -110.61)" fill="#E0BA22"/>
      </g>
    </g>
    <g id="Group_577" data-name="Group 577" transform="translate(13.715 65.992)">
      <g id="Group_576" data-name="Group 576" transform="translate(0 0)">
        <path id="Path_445" data-name="Path 445" d="M298.055,138.188a3.134,3.134,0,1,0,3.134,3.134A3.137,3.137,0,0,0,298.055,138.188Zm0,5.57a2.436,2.436,0,1,1,2.436-2.436A2.439,2.439,0,0,1,298.055,143.758Z" 
        transform="translate(-294.921 -138.188)" fill="#E0BA22"/>
      </g>
    </g>
    <g id="Group_579" data-name="Group 579" transform="translate(15.563 67.84)">
      <g id="Group_578" data-name="Group 578">
        <path id="Path_446" data-name="Path 446" d="M335.949,177.931a1.285,1.285,0,1,0,1.285,1.285A1.287,1.287,0,0,0,335.949,177.931Zm0,1.873a.588.588,0,1,1,.588-.588A.588.588,0,0,1,335.949,179.8Z" 
        transform="translate(-334.664 -177.931)" fill="#E0BA22"/>
      </g>
    </g>
    <g id="Group_581" data-name="Group 581" transform="translate(1.749 65.715)">
      <g id="Group_580" data-name="Group 580" transform="translate(0 0)">
        <path id="Path_447" data-name="Path 447" d="M44.348,132.219H37.959a.349.349,0,0,0-.349.349v6.57a.349.349,0,0,0,.349.349h6.389a.349.349,0,0,0,.349-.349v-6.57A.349.349,0,0,0,44.348,132.219ZM44,138.789H38.308v-5.873H44Z" 
        transform="translate(-37.61 -132.219)" fill="#E0BA22"/>
      </g>
    </g>
    <g id="Group_583" data-name="Group 583" transform="translate(3.115 67.117)">
      <g id="Group_582" data-name="Group 582">
        <path id="Path_448" data-name="Path 448" d="M67.339,162.38a.349.349,0,0,0-.349.349v1.242a.349.349,0,0,0,.7,0v-1.242A.349.349,0,0,0,67.339,162.38Z" 
        transform="translate(-66.99 -162.38)" fill="#E0BA22"/>
      </g>
    </g>
    <g id="Group_585" data-name="Group 585" transform="translate(3.115 69.641)">
      <g id="Group_584" data-name="Group 584" transform="translate(0 0)">
        <path id="Path_449" data-name="Path 449" d="M67.339,216.646a.349.349,0,0,0-.349.349v1.241a.349.349,0,1,0,.7,0v-1.241A.349.349,0,0,0,67.339,216.646Z" 
        transform="translate(-66.99 -216.646)" fill="#E0BA22"/>
      </g>
    </g>
    <g id="Group_587" data-name="Group 587" transform="translate(3.187 73.795)">
      <g id="Group_586" data-name="Group 586" transform="translate(0 0)">
        <path id="Path_450" data-name="Path 450" d="M70.644,305.97a2.105,2.105,0,1,0,2.105,2.105A2.107,2.107,0,0,0,70.644,305.97Zm0,3.512a1.407,1.407,0,1,1,1.407-1.407A1.409,1.409,0,0,1,70.644,309.482Z" 
        transform="translate(-68.539 -305.97)" fill="#E0BA22"/>
      </g>
    </g>
    <g id="Group_589" data-name="Group 589" transform="translate(14.826 76.832)">
      <g id="Group_588" data-name="Group 588" transform="translate(0 0)">
        <path id="Path_451" data-name="Path 451" d="M324.1,371.282h-4.938a.349.349,0,1,0,0,.7H324.1a.349.349,0,1,0,0-.7Z" 
        transform="translate(-318.815 -371.282)" fill="#E0BA22"/>
      </g>
    </g>
    <g id="Group_591" data-name="Group 591" transform="translate(0 62.471)">
      <g id="Group_590" data-name="Group 590" transform="translate(0 0)">
        <path id="Path_452" data-name="Path 452" d="M22.094,62.833H14.608a.349.349,0,0,0,0,.7h7.486a1.02,1.02,0,0,1,1.019,1.019V73.7a1.02,1.02,0,0,1-1.019,1.019H11.6A1.02,1.02,0,0,1,10.585,73.7V64.55A1.02,1.02,0,0,1,11.6,63.53h1.609a.349.349,0,0,0,0-.7H11.6A1.72,1.72,0,0,0,9.923,64.2h-2.5v-.456a1.275,1.275,0,0,0-1.274-1.274H3.986a1.275,1.275,0,0,0-1.274,1.274V64.2H1.557A1.559,1.559,0,0,0,0,65.758V78.914a1.559,1.559,0,0,0,1.557,1.557H20.885a1.559,1.559,0,0,0,1.557-1.557V75.383A1.72,1.72,0,0,0,23.81,73.7V64.55A1.719,1.719,0,0,0,22.094,62.833Zm-18.684.912a.577.577,0,0,1,.576-.576H6.152a.577.577,0,0,1,.576.576V64.2H3.409ZM21.745,78.914a.86.86,0,0,1-.859.859H1.557A.86.86,0,0,1,.7,78.914V65.758a.86.86,0,0,1,.859-.859h8.33v8.8a1.733,1.733,0,0,0,.009.175,1.7,1.7,0,0,0,.1.414q.015.039.031.078a1.727,1.727,0,0,0,.914.914q.077.033.158.058a1.7,1.7,0,0,0,.164.042,1.716,1.716,0,0,0,.346.035H21.745v3.5Z" 
        transform="translate(0 -62.471)" fill="#E0BA22"/>
      </g>
    </g>
  </g>
</svg>
