<svg id="Group_802" data-name="Group 802" xmlns="http://www.w3.org/2000/svg" xmlns:xlink="http://www.w3.org/1999/xlink" width="24.587" height="31.597" viewBox="0 0 24.587 31.597">
  <defs>
    <clipPath id="clip-path">
      <rect id="Rectangle_108" data-name="Rectangle 108" width="24.587" height="31.597" fill="#fff"/>
    </clipPath>
  </defs>
  <g id="Group_801" data-name="Group 801" clip-path="url(#clip-path)">
    <path id="Path_617" data-name="Path 617" d="M24.529,21.233a1.675,1.675,0,0,0-.785-1.024l-.554-.32a2.424,2.424,0,0,0-1.882-.235,59.4,59.4,0,0,1,1.3-11.12,6.428,6.428,0,0,0-1.1-5.581C19.863.966,16.738-.027,12.22,0,7.7-.027,4.577.966,2.934,2.952a6.428,6.428,0,0,0-1.1,5.582c.256,1.3.463,2.459.634,3.548a.463.463,0,1,0,.914-.144c-.173-1.1-.383-2.273-.641-3.583a5.554,5.554,0,0,1,.9-4.813A6.555,6.555,0,0,1,6.818,1.594a17.928,17.928,0,0,1,5.4-.668h.006a17.934,17.934,0,0,1,5.4.668,6.555,6.555,0,0,1,3.171,1.948,5.553,5.553,0,0,1,.9,4.812,58.615,58.615,0,0,0-1.309,11.8,2.458,2.458,0,0,0-.388.426l-.972,1.353a14.138,14.138,0,0,0,.329-1.874,57.136,57.136,0,0,0-.591-7.738,10.073,10.073,0,0,0-1.448-4.1.834.834,0,0,0,.154-.444,8.225,8.225,0,0,0-.378-2.768,3.111,3.111,0,0,0-3-2.231H10.345a3.111,3.111,0,0,0-3,2.231A8.229,8.229,0,0,0,6.97,7.774a.833.833,0,0,0,.154.443,10.063,10.063,0,0,0-1.448,4.1,56.851,56.851,0,0,0-.591,7.738,11.849,11.849,0,0,0,.262,1.577l-.758-1.055a2.448,2.448,0,0,0-.534-.541,43.852,43.852,0,0,0-.368-5.944.463.463,0,0,0-.919.114,44,44,0,0,1,.364,5.412,2.426,2.426,0,0,0-1.736.273l-.554.32a1.686,1.686,0,0,0-.617,2.3l1.925,3.333a4.161,4.161,0,0,0,.79.984,8.587,8.587,0,0,0,2.244,4.408,1.082,1.082,0,0,0,.805.36h7.651a.463.463,0,1,0,0-.926H5.991a.155.155,0,0,1-.116-.052,8.653,8.653,0,0,1-1.824-3.057,4.172,4.172,0,0,0,1.721.372H18.814a4.167,4.167,0,0,0,1.554-.3,8.617,8.617,0,0,1-1.8,2.986.155.155,0,0,1-.116.052H15.8a.463.463,0,1,0,0,.926h2.646a1.082,1.082,0,0,0,.8-.359,8.747,8.747,0,0,0,2.224-4.262,4.166,4.166,0,0,0,.958-1.13l1.925-3.333a1.675,1.675,0,0,0,.169-1.279M18.431,20a21.968,21.968,0,0,1-.624,3.046l-.059,0H13.736v-2.4a3.1,3.1,0,0,0,2.233-2.97v-.232a1.42,1.42,0,0,0-.556-1.126l1.262-7.366a9.167,9.167,0,0,1,1.169,3.481A56.665,56.665,0,0,1,18.431,20m-6.8.769h1.182v2.279H11.629Zm2.9-4.746h-1.2L14.6,8.565h1.2Zm-2.143,0h-.324L10.781,8.565h2.878ZM9.841,8.565l1.277,7.454h-1.2L8.638,8.565ZM9.4,17.441a.5.5,0,0,1,.5-.5h4.656a.5.5,0,0,1,.5.5v.232a2.169,2.169,0,0,1-2.167,2.167H11.563A2.169,2.169,0,0,1,9.4,17.673ZM8.235,5.272h0A2.191,2.191,0,0,1,10.345,3.7H14.1A2.191,2.191,0,0,1,16.2,5.272a7.391,7.391,0,0,1,.344,2.367H7.891a7.393,7.393,0,0,1,.344-2.367M6.6,12.43A9.157,9.157,0,0,1,7.764,8.948l1.262,7.367a1.42,1.42,0,0,0-.556,1.126v.232a3.1,3.1,0,0,0,2.233,2.97v2.4H6.838a.925.925,0,0,1-.212-.025A21.838,21.838,0,0,1,6.009,20,56.367,56.367,0,0,1,6.6,12.43m16.964,9.619-1.925,3.333a3.265,3.265,0,0,1-2.819,1.627H5.773a3.264,3.264,0,0,1-2.819-1.627L1.028,22.049a.76.76,0,0,1,.278-1.038l.554-.32a1.5,1.5,0,0,1,1.483-.014l.036.02a1.51,1.51,0,0,1,.458.42l1.5,2.082a1.853,1.853,0,0,0,.677.576.468.468,0,0,0,.058.028,1.852,1.852,0,0,0,.77.169h10.91a1.847,1.847,0,0,0,.547-.083.464.464,0,0,0,.074-.025,1.856,1.856,0,0,0,.885-.664l1.5-2.082a1.514,1.514,0,0,1,.346-.347l.038-.026a1.5,1.5,0,0,1,1.593-.053l.554.32h0a.76.76,0,0,1,.278,1.038" transform="translate(0 0.001)" fill="#fff"/>
  </g>
</svg>
