<svg xmlns="http://www.w3.org/2000/svg" width="25" height="34.133" viewBox="0 0 25 34.133">
  <g id="gps" transform="translate(-68.5)">
    <path id="Path_261" data-name="Path 261" d="M91.3,99.877A12.465,12.465,0,0,0,85.9,95.5a4.994,4.994,0,0,0-4.9-4c-.133,0-.267.005-.4.016a.5.5,0,1,0,.079.988c.106-.008.214-.012.32-.012a3.985,3.985,0,0,1,4,3.963c0,3.494-3,6.517-4,7.422-.995-.9-4-3.921-4-7.422a3.955,3.955,0,0,1,1.745-3.275.493.493,0,0,0,.131-.689.5.5,0,0,0-.695-.13A4.955,4.955,0,0,0,76.1,95.5a12.465,12.465,0,0,0-5.4,4.377,12.309,12.309,0,0,0-.039,13.989.5.5,0,0,0,.695.131.493.493,0,0,0,.132-.689,11.3,11.3,0,0,1-1.409-2.826,9.5,9.5,0,0,0,2.188,1.662,13.722,13.722,0,0,0,1.917.892,13.55,13.55,0,0,0,1.2,2.534,9.705,9.705,0,0,0,1.64,2.034,11.479,11.479,0,0,1-4.11-2.593.5.5,0,0,0-.707,0,.493.493,0,0,0,0,.7A12.523,12.523,0,0,0,93.5,106.9,12.248,12.248,0,0,0,91.3,99.877Zm-6.316,13.452a.5.5,0,0,0,.487.385.506.506,0,0,0,.113-.013q.514-.117,1-.258a12.084,12.084,0,0,1-.827,1.61,6.139,6.139,0,0,1-4.259,3.216V114.2c.584-.013,1.165-.049,1.735-.109a.5.5,0,1,0-.1-.986c-.535.056-1.082.09-1.631.1v-5.809h6.327a17.353,17.353,0,0,1-.8,4.869,16.533,16.533,0,0,1-1.665.471A.5.5,0,0,0,84.984,113.329ZM69.537,106.4c.256-1.735,1.843-3.328,4.258-4.406a18.754,18.754,0,0,0-.622,4.406Zm5.448-4.872a16.858,16.858,0,0,1,2.327-.607,14.3,14.3,0,0,0,1.361,1.954,2.8,2.8,0,0,0-.539,1.659,2.84,2.84,0,0,0,.7,1.867H74.174A17.508,17.508,0,0,1,74.985,101.531Zm1.853-1.524q-.73.148-1.416.346a11.858,11.858,0,0,1,.9-1.73A9.747,9.747,0,0,0,76.837,100.007Zm7.851.917a16.837,16.837,0,0,1,2.341.612,17.393,17.393,0,0,1,.8,4.868H83.168a2.841,2.841,0,0,0,.7-1.867,2.8,2.8,0,0,0-.539-1.659,14.3,14.3,0,0,0,1.361-1.954Zm.993-2.3a11.771,11.771,0,0,1,.909,1.737q-.691-.2-1.429-.35a9.749,9.749,0,0,0,.519-1.388Zm3.145,7.783A18.757,18.757,0,0,0,88.2,102c2.416,1.079,4,2.671,4.258,4.406Zm-8.327.991v5.81a18.522,18.522,0,0,1-5.524-.938,17.349,17.349,0,0,1-.8-4.871Zm8.327,0h3.637a4.874,4.874,0,0,1-1.893,2.979A10.332,10.332,0,0,1,88.2,111.8,18.719,18.719,0,0,0,88.827,107.394Zm3.1-4.069a8.527,8.527,0,0,0-1.055-.929,12.377,12.377,0,0,0-3.054-1.633,12.6,12.6,0,0,0-1.868-3.49q.036-.32.044-.648A11.367,11.367,0,0,1,91.928,103.326Zm-11.244,1.595a.5.5,0,0,0,.631,0,14.038,14.038,0,0,0,1.328-1.263,1.828,1.828,0,0,1,.223.879,1.867,1.867,0,1,1-3.733,0,1.828,1.828,0,0,1,.223-.879A14.053,14.053,0,0,0,80.685,104.921ZM76,96.627q.008.327.044.647a12.6,12.6,0,0,0-1.869,3.49,12.375,12.375,0,0,0-3.054,1.633,8.537,8.537,0,0,0-1.055.929A11.367,11.367,0,0,1,76,96.627Zm-3.242,14.655c-1.89-1.072-3.017-2.437-3.227-3.887h3.637A18.712,18.712,0,0,0,73.8,111.8Q73.257,111.561,72.763,111.282Zm3.478,3.77a12.068,12.068,0,0,1-.826-1.608,20.026,20.026,0,0,0,5.085.752v4.073A6.138,6.138,0,0,1,76.241,115.052Zm8.739,2.543a9.713,9.713,0,0,0,1.632-2.026,13.551,13.551,0,0,0,1.2-2.533,10.981,10.981,0,0,0,4.1-2.549A11.5,11.5,0,0,1,84.98,117.595Z" transform="translate(0 -85.157)" fill="#fff"/>
    <path id="Path_262" data-name="Path 262" d="M217.075,128.238a.52.52,0,0,0,.735-.008,3,3,0,1,0-2.685.855.52.52,0,0,0,.185-1.023,1.965,1.965,0,1,1,1.757-.559A.52.52,0,0,0,217.075,128.238Z" transform="translate(-134.663 -114.982)" fill="#fff"/>
    <path id="Path_263" data-name="Path 263" d="M199.146,2.333a4.4,4.4,0,0,1,6.23,0,.52.52,0,0,0,.736-.735,5.438,5.438,0,0,0-7.7,0,.52.52,0,0,0,.736.735Z" transform="translate(-121.261)" fill="#fff"/>
    <path id="Path_264" data-name="Path 264" d="M224.9,31.233a.52.52,0,0,0,.34-.914,3.583,3.583,0,0,0-4.561,0,.52.52,0,1,0,.679.788,2.545,2.545,0,0,1,3.2,0A.518.518,0,0,0,224.9,31.233Z" transform="translate(-141.961 -27.455)" fill="#fff"/>
    <path id="Path_265" data-name="Path 265" d="M238.829,59.5a.654.654,0,0,1,.848.008.52.52,0,1,0,.6-.852,1.681,1.681,0,0,0-2.063.008.52.52,0,0,0,.619.836Z" transform="translate(-158.248 -54.268)" fill="#fff"/>
  </g>
</svg>
