<svg xmlns="http://www.w3.org/2000/svg" width="40.962" height="42" viewBox="0 0 40.962 42">
  <g id="heat" transform="translate(0 -1.811)">
    <path id="Path_256" data-name="Path 256" d="M381.806,387.445a2.156,2.156,0,1,1-2.086,2.155A2.124,2.124,0,0,1,381.806,387.445Zm0,3.07a.916.916,0,1,0-.887-.916A.9.9,0,0,0,381.806,390.515Z" transform="translate(-373.31 -353.775)" fill="#fff"/>
    <path id="Path_257" data-name="Path 257" d="M.8,3.1A3.417,3.417,0,0,1,3.469,1.811a8.007,8.007,0,0,1,7.7,6.133,61.557,61.557,0,0,1,1.757,18.942l4.621-.417a11.609,11.609,0,0,0,.268-1.933,1.568,1.568,0,0,1-2.063.118,1.693,1.693,0,0,1-.318-2.318l2.517-3.456a1.573,1.573,0,0,1,2.576.019l2.442,3.456a1.686,1.686,0,0,1,.289,1.232,1.654,1.654,0,0,1-.639,1.082,1.557,1.557,0,0,1-1.61.168c-.028.448-.076.894-.143,1.332l5.676-.512c.056-.368.095-.744.115-1.121a1.568,1.568,0,0,1-2.063.118,1.693,1.693,0,0,1-.318-2.318l2.517-3.456a1.573,1.573,0,0,1,2.576.019l2.442,3.456a1.686,1.686,0,0,1,.289,1.232,1.654,1.654,0,0,1-.639,1.082,1.557,1.557,0,0,1-1.61.168c-.018.3-.047.6-.083.891a5.534,5.534,0,0,1,2.578,1.608A5.808,5.808,0,0,1,33.7,29.872c.284-.468.553-.914.8-1.357h0a9.8,9.8,0,0,0,1-3.979,1.568,1.568,0,0,1-2.063.118,1.656,1.656,0,0,1-.624-1.091,1.685,1.685,0,0,1,.306-1.227l2.517-3.456a1.588,1.588,0,0,1,1.276-.661h.017a1.6,1.6,0,0,1,1.283.68l2.442,3.456a1.686,1.686,0,0,1,.289,1.232,1.654,1.654,0,0,1-.639,1.082,1.557,1.557,0,0,1-1.61.168,13.074,13.074,0,0,1-1.41,5.31c-.294.537-.616,1.067-.928,1.582-1.027,1.694-2,3.294-2,5a6.327,6.327,0,0,0,1.72,4.4,1.683,1.683,0,0,1,.331,1.22,1.658,1.658,0,0,1-.6,1.1,1.568,1.568,0,0,1-2.251-.279,11.4,11.4,0,0,1-1.9-3.249H26.376c.252.406.544.791.858,1.2a1.694,1.694,0,0,1-.271,2.324,1.568,1.568,0,0,1-2.251-.279,11.4,11.4,0,0,1-1.9-3.249H17.534c.252.406.544.791.858,1.2a1.683,1.683,0,0,1,.331,1.22,1.658,1.658,0,0,1-.6,1.1,1.568,1.568,0,0,1-2.251-.279,11.4,11.4,0,0,1-1.9-3.249H5.122a.61.61,0,0,1-.6-.62V35.825a4.18,4.18,0,0,1,.534-2.051l-3.7-20.527a.618.618,0,0,1,.48-.722.6.6,0,0,1,.7.5L6.062,32.584a3.866,3.866,0,0,1,4.976.09A59.58,59.58,0,0,0,10.006,8.258,6.8,6.8,0,0,0,3.469,3.05,2.235,2.235,0,0,0,1.724,3.9a2.392,2.392,0,0,0-.486,1.926l.79,4.381a.618.618,0,0,1-.48.722.6.6,0,0,1-.7-.5L.059,6.049A3.658,3.658,0,0,1,.8,3.1ZM11.271,35.825A2.824,2.824,0,0,0,8.5,32.96a2.824,2.824,0,0,0-2.774,2.865V38.69h5.549ZM34.5,42.412a.4.4,0,0,0,.318.159.391.391,0,0,0,.248-.089.426.426,0,0,0,.068-.585,7.523,7.523,0,0,1-1.976-5.165c0-2.065,1.059-3.811,2.181-5.662.3-.5.619-1.021.9-1.534a11.921,11.921,0,0,0,1.271-5.055,9.683,9.683,0,0,0-.03-1.154.621.621,0,0,1,.39-.63.583.583,0,0,1,.208-.039.594.594,0,0,1,.485.255l.469.664a.4.4,0,0,0,.327.171.391.391,0,0,0,.237-.08.426.426,0,0,0,.088-.582l-2.442-3.456a.4.4,0,0,0-.325-.171.389.389,0,0,0-.323.166l-2.517,3.456A.424.424,0,0,0,34,23.39a.417.417,0,0,0,.157.275.4.4,0,0,0,.565-.083l.821-1.127a.59.59,0,0,1,.639-.225.614.614,0,0,1,.437.532,11.9,11.9,0,0,1,.086,1.684,11.21,11.21,0,0,1-1.167,4.68c-.273.5-.57.987-.884,1.5-1.079,1.78-2.3,3.8-2.3,6.1A8.324,8.324,0,0,0,34.5,42.412ZM31.328,38.69a10.19,10.19,0,0,1-.173-1.658H25.521a6.034,6.034,0,0,0,.272,1.658Zm-5.672,3.722a.4.4,0,0,0,.318.159.391.391,0,0,0,.248-.089.426.426,0,0,0,.068-.585,7.523,7.523,0,0,1-1.976-5.165,8.82,8.82,0,0,1,1.363-4.28.59.59,0,0,1,.82-.225.631.631,0,0,1,.218.847,9.339,9.339,0,0,0-1.106,2.718h5.6a11.4,11.4,0,0,1,1.446-4.137,4.588,4.588,0,0,0-1.18-3.47,4.349,4.349,0,0,0-1.906-1.227,11.641,11.641,0,0,1-1.126,3.188c-.086.157-.178.319-.28.5a.589.589,0,0,1-.823.214.631.631,0,0,1-.207-.85c.1-.168.184-.322.266-.471a11.922,11.922,0,0,0,1.271-5.055,9.684,9.684,0,0,0-.03-1.154.621.621,0,0,1,.39-.63.589.589,0,0,1,.693.216l.469.664a.4.4,0,0,0,.327.171.391.391,0,0,0,.237-.08.426.426,0,0,0,.088-.582L28.4,19.63a.4.4,0,0,0-.325-.171.389.389,0,0,0-.323.166l-2.517,3.456a.426.426,0,0,0,.08.583.4.4,0,0,0,.565-.082l.821-1.127a.59.59,0,0,1,.639-.225.614.614,0,0,1,.437.532,11.888,11.888,0,0,1,.086,1.684,11.21,11.21,0,0,1-1.167,4.68c-.273.5-.57.987-.884,1.5-1.079,1.78-2.3,3.8-2.3,6.1A8.326,8.326,0,0,0,25.656,42.412Zm-.862-12.44c.307-.506.6-.983.857-1.458a7.487,7.487,0,0,0,.622-1.59l-5.657.511A11.232,11.232,0,0,1,19.6,30.147c-.294.537-.616,1.067-.928,1.582a13.248,13.248,0,0,0-1.9,4.063h5.6a14.625,14.625,0,0,1,2.43-5.82ZM22.485,38.69a10.2,10.2,0,0,1-.173-1.658H16.678a6.034,6.034,0,0,0,.272,1.658Zm-5.672,3.722a.4.4,0,0,0,.318.159.391.391,0,0,0,.248-.089.426.426,0,0,0,.068-.585,7.523,7.523,0,0,1-1.976-5.165c0-2.064,1.059-3.811,2.181-5.662.3-.5.619-1.021.9-1.534a11.923,11.923,0,0,0,1.271-5.055,9.683,9.683,0,0,0-.03-1.154.621.621,0,0,1,.39-.63.583.583,0,0,1,.208-.039.594.594,0,0,1,.485.255l.469.664a.4.4,0,0,0,.327.171.391.391,0,0,0,.237-.08A.426.426,0,0,0,22,23.086l-2.442-3.456a.4.4,0,0,0-.325-.171.388.388,0,0,0-.323.166l-2.517,3.456a.426.426,0,0,0,.08.583.4.4,0,0,0,.565-.082l.821-1.127a.59.59,0,0,1,.639-.225.614.614,0,0,1,.437.532,11.884,11.884,0,0,1,.086,1.684,11.21,11.21,0,0,1-1.167,4.68c-.273.5-.57.987-.883,1.5h0c-1.079,1.78-2.3,3.8-2.3,6.1A8.325,8.325,0,0,0,16.814,42.412ZM12.471,38.69h1.172a10.2,10.2,0,0,1-.173-1.658h-1V38.69Zm0-2.9h1.052a14.624,14.624,0,0,1,2.43-5.82h0c.307-.506.6-.983.857-1.458a6.362,6.362,0,0,0,.352-.767l-4.33.391a57.73,57.73,0,0,1-.8,5.812,4.185,4.185,0,0,1,.44,1.843Z" transform="translate(0)" fill="#fff"/>
  </g>
</svg>
