<svg id="Group_807" data-name="Group 807" xmlns="http://www.w3.org/2000/svg" xmlns:xlink="http://www.w3.org/1999/xlink" width="30" height="30" viewBox="0 0 30 30">
  <defs>
    <clipPath id="clip-path">
      <rect id="Rectangle_110" data-name="Rectangle 110" width="30" height="30" fill="#fff"/>
    </clipPath>
  </defs>
  <g id="Group_806" data-name="Group 806" clip-path="url(#clip-path)">
    <path id="Path_621" data-name="Path 621" d="M105.62,469.6l-3.729,3.729a.586.586,0,1,0,.829.829l3.729-3.729a.586.586,0,0,0-.829-.829" transform="translate(-97.25 -448.799)" fill="#fff"/>
    <path id="Path_622" data-name="Path 622" d="M470.013,106.621a.584.584,0,0,0,.414-.172l3.729-3.729a.586.586,0,0,0-.829-.829l-3.729,3.729a.586.586,0,0,0,.414,1" transform="translate(-448.798 -97.25)" fill="#fff"/>
    <path id="Path_623" data-name="Path 623" d="M105.62,106.45a.586.586,0,1,0,.829-.829l-3.729-3.729a.586.586,0,0,0-.829.829Z" transform="translate(-97.25 -97.251)" fill="#fff"/>
    <path id="Path_624" data-name="Path 624" d="M470.427,469.6a.586.586,0,0,0-.829.829l3.729,3.729a.586.586,0,0,0,.829-.829Z" transform="translate(-448.798 -448.799)" fill="#fff"/>
    <path id="Path_625" data-name="Path 625" d="M405.657,513.132a.586.586,0,0,0-1.083.448l1.345,3.248A.586.586,0,1,0,407,516.38Z" transform="translate(-386.752 -490.236)" fill="#fff"/>
    <path id="Path_626" data-name="Path 626" d="M222.24,73.375a.586.586,0,0,0,1.083-.448l-1.345-3.248a.586.586,0,0,0-1.083.448Z" transform="translate(-211.144 -66.27)" fill="#fff"/>
    <path id="Path_627" data-name="Path 627" d="M73.692,404.893a.586.586,0,0,0-.766-.317l-3.248,1.345A.586.586,0,1,0,70.127,407l3.248-1.345a.586.586,0,0,0,.317-.766" transform="translate(-66.27 -386.754)" fill="#fff"/>
    <path id="Path_628" data-name="Path 628" d="M512.815,223.007a.585.585,0,0,0,.766.317l3.248-1.345a.586.586,0,0,0-.448-1.083l-3.248,1.345a.586.586,0,0,0-.317.766" transform="translate(-490.237 -211.146)" fill="#fff"/>
    <path id="Path_629" data-name="Path 629" d="M516.828,405.921l-3.248-1.345a.586.586,0,0,0-.448,1.083L516.379,407a.586.586,0,0,0,.448-1.083" transform="translate(-490.236 -386.753)" fill="#fff"/>
    <path id="Path_630" data-name="Path 630" d="M69.678,221.976l3.248,1.345a.586.586,0,1,0,.448-1.083l-3.248-1.345a.586.586,0,1,0-.448,1.083" transform="translate(-66.27 -211.144)" fill="#fff"/>
    <path id="Path_631" data-name="Path 631" d="M223.005,512.814a.586.586,0,0,0-.766.317l-1.345,3.248a.586.586,0,1,0,1.083.448l1.345-3.248a.586.586,0,0,0-.317-.766" transform="translate(-211.144 -490.236)" fill="#fff"/>
    <path id="Path_632" data-name="Path 632" d="M404.892,73.692a.585.585,0,0,0,.766-.317L407,70.127a.586.586,0,0,0-1.083-.448l-1.345,3.248a.586.586,0,0,0,.317.766" transform="translate(-386.753 -66.271)" fill="#fff"/>
    <path id="Path_633" data-name="Path 633" d="M328.586,528a.586.586,0,0,0-.586.586v5.625a.586.586,0,1,0,1.172,0v-5.625a.586.586,0,0,0-.586-.586" transform="translate(-313.586 -504.798)" fill="#fff"/>
    <path id="Path_634" data-name="Path 634" d="M328.586,6.8a.586.586,0,0,0,.586-.586V.586a.586.586,0,1,0-1.172,0V6.211a.586.586,0,0,0,.586.586" transform="translate(-313.586)" fill="#fff"/>
    <path id="Path_635" data-name="Path 635" d="M6.8,328.587A.586.586,0,0,0,6.211,328H.586a.586.586,0,1,0,0,1.172H6.211a.586.586,0,0,0,.586-.586" transform="translate(0 -313.587)" fill="#fff"/>
    <path id="Path_636" data-name="Path 636" d="M534.211,328h-5.625a.586.586,0,0,0,0,1.172h5.625a.586.586,0,0,0,0-1.172" transform="translate(-504.797 -313.586)" fill="#fff"/>
    <path id="Path_637" data-name="Path 637" d="M414.5,413.92a.586.586,0,1,0-.586.586.586.586,0,0,0,.586-.586" transform="translate(-395.169 -395.17)" fill="#fff"/>
    <path id="Path_638" data-name="Path 638" d="M219.72,213.86a5.853,5.853,0,1,0-4.23,5.63.586.586,0,1,0-.325-1.126,4.682,4.682,0,1,1,3.2-3.2.586.586,0,1,0,1.126.325,5.869,5.869,0,0,0,.23-1.629" transform="translate(-198.86 -198.86)" fill="#fff"/>
  </g>
</svg>
