<svg xmlns="http://www.w3.org/2000/svg" width="23" height="13.417" viewBox="0 0 23 13.417">
  <g id="usb-port" transform="translate(0 -106.667)">
    <g id="Group_593" data-name="Group 593" transform="translate(0 106.667)">
      <g id="Group_592" data-name="Group 592">
        <path id="Path_462" data-name="Path 462" d="M21.083,106.667H1.917A1.919,1.919,0,0,0,0,108.584v9.583a1.919,1.919,0,0,0,1.917,1.917H21.083A1.919,1.919,0,0,0,23,118.167v-9.583A1.919,1.919,0,0,0,21.083,106.667Zm.958,11.5a.959.959,0,0,1-.958.958H1.917a.959.959,0,0,1-.958-.958v-9.583a.959.959,0,0,1,.958-.958H21.083a.959.959,0,0,1,.958.958Z" transform="translate(0 -106.667)" fill="#fff"/>
        <path id="Path_463" data-name="Path 463" d="M79.812,170.667H65.437A1.439,1.439,0,0,0,64,172.1V176.9a1.439,1.439,0,0,0,1.437,1.438H79.812A1.439,1.439,0,0,0,81.25,176.9V172.1A1.439,1.439,0,0,0,79.812,170.667Zm.479,6.229a.48.48,0,0,1-.479.479H65.437a.48.48,0,0,1-.479-.479V172.1a.48.48,0,0,1,.479-.479H79.812a.48.48,0,0,1,.479.479Z" transform="translate(-61.125 -167.792)" fill="#fff"/>
        <path id="Path_464" data-name="Path 464" d="M119.6,213.333H107.145a.479.479,0,0,0-.479.479v1.917a.479.479,0,0,0,.479.479h1.437a.479.479,0,0,0,.958,0h1.917a.479.479,0,1,0,.958,0h1.917a.479.479,0,1,0,.958,0h1.917a.479.479,0,1,0,.958,0H119.6a.479.479,0,0,0,.479-.479v-1.917A.479.479,0,0,0,119.6,213.333Zm-.479,1.917h-11.5v-.958h11.5Z" transform="translate(-101.874 -208.541)" fill="#fff"/>
      </g>
    </g>
  </g>
</svg>
