<svg xmlns="http://www.w3.org/2000/svg" width="31.344" height="34" viewBox="0 0 31.344 34">
  <g id="wheel-alignment" transform="translate(-20)">
    <path id="Path_274" data-name="Path 274" d="M47.568,9.62h2.64a1.138,1.138,0,0,0,1.136-1.136V1.136A1.138,1.138,0,0,0,50.207,0h-2.64a1.138,1.138,0,0,0-1.136,1.136V2.645H45.254a.5.5,0,0,0-.5.5V3.5H39.222L38.6,1.8A1.255,1.255,0,0,0,37.422.985h-.787a.5.5,0,0,0,0,1h.787a.255.255,0,0,1,.239.166l.65,1.76a.255.255,0,0,1,.016.088V6.423a.255.255,0,0,1-.254.254h-4.8a.255.255,0,0,1-.254-.254V3.995a.254.254,0,0,1,.016-.088l.65-1.76a.255.255,0,0,1,.239-.166h.788a.5.5,0,0,0,0-1h-.788a1.255,1.255,0,0,0-1.173.817l-.627,1.7H26.587V3.143a.5.5,0,0,0-.5-.5H24.913V1.136A1.138,1.138,0,0,0,23.776,0h-2.64A1.138,1.138,0,0,0,20,1.136V8.484A1.138,1.138,0,0,0,21.136,9.62h2.64a1.138,1.138,0,0,0,1.136-1.136V6.975h1.177a.5.5,0,0,0,.5-.5V6.12h5.434v.3a1.252,1.252,0,0,0,1.25,1.25h.861v5.418a1.062,1.062,0,0,0-.876,1.044v1.091a.064.064,0,0,1-.021.047l-.36.33a1.063,1.063,0,0,0-.344.782v.829a.5.5,0,1,0,1,0v-.829a.064.064,0,0,1,.021-.047l.36-.33a1.063,1.063,0,0,0,.344-.782V14.136a.064.064,0,0,1,.064-.064h2.709a.064.064,0,0,1,.064.064v1.091a1.063,1.063,0,0,0,.344.782l.36.33a.064.064,0,0,1,.021.047v5.032a.064.064,0,0,1-.064.064H33.592a.064.064,0,0,1-.064-.064V19.141a.5.5,0,1,0-1,0v2.277a1.062,1.062,0,0,0,1.06,1.06h.541v5.4H26.587v-.357a.5.5,0,0,0-.5-.5H24.913V25.516a1.138,1.138,0,0,0-1.136-1.136h-2.64A1.138,1.138,0,0,0,20,25.516v7.347A1.138,1.138,0,0,0,21.136,34h2.64a1.138,1.138,0,0,0,1.136-1.137V31.355h1.177a.5.5,0,0,0,.5-.5V30.5H40.274a.5.5,0,1,0,0-1H26.587v-.627H44.756V29.5H42.2a.5.5,0,1,0,0,1h2.557v.357a.5.5,0,0,0,.5.5h1.177v1.509A1.138,1.138,0,0,0,47.568,34h2.64a1.138,1.138,0,0,0,1.136-1.137V25.516a1.138,1.138,0,0,0-1.136-1.136h-2.64a1.138,1.138,0,0,0-1.136,1.136v1.509H45.254a.5.5,0,0,0-.5.5v.357H37.211v-5.4h.541a1.062,1.062,0,0,0,1.06-1.06V16.386a1.063,1.063,0,0,0-.344-.782l-.36-.33a.065.065,0,0,1-.021-.047V14.136a1.062,1.062,0,0,0-.876-1.044V7.673h.861a1.252,1.252,0,0,0,1.25-1.25v-.3h5.434v.357a.5.5,0,0,0,.5.5h1.177V8.484A1.138,1.138,0,0,0,47.568,9.62Zm-23.791-1h-2.64a.141.141,0,0,1-.14-.14V8.378l.119.053a.5.5,0,0,0,.406-.91L21,7.287v-.9l.119.053a.5.5,0,0,0,.406-.91L21,5.3V4.4l.119.053a.5.5,0,0,0,.406-.91L21,3.31v-.9l.119.053a.5.5,0,0,0,.406-.91L21,1.321V1.137a.141.141,0,0,1,.14-.14h2.64a.141.141,0,0,1,.14.14v.185l-.525.234a.5.5,0,1,0,.406.91l.119-.053v.9l-.525.234a.5.5,0,1,0,.406.91l.119-.053v.9l-.525.234a.5.5,0,1,0,.406.91l.119-.053v.9l-.525.234a.5.5,0,1,0,.406.91l.119-.053v.106a.141.141,0,0,1-.141.141Zm1.815-2.645h-.679V3.642h.679V5.979Zm1-.855V4.5h5.434v.627ZM23.776,33h-2.64a.141.141,0,0,1-.14-.14v-.106l.119.053a.5.5,0,0,0,.406-.91L21,31.666v-.9l.119.053a.5.5,0,0,0,.406-.91L21,29.678v-.9l.119.053a.5.5,0,1,0,.406-.91L21,27.689v-.9l.119.053a.5.5,0,0,0,.406-.91L21,25.7v-.185a.141.141,0,0,1,.14-.14h2.64a.141.141,0,0,1,.14.14V25.7l-.525.234a.5.5,0,1,0,.406.91l.119-.053v.9l-.525.234a.5.5,0,1,0,.406.91l.119-.053v.9l-.525.234a.5.5,0,1,0,.406.91l.119-.053v.9l-.525.234a.5.5,0,1,0,.406.91l.119-.053v.106A.141.141,0,0,1,23.776,33Zm1.815-2.645h-.679V28.021h.679v2.338Zm21.976-4.983h2.64a.141.141,0,0,1,.14.14V25.7l-.525.234a.5.5,0,1,0,.406.91l.119-.053v.9l-.525.234a.5.5,0,1,0,.406.91l.119-.053v.9l-.525.234a.5.5,0,1,0,.406.91l.119-.053v.9l-.525.234a.5.5,0,1,0,.406.91l.119-.053v.106a.141.141,0,0,1-.14.14h-2.64a.141.141,0,0,1-.14-.14v-.106l.119.053a.5.5,0,1,0,.406-.91l-.525-.234v-.9l.119.053a.5.5,0,1,0,.406-.91l-.525-.234v-.9l.119.053a.5.5,0,1,0,.406-.91l-.525-.234v-.9l.119.053a.5.5,0,1,0,.406-.91l-.525-.234v-.185a.14.14,0,0,1,.14-.14Zm-1.815,2.645h.679v2.338h-.679V28.021Zm-9.538-.141H35.129v-5.4h1.085Zm0-14.8H35.129v-5.4h1.085ZM47.568,1h2.64a.141.141,0,0,1,.14.14v.185l-.525.234a.5.5,0,1,0,.406.91l.119-.053v.9l-.525.234a.5.5,0,1,0,.406.91l.119-.053v.9l-.525.234a.5.5,0,1,0,.406.91l.119-.053v.9l-.525.234a.5.5,0,1,0,.406.91l.119-.053v.106a.141.141,0,0,1-.14.14h-2.64a.141.141,0,0,1-.14-.14V8.377l.119.053a.5.5,0,0,0,.406-.91l-.525-.234v-.9l.119.053a.5.5,0,1,0,.406-.91L47.427,5.3V4.4l.119.053a.5.5,0,1,0,.406-.91l-.525-.234v-.9l.119.053a.5.5,0,0,0,.406-.91l-.525-.234V1.137a.14.14,0,0,1,.14-.14ZM39.322,5.124V4.5h5.434v.627Zm6.43.855V3.641h.679V5.979Z" 
    transform="translate(0)" fill="#E0BA22"/>
    <path id="Path_275" data-name="Path 275" d="M243.384,261.192h.746a.5.5,0,0,0,0-1h-.746a.5.5,0,0,0,0,1Z" transform="translate(-208.085 -242.917)" fill="#E0BA22"/>
    <path id="Path_276" data-name="Path 276" d="M243.384,285.019h.746a.5.5,0,0,0,0-1h-.746a.5.5,0,0,0,0,1Z" transform="translate(-208.085 -265.162)" fill="#E0BA22"/>
    <path id="Path_277" data-name="Path 277" d="M241.729,58.186a.5.5,0,0,0,.5.5h.9a.5.5,0,0,0,0-1h-.9A.5.5,0,0,0,241.729,58.186Z" transform="translate(-207.005 -53.857)" fill="#E0BA22"/>
  </g>
</svg>