<svg xmlns="http://www.w3.org/2000/svg" width="21.5" height="26" viewBox="0 0 21.5 26">
  <path id="Vector" d="M16.012.013c.056.063.375,1.763-1.2,3.949a4.824,4.824,0,0,1-4.093,2.044,5.115,5.115,0,0,1,1.452-4.088,5.414,5.414,0,0,1,3.845-1.9Zm5.481,19.066a7.707,7.707,0,0,1-.782,2.083c-1.512,2.761-2.807,4.123-3.7,4.482a3.8,3.8,0,0,1-2.732.171,7.547,7.547,0,0,0-2.947-.876,6.874,6.874,0,0,0-2.921.767A3.527,3.527,0,0,1,5.362,25.6a11.057,11.057,0,0,1-2.744-3.086A16.444,16.444,0,0,1,.513,17.968c-.4-1.186-.968-5,.111-7.41a6.537,6.537,0,0,1,3.43-3.635A5.681,5.681,0,0,1,7.07,6.39C8.742,6.622,10.3,7.5,10.819,7.47s2.415-.761,3.255-.986A4.957,4.957,0,0,1,16.148,6.3,6.189,6.189,0,0,1,18.733,7a6.109,6.109,0,0,1,2.074,1.88A5.656,5.656,0,0,0,18,13.518c-.351,3.555,3.415,5.4,3.495,5.561Z" transform="translate(0 0)" fill="#fff"/>
</svg>
