<svg id="Category_Dollar_Circle_Bold_Component_Additional_Icons" data-name="Category=Dollar Circle Bold, Component=Additional Icons" xmlns="http://www.w3.org/2000/svg" width="32" height="32" viewBox="0 0 32 32">
  <rect id="Category_Dollar_Circle_Bold_Component_Additional_Icons-2" data-name="Category=Dollar Circle Bold, Component=Additional Icons" width="32" height="32" fill="none"/>
  <path id="Vector" d="M26.667,13.333A13.333,13.333,0,1,1,13.333,0,13.348,13.348,0,0,1,26.667,13.333Zm-8,2.667c0-1.493-.693-4-5.333-4-2.667,0-2.667-.835-2.667-1.333,0-.645.935-1.333,2.667-1.333,1.58,0,1.848.851,1.867,1.357l1.333-.024h1.333a4,4,0,0,0-3.2-3.839V5.349H12V6.78c-2.628.441-4,2.169-4,3.887,0,1.493.693,4,5.333,4C16,14.667,16,15.568,16,16c0,.553-.827,1.333-2.667,1.333-2.455,0-2.652-1.143-2.667-1.333H8c0,1.224.881,3.4,4,3.893v1.44h2.667V19.887c2.628-.441,4-2.169,4-3.887Z" transform="translate(2.667 2.667)" fill="#febb1b"/>
</svg>
