<svg xmlns="http://www.w3.org/2000/svg" width="26" height="25.892" viewBox="0 0 26 25.892">
  <g id="Group_350" data-name="Group 350" transform="translate(451 -98.349)">
    <path id="Path_129" data-name="Path 129" d="M-438,98.349a13,13,0,0,0-13,13,12.992,12.992,0,0,0,10.832,12.8V114.061H-443.3v-3.632h3.136v-2.678c0-3.107,1.9-4.8,4.67-4.8a25.883,25.883,0,0,1,2.8.143v3.248h-1.923c-1.507,0-1.8.716-1.8,1.767v2.318h3.6l-.469,3.632h-3.128v10.181A13,13,0,0,0-425,111.345,13,13,0,0,0-438,98.349Z" transform="translate(0)" fill="#000"/>
  </g>
</svg>