<svg id="Frame" xmlns="http://www.w3.org/2000/svg" width="41.166" height="32" viewBox="0 0 41.166 32">
  <rect id="Frame-2" data-name="Frame" width="41.166" height="32" fill="none"/>
  <path id="Vector" d="M5.4,4.73H4.589V2.859c0-.565-.247-.882-.741-.882a.781.781,0,0,0-.812.882V4.73H2.295V2.859c0-.565-.247-.882-.741-.882s-.812.283-.812.882V4.73H0V1.341H.741v.424a1.14,1.14,0,0,1,.988-.494,1.234,1.234,0,0,1,1.129.6,1.393,1.393,0,0,1,1.2-.6A1.242,1.242,0,0,1,5.4,2.612V4.73ZM16.379,1.341v.671h-1.2V3.53c0,.353.141.565.494.565a1.161,1.161,0,0,0,.635-.177l.212.635A1.975,1.975,0,0,1,15.6,4.8c-.847,0-1.165-.459-1.165-1.235V2.012h-.671V1.341h.671V.318h.741V1.341h1.2Zm6.284-.071a2.325,2.325,0,0,1,.494.035l-.212.706a2.071,2.071,0,0,0-.459-.071c-.459,0-.706.318-.706.882V4.73h-.741V1.341h.741v.424a1,1,0,0,1,.882-.494Zm-9.5.353-.318.6a2.543,2.543,0,0,0-1.059-.282c-.388,0-.635.141-.635.388,0,.212.247.282.565.318l.353.035c.706.106,1.165.424,1.165,1.024,0,.635-.565,1.094-1.553,1.094a2.5,2.5,0,0,1-1.447-.424l.353-.565a1.95,1.95,0,0,0,1.13.353c.494,0,.777-.177.777-.424,0-.177-.212-.283-.6-.353l-.353-.035c-.741-.106-1.165-.424-1.165-.988,0-.671.565-1.094,1.412-1.094a2.423,2.423,0,0,1,1.377.353Zm19.7-.353a2.325,2.325,0,0,1,.494.035l-.212.706a2.071,2.071,0,0,0-.459-.071c-.459,0-.706.318-.706.882V4.73h-.741V1.341h.741v.424a1,1,0,0,1,.883-.494Zm-7.66,0a1.756,1.756,0,0,1,1.2.388l-.353.6a1.426,1.426,0,0,0-.882-.318,1.041,1.041,0,0,0-1.024,1.094A1,1,0,0,0,25.169,4.13a1.426,1.426,0,0,0,.882-.318l.353.6a1.756,1.756,0,0,1-1.2.388,1.7,1.7,0,0,1-1.8-1.765A1.7,1.7,0,0,1,25.2,1.271Zm5.048,1.765V4.73h-.741V4.307a1.188,1.188,0,0,1-1.059.494,1.69,1.69,0,0,1-1.694-1.765,1.69,1.69,0,0,1,1.694-1.765,1.276,1.276,0,0,1,1.059.494V1.341h.741V3.036Zm-2.718,0a1.026,1.026,0,1,0,2.048,0,1.026,1.026,0,1,0-2.048,0Zm-8.86-1.765a1.559,1.559,0,0,1,1.553,1.8v.282H17.721a.953.953,0,0,0,1.024.812,1.687,1.687,0,0,0,.988-.353l.353.53a2.16,2.16,0,0,1-1.377.459,1.658,1.658,0,0,1-1.73-1.765,1.65,1.65,0,0,1,1.695-1.765Zm-.918,1.447h1.765a.826.826,0,0,0-.847-.812.894.894,0,0,0-.918.812Zm19.309.318V4.73h-.741V4.307a1.188,1.188,0,0,1-1.059.494,1.69,1.69,0,0,1-1.694-1.765,1.69,1.69,0,0,1,1.694-1.765,1.276,1.276,0,0,1,1.059.494V0h.741V3.036Zm-2.718,0a1.026,1.026,0,1,0,2.047,0,1.026,1.026,0,1,0-2.047,0Zm-24.781,0V4.73H8.825V4.307A1.188,1.188,0,0,1,7.766,4.8,1.69,1.69,0,0,1,6.072,3.036,1.69,1.69,0,0,1,7.766,1.271a1.276,1.276,0,0,1,1.059.494V1.341h.741V3.036Zm-2.753,0a1.026,1.026,0,1,0,2.048,0,1.026,1.026,0,1,0-2.048,0Z" transform="translate(2.083 27.111)" fill="#fff"/>
  <path id="Vector-2" data-name="Vector" d="M0,0H11.12V19.98H0Z" transform="translate(15.003 2.718)" fill="#ff5f00"/>
  <path id="Vector-3" data-name="Vector" d="M15.709,12.708a12.689,12.689,0,0,0,4.836,9.99A12.7,12.7,0,1,1,12.708,0a12.629,12.629,0,0,1,7.836,2.718,12.742,12.742,0,0,0-4.836,9.99Z" fill="#eb001b"/>
  <path id="Vector-4" data-name="Vector" d="M20.545,12.708A12.695,12.695,0,0,1,0,22.7a12.636,12.636,0,0,0,4.836-9.99A12.742,12.742,0,0,0,0,2.718a12.695,12.695,0,0,1,20.545,9.99Z" transform="translate(20.58)" fill="#f79e1b"/>
</svg>
