<svg id="Iconly_Bold_Wallet" data-name="Iconly/Bold/Wallet" xmlns="http://www.w3.org/2000/svg" width="32" height="32" viewBox="0 0 32 32">
  <rect id="Iconly_Bold_Wallet-2" data-name="Iconly/Bold/Wallet" width="32" height="32" fill="none"/>
  <g id="Group">
    <path id="Exclude" d="M22.02,28H9.979A7.518,7.518,0,0,1,4.6,26.118a7.094,7.094,0,0,1-1.932-5.236V11.118A7.094,7.094,0,0,1,4.6,5.882,7.518,7.518,0,0,1,9.979,4H22.02A7.494,7.494,0,0,1,27.4,5.889a7.186,7.186,0,0,1,1.932,5.286H23.692v.047a4.623,4.623,0,1,0,0,9.244h5.642v.416A7.093,7.093,0,0,1,27.4,26.118,7.52,7.52,0,0,1,22.02,28ZM8.984,9.188a.994.994,0,1,0,0,1.987H16.51a.994.994,0,1,0,0-1.987Zm19.354,9.291H23.761a2.8,2.8,0,0,1-2.748-2.127,2.64,2.64,0,0,1,.578-2.2,2.78,2.78,0,0,1,2.1-.986h4.646a.985.985,0,0,1,1,.97v3.374A.991.991,0,0,1,28.337,18.479Zm-4.455-3.756a1.017,1.017,0,0,0-.709.284.975.975,0,0,0-.3.7,1.021,1.021,0,0,0,1.019,1.005h.438a.994.994,0,1,0,0-1.987h-.449Z" fill="#febb1b"/>
  </g>
</svg>
