<svg xmlns="http://www.w3.org/2000/svg" width="618.442" height="400" viewBox="0 0 618.442 400">
  <g id="Mocard_12" data-name="Mocard 12" transform="translate(119 109)">
    <rect id="Mocard_12-2" data-name="Mocard 12" width="380" height="239" rx="24" fill="#febb1b"/>
    <g id="Group" opacity="0.5">
      <g id="Group-2" data-name="Group">
        <path id="Vector" d="M0,0,128.306,76.37V205.5L0,128.437Z" transform="translate(242.831 -32.361)" fill="#fff" opacity="0.1"/>
        <path id="Vector-2" data-name="Vector" d="M0,0,128.3-76.29V-205.283L0-128.3Z" transform="translate(498.993 -32.284) rotate(180)" fill="#fff" opacity="0.2"/>
        <path id="Vector-3" data-name="Vector" d="M0,77.062,128.306,0,256.611,77.062v.576L128.306,154.7,0,77.638Z" transform="translate(242.831 -109)" fill="#fff" opacity="0.3"/>
      </g>
      <g id="Group-3" data-name="Group">
        <path id="Vector-4" data-name="Vector" d="M0,0,128.306,76.37V205.5L0,128.437Z" transform="translate(-119 40.893)" fill="#fff" opacity="0.1"/>
        <path id="Vector-5" data-name="Vector" d="M0,0,128.3-76.29V-205.283L0-128.3Z" transform="translate(137.162 40.971) rotate(180)" fill="#fff" opacity="0.2"/>
        <path id="Vector-6" data-name="Vector" d="M0,77.062,128.306,0,256.611,77.062v.576L128.306,154.7,0,77.638Z" transform="translate(-119 -35.746)" fill="#fff" opacity="0.3"/>
      </g>
      <g id="Group-4" data-name="Group">
        <path id="Vector-7" data-name="Vector" d="M0,0,53.5,31.843V85.684L0,53.552Z" transform="translate(189.111 -0.239)" fill="#fff" opacity="0.1"/>
        <path id="Vector-8" data-name="Vector" d="M0,0,53.5-31.81V-85.594L0-53.5Z" transform="translate(295.919 -0.207) rotate(180)" fill="#fff" opacity="0.2"/>
        <path id="Vector-9" data-name="Vector" d="M0,32.131,53.5,0,107,32.131v.24L53.5,64.5,0,32.372Z" transform="translate(189.111 -32.194)" fill="#fff" opacity="0.3"/>
      </g>
      <g id="Group-5" data-name="Group">
        <path id="Vector-10" data-name="Vector" d="M0,0,53.5,31.843V85.684L0,53.552Z" transform="translate(233.951 205.316)" fill="#fff" opacity="0.1"/>
        <path id="Vector-11" data-name="Vector" d="M0,0,53.5-31.81V-85.594L0-53.5Z" transform="translate(340.759 205.348) rotate(180)" fill="#fff" opacity="0.2"/>
        <path id="Vector-12" data-name="Vector" d="M0,32.131,53.5,0,107,32.131v.24L53.5,64.5,0,32.372Z" transform="translate(233.951 173.361)" fill="#fff" opacity="0.3"/>
      </g>
    </g>
    <g id="Auto_Layout_Vertical" data-name="Auto Layout Vertical" transform="translate(290 30)">
      <rect id="Auto_Layout_Vertical-2" data-name="Auto Layout Vertical" width="60" height="179" fill="none"/>
      <path id="Exclude" d="M24.243,17.992A23.409,23.409,0,0,1,8.6,12.007a.338.338,0,0,1-.123-.369.263.263,0,0,1,.255-.164.453.453,0,0,1,.228.069A31.923,31.923,0,0,0,24.7,15.7h.036a31.348,31.348,0,0,0,12.036-2.447.682.682,0,0,1,.262-.055.491.491,0,0,1,.481.317.5.5,0,0,1-.237.553A22.864,22.864,0,0,1,24.37,17.992ZM37.955,16.7h0a.173.173,0,0,1-.15-.071.276.276,0,0,1,0-.256c.41-1.011,1.371-3.377.92-3.955-.173-.222-.683-.334-1.515-.334a23.208,23.208,0,0,0-2.5.191l-.061.007a.52.52,0,0,1-.061,0c-.116,0-.2-.045-.221-.124-.033-.107.043-.244.2-.35a6.409,6.409,0,0,1,3.54-.96,3.619,3.619,0,0,1,2.109.438c.386.476-.087,3.727-1.975,5.288A.47.47,0,0,1,37.955,16.7ZM46.8,10.624a3.725,3.725,0,0,1-3.107-1.546,6.336,6.336,0,0,1-1.075-3.744A6.148,6.148,0,0,1,43.7,1.606,3.735,3.735,0,0,1,46.8.089,3.834,3.834,0,0,1,49.582,1.2a5.9,5.9,0,0,1,1.47,4.24A5.941,5.941,0,0,1,49.9,9.115,3.83,3.83,0,0,1,46.8,10.624Zm.094-8.6-.079,0c-1.291,0-1.457,1.609-1.457,3.01v.036a10.072,10.072,0,0,0,.18,2.238c.216.9.641,1.359,1.263,1.359a1.164,1.164,0,0,0,.857-.341,4.307,4.307,0,0,0,.652-2.87,8.673,8.673,0,0,0-.278-2.516,1.162,1.162,0,0,0-1.138-.921ZM3,10.568c-.072,0-.144,0-.216-.006A2.636,2.636,0,0,1,0,7.679,3.139,3.139,0,0,1,1.985,4.662a10.436,10.436,0,0,1,2.931-.583c.2-.021.386-.04.567-.061V3.78a2.349,2.349,0,0,0-.225-1.336A1.263,1.263,0,0,0,4.8,2.075a1.234,1.234,0,0,0-.522-.114H4.216c-.038,0-.077,0-.115,0A1.413,1.413,0,0,0,2.72,3.072a.4.4,0,0,1-.1.222A.391.391,0,0,1,2.4,3.41L.59,3.218a.332.332,0,0,1-.124-.045.323.323,0,0,1-.1-.089.351.351,0,0,1-.053-.122.343.343,0,0,1,0-.132C.805.278,3.387,0,4.474,0q.081,0,.162,0A4.252,4.252,0,0,1,7.276.923,3.537,3.537,0,0,1,8.095,3.81c0,.1,0,.194,0,.291V6.982a2.518,2.518,0,0,0,.7,1.713.345.345,0,0,1,.076.113.369.369,0,0,1,.025.133.337.337,0,0,1-.028.132.341.341,0,0,1-.076.112c-.409.336-1.132.97-1.425,1.227l-.005,0a.392.392,0,0,1-.214.089l-.036,0a.384.384,0,0,1-.189-.049A4.432,4.432,0,0,1,5.853,9.218a3.714,3.714,0,0,1-1.372,1.04A3.668,3.668,0,0,1,3,10.568ZM5.468,5.5c-1.849,0-2.748.607-2.748,1.857,0,.827.435,1.341,1.131,1.341a1.5,1.5,0,0,0,1.286-.839A3.583,3.583,0,0,0,5.486,5.9V5.5H5.468Zm21.908,5.069c-.07,0-.142,0-.212-.006a2.636,2.636,0,0,1-2.782-2.886,3.143,3.143,0,0,1,1.984-3.018,10.421,10.421,0,0,1,2.942-.583c.194-.02.378-.039.553-.059V3.78a2.332,2.332,0,0,0-.228-1.336,1.262,1.262,0,0,0-.462-.368,1.241,1.241,0,0,0-.518-.114l-.061,0c-.038,0-.077,0-.115,0A1.409,1.409,0,0,0,27.1,3.072a.391.391,0,0,1-.326.338l-1.8-.193a.321.321,0,0,1-.126-.043.331.331,0,0,1-.1-.09.355.355,0,0,1-.053-.122.331.331,0,0,1,0-.133C25.177.278,27.763,0,28.853,0q.081,0,.161,0a4.258,4.258,0,0,1,2.639.922,3.543,3.543,0,0,1,.822,2.894c0,.1,0,.191,0,.286V6.982a2.527,2.527,0,0,0,.7,1.713.355.355,0,0,1,.074.113.354.354,0,0,1,0,.265.359.359,0,0,1-.077.112c-.351.29-.967.827-1.423,1.227h0l0,0a.391.391,0,0,1-.213.089l-.039,0a.4.4,0,0,1-.187-.048,4.468,4.468,0,0,1-1.066-1.233,3.723,3.723,0,0,1-1.373,1.04A3.654,3.654,0,0,1,27.375,10.568ZM29.842,5.5c-1.85,0-2.75.607-2.75,1.857,0,.827.437,1.341,1.136,1.341a1.508,1.508,0,0,0,1.283-.839,3.579,3.579,0,0,0,.349-1.96V5.5h-.019Zm29.889,4.935h0l-1.868,0a.36.36,0,0,1-.217-.093.35.35,0,0,1-.111-.208V4.979c0-.082,0-.166,0-.253A3.033,3.033,0,0,0,57.118,2.7a1.006,1.006,0,0,0-.745-.276,1.216,1.216,0,0,0-1.077.759,4.149,4.149,0,0,0-.3,1.8v5.1a.371.371,0,0,1-.031.135.357.357,0,0,1-.08.112.347.347,0,0,1-.117.074.353.353,0,0,1-.128.023H52.786a.353.353,0,0,1-.237-.105.357.357,0,0,1-.1-.239l0-9.488A.351.351,0,0,1,52.8.29H54.53a.357.357,0,0,1,.333.267V2.005h.03A2.523,2.523,0,0,1,57.426.091l.117,0A2.452,2.452,0,0,1,59.6,1.211a5.959,5.959,0,0,1,.487,2.948v5.976a.367.367,0,0,1-.125.216A.36.36,0,0,1,59.731,10.434ZM22.4,10.427H20.543a.356.356,0,0,1-.335-.344V5.054a11.9,11.9,0,0,0-.051-1.778.967.967,0,0,0-1.093-.816,1.233,1.233,0,0,0-1.111.778,5.692,5.692,0,0,0-.172,1.817v5.028a.36.36,0,0,1-.03.134.356.356,0,0,1-.079.113.343.343,0,0,1-.115.073.347.347,0,0,1-.128.024H15.565a.354.354,0,0,1-.235-.105.349.349,0,0,1-.1-.239V5.054c0-.106,0-.217,0-.331a2.941,2.941,0,0,0-.4-2,1.017,1.017,0,0,0-.756-.278,1.1,1.1,0,0,0-.812.3A3.277,3.277,0,0,0,12.8,4.929v5.155a.379.379,0,0,1-.031.134.355.355,0,0,1-.323.209H10.579a.343.343,0,0,1-.332-.312V.63A.341.341,0,0,1,10.276.5a.332.332,0,0,1,.078-.112.349.349,0,0,1,.116-.074A.357.357,0,0,1,10.6.288h1.74a.348.348,0,0,1,.337.319V1.844h.032a2.471,2.471,0,0,1,.924-1.3,2.43,2.43,0,0,1,1.428-.46l.1,0a2.456,2.456,0,0,1,2.413,1.756A2.757,2.757,0,0,1,20.138.087a2.755,2.755,0,0,1,2.153,1.038,4.1,4.1,0,0,1,.473,2.529c0,.147,0,.3,0,.444l0,5.985a.343.343,0,0,1-.03.134.364.364,0,0,1-.079.113.353.353,0,0,1-.115.073A.349.349,0,0,1,22.4,10.427Zm12.3-.242h0a.355.355,0,0,1-.318-.343l0-1.375a1.63,1.63,0,0,1,.223-.931l3.669-5.23H35.069a.328.328,0,0,1-.116-.021.311.311,0,0,1-.115-.073.337.337,0,0,1-.077-.112.345.345,0,0,1-.025-.134V.608a.34.34,0,0,1,.023-.133.335.335,0,0,1,.313-.211H41.2a.353.353,0,0,1,.122.022.36.36,0,0,1,.115.074.342.342,0,0,1,.077.114.324.324,0,0,1,.025.134V1.77a1.926,1.926,0,0,1-.462.852L37.91,7.115c.141-.008.266-.011.382-.011a6.806,6.806,0,0,1,3.1.754.62.62,0,0,1,.328.526V9.833a.329.329,0,0,1-.036.157.339.339,0,0,1-.105.121.332.332,0,0,1-.15.056l-.036,0a.327.327,0,0,1-.123-.025,7.1,7.1,0,0,0-3.216-.774h-.011a7.106,7.106,0,0,0-3.225.783A.25.25,0,0,1,34.7,10.184Z" fill="#fff"/>
      <g id="Group-6" data-name="Group">
        <path id="Vector-13" data-name="Vector" d="M0,18.026A18.026,18.026,0,1,1,18.026,36.052,18.026,18.026,0,0,1,0,18.026Z" transform="translate(22.433 142.948)" fill="#fff" opacity="0.4"/>
        <path id="Vector-14" data-name="Vector" d="M0,18.026A18.026,18.026,0,1,1,18.026,36.052,18.026,18.026,0,0,1,0,18.026Z" transform="translate(0 142.948)" fill="#fff" opacity="0.859"/>
      </g>
    </g>
    <g id="Auto_Layout_Vertical-3" data-name="Auto Layout Vertical" transform="translate(30 30)">
      <text id="Mocard" transform="translate(0 2)" fill="#fff" font-size="16" font-family="SegoeUI-Bold, Segoe UI" font-weight="700" letter-spacing="0.013em"><tspan x="0" y="17">Mocar</tspan><tspan x="0" y="39">d</tspan></text>
      <text id="_" data-name="•••• •••• •••• ••••" transform="translate(0 74)" fill="#fff" font-size="48" font-family="SegoeUI-Bold, Segoe UI" font-weight="700"><tspan x="0" y="52">•••• •••• </tspan><tspan x="0" y="109">•••• ••••</tspan></text>
      <g id="Auto_Layout_Horizontal" data-name="Auto Layout Horizontal" transform="translate(0 144)">
        <g id="Auto_Layout_Vertical-4" data-name="Auto Layout Vertical">
          <text id="Card_Holder_name" data-name="Card Holder name" fill="#fff" font-size="10" font-family="SegoeUI, Segoe UI" letter-spacing="0.02em"><tspan x="0" y="11">Card Holder name</tspan></text>
          <text id="_2" data-name="•••• ••••" transform="translate(0 24)" fill="#fff" font-size="14" font-family="SegoeUI, Segoe UI" letter-spacing="0.014em"><tspan x="0" y="15">•••• </tspan><tspan x="0" y="34">••••</tspan></text>
        </g>
        <g id="Auto_Layout_Vertical-5" data-name="Auto Layout Vertical" transform="translate(137.576)">
          <text id="Expiry_date" data-name="Expiry date" fill="#fff" font-size="10" font-family="SegoeUI, Segoe UI" letter-spacing="0.02em"><tspan x="0" y="11">Expiry date</tspan></text>
          <text id="_3" data-name="••••/••••" transform="translate(0 19)" fill="#fff" font-size="14" font-family="SegoeUI, Segoe UI" letter-spacing="0.014em"><tspan x="0" y="15">••••/</tspan><tspan x="0" y="34">••••</tspan></text>
        </g>
      </g>
    </g>
  </g>
</svg>
