<svg xmlns="http://www.w3.org/2000/svg" width="114.249" height="32" viewBox="0 0 114.249 32">
  <g id="Auto_Layout_Horizontal" data-name="Auto Layout Horizontal" transform="translate(0.249 0)">
    <rect id="Auto_Layout_Horizontal-2" data-name="Auto Layout Horizontal" width="114" height="32" fill="none"/>
    <g id="Union">
      <path id="Vector" d="M4.962,19.361H0L3.1,0H8.065Z" transform="translate(21.331 6.351)" fill="#fff" fill-rule="evenodd"/>
      <path id="Vector-2" data-name="Vector" d="M14.884.824h0L14.209,5,13.76,4.8a8.367,8.367,0,0,0-3.7-.741c-1.959,0-2.837.844-2.858,1.668,0,.906,1.063,1.5,2.8,2.39,2.859,1.38,4.185,3.069,4.165,5.273C14.129,17.4,10.74,20,5.534,20A14.983,14.983,0,0,1,0,18.97l.694-4.346.653.309A9.8,9.8,0,0,0,6,15.963c1.429,0,2.96-.6,2.98-1.895,0-.845-.653-1.463-2.572-2.41C4.532,10.73,2.021,9.186,2.062,6.405,2.083,2.636,5.534,0,10.433,0a12.133,12.133,0,0,1,4.45.824Z" transform="translate(29.395 6)" fill="#fff" fill-rule="evenodd"/>
      <path id="Exclude" d="M48.4,25.713H43.2L50.566,7.958a2.432,2.432,0,0,1,2.594-1.606H57l4,19.36H56.406c-.006-.031-.457-2.26-.592-2.9h-6.37c-.184.515-1.041,2.9-1.041,2.9Zm5.106-14.126c-.149.433-.363,1.03-.5,1.425-.12.335-.15.42-.15.426-.016.043-1.579,4.322-1.98,5.416H55c-.193-.914-1.046-5.119-1.143-5.6v-.006Z" fill="#fff"/>
      <path id="Vector-3" data-name="Vector" d="M12.25,0H17.5L9.7,19.34H4.451L0,2.409a14.784,14.784,0,0,1,6.86,8.115L7.391,13.2Z" transform="translate(4.936 6.351)" fill="#fff" fill-rule="evenodd"/>
      <path id="Vector-4" data-name="Vector" d="M8.065,0A2.055,2.055,0,0,1,10.31,1.627l1.735,8.9C10.351,5.871,6.227,2,0,.391L.082,0H8.065Z" transform="translate(-0.249 6.351)" fill="#fff" fill-rule="evenodd"/>
    </g>
    <g id="Frame" transform="translate(73)">
      <rect id="Frame-2" data-name="Frame" width="41" height="32" fill="none"/>
      <path id="Vector-5" data-name="Vector" d="M5.379,4.73H4.571V2.859c0-.565-.246-.882-.738-.882a.78.78,0,0,0-.808.882V4.73H2.285V2.859c0-.565-.246-.882-.738-.882s-.809.283-.809.882V4.73H0V1.341H.738v.424a1.134,1.134,0,0,1,.984-.494,1.228,1.228,0,0,1,1.125.6,1.385,1.385,0,0,1,1.2-.6A1.24,1.24,0,0,1,5.379,2.612V4.73ZM16.313,1.341v.671h-1.2V3.53c0,.353.141.565.492.565a1.153,1.153,0,0,0,.633-.177l.211.635a1.961,1.961,0,0,1-.914.247c-.844,0-1.16-.459-1.16-1.235V2.012h-.668V1.341h.668V.318h.738V1.341h1.2Zm6.258-.071a2.306,2.306,0,0,1,.492.035l-.211.706a2.055,2.055,0,0,0-.457-.071c-.457,0-.7.318-.7.882V4.73h-.738V1.341h.738v.424a.991.991,0,0,1,.879-.494Zm-9.458.353-.316.6a2.525,2.525,0,0,0-1.055-.282c-.387,0-.633.141-.633.388,0,.212.246.282.562.318l.352.035c.7.106,1.16.424,1.16,1.024,0,.635-.563,1.094-1.547,1.094A2.479,2.479,0,0,1,10.2,4.377l.352-.565a1.937,1.937,0,0,0,1.125.353c.492,0,.774-.177.774-.424,0-.177-.211-.283-.6-.353L11.5,3.354c-.738-.106-1.16-.424-1.16-.988,0-.671.562-1.094,1.406-1.094a2.406,2.406,0,0,1,1.371.353Zm19.618-.353a2.306,2.306,0,0,1,.492.035l-.211.706a2.055,2.055,0,0,0-.457-.071c-.457,0-.7.318-.7.882V4.73h-.738V1.341h.738v.424a.991.991,0,0,1,.879-.494Zm-7.629,0a1.744,1.744,0,0,1,1.2.388l-.352.6a1.416,1.416,0,0,0-.879-.318,1.04,1.04,0,0,0-1.02,1.094,1,1,0,0,0,1.02,1.094,1.417,1.417,0,0,0,.879-.318l.352.6a1.745,1.745,0,0,1-1.2.388A1.692,1.692,0,0,1,23.31,3.036,1.692,1.692,0,0,1,25.1,1.271Zm5.028,1.765V4.73h-.738V4.307a1.182,1.182,0,0,1-1.055.494A1.687,1.687,0,0,1,26.65,3.036a1.687,1.687,0,0,1,1.688-1.765,1.269,1.269,0,0,1,1.055.494V1.341h.738V3.036Zm-2.707,0a1.022,1.022,0,1,0,2.039,0,1.022,1.022,0,1,0-2.039,0ZM18.6,1.271a1.557,1.557,0,0,1,1.547,1.8v.282h-2.5a.95.95,0,0,0,1.02.812,1.676,1.676,0,0,0,.984-.353l.352.53a2.146,2.146,0,0,1-1.371.459,1.655,1.655,0,0,1-1.723-1.765A1.647,1.647,0,0,1,18.6,1.271Zm-.914,1.447h1.758a.824.824,0,0,0-.844-.812A.892.892,0,0,0,17.685,2.718Zm19.232.318V4.73h-.738V4.307a1.181,1.181,0,0,1-1.055.494,1.687,1.687,0,0,1-1.688-1.765,1.687,1.687,0,0,1,1.688-1.765,1.269,1.269,0,0,1,1.055.494V0h.738V3.036Zm-2.707,0a1.022,1.022,0,1,0,2.039,0,1.022,1.022,0,1,0-2.039,0Zm-24.681,0V4.73H8.79V4.307A1.181,1.181,0,0,1,7.735,4.8,1.687,1.687,0,0,1,6.047,3.036,1.687,1.687,0,0,1,7.735,1.271a1.269,1.269,0,0,1,1.055.494V1.341h.738V3.036Zm-2.742,0a1.022,1.022,0,1,0,2.039,0,1.022,1.022,0,1,0-2.039,0Z" transform="translate(2.074 27.111)" fill="#fff"/>
      <path id="Vector-6" data-name="Vector" d="M0,0H11.075V19.98H0Z" transform="translate(14.942 2.718)" fill="#ff5f00"/>
      <path id="Vector-7" data-name="Vector" d="M15.646,12.708a12.708,12.708,0,0,0,4.817,9.99,12.547,12.547,0,0,1-7.805,2.718A12.708,12.708,0,0,1,12.657,0a12.547,12.547,0,0,1,7.8,2.718A12.761,12.761,0,0,0,15.646,12.708Z" fill="#eb001b"/>
      <path id="Vector-8" data-name="Vector" d="M20.462,12.708A12.675,12.675,0,0,1,7.805,25.416,12.547,12.547,0,0,1,0,22.7a12.654,12.654,0,0,0,4.817-9.99A12.761,12.761,0,0,0,0,2.718,12.547,12.547,0,0,1,7.805,0,12.7,12.7,0,0,1,20.462,12.708Z" transform="translate(20.497)" fill="#f79e1b"/>
    </g>
  </g>
</svg>
